<svg width="18" height="18" viewBox="0 0 18 18" fill="none" xmlns="http://www.w3.org/2000/svg">
<path d="M17.3335 7.65C16.9643 7.65 16.6581 7.956 16.6581 8.325H15.2715C15.1417 7.12101 14.6663 5.98021 13.9028 5.04L14.8843 4.059L14.8933 4.068C15.1544 4.329 15.5866 4.329 15.8478 4.068C16.1089 3.807 16.1089 3.375 15.8478 3.114L14.8933 2.16C14.7662 2.03447 14.5947 1.96407 14.4161 1.96407C14.2374 1.96407 14.0659 2.03447 13.9388 2.16C13.6777 2.421 13.6777 2.844 13.9298 3.105L12.9483 4.086C12.0082 3.32928 10.8707 2.85767 9.67073 2.727V1.35H9.67974C10.0489 1.35 10.3551 1.044 10.3551 0.675C10.3551 0.306 10.0489 0 9.67974 0H8.32907C7.95989 0 7.65374 0.306 7.65374 0.675C7.65374 1.044 7.95089 1.341 8.32007 1.35V2.745C7.08647 2.871 5.96092 3.366 5.04247 4.104L4.06099 3.123L4.06999 3.114C4.33112 2.853 4.33112 2.421 4.06999 2.16C3.9429 2.03447 3.77143 1.96407 3.59276 1.96407C3.41408 1.96407 3.24261 2.03447 3.11552 2.16L2.16106 3.114C1.89993 3.375 1.89993 3.807 2.16106 4.068C2.42218 4.329 2.84539 4.329 3.10652 4.077L4.088 5.058C3.33019 5.99295 2.8609 7.12808 2.73734 8.325H1.35066C1.35066 7.956 1.04451 7.65 0.67533 7.65C0.30615 7.65 0 7.956 0 8.325V9.675C0 10.044 0.30615 10.35 0.67533 10.35C1.04451 10.35 1.35066 10.044 1.35066 9.675H2.73734C2.87241 10.908 3.35864 12.024 4.088 12.942L3.10652 13.923C3.04388 13.8615 2.96972 13.8129 2.88828 13.7801C2.80685 13.7472 2.71973 13.7308 2.63192 13.7316C2.54411 13.7324 2.45733 13.7506 2.37653 13.785C2.29574 13.8193 2.22252 13.8693 2.16106 13.932C1.89993 14.193 1.89993 14.625 2.16106 14.886L3.11552 15.84C3.37665 16.101 3.80886 16.101 4.06999 15.84C4.33112 15.579 4.33112 15.147 4.06999 14.886L4.06099 14.877L5.04247 13.896C5.96092 14.634 7.07746 15.12 8.31107 15.255V16.65C7.94188 16.659 7.64474 16.956 7.64474 17.325C7.64474 17.694 7.95089 18 8.32007 18H9.67073C10.0399 18 10.3461 17.694 10.3461 17.325C10.3461 16.956 10.0399 16.65 9.67073 16.65H9.66173V15.264C10.8953 15.138 12.0209 14.643 12.9393 13.905L13.9208 14.886C13.6597 15.147 13.6687 15.57 13.9298 15.831C14.1909 16.092 14.6232 16.092 14.8843 15.831L15.8387 14.877C16.0999 14.616 16.0999 14.184 15.8387 13.923C15.7117 13.7975 15.5402 13.7271 15.3615 13.7271C15.1828 13.7271 15.0114 13.7975 14.8843 13.923L14.8753 13.932L13.8938 12.951C14.6553 12.0096 15.1303 10.8694 15.2625 9.666H16.6491C16.6491 10.035 16.9553 10.341 17.3245 10.341C17.6937 10.341 17.9998 10.035 17.9998 9.666V8.316C18.0088 7.956 17.7027 7.65 17.3335 7.65ZM10.5802 5.4C11.0754 5.4 11.4806 5.805 11.4806 6.3C11.4806 6.795 11.0754 7.2 10.5802 7.2C10.0849 7.2 9.67974 6.795 9.67974 6.3C9.67974 5.805 10.0849 5.4 10.5802 5.4ZM9.00441 9.9C8.50916 9.9 8.10396 9.495 8.10396 9C8.10396 8.505 8.50916 8.1 9.00441 8.1C9.49965 8.1 9.90485 8.505 9.90485 9C9.90485 9.495 9.49965 9.9 9.00441 9.9ZM7.42863 5.4C7.92388 5.4 8.32907 5.805 8.32907 6.3C8.32907 6.795 7.92388 7.2 7.42863 7.2C6.93339 7.2 6.52819 6.795 6.52819 6.3C6.52819 5.805 6.93339 5.4 7.42863 5.4ZM5.85286 9.9C5.35762 9.9 4.95242 9.495 4.95242 9C4.95242 8.505 5.35762 8.1 5.85286 8.1C6.34811 8.1 6.7533 8.505 6.7533 9C6.7533 9.495 6.34811 9.9 5.85286 9.9ZM7.42863 12.6C6.93339 12.6 6.52819 12.195 6.52819 11.7C6.52819 11.205 6.93339 10.8 7.42863 10.8C7.92388 10.8 8.32907 11.205 8.32907 11.7C8.32907 12.195 7.92388 12.6 7.42863 12.6ZM10.5802 12.6C10.0849 12.6 9.67974 12.195 9.67974 11.7C9.67974 11.205 10.0849 10.8 10.5802 10.8C11.0754 10.8 11.4806 11.205 11.4806 11.7C11.4806 12.195 11.0754 12.6 10.5802 12.6ZM11.2555 9C11.2555 8.505 11.6607 8.1 12.1559 8.1C12.6512 8.1 13.0564 8.505 13.0564 9C13.0564 9.495 12.6512 9.9 12.1559 9.9C11.6607 9.9 11.2555 9.495 11.2555 9Z" fill="#E54545"/>
</svg>
