<svg width="102" height="63" viewBox="0 0 102 63" fill="none" xmlns="http://www.w3.org/2000/svg">
<path d="M50.442 6.23794C49.7317 6.1035 47.1371 5.2017 46.8058 4.01371C46.5095 2.9514 48.1207 0.820871 50.442 0.266181C52.7632 -0.288508 56.3884 -0.121913 56.3884 2.18501C56.3884 2.83699 55.9882 3.16824 55.6446 3.45269C55.4244 3.6349 55.2275 3.79791 55.1738 4.01371C55.0069 4.6844 55.0891 5.15792 55.1447 5.4779C55.1725 5.63756 55.1936 5.75899 55.1738 5.84761C54.9236 6.96677 51.05 6.35303 50.442 6.23794Z" fill="#7222F5" fill-opacity="0.32"/>
<path d="M85.6196 42.3266C83.5132 44.5911 83.5282 47.307 83.5429 49.9841C83.5597 53.0159 83.5761 55.998 80.5104 58.218C74.7377 62.3983 64.9752 61.2589 63.3278 55.8992C60.485 46.6504 51.5836 41.9872 42.5662 37.2632C35.587 33.607 28.5384 29.9144 24.1755 24.0312C16.1482 13.2066 26.2777 2.78685 36.2073 2.73915C40.5577 2.71826 42.521 3.74779 44.6102 4.84337C46.0873 5.61797 47.6274 6.42559 50.1187 6.91832C53.4382 7.57486 57.9714 6.88101 62.9553 6.11819C69.1095 5.17626 75.9509 4.12914 82.0427 5.38946C90.9552 7.23335 104.227 14.5416 101.681 26.3033C100.132 33.4603 97.2904 34.8632 93.6175 36.6762C91.2544 37.8427 88.5474 39.179 85.6196 42.3266Z" fill="#7222F5" fill-opacity="0.32"/>
<path d="M49.8942 56.9594C50.194 57.221 50.5212 57.4512 50.8479 57.6811C51.3038 58.0019 51.7589 58.3222 52.1382 58.7266C52.5723 59.1894 52.9012 59.7544 53.2274 60.3149C53.739 61.1939 54.2441 62.0616 55.1381 62.5066C55.7664 62.8194 56.4921 62.8634 57.1949 62.8912C57.7902 62.9147 58.4183 62.9235 58.9408 62.6403C59.6247 62.2695 59.9674 61.4784 60.0846 60.7157C60.1417 60.3437 60.157 59.9671 60.1723 59.5905C60.1884 59.1952 60.2045 58.7999 60.2689 58.4099C60.3391 57.9857 60.4658 57.5624 60.5922 57.1405C60.8539 56.2666 61.1137 55.3989 60.8643 54.5434C60.5765 53.5556 59.6825 52.8796 58.8415 52.2757C57.1474 51.0593 55.4418 49.836 53.5561 48.9366C52.7798 48.5663 51.9615 48.249 51.1028 48.1762C50.2441 48.1034 49.3338 48.2995 48.6813 48.8565C47.6793 49.7118 47.5012 51.1897 47.6698 52.4883C47.8884 54.1722 48.6073 55.8363 49.8942 56.9594Z" fill="#7222F5" fill-opacity="0.32"/>
<path d="M25.4688 25.9703C25.8725 26.3685 26.5432 26.2298 27.0906 26.0722C29.5864 25.3539 32.1362 24.8193 34.7119 24.4743C34.7905 24.3505 34.6946 24.1772 34.5587 24.1198C34.4229 24.0623 34.2676 24.0865 34.1221 24.1119C31.2146 24.6194 28.3272 25.2395 25.4688 25.9703Z" fill="white"/>
<path d="M28.6211 21.5315C27.3668 21.8456 26.0585 21.9471 24.7701 21.8305C24.5022 21.8062 24.1695 21.804 24.04 22.0372C24.9565 22.4789 26.0378 22.3734 27.0421 22.1999C30.2885 21.639 33.3937 20.4798 36.4763 19.3269C41.1932 17.5628 46.8057 18.3794 50.8093 21.4125C50.9297 21.4232 51.0104 21.2717 50.9767 21.1569C50.9429 21.042 50.8397 20.9628 50.7416 20.8928C47.891 18.8591 44.3427 17.8012 40.8308 17.9381C40.1622 17.9641 39.4939 18.0323 38.8406 18.1754C38.1909 18.3178 37.5602 18.5332 36.9312 18.7483C34.7783 19.4842 32.6254 20.2201 30.4725 20.9561C29.8609 21.1651 29.2484 21.3745 28.6211 21.5315Z" fill="white"/>
<path d="M74.3867 5.81386C74.0907 6.10485 73.5415 5.9038 73.3462 5.53901C73.151 5.17422 73.202 4.73397 73.2581 4.32493C73.054 4.62715 72.8443 4.9354 72.5506 5.15384C72.257 5.37229 71.8584 5.48776 71.5154 5.35755C71.0192 5.16919 70.8283 4.52645 70.9882 4.02506C71.1481 3.52367 71.5633 3.14556 71.9909 2.83331C72.1004 2.75338 72.0696 2.56978 71.9649 2.48391C71.8601 2.39805 71.7144 2.38455 71.5784 2.38067C69.9484 2.33424 68.3232 3.20662 67.4741 4.58383C67.3511 4.78336 67.5604 5.04691 67.7927 5.0896C68.0249 5.13229 68.2576 5.04012 68.4888 4.99212C68.72 4.94412 69.0009 4.9587 69.1389 5.14837C69.3066 5.37878 69.1597 5.69201 69.1038 5.97049C69.048 6.24897 69.2568 6.64438 69.5148 6.52018C69.9879 6.29255 70.6229 6.48336 70.888 6.93279C71.1531 7.38222 71.0086 8.02299 70.5756 8.31839C70.4053 8.43453 70.4975 8.7331 70.692 8.80266C70.8864 8.87223 71.1035 8.77698 71.2633 8.64704C71.423 8.5171 71.5529 8.351 71.7273 8.24103C72.0613 8.03037 72.5392 8.07859 72.8234 8.35165C73.1076 8.6247 73.1702 9.09579 72.9671 9.43229C72.8173 9.68052 73.2208 9.93214 73.4994 9.84487C73.7781 9.7576 73.9961 9.51751 74.284 9.46795C74.6976 9.39678 75.0815 9.76818 75.1751 10.173C75.2687 10.5778 75.1514 10.9978 75.0349 11.3968C74.9768 11.5958 75.2141 11.7812 75.4219 11.7555C75.6297 11.7297 75.7928 11.5714 75.9294 11.4144C76.8027 10.4105 77.2831 9.0804 77.2504 7.75637C77.2463 7.59195 77.2296 7.41486 77.121 7.29037C77.0123 7.16588 76.7797 7.13987 76.6931 7.28021C76.37 7.80317 75.7867 8.20365 75.1683 8.1671C74.5499 8.13054 73.9733 7.55252 74.0731 6.94765C74.154 6.45649 74.6037 6.11451 74.8258 5.66799C74.774 5.48638 74.522 5.68082 74.3867 5.81386V5.81386Z" fill="white"/>
<path d="M66.4374 12.1387C66.7936 11.8013 67.3808 11.8101 67.8195 12.0329C68.2582 12.2557 68.58 12.6482 68.8774 13.0374C69.2379 11.5535 68.8719 9.91378 67.9134 8.71792C67.7888 8.56252 67.4837 8.44927 67.4444 8.64375C67.3245 9.23856 66.9726 9.83935 66.3915 10.033C65.8105 10.2266 65.0433 9.79812 65.0878 9.19319C65.1133 8.8468 65.3199 8.37858 64.9995 8.23662C64.8563 8.48244 64.7035 8.73828 64.4595 8.88742C64.2156 9.03656 63.852 9.03544 63.6805 8.80798C63.5599 8.64791 63.5633 8.42392 63.4553 8.2553C63.3472 8.08667 63.0075 8.06678 63.0036 8.26639C62.9918 8.86151 62.868 9.60844 62.2878 9.76607C61.885 9.8755 61.4617 9.6059 61.2372 9.2574C61.0127 8.90889 60.931 8.49232 60.8011 8.09959C60.7836 8.04687 60.7631 7.99134 60.7185 7.95763C60.6001 7.86797 60.4406 7.99421 60.3479 8.10975C59.5585 9.0932 58.7452 10.1256 58.4873 11.3552C58.4513 11.5268 58.4298 11.7176 58.5231 11.8665C58.6164 12.0155 58.8698 12.0667 58.9652 11.9191C59.2017 11.5527 59.6658 11.3445 60.1003 11.4097C60.5347 11.475 60.9154 11.8103 61.0312 12.2296C61.0753 12.3889 61.3127 12.4067 61.4508 12.3138C61.5889 12.2209 61.6685 12.0649 61.7877 11.9492C62.1579 11.5902 62.8999 11.8051 63.0158 12.305C63.0596 12.4938 63.0258 12.6937 63.0678 12.8829C63.1098 13.0722 63.2786 13.2637 63.4698 13.2214C63.7527 13.1588 63.7082 12.7576 63.7292 12.4715C63.7616 12.0287 64.1664 11.6435 64.615 11.6285C65.0635 11.6135 65.4936 11.9709 65.5561 12.4106C65.5833 12.6017 65.8622 12.6497 66.0298 12.5508C66.1973 12.4519 66.2965 12.2722 66.4374 12.1387H66.4374Z" fill="white"/>
<path fill-rule="evenodd" clip-rule="evenodd" d="M93.4711 27.3631C93.5209 26.9289 93.4964 26.4522 93.22 26.1108C92.9436 25.7694 92.343 25.6697 92.0689 26.0129C91.4816 26.7487 90.3402 26.9854 89.5026 26.5451C89.4557 25.511 89.4089 24.4768 89.362 23.4426C89.355 23.2869 89.3505 23.1205 89.4333 22.9878C89.5045 22.8734 89.6288 22.8035 89.7478 22.7384C90.6397 22.2507 91.5316 21.763 92.4235 21.2752C92.7147 21.116 93.0945 20.9615 93.3555 21.1654C93.7126 21.4445 94.2877 21.1491 94.4299 20.722C94.572 20.2948 94.4128 19.8299 94.2207 19.4222C93.9521 18.8523 93.5483 18.2636 92.9261 18.1296C92.3039 17.9957 91.5662 18.6609 91.8761 19.2101C92.1407 19.6791 91.6164 20.1897 91.1578 20.4783C90.6207 20.8162 90.0836 21.1542 89.5465 21.4921C89.2335 21.6891 88.7478 21.8535 88.5542 21.5409C87.5434 19.9091 85.8124 18.7296 83.9083 18.3752C83.7699 18.3494 83.6147 18.3178 83.5379 18.2013C83.4753 18.1064 83.4852 17.9836 83.4974 17.871C83.6273 16.6694 83.7573 15.4678 83.8872 14.2662C83.9198 13.9649 84.0179 13.5903 84.3206 13.5397C85.0649 13.4151 85.2675 12.3293 84.7967 11.7469C84.3259 11.1644 83.5 11.0045 82.7454 10.9861C82.0543 10.9693 81.2926 11.0692 80.8257 11.5724C80.3588 12.0756 80.4677 13.0781 81.1381 13.2447C81.8705 13.4267 81.9595 14.4062 81.8904 15.1485C81.8122 15.9885 81.734 16.8285 81.6559 17.6685C81.6163 18.094 81.4605 18.6378 81.0283 18.6609C79.4737 18.744 77.9567 19.3945 76.8343 20.4594C76.6745 20.611 76.4969 20.7818 76.2752 20.7821C76.1425 20.7822 76.0191 20.7194 75.9018 20.6581C75.2523 20.3189 74.6028 19.9797 73.9533 19.6404C73.5218 19.4151 73.0156 18.9771 73.2469 18.5527C73.5474 18.001 72.8006 17.3496 72.1832 17.4943C71.5657 17.6389 71.1748 18.2334 70.9188 18.8066C70.759 19.1643 70.6236 19.5557 70.6952 19.9402C70.7669 20.3247 71.1149 20.6838 71.5086 20.641C72.7624 20.5046 73.9659 21.0986 75.0837 21.6754C75.3979 21.8376 75.7663 22.1666 75.5815 22.4653C74.6367 23.9923 74.461 25.9588 75.1204 27.6255C75.2706 28.0052 74.8843 28.3685 74.5439 28.5995C73.7663 29.1272 72.9887 29.6549 72.2111 30.1826C71.7596 30.489 71.0735 30.7681 70.7372 30.3412C70.4037 29.9178 69.6382 30.1403 69.4091 30.6265C69.1799 31.1127 69.3428 31.6919 69.593 32.1678C69.9195 32.7888 70.3911 33.3349 70.9606 33.7514C71.3877 34.0637 72.0792 34.2617 72.3819 33.8304C72.7656 33.2838 72.0499 32.3253 72.602 31.9441C73.6088 31.2488 74.6157 30.5535 75.6226 29.8581C75.8704 29.687 76.2468 29.5294 76.4359 29.7623C77.3011 30.828 78.4854 31.6381 79.8002 32.0633C79.9789 32.121 80.0065 32.3552 80.0016 32.5406C79.9765 33.4939 79.8094 34.6588 78.9088 35.004C78.4143 35.1936 78.3743 35.9361 78.7218 36.3317C79.0692 36.7274 79.6329 36.8514 80.1594 36.915C80.5871 36.9667 81.0478 36.9872 81.4208 36.7743C81.7939 36.5613 82.0076 36.0309 81.7445 35.694C81.1577 34.9425 81.412 33.8686 81.6931 32.9612C81.7283 32.8475 81.7667 32.7287 81.8534 32.6462C81.992 32.5144 82.2072 32.5147 82.3997 32.5142C83.6497 32.5108 84.8957 32.1161 85.9143 31.401C86.3255 31.1124 86.8509 31.5531 87.1541 31.9513C87.5443 32.464 87.9346 32.9767 88.3249 33.4893C88.4972 33.7156 88.6741 33.9517 88.733 34.2287C88.7919 34.5057 88.6972 34.8362 88.4409 34.9633C87.8828 35.2401 88.1221 36.1795 88.7024 36.4074C89.2828 36.6352 89.9353 36.3878 90.4935 36.1111C90.9425 35.8884 91.3909 35.6369 91.7167 35.2593C92.0426 34.8817 92.2277 34.3524 92.077 33.8793C91.9262 33.4062 91.3715 33.059 90.9003 33.2312C90.6678 33.3162 90.4392 33.1093 90.2791 32.9223C89.5254 32.0417 88.7717 31.1611 88.018 30.2805C87.9445 30.1946 87.867 30.0983 87.8682 29.986C87.8702 29.7821 88.1086 29.6789 88.2561 29.5362C88.4555 29.3432 88.4979 29.0457 88.6281 28.8018C89.0556 28.0005 90.2036 28.0136 91.1123 28.1391C91.3004 28.1651 91.5233 28.2178 91.5863 28.3946C91.7521 28.8601 92.4446 28.952 92.8493 28.6624C93.254 28.3728 93.4149 27.8534 93.4711 27.3631Z" fill="white"/>
<path fill-rule="evenodd" clip-rule="evenodd" d="M45.3026 40.1641C45.6057 40.3304 45.5994 40.7565 45.5525 41.0962C45.3842 42.315 45.216 43.5338 45.0477 44.7526C44.9999 45.0983 44.9481 45.4557 44.7615 45.7518C44.5748 46.0479 44.2142 46.2667 43.8726 46.1796C43.3465 46.0456 42.8027 46.5356 42.7645 47.0717C42.7263 47.6077 43.0851 48.1122 43.5459 48.3968C44.0067 48.6815 44.5559 48.7853 45.0935 48.8628C45.8234 48.968 46.6362 49.0151 47.2287 48.5804C47.8212 48.1457 47.8942 47.0489 47.2061 46.7859C46.8688 46.6569 46.8587 46.195 46.908 45.8406C47.1184 44.3265 47.3289 42.8124 47.5394 41.2983C47.583 40.9846 47.7395 40.5785 48.057 40.6185C49.4445 40.7936 50.8794 40.5853 52.1576 40.0233C52.4774 39.8827 52.8276 40.1237 53.0926 40.35C53.5814 40.7673 54.0782 41.1938 54.4166 41.7378C54.755 42.2818 54.916 42.9722 54.6826 43.5678C54.5232 43.9747 54.9374 44.4239 55.3765 44.4662C55.8156 44.5086 56.2305 44.2745 56.5918 44.0241C56.9824 43.7532 57.3696 43.4295 57.5276 42.9842C57.6856 42.5389 57.5204 41.9515 57.0717 41.791C55.6739 41.2908 54.4893 40.2325 53.8444 38.9076C55.2142 37.7302 56.312 36.2449 57.0307 34.5966C58.4383 34.696 59.8458 34.7954 61.2533 34.8948C61.82 34.9349 62.534 35.0996 62.6261 35.6542C62.7539 36.4236 63.9115 36.6224 64.5192 36.1259C65.127 35.6295 65.2806 34.7752 65.3006 33.9958C65.3185 33.3008 65.231 32.5335 64.7197 32.0566C64.2084 31.5797 63.1649 31.6902 63.01 32.3683C62.9436 32.659 62.5561 32.7168 62.2548 32.7119C60.7613 32.6877 59.2678 32.6636 57.7743 32.6395C57.5917 32.6365 57.3938 32.6283 57.2527 32.5137C57.1241 32.4092 57.0728 32.2404 57.0281 32.0818C56.7852 31.2205 56.5423 30.3592 56.2994 29.4979C56.2476 29.314 56.1954 29.1205 56.24 28.9348C56.2962 28.7006 56.4928 28.5291 56.6789 28.374C57.2429 27.9035 57.9405 27.4014 58.6503 27.6003C59.5409 27.8498 60.5163 26.8792 60.2589 25.9997C60.0015 25.1201 58.6529 24.8151 58.0348 25.4967C57.3598 26.241 56.6151 26.9234 55.8135 27.5325C55.7525 27.5789 55.6863 27.6267 55.6096 27.6315C55.4995 27.6384 55.4065 27.5566 55.3277 27.4802C54.342 26.5256 53.3563 25.571 52.3705 24.6163C52.2632 24.5124 52.1519 24.4021 52.1083 24.2599C52.0634 24.1135 52.0972 23.9562 52.1312 23.807C52.252 23.2767 52.3728 22.7464 52.4936 22.2161C52.6062 21.7219 52.8293 21.1244 53.3385 21.0709C54.0125 20.9999 54.1712 19.9696 53.688 19.4993C53.2048 19.0289 52.4352 19.0165 51.768 19.1353C51.4621 19.1898 51.1435 19.2743 50.9242 19.4923C50.7049 19.7103 50.633 20.1001 50.8487 20.3215C51.1873 20.6692 51.1104 21.2281 51.0106 21.7007C50.8399 22.5089 50.6691 23.3171 50.4984 24.1253C50.4647 24.2851 50.38 24.4854 50.2155 24.4723C47.8289 24.2823 45.3883 24.8154 43.3044 25.9818C43.0046 26.1497 42.6534 25.8821 42.4161 25.6351C41.6208 24.8072 40.8254 23.9792 40.0301 23.1513C39.6476 22.7531 39.2371 22.198 39.4876 21.7079C39.7685 21.1583 39.2154 20.4752 38.5973 20.4016C37.9793 20.3279 37.3906 20.6671 36.8969 21.0421C36.2153 21.5599 35.5654 22.2648 35.553 23.1149C35.5406 23.965 36.5355 24.7879 37.2636 24.3362C37.7466 24.0365 38.3464 24.4571 38.7543 24.8511C39.5325 25.6027 40.3106 26.3544 41.0888 27.106C41.3111 27.3207 41.5502 27.6402 41.3887 27.9027C40.4446 29.4374 39.9085 31.2154 39.8486 33.011C39.8418 33.2163 39.5879 33.306 39.3835 33.3425C38.1998 33.5541 37.016 33.7657 35.8323 33.9773C35.5955 34.0196 35.2814 34.0223 35.1943 33.8005C34.9348 33.1396 33.8091 33.3661 33.5315 34.0197C33.2539 34.6733 33.53 35.4155 33.8046 36.0703C34.0122 36.5654 34.2598 37.1032 34.7509 37.3296C35.242 37.556 35.9898 37.1863 35.8729 36.6629C35.7768 36.2326 36.333 35.973 36.7691 35.8828C37.9512 35.6383 39.1333 35.3937 40.3155 35.1492C41.4462 37.2471 43.2006 39.0113 45.3026 40.1641Z" fill="white"/>
<path fill-rule="evenodd" clip-rule="evenodd" d="M2.57361 38.267C4.99397 38.9582 7.61919 38.2868 10.1333 37.9004C13.7024 37.3518 17.4709 37.4059 20.8573 38.5024C26.4743 40.3212 32.9476 40.1756 38.4414 38.107C37.8729 37.8547 37.1842 38.0584 36.5801 38.2429C31.5556 39.7773 25.8701 39.7179 20.8923 38.079C16.5126 36.6371 11.5922 37.1851 6.98984 37.9977C5.0172 38.346 2.90384 38.0984 1.11896 37.3098C1.36125 37.804 1.97239 38.0953 2.57361 38.267Z" fill="#00160A"/>
<path fill-rule="evenodd" clip-rule="evenodd" d="M28.6211 21.2317C27.3668 21.5457 26.0585 21.6473 24.7701 21.5307C24.5022 21.5064 24.1695 21.5042 24.04 21.7374C24.9565 22.1791 26.0378 22.0736 27.0421 21.9001C30.2885 21.3392 33.3937 20.18 36.4763 19.0271C41.1932 17.263 46.8057 18.0796 50.8093 21.1127C50.9297 21.1234 51.0104 20.9719 50.9767 20.857C50.9429 20.7422 50.8397 20.663 50.7416 20.593C47.891 18.5593 44.3427 17.5014 40.8308 17.6383C40.1622 17.6643 39.4939 17.7325 38.8406 17.8756C38.1909 18.018 37.5602 18.2334 36.9312 18.4484C34.7783 19.1844 32.6254 19.9203 30.4725 20.6562C29.8609 20.8653 29.2484 21.0746 28.6211 21.2317Z" fill="#00160A"/>
<path fill-rule="evenodd" clip-rule="evenodd" d="M66.7402 11.8389C67.0963 11.5015 67.6835 11.5103 68.1222 11.7331C68.5609 11.9559 68.8828 12.3484 69.1801 12.7376C69.5406 11.2537 69.1747 9.61398 68.2161 8.41811C68.0916 8.26272 67.7864 8.14946 67.7472 8.34395C67.6272 8.93876 67.2753 9.53954 66.6942 9.73315C66.1132 9.92676 65.3461 9.49832 65.3905 8.89338C65.416 8.547 65.6226 8.07878 65.3022 7.93681C65.159 8.18264 65.0063 8.43848 64.7623 8.58762C64.5183 8.73675 64.1547 8.73564 63.9833 8.50817C63.8626 8.34811 63.8661 8.12411 63.758 7.95549C63.65 7.78687 63.3102 7.76698 63.3063 7.96658C63.2945 8.56171 63.1708 9.30864 62.5905 9.46626C62.1877 9.57569 61.7644 9.3061 61.5399 8.95759C61.3155 8.60909 61.2338 8.19252 61.1038 7.79978C61.0864 7.74707 61.0658 7.69154 61.0213 7.65783C60.9028 7.56816 60.7434 7.69441 60.6506 7.80995C59.8612 8.79339 59.0479 9.8258 58.79 11.0554C58.754 11.227 58.7325 11.4178 58.8258 11.5667C58.9192 11.7157 59.1726 11.7669 59.2679 11.6193C59.5044 11.2529 59.9686 11.0446 60.403 11.1099C60.8374 11.1752 61.2181 11.5105 61.334 11.9298C61.378 12.0891 61.6154 12.1069 61.7535 12.014C61.8916 11.9211 61.9712 11.7651 62.0905 11.6494C62.4606 11.2904 63.2026 11.5053 63.3185 12.0052C63.3623 12.194 63.3285 12.3939 63.3705 12.5831C63.4125 12.7724 63.5813 12.9639 63.7725 12.9216C64.0555 12.859 64.011 12.4578 64.0319 12.1717C64.0644 11.7289 64.4692 11.3437 64.9177 11.3287C65.3662 11.3137 65.7963 11.6711 65.8589 12.1108C65.8861 12.3019 66.1649 12.3499 66.3325 12.251C66.5001 12.1521 66.5992 11.9724 66.7402 11.8389L66.7402 11.8389Z" fill="#00160A"/>
<path fill-rule="evenodd" clip-rule="evenodd" d="M74.9941 5.66396C74.6982 5.95495 74.149 5.7539 73.9537 5.38911C73.7584 5.02432 73.8094 4.58406 73.8655 4.17503C73.6615 4.47725 73.4517 4.7855 73.1581 5.00394C72.8644 5.22239 72.4658 5.33786 72.1228 5.20764C71.6266 5.01928 71.4358 4.37655 71.5957 3.87516C71.7556 3.37377 72.1708 2.99565 72.5983 2.68341C72.7078 2.60348 72.6771 2.41987 72.5723 2.33401C72.4675 2.24815 72.3218 2.23465 72.1858 2.23077C70.5558 2.18433 68.9306 3.05672 68.0815 4.43393C67.9585 4.63346 68.1678 4.897 68.4001 4.9397C68.6324 4.98239 68.865 4.89022 69.0963 4.84222C69.3275 4.79422 69.6083 4.80879 69.7464 4.99847C69.9141 5.22888 69.7671 5.54211 69.7113 5.82059C69.6554 6.09907 69.8642 6.49447 70.1223 6.37028C70.5953 6.14264 71.2303 6.33345 71.4954 6.78289C71.7605 7.23232 71.616 7.87309 71.183 8.16849C71.0128 8.28463 71.1049 8.5832 71.2994 8.65276C71.4939 8.72233 71.7109 8.62707 71.8707 8.49714C72.0304 8.3672 72.1603 8.2011 72.3347 8.09113C72.6688 7.88047 73.1466 7.92869 73.4308 8.20174C73.715 8.4748 73.7777 8.94589 73.5746 9.28238C73.4247 9.53062 73.8282 9.78223 74.1069 9.69497C74.3855 9.6077 74.6035 9.3676 74.8914 9.31805C75.305 9.24687 75.6889 9.61827 75.7825 10.0231C75.8761 10.4279 75.7588 10.8479 75.6423 11.2469C75.5842 11.4459 75.8215 11.6313 76.0293 11.6056C76.2371 11.5798 76.4002 11.4215 76.5368 11.2645C77.4101 10.2606 77.8905 8.9305 77.8578 7.60647C77.8538 7.44205 77.8371 7.26495 77.7284 7.14046C77.6198 7.01597 77.3872 6.98997 77.3005 7.13031C76.9775 7.65327 76.3941 8.05375 75.7757 8.0172C75.1573 7.98064 74.5807 7.40262 74.6805 6.79775C74.7615 6.30658 75.2111 5.9646 75.4332 5.51809C75.3814 5.33648 75.1294 5.53092 74.9941 5.66396V5.66396Z" fill="#00160A"/>
<path fill-rule="evenodd" clip-rule="evenodd" d="M2.30121 33.5819C1.57996 33.3791 0.863857 33.0653 0.107826 33.122C1.78315 34.2756 4.1062 34.4535 6.24264 34.2674C8.37907 34.0813 10.4801 33.5821 12.6275 33.569C17.3788 33.5399 21.8608 35.882 26.6068 35.6872C27.5631 35.6479 28.5094 35.5053 29.4486 35.3456C30.9061 35.0977 32.354 34.808 33.7891 34.4771C33.6449 34.1563 33.1149 34.1765 32.7251 34.255C31.8268 34.4361 30.9285 34.6172 30.0301 34.7982C29.1441 34.9769 28.2552 35.1559 27.35 35.2377C22.2301 35.7008 17.3239 33.042 12.1776 33.1625C8.85401 33.2403 5.46105 34.4702 2.30121 33.5819V33.5819Z" fill="#00160A"/>
<path fill-rule="evenodd" clip-rule="evenodd" d="M12.2519 62.7095C12.1498 62.7859 12.2328 62.9661 12.3578 62.9935C12.4828 63.021 12.607 62.9533 12.7168 62.8882C12.6224 62.7508 12.4293 62.6892 12.2716 62.7464L12.2519 62.7095Z" fill="#00160A"/>
<path fill-rule="evenodd" clip-rule="evenodd" d="M15.432 19.0164C16.1104 19.1954 16.7508 19.4902 17.3956 19.7653C19.2133 20.5408 21.0949 21.1699 23.0156 21.6442C22.9833 21.1709 22.3797 21.0045 21.9079 20.9199C20.3005 20.6317 18.8217 19.8857 17.3095 19.2743C15.7973 18.6628 14.1587 18.174 12.547 18.438C10.1329 18.8336 7.68139 19.0053 5.23502 18.9503C5.62969 19.2606 6.15149 19.3593 6.65394 19.4004C9.59032 19.6405 12.5851 18.2652 15.432 19.0164Z" fill="#00160A"/>
<path fill-rule="evenodd" clip-rule="evenodd" d="M25.4688 25.67C25.8725 26.0682 26.5432 25.9295 27.0906 25.772C29.5864 25.0536 32.1362 24.519 34.7119 24.174C34.7905 24.0503 34.6946 23.8769 34.5587 23.8195C34.4229 23.762 34.2676 23.7862 34.1221 23.8116C31.2146 24.3191 28.3272 24.9392 25.4688 25.67Z" fill="#00160A"/>
<path fill-rule="evenodd" clip-rule="evenodd" d="M3.80645 24.703C3.45319 24.7198 3.09943 24.723 2.74577 24.7262C3.01726 25.161 3.64015 25.1815 4.15399 25.1285C7.45262 24.7883 10.65 23.5105 13.9645 23.626C17.4506 23.7474 20.6958 25.3973 24.1422 25.9307C24.2808 25.7117 23.9616 25.4936 23.7096 25.4255C22.0599 24.9798 20.4103 24.534 18.7606 24.0883C17.2832 23.6891 15.792 23.2876 14.2627 23.206C10.737 23.0181 7.33317 24.5349 3.80645 24.703Z" fill="#00160A"/>
<path fill-rule="evenodd" clip-rule="evenodd" d="M32.9227 28.5885L32.6785 28.6549C29.9952 29.388 27.145 30.617 25.529 30.7064C22.2839 30.886 19.2964 29.7688 16.0804 29.2174C12.5387 28.6101 8.91616 29.1654 5.32204 29.2826L5.12953 29.2884C3.58967 29.3317 1.97487 29.2699 0.62698 28.54L0.546429 28.4954C0.365025 28.3927 0.0736694 28.3116 -0.000595093 28.5048C1.08567 29.2683 2.43382 29.5932 3.76377 29.6748C5.09371 29.7565 6.42555 29.6116 7.75473 29.5186C8.5299 29.4643 9.30619 29.4277 10.0827 29.3975L10.471 29.3828C12.1023 29.3231 13.7436 29.2835 15.3597 29.5115C17.3023 29.7854 19.1669 30.4396 21.0784 30.8784C22.9733 31.3133 24.9896 31.5301 26.8433 30.9515C29.1239 30.3299 31.2131 29.3111 33.5771 28.9239C36.0695 28.5157 38.7732 28.5199 41.0343 29.4491C41.2665 29.1696 40.8145 28.8487 40.4231 28.7253C38.0611 27.9808 35.5809 27.8703 32.9227 28.5885Z" fill="#00160A"/>
<path fill-rule="evenodd" clip-rule="evenodd" d="M92.0589 25.5829C92.3241 25.25 92.9053 25.3467 93.1728 25.6779C93.4403 26.009 93.464 26.4714 93.4159 26.8926C93.3615 27.3681 93.2058 27.8719 92.8141 28.1528C92.4224 28.4337 91.7522 28.3446 91.5918 27.8931C91.5308 27.7215 91.3151 27.6705 91.1331 27.6453C90.2537 27.5235 89.1426 27.5107 88.7289 28.288C88.6842 28.3719 88.6502 28.4623 88.6163 28.5525C88.5547 28.7165 88.4934 28.8795 88.3689 29.0003C88.329 29.039 88.2823 29.0747 88.2356 29.1103C88.1151 29.2023 87.9949 29.2941 87.9934 29.4366C87.9923 29.5456 88.0673 29.639 88.1384 29.7222L90.3267 32.2847C90.4816 32.4661 90.7028 32.6668 90.9279 32.5844C91.3839 32.4173 91.9208 32.7541 92.0667 33.213C92.2126 33.6719 92.0334 34.1853 91.718 34.5515C91.4027 34.9177 90.9687 35.1618 90.5342 35.3777C89.994 35.6461 89.3625 35.8861 88.8008 35.6651C88.2392 35.4441 88.0076 34.5329 88.5477 34.2644C88.7957 34.1411 88.8875 33.8206 88.8304 33.5519C88.7734 33.2832 88.6022 33.0542 88.4355 32.8347L87.3023 31.3429C87.009 30.9567 86.5005 30.5292 86.1026 30.8092C85.1167 31.5028 83.9109 31.8855 82.7011 31.8889L82.6974 31.8889C82.5121 31.8894 82.3057 31.8899 82.1724 32.017C82.0885 32.0969 82.0514 32.2122 82.0173 32.3224C81.7453 33.2026 81.4991 34.2442 82.0671 34.9732C82.3217 35.2999 82.1149 35.8144 81.7538 36.021C81.3928 36.2275 80.947 36.2076 80.533 36.1575C80.0235 36.0958 79.478 35.9755 79.1417 35.5917C78.8055 35.208 78.8442 34.4878 79.3227 34.3039C80.1943 33.969 80.356 32.8391 80.3803 31.9145C80.3851 31.7346 80.3583 31.5075 80.1855 31.4515C78.913 31.0391 77.7668 30.2534 76.9295 29.2197C76.7465 28.9938 76.3822 29.1466 76.1424 29.3126L73.2191 31.3359C72.935 31.5325 72.9978 31.8874 73.0631 32.2564C73.1206 32.5814 73.18 32.9173 73.0061 33.1656C72.7132 33.5839 72.044 33.3918 71.6306 33.0889C71.0795 32.6849 70.623 32.1553 70.3071 31.5529C70.0649 31.0912 69.9073 30.5295 70.1291 30.0579C70.3508 29.5863 71.0917 29.3705 71.4144 29.7811C71.7399 30.1952 72.4039 29.9245 72.8408 29.6273L75.0985 28.0918C75.4278 27.8678 75.8017 27.5154 75.6563 27.147C75.0182 25.5304 75.1883 23.623 76.1026 22.1419C76.2815 21.8521 75.925 21.533 75.6208 21.3757C74.5391 20.8162 73.3743 20.2401 72.161 20.3723C71.7799 20.4139 71.4432 20.0656 71.3738 19.6926C71.3044 19.3197 71.4355 18.9401 71.5901 18.5931C71.8379 18.0371 72.2162 17.4605 72.8138 17.3202C73.4114 17.1798 74.1341 17.8117 73.8432 18.3468C73.6194 18.7585 74.1093 19.1833 74.5269 19.4019L76.4126 20.389C76.5261 20.4484 76.6456 20.5094 76.774 20.5092C76.9862 20.509 77.1566 20.3469 77.31 20.201L77.3151 20.1962C78.4013 19.1633 79.8694 18.5323 81.3739 18.4518C81.7922 18.4294 81.943 17.9019 81.9813 17.4892L82.2083 15.0449C82.2751 14.3248 82.189 13.3748 81.4802 13.1983C80.8314 13.0367 80.726 12.0643 81.1779 11.5762C81.6297 11.0881 82.3669 10.9912 83.0357 11.0075C83.766 11.0254 84.5653 11.1805 85.0209 11.7455C85.4765 12.3104 85.2805 13.3635 84.5602 13.4844C84.2672 13.5335 84.1723 13.8968 84.1408 14.1891L83.7635 17.6856C83.7517 17.7948 83.7421 17.9139 83.8027 18.006C83.877 18.119 84.0273 18.1497 84.1612 18.1746C86.0039 18.5184 87.6792 19.6625 88.6573 21.2452C88.8447 21.5484 89.3148 21.389 89.6177 21.1979L91.1771 20.2145C91.6209 19.9346 92.1284 19.4394 91.8722 18.9844C91.5723 18.4518 92.2862 17.8065 92.8884 17.9365C93.4906 18.0664 93.8813 18.6374 94.1413 19.1902C94.3272 19.5856 94.4813 20.0365 94.3437 20.4509C94.2062 20.8653 93.6496 21.1518 93.3039 20.8811C93.0514 20.6833 92.6838 20.8331 92.402 20.9876L89.8125 22.4068C89.6973 22.4699 89.5771 22.5377 89.5081 22.6486C89.428 22.7774 89.4323 22.9388 89.4392 23.0898L89.5752 26.0991C90.3858 26.5262 91.4905 26.2966 92.0589 25.5829ZM84.1443 12.7266C84.1397 12.7281 84.1351 12.7296 84.1305 12.7311C83.3135 12.995 82.3539 12.7602 81.7554 12.1499L81.5872 12.2528C81.6988 12.5085 81.9615 12.6525 82.2116 12.7896C82.24 12.8051 82.2681 12.8205 82.2959 12.836C82.5688 12.9884 82.8539 13.221 82.8487 13.5309C82.8239 15.002 82.7277 16.4719 82.5602 17.9338C82.5333 18.1693 82.8993 18.3269 83.0551 18.1468C83.1202 18.0716 83.1401 17.9691 83.1571 17.8715C83.3871 16.5495 83.5139 15.2099 83.5361 13.8686C83.5398 13.6431 83.548 13.397 83.6963 13.2258C83.8202 13.0828 84.0091 13.0285 84.198 12.9742C84.3876 12.9198 84.5771 12.8653 84.7007 12.7213C84.5543 12.594 84.3315 12.6661 84.1443 12.7266ZM90.6861 34.8577C91.0082 34.6841 91.327 34.4655 91.4912 34.141C91.6554 33.8165 91.6099 33.3642 91.3052 33.1621C91.1021 33.0274 90.8295 33.0307 90.6003 33.1151C90.371 33.1995 90.1764 33.3549 89.9915 33.5133C89.7094 33.7548 89.439 34.0096 89.1814 34.2766C89.0274 34.4362 88.8677 34.6288 88.8895 34.8483C88.9121 35.0766 89.1365 35.2456 89.3659 35.279C89.5953 35.3124 89.8262 35.24 90.0419 35.1557C90.2625 35.0696 90.4778 34.9699 90.6861 34.8577ZM72.4631 32.9889C72.6839 32.1541 72.3522 31.2028 71.6581 30.6802C71.4519 30.525 71.1655 30.4051 70.9411 30.5333C70.7703 30.6309 70.6983 30.848 70.7228 31.0417C70.7472 31.2353 70.8503 31.4099 70.9609 31.5715C71.3519 32.1426 71.8679 32.6295 72.4631 32.9889ZM89.8138 32.6696C89.1372 31.754 88.4492 30.8265 87.5505 30.1222C87.4695 30.0587 87.3584 29.9949 87.2703 30.0483C87.147 30.1229 87.2235 30.3103 87.3109 30.4242L89.2102 32.8984C89.2817 32.9915 89.3597 33.0895 89.4714 33.1278C89.7124 33.2104 89.9643 32.8733 89.8138 32.6696ZM76.2017 28.5553C76.2716 28.4277 76.2086 28.2234 76.0619 28.219C75.9953 28.2169 75.9353 28.2555 75.8802 28.2927L72.5045 30.5671C72.4741 30.5876 72.44 30.6159 72.4451 30.6519C72.4495 30.6837 72.4819 30.7056 72.5121 30.7261C72.5472 30.7498 72.5794 30.7716 72.5621 30.8046C72.5252 30.8746 72.5985 30.9614 72.6778 30.97C72.7572 30.9787 72.8322 30.9366 72.9005 30.8956C73.6352 30.4545 74.3406 29.9655 75.0105 29.4328C75.0428 29.4072 75.075 29.3814 75.1073 29.3556C75.3483 29.1627 75.5901 28.9693 75.8609 28.8209C75.8731 28.8141 75.8856 28.8074 75.898 28.8007C76.0159 28.7371 76.1385 28.6708 76.2017 28.5553ZM93.5828 18.9612C93.4406 18.7408 93.2164 18.5497 92.9525 18.5355C92.6887 18.5213 92.4114 18.75 92.4524 19.0083C92.5011 19.3155 92.5529 19.6313 92.7139 19.8984C92.875 20.1655 93.1734 20.3758 93.4858 20.3406C93.7981 20.3055 94.0584 19.9493 93.9208 19.6697C93.879 19.5846 93.8418 19.4972 93.8047 19.4099C93.7391 19.2558 93.6735 19.1018 93.5828 18.9612ZM80.5343 35.6494C80.6722 35.6839 80.8101 35.7184 80.9518 35.7249C81.2286 35.7376 81.5539 35.5804 81.5692 35.3066C81.5828 35.0628 81.3502 34.8801 81.1305 34.7686C80.8991 34.6513 80.6436 34.5598 80.3844 34.5803C80.1252 34.6008 79.8638 34.7564 79.7851 35.0016C79.7064 35.2467 79.8762 35.5584 80.1357 35.5749C80.2708 35.5834 80.4026 35.6164 80.5343 35.6494ZM84.4138 11.9745C83.8349 11.444 82.9236 11.3037 82.2091 11.6351C82.1447 11.6649 82.0769 11.7037 82.0521 11.7696C82.0025 11.9015 82.1521 12.0191 82.2834 12.0733C82.9613 12.3532 83.7653 12.316 84.4138 11.9745ZM92.8055 26.0127C92.6051 25.9522 92.4081 26.1189 92.2948 26.2932C92.1201 26.5622 92.0302 26.8844 92.0408 27.204C92.0479 27.4203 92.1352 27.6728 92.347 27.7269C92.5811 27.7866 92.7898 27.5638 92.8927 27.3475C93.0139 27.093 93.077 26.8116 93.076 26.5303C93.0754 26.3219 93.007 26.0736 92.8055 26.0127ZM81.2555 33.4424L81.5259 32.1453C81.5559 32.0013 81.5807 31.8346 81.4857 31.7215C81.3604 31.5724 81.0979 31.6276 80.9755 31.779C80.8531 31.9305 80.8319 32.1362 80.8156 32.3294L80.7061 33.6228C80.7013 33.6792 80.697 33.7385 80.7204 33.7902C80.7787 33.9193 80.9807 33.9197 81.0865 33.8245C81.1923 33.7293 81.2266 33.581 81.2555 33.4424ZM89.5142 21.7547C89.4454 21.8094 89.3738 21.869 89.3455 21.9517C89.3171 22.0344 89.3535 22.1449 89.4395 22.1646C89.4871 22.1754 89.5287 22.1527 89.5732 22.1284C89.5885 22.1201 89.6041 22.1116 89.6204 22.1042C90.3514 21.772 91.4301 21.0426 92.1744 20.5393C92.2133 20.513 92.2513 20.4873 92.2883 20.4623C92.3938 20.3911 92.5132 20.2683 92.4494 20.1588C92.3826 20.044 92.2059 20.0959 92.0903 20.1627C91.9563 20.2402 91.8093 20.3238 91.6546 20.4118C90.9446 20.8156 90.0693 21.3132 89.5142 21.7547ZM73.5601 19.9025L76.3766 21.204C76.4661 21.2453 76.6274 21.2326 76.6001 21.1387C75.7445 20.4993 74.7983 19.9788 73.7978 19.5971C73.7148 19.5655 73.6269 19.5343 73.539 19.5479C73.4512 19.5616 73.3666 19.637 73.3763 19.7244C73.3862 19.8128 73.4787 19.8649 73.5601 19.9025ZM73.3125 17.706C73.215 17.704 73.1976 17.8416 73.2068 17.9377C73.2789 18.6925 72.7913 19.4658 72.0743 19.7336C72.0568 19.8367 72.1671 19.9265 72.2729 19.9275C72.3786 19.9285 72.4741 19.8683 72.5588 19.8057C73.1656 19.3569 73.5832 18.5933 73.4336 17.8586C73.4196 17.7898 73.3834 17.7073 73.3125 17.706ZM72.0697 19.2173C72.4883 19.1291 72.6844 18.6623 72.8135 18.2586C72.8568 18.1235 72.8537 17.9154 72.7107 17.9075C72.6564 17.9044 72.6075 17.938 72.5657 17.9724C72.204 18.2699 72.0104 18.7557 72.0697 19.2173ZM91.1181 26.7793L89.7212 26.777C89.5584 26.7767 89.3364 26.8357 89.3517 26.996C89.9051 27.1257 90.4851 27.1434 91.0455 27.0476C91.1737 27.0257 91.3351 26.8911 91.2363 26.8074C91.2048 26.7807 91.1595 26.7793 91.1181 26.7793ZM82.4842 31.4977C78.813 31.4977 75.8369 28.6098 75.8369 25.0474C75.8369 21.4851 78.813 18.5972 82.4842 18.5972C86.1554 18.5972 89.1315 21.4851 89.1315 25.0474C89.1315 28.6098 86.1554 31.4977 82.4842 31.4977Z" fill="#00160A"/>
<path fill-rule="evenodd" clip-rule="evenodd" d="M46.3123 40.9463C46.144 42.1651 45.9757 43.3839 45.8075 44.6027C45.7597 44.9484 45.7079 45.3058 45.5212 45.6019C45.3346 45.898 44.974 46.1167 44.6324 46.0297C44.1063 45.8957 43.5624 46.3857 43.5243 46.9217C43.4861 47.4578 43.8448 47.9623 44.3057 48.2469C44.7665 48.5315 45.3157 48.6354 45.8533 48.7129C46.5832 48.8181 47.396 48.8652 47.9885 48.4305C48.581 47.9958 48.654 46.899 47.9659 46.6359C47.6286 46.507 47.6185 46.0451 47.6677 45.6907C47.8782 44.1766 48.0887 42.6625 48.2992 41.1484C48.3428 40.8347 48.4993 40.4286 48.8168 40.4686C50.2043 40.6437 51.6392 40.4354 52.9173 39.8734C53.2372 39.7328 53.5874 39.9738 53.8524 40.2001C54.3412 40.6174 54.838 41.0439 55.1764 41.5879C55.5148 42.1319 55.6758 42.8223 55.4424 43.4178C55.2829 43.8248 55.6972 44.274 56.1363 44.3163C56.5754 44.3586 56.9902 44.1246 57.3515 43.8741C57.7422 43.6033 58.1293 43.2796 58.2874 42.8343C58.4454 42.389 58.2801 41.8016 57.8315 41.6411C56.4337 41.1409 55.2491 40.0825 54.6042 38.7576C55.974 37.5803 57.0718 36.095 57.7905 34.4467C59.198 34.5461 60.6055 34.6455 62.013 34.7449C62.5797 34.785 63.2938 34.9497 63.3859 35.5043C63.5137 36.2737 64.6712 36.4725 65.279 35.976C65.8867 35.4796 66.0404 34.6253 66.0604 33.8458C66.0783 33.1509 65.9908 32.3836 65.4795 31.9067C64.9681 31.4298 63.9247 31.5403 63.7697 32.2184C63.7033 32.5091 63.3158 32.5668 63.0146 32.562C61.5211 32.5378 60.0276 32.5137 58.5341 32.4896C58.3515 32.4866 58.1536 32.4784 58.0125 32.3638C57.8839 32.2593 57.8326 32.0905 57.7879 31.9319C57.545 31.0706 57.3021 30.2093 57.0592 29.348C57.0074 29.1641 56.9552 28.9706 56.9998 28.7849C57.056 28.5507 57.2977 28.3284 57.5018 28.1946C57.9031 27.9316 58.237 27.3235 58.7945 27.2394C58.9653 27.2137 59.2439 27.2137 59.3373 27.3303C59.6404 27.7089 60.4046 27.6803 60.7592 27.3826C61.1791 27.0301 61.1582 26.3266 61.0187 25.8498C60.7613 24.9702 59.3803 24.5804 58.7621 25.262C58.661 25.3735 58.7007 25.7411 58.5965 25.8498C58.0051 26.4665 57.2548 26.8648 56.5733 27.3826C56.5123 27.429 56.4461 27.4768 56.3694 27.4816C56.2593 27.4885 56.1663 27.4067 56.0875 27.3303C55.1018 26.3757 54.116 25.4211 53.1303 24.4664C53.023 24.3625 52.9116 24.2522 52.868 24.11C52.8231 23.9636 52.8569 23.8063 52.8909 23.6571C53.0118 23.1268 53.1326 22.5965 53.2534 22.0662C53.366 21.572 53.5891 20.9745 54.0982 20.9209C54.7723 20.85 54.931 19.8197 54.4478 19.3494C53.9646 18.879 53.195 18.8666 52.5278 18.9854C52.2218 19.0399 51.9033 19.1244 51.684 19.3424C51.4646 19.5604 51.3928 19.9502 51.6085 20.1716C51.9471 20.5193 51.8702 21.0782 51.7704 21.5508C51.5996 22.359 51.4289 23.1672 51.2582 23.9754C51.2244 24.1352 51.1398 24.3355 50.9753 24.3224C48.5887 24.1324 46.1481 24.6655 44.0642 25.8319C43.7644 25.9998 43.4132 25.7322 43.1759 25.4852C42.3806 24.6573 41.5852 23.8293 40.7899 23.0014C40.4074 22.6032 39.9968 22.0481 40.2474 21.558C40.5283 21.0084 39.9752 20.3253 39.3571 20.2517C38.7391 20.178 38.1504 20.5172 37.6567 20.8922C36.9751 21.41 36.3252 22.1149 36.3128 22.965C36.3004 23.8151 37.2953 24.638 38.0234 24.1863C38.5064 23.8866 39.1062 24.3072 39.5141 24.7012C40.2922 25.4528 41.0704 26.2044 41.8486 26.9561C42.0709 27.1708 42.31 27.4903 42.1485 27.7528C41.2043 29.2875 40.6683 31.0655 40.6084 32.8611C40.6016 33.0664 40.3476 33.1561 40.1433 33.1926C38.9596 33.4042 37.7758 33.6158 36.592 33.8274C36.3553 33.8697 36.0412 33.8724 35.9541 33.6506C35.6946 32.9897 34.5689 33.2162 34.2913 33.8698C34.0136 34.5234 34.2898 35.2656 34.5644 35.9204C34.772 36.4155 35.0196 36.9533 35.5107 37.1797C36.0018 37.4061 36.7496 37.0364 36.6327 36.513C36.5366 36.0826 37.0928 35.8231 37.5289 35.7329C38.711 35.4884 39.8931 35.2438 41.0753 34.9993C42.206 37.0972 43.9604 38.8614 46.0623 40.0142C46.3655 40.1805 46.3592 40.6066 46.3123 40.9463ZM63.0806 34.0928C62.9547 34.1755 62.7938 34.1792 62.6426 34.1793C61.1493 34.1809 59.656 34.1093 58.1699 33.9649C58.0118 33.9496 57.8907 33.807 57.8506 33.655C57.8105 33.503 57.834 33.3425 57.8578 33.1872C57.8703 33.1058 57.8901 33.0133 57.9625 32.9728C58.0071 32.9479 58.0614 32.9494 58.1126 32.9517C59.7788 33.0239 61.445 33.0962 63.1112 33.1684C63.1625 33.1706 63.2172 33.174 63.2587 33.204C63.3283 33.2543 63.331 33.3544 63.327 33.4396C63.3155 33.681 63.2841 33.959 63.0806 34.0928ZM42.912 26.8336C42.7791 26.9319 42.5726 26.9539 42.4559 26.8372C41.4426 25.8243 40.4293 24.8114 39.416 23.7985C39.3695 23.752 39.3201 23.6993 39.317 23.634C39.314 23.5733 39.3521 23.519 39.3884 23.47C39.5336 23.2743 39.6788 23.0785 39.824 22.8828C39.9045 22.7742 40.0754 22.868 40.1706 22.9642C41.1946 23.9988 42.1919 25.0592 43.1613 26.144C43.1931 26.1796 43.2261 26.2175 43.2357 26.2641C43.2476 26.3223 43.2207 26.3807 43.1945 26.4341C43.1221 26.5818 43.045 26.7353 42.912 26.8336ZM46.1881 45.4215C46.5193 43.8504 46.7344 42.2553 46.8311 40.6532C46.8401 40.5043 47 40.4004 47.1507 40.397C47.3014 40.3936 47.4427 40.4633 47.5768 40.5313C47.6241 40.5553 47.6739 40.5815 47.7007 40.6269C47.7311 40.6783 47.7251 40.7423 47.7181 40.8015C47.5492 42.2392 47.3803 43.6769 47.2113 45.1145C47.174 45.4322 47.0937 45.8083 46.7929 45.9257C46.4931 46.0428 46.1223 45.7337 46.1881 45.4215ZM40.3016 34.6855C39.1596 34.9337 38.0177 35.182 36.8758 35.4302C36.7962 35.4475 36.7086 35.4639 36.6365 35.4262C36.5942 35.404 36.563 35.3657 36.5356 35.3269C36.4132 35.1532 36.3402 34.9366 36.3767 34.7279C36.4133 34.5193 36.5756 34.3268 36.7867 34.2915C37.8282 34.117 38.8697 33.9426 39.9112 33.7682C40.1321 33.7312 40.3633 33.6948 40.5763 33.7634C40.7893 33.832 40.9739 34.042 40.9314 34.2596C40.8801 34.522 40.5655 34.6281 40.3016 34.6855ZM65.4416 32.8508C65.5383 32.9813 65.5788 33.144 65.6038 33.3039C65.7059 33.9573 65.5785 34.6436 65.2484 35.2184C65.1471 35.3949 64.9979 35.5781 64.7929 35.5873C64.6164 35.5953 64.4576 35.4625 64.3848 35.3033C64.312 35.144 64.3085 34.9631 64.314 34.7884C64.3312 34.2408 64.4248 33.6956 64.5914 33.173C64.6628 32.949 64.7856 32.696 65.0196 32.6559C65.1807 32.6282 65.3449 32.7203 65.4416 32.8508ZM38.3626 21.0285C38.5852 20.8912 38.8913 21.1115 38.9319 21.3679C38.9726 21.6242 38.8391 21.8733 38.7028 22.095C38.5313 22.3739 38.3333 22.6586 38.0351 22.7981C37.7368 22.9377 37.3141 22.867 37.1758 22.5707C37.0245 22.2463 37.2765 21.8812 37.5419 21.6389C37.7938 21.4089 38.0717 21.2079 38.3626 21.0285ZM51.8575 23.8199C51.9605 23.0146 52.0989 22.2138 52.272 21.4204C52.3064 21.263 52.364 21.0807 52.5183 21.0297C52.6729 20.9786 52.8416 21.1024 52.8968 21.2541C52.952 21.4058 52.9245 21.5733 52.8948 21.7318C52.7565 22.4692 52.5842 23.2002 52.3787 23.9221C52.3289 24.0969 52.2118 24.3131 52.0323 24.2751C51.8551 24.2376 51.8347 23.9977 51.8575 23.8199ZM47.8721 47.3959C47.9473 47.6087 47.9047 47.875 47.7224 48.0104C47.4415 47.3805 46.8481 46.896 46.1696 46.7426C45.4911 46.5893 44.7438 46.7708 44.2142 47.2176C44.0997 47.3142 43.9133 47.1595 43.9328 47.0118C43.9523 46.8641 44.0873 46.7608 44.2169 46.6849C45.2023 46.1084 46.5388 46.1886 47.4465 46.8788C47.6272 47.0162 47.7968 47.183 47.8721 47.3959ZM54.1566 39.1596C54.3473 39.21 54.4845 39.3702 54.6088 39.5219C55.0977 40.1184 55.5866 40.7149 56.0756 41.3114C56.1422 41.3927 56.2117 41.4809 56.2202 41.5851C56.2288 41.6894 56.1442 41.807 56.0396 41.7913C55.9841 41.783 55.9404 41.7416 55.9008 41.7022C55.2345 41.0399 54.5682 40.3776 53.9019 39.7153C53.8211 39.635 53.7353 39.5439 53.7291 39.4308C53.7185 39.2358 53.9659 39.1092 54.1566 39.1596ZM45.861 47.2656C46.2251 47.3133 46.5901 47.4137 46.891 47.6221C46.9927 47.6926 47.0933 47.7879 47.1025 47.9105C47.1124 48.0414 47.009 48.1605 46.8861 48.2101C46.7633 48.2597 46.6254 48.254 46.4933 48.2409C45.8135 48.1736 45.1527 47.9267 44.5977 47.5325C44.9282 47.2382 45.4202 47.2079 45.861 47.2656ZM37.2358 23.3325C37.819 23.4649 38.4642 23.2901 38.898 22.8823C39.3317 22.4745 39.541 21.8459 39.4371 21.2629C39.4095 21.1081 39.3612 20.9543 39.3694 20.7973C39.6644 21.0142 39.7805 21.412 39.7355 21.7728C39.6906 22.1336 39.5082 22.4635 39.3007 22.7635C39.1516 22.9791 38.9858 23.1865 38.7811 23.3514C38.4051 23.6544 37.902 23.7978 37.4207 23.7394C37.1314 23.7042 36.813 23.558 36.7467 23.2772C36.9075 23.237 37.0741 23.2959 37.2358 23.3325ZM53.6418 20.1498C53.4049 20.1732 53.1632 20.1482 52.9362 20.077C52.7573 20.0209 52.5783 19.9279 52.4833 19.7678C52.3883 19.6077 52.4118 19.3695 52.5725 19.2735C52.6669 19.2172 52.7845 19.2194 52.8943 19.2287C53.1618 19.2514 53.4265 19.3065 53.6807 19.3922C53.8948 19.4644 54.1395 19.6219 54.1047 19.843C54.0739 20.0389 53.8412 20.1302 53.6418 20.1498ZM35.6311 33.9623C35.7658 34.1036 35.8445 34.2873 35.9099 34.4704C36.1195 35.0565 36.2208 35.6804 36.2071 36.302C36.2026 36.5071 36.1191 36.7759 35.9119 36.7677C35.7685 36.762 35.6722 36.6069 35.67 36.465C35.6677 36.3231 35.7301 36.1893 35.7721 36.0536C35.9539 35.4657 35.7463 34.8202 35.4069 34.3053C35.2933 34.1329 35.1631 33.9659 35.1029 33.7689C35.2949 33.7287 35.4964 33.8211 35.6311 33.9623ZM58.2876 26.5414C58.426 26.4307 58.6388 26.3239 58.7624 26.4505C58.8979 26.5894 58.7443 26.8115 58.5967 26.9377C58.0628 27.3944 57.3002 27.8907 56.7258 28.2966C56.6305 28.184 56.6348 28.0135 56.6974 27.8804C56.7601 27.7473 56.871 27.6434 56.9802 27.544C57.3366 27.2196 57.9109 26.8425 58.2876 26.5414ZM57.3024 42.4023C57.3634 42.364 57.4298 42.3267 57.5021 42.3268C57.634 42.327 57.7363 42.4586 57.7448 42.5889C57.7534 42.7191 57.6917 42.8436 57.6206 42.9535C57.4269 43.253 57.1493 43.4989 56.827 43.6565C56.6986 43.7193 56.5311 43.7637 56.4226 43.6712C56.28 43.5498 56.3679 43.3189 56.4784 43.1683C56.7011 42.8648 56.9823 42.6034 57.3024 42.4023ZM35.1906 36.0404C35.0579 36.0838 34.9481 35.9331 34.8961 35.8047C34.7445 35.4299 34.647 35.0338 34.6077 34.632C34.6031 34.5848 34.5995 34.5359 34.6154 34.4911C34.652 34.3878 34.7853 34.3434 34.892 34.3726C34.9986 34.4019 35.081 34.4854 35.147 34.5732C35.421 34.938 35.4931 35.4423 35.3322 35.868C35.305 35.9398 35.2642 36.0163 35.1906 36.0404ZM63.7807 34.7792C63.6861 33.9117 63.8727 33.0164 64.3064 32.2567C64.4591 32.3147 64.427 32.535 64.3717 32.6874C64.1017 33.4309 63.9561 34.2184 63.9427 35.0084C63.8385 35.0122 63.7918 34.8817 63.7807 34.7792ZM52.2678 19.9902C52.7063 20.4282 53.4129 20.5793 53.9952 20.3597C54.0582 20.4086 54.0392 20.5152 53.9784 20.5667C53.9176 20.6183 53.8328 20.6294 53.7531 20.6373C53.3891 20.6729 53.0143 20.6824 52.6651 20.5747C52.3159 20.4671 51.9928 20.225 51.8691 19.8844C51.9548 19.7511 52.1554 19.8779 52.2678 19.9902ZM56.7478 41.906C56.7833 41.8782 56.8221 41.8502 56.8671 41.8458C56.944 41.8384 57.016 41.9177 57.0003 41.9925C56.59 42.3532 56.2384 42.7791 55.963 43.2488C55.9273 43.3097 55.8211 43.2769 55.7976 43.2106C55.7742 43.1442 55.8047 43.072 55.8367 43.0091C56.0542 42.5816 56.3677 42.2021 56.7478 41.906ZM60.3434 26.4517C60.1171 26.1788 59.5438 25.3469 59.7885 25.3469C60.1672 25.3469 60.6041 26.0148 60.6548 26.406C60.6608 26.4526 60.6626 26.5045 60.6334 26.5416C60.5613 26.633 60.4178 26.5413 60.3434 26.4517ZM59.4656 25.6154C59.5207 25.6842 59.523 25.7788 59.5332 25.8659C59.5549 26.0513 59.6235 26.2311 59.7311 26.3843C59.8136 26.5019 60.0804 26.6752 60.1349 26.8373C60.1755 26.9578 60.0313 27.1044 59.9641 27.046C59.5701 26.7034 59.309 26.215 59.2444 25.7C59.241 25.6733 59.2383 25.6454 59.2475 25.62C59.2773 25.5374 59.4106 25.5467 59.4656 25.6154Z" fill="#00160A"/>
<path fill-rule="evenodd" clip-rule="evenodd" d="M57.341 32.8033C57.2793 31.5482 56.9239 30.321 56.4346 29.1614C55.9428 27.9957 55.2909 26.8591 54.3021 26.0598C52.4464 24.5596 49.7878 24.5306 47.4328 24.9944L47.3526 25.0104C46.0108 25.2817 44.6523 25.7094 43.6259 26.6064C42.3892 27.6874 41.7952 29.2978 41.2478 30.8379C41.2126 30.9368 41.2379 31.0836 41.2945 31.147C41.2649 31.1805 41.2437 31.2107 41.2316 31.2366C41.0504 31.625 41.0049 33.0554 41.0623 33.4794C41.2404 34.797 42.018 35.9593 42.8859 36.9741C43.796 38.0385 44.8525 39.0157 46.1303 39.6036C47.7187 40.3344 49.5812 40.4098 51.2626 39.9238C52.9111 39.4473 54.3846 38.4521 55.5254 37.1815L55.8284 36.8419C56.6563 36.0523 57.3948 33.898 57.341 32.8033Z" fill="white"/>
<path fill-rule="evenodd" clip-rule="evenodd" d="M78.1765 20.437C78.0978 20.4084 78.0107 20.4483 77.9818 20.5261C77.9529 20.6039 77.9932 20.6902 78.0719 20.7187L78.1365 20.7415C78.3554 20.8161 78.6185 20.8811 79.2032 21.0125L79.734 21.1325C79.8547 21.1605 79.9495 21.1834 80.0475 21.2083C80.5234 21.329 80.6965 21.5054 80.6887 21.7672L80.6868 21.8051C80.6743 21.9814 80.6088 22.1502 80.4074 22.5434L80.2356 22.8734C80.1488 23.0408 80.0915 23.1589 80.0381 23.2833C79.8293 23.7693 79.782 24.1587 79.9474 24.5136C80.2388 25.1388 80.6383 25.28 81.587 25.3026L81.7088 25.3051C82.3504 25.318 82.649 25.3824 82.9067 25.6234C83.0264 25.7354 83.1005 25.8433 83.1402 25.9548C83.195 26.1085 83.1931 26.2248 83.1381 26.5467L83.1225 26.6355C83.0188 27.2157 83.0313 27.571 83.2617 28.0638C83.3708 28.297 83.5509 28.4015 83.9606 28.5449L84.1195 28.6009C84.5065 28.7408 84.6941 28.8755 84.7865 29.1335C84.915 29.4925 84.8238 30.0768 84.4486 30.9632C84.4163 31.0397 84.4527 31.1276 84.53 31.1596C84.6073 31.1917 84.6962 31.1556 84.7285 31.0792L84.7776 30.9613C85.4353 29.3535 85.2128 28.7034 84.2915 28.3444L84.1371 28.2882L84.0618 28.262C83.7291 28.1454 83.599 28.0699 83.5372 27.9378C83.3453 27.5274 83.3284 27.2354 83.4113 26.7452L83.4384 26.5902C83.5016 26.2193 83.5036 26.0715 83.4264 25.8551C83.3699 25.6964 83.2685 25.5488 83.1151 25.4053C82.7943 25.1052 82.4496 25.0241 81.777 25.0064L81.5409 25.0012C80.7412 24.9779 80.4447 24.8638 80.223 24.388C80.1011 24.1264 80.1388 23.8164 80.3173 23.4007L80.3453 23.3371C80.398 23.22 80.4598 23.0971 80.5553 22.9153L80.6838 22.6681C80.9206 22.2057 80.9845 22.0255 80.992 21.7761C81.0046 21.356 80.7239 21.07 80.1229 20.9175L79.972 20.8801C79.9305 20.8701 79.8873 20.8598 79.8404 20.8489L79.012 20.6612C78.569 20.5596 78.3607 20.5039 78.1765 20.437Z" fill="#E7EAEE"/>
<path fill-rule="evenodd" clip-rule="evenodd" d="M44.5362 26.1434C44.4139 26.1146 44.2912 26.1893 44.2621 26.3102C44.233 26.4312 44.3085 26.5526 44.4308 26.5814C45.3439 26.7965 45.56 26.7798 45.4214 27.2389L45.4134 27.2646C45.3778 27.374 45.3275 27.4853 45.2469 27.6384L45.0726 27.9628C44.8937 28.3008 44.8727 28.3823 44.8869 28.5619C44.9143 28.9067 45.2182 29.0566 45.7693 29.0647L45.8365 29.0649L45.9769 29.061C46.3495 29.0511 46.685 29.0579 47.0178 29.0958C47.5832 29.1603 47.9527 29.3066 48.0374 29.5015C48.1542 29.7707 48.1107 30.0034 47.9041 30.3829L47.8034 30.5603L47.7763 30.607C47.3416 31.3556 47.2463 31.7839 47.5852 32.3998C47.9151 32.999 48.3093 33.1502 49.1816 33.1906L49.4137 33.1995C50.0259 33.2237 50.3273 33.3113 50.5878 33.6042C50.9347 33.9944 50.9414 34.2349 50.7451 34.7341L50.6971 34.8577C50.6067 35.0959 50.5826 35.1996 50.5867 35.3616C50.5896 35.4738 50.6154 35.5818 50.6664 35.6859C50.8068 35.9721 51.0486 36.1544 51.5047 36.382L51.6393 36.4476C51.6955 36.4744 51.8106 36.5292 51.846 36.5463L51.9285 36.5869C52.2167 36.7316 52.3503 36.8324 52.3855 36.9281C52.541 37.3503 52.2951 38.1895 51.7591 39.329C51.7061 39.4417 51.7555 39.5756 51.8694 39.6281C51.9834 39.6805 52.1188 39.6317 52.1718 39.5189C52.754 38.2812 53.0201 37.3359 52.8132 36.774C52.7248 36.534 52.5325 36.3847 52.1399 36.188L51.9488 36.0953C51.8921 36.0683 51.8309 36.0391 51.8128 36.0305C51.3768 35.8209 51.1665 35.674 51.0759 35.4893C51.0537 35.444 51.043 35.3992 51.0417 35.3503C51.0395 35.2619 51.0574 35.189 51.1289 35.0014L51.1692 34.8974C51.4209 34.2577 51.4094 33.8466 50.9295 33.3068C50.5751 32.9082 50.181 32.7853 49.4933 32.7523L49.3091 32.7451C48.5063 32.7172 48.2269 32.6239 47.985 32.1844C47.7565 31.7693 47.8017 31.4884 48.1147 30.9298L48.2777 30.6456C48.5667 30.1297 48.6458 29.7619 48.4556 29.3238C48.2827 28.9258 47.7897 28.7306 47.0699 28.6486C46.7512 28.6122 46.4358 28.6025 46.0941 28.6081L45.8172 28.6148C45.5999 28.6148 45.4542 28.5927 45.3764 28.5566C45.3477 28.5434 45.3427 28.5402 45.3412 28.5316L45.3407 28.5267C45.3355 28.4611 45.3613 28.3893 45.4897 28.1463L45.6008 27.9394C45.7218 27.7165 45.7939 27.5645 45.8466 27.4026C46.0896 26.6563 45.706 26.4189 44.5362 26.1434Z" fill="#E7EAEE"/>
<path fill-rule="evenodd" clip-rule="evenodd" d="M51.7499 26.2935C50.7766 26.2935 50.3775 26.999 50.8585 27.8694C51.3395 28.7397 52.2728 29.4453 52.9432 29.4453C53.6135 29.4453 54.0126 28.7397 53.8346 27.8694C53.6565 26.999 52.7232 26.2935 51.7499 26.2935ZM51.7498 26.7437C52.5126 26.7437 53.2546 27.3047 53.3884 27.9587C53.5156 28.5805 53.2811 28.995 52.9431 28.995C52.4632 28.995 51.6664 28.3927 51.2578 27.6534C50.9397 27.0778 51.1286 26.7437 51.7498 26.7437Z" fill="#FFB61D"/>
<path fill-rule="evenodd" clip-rule="evenodd" d="M47.3522 35.8989C46.379 35.8989 45.4418 36.5037 45.365 37.2497C45.405 37.9957 46.3057 38.6005 47.271 38.6005C48.2363 38.6005 48.991 37.9957 48.9958 37.2497C49.0438 36.5037 48.3255 35.8989 47.3522 35.8989ZM47.3519 36.3492C48.0632 36.3492 48.5508 36.741 48.5424 37.1928L48.5403 37.2468C48.5372 37.7257 47.9989 38.1502 47.2707 38.1502C46.5369 38.1502 45.8951 37.7228 45.8248 37.2791L45.8224 37.2604L45.8257 37.2418C45.9178 36.7961 46.5763 36.3664 47.3079 36.3497L47.3519 36.3492Z" fill="#FFB61D"/>
<path fill-rule="evenodd" clip-rule="evenodd" d="M85.8633 21.5566C86.0459 20.5474 85.3545 19.8211 84.319 19.9345C83.2836 20.0479 82.5922 20.7741 82.7748 21.5566C82.9573 22.3391 83.6487 23.0654 84.319 23.1787C84.9894 23.2921 85.6808 22.5659 85.8633 21.5566ZM84.3528 20.233C85.1872 20.1416 85.7118 20.6925 85.565 21.5039C85.4083 22.3703 84.8439 22.963 84.3705 22.883C83.8283 22.7913 83.2272 22.1599 83.0708 21.4892C82.934 20.9032 83.4813 20.3284 84.3528 20.233Z" fill="#FFB61D"/>
<path fill-rule="evenodd" clip-rule="evenodd" d="M87.5653 24.0367C86.8949 23.8679 86.3041 24.5563 86.2456 25.5741C86.1871 26.5919 86.683 27.366 87.3533 27.3031C88.0237 27.2401 88.6145 26.5518 88.673 25.7657C88.7316 24.9795 88.2356 24.2054 87.5653 24.0367ZM86.5485 25.5911C86.5976 24.737 87.0453 24.2155 87.4904 24.3276C88.0103 24.4584 88.4186 25.0957 88.3704 25.7436C88.3222 26.3918 87.8379 26.956 87.3247 27.0042C86.8811 27.0459 86.4991 26.4497 86.5485 25.5911Z" fill="#FFB61D"/>
<path fill-rule="evenodd" clip-rule="evenodd" d="M81.6903 27.8447C80.7627 27.7943 80.2618 28.4001 80.5716 29.1979C80.8814 29.9957 81.676 30.6834 82.3463 30.7338C83.0166 30.7843 83.5175 30.1784 83.465 29.3806C83.4125 28.5828 82.6179 27.8952 81.6903 27.8447ZM80.8552 29.0903C80.6277 28.5044 80.9575 28.1055 81.674 28.1445C82.4557 28.187 83.1206 28.7624 83.1625 29.4001C83.2039 30.029 82.8394 30.4699 82.3697 30.4345C81.8266 30.3937 81.1258 29.7872 80.8552 29.0903Z" fill="#FFB61D"/>
<path fill-rule="evenodd" clip-rule="evenodd" d="M77.7944 23.4764C76.9959 23.3227 76.4005 23.8869 76.4646 24.7366C76.5287 25.5863 77.1241 26.3997 77.7944 26.5534C78.4647 26.7072 79.0601 26.143 79.1242 25.2933C79.1883 24.4436 78.5929 23.6301 77.7944 23.4764ZM76.7672 24.7143C76.7176 24.0567 77.1401 23.6563 77.7364 23.7711C78.3806 23.8951 78.8744 24.5699 78.8215 25.271C78.7701 25.953 78.3316 26.3686 77.8629 26.2611C77.3328 26.1395 76.822 25.4417 76.7672 24.7143Z" fill="#FFB61D"/>
<path fill-rule="evenodd" clip-rule="evenodd" d="M44.4401 30.3457C43.4668 30.3457 42.5297 30.9505 42.4529 31.6965C42.4929 32.4425 43.3936 33.0473 44.3589 33.0473C45.3242 33.0473 46.0789 32.4425 46.0837 31.6965C46.1317 30.9505 45.4134 30.3457 44.4401 30.3457ZM44.4398 30.796C45.1511 30.796 45.6388 31.1877 45.6303 31.6395L45.6282 31.6936C45.6251 32.1725 45.0868 32.597 44.3586 32.597C43.6248 32.597 42.983 32.1695 42.9127 31.7259L42.9103 31.7071L42.9136 31.6886C43.0057 31.2428 43.6642 30.8132 44.3958 30.7965L44.4398 30.796Z" fill="#FFB61D"/>
<path fill-rule="evenodd" clip-rule="evenodd" d="M54.9461 32.0257C54.1739 31.5536 53.4303 31.9565 53.3693 32.9902C53.4011 34.0637 54.1158 35.0457 54.8817 35.1762C55.6476 35.3068 56.2463 34.8294 56.2501 34.1161C56.2883 33.4214 55.7184 32.4978 54.9461 32.0257ZM53.8255 32.9961L53.8268 32.9778C53.8785 32.3199 54.2354 32.1202 54.7073 32.4086C55.3289 32.7886 55.8027 33.5366 55.7973 34.0558L55.7954 34.1136C55.7931 34.547 55.4491 34.8159 54.9594 34.7324C54.4256 34.6414 53.8707 33.8642 53.8266 33.0237L53.8255 32.9961Z" fill="#FFB61D"/>
</svg>
