<svg width="103" height="82" viewBox="0 0 103 82" fill="none" xmlns="http://www.w3.org/2000/svg">
<path fill-rule="evenodd" clip-rule="evenodd" d="M59.2831 81.9997C71.6141 81.9997 82.4352 72.9053 76.358 60.5527C70.2809 48.2002 92.8613 48.5992 99.4942 40.0619C107.583 29.6504 105.241 -14.545 53.3117 12.3986C44.9932 16.7147 23.6297 7.95841 16.5433 12.3031C8.2019 17.4173 -3.53394 27.8894 8.2019 38.6166C13.9828 43.9006 -6.74295 57.6154 2.3345 69.9004C11.1918 81.8875 17.4006 70.4603 30.8858 72.9053C44.3709 75.3502 50.1252 81.9997 59.2831 81.9997Z" fill="#7222F5" fill-opacity="0.32"/>
<path d="M44.9707 60.5099C44.9707 60.5099 47.8099 59.1857 48.8699 58.2645C49.9299 57.3432 51.2476 55.0543 51.2476 55.0543C51.2476 55.0543 65.7226 65.4192 75.1609 63.9407C77.3355 63.6001 81.5728 62.1669 81.843 59.6417C82.5808 52.7464 72.3721 50.9843 74.602 47.4877C75.9632 45.3533 80.1917 48.5299 80.1917 48.5299L97.7303 57.0833C97.7303 57.0833 91.6712 71.8922 76.9672 72.4856C58.8794 73.2157 44.9707 60.5099 44.9707 60.5099Z" fill="white"/>
<path fill-rule="evenodd" clip-rule="evenodd" d="M31.0656 2.51538C30.901 2.45131 30.0169 1.37805 28.8946 1.18272C28.3846 1.09395 28.8475 1.73783 28.2862 1.74362C26.6146 1.76088 23.8979 1.44949 23.3947 1.74362C23.0206 1.96153 23.8444 2.7228 23.3947 2.75775C19.1518 3.08749 12.6791 7.28781 11.2747 9.32558C10.8278 9.9741 14.4424 8.87381 13.8665 9.19442C13.2201 9.55427 12.5032 11.9105 12.0746 13.7303C11.7778 14.9834 11.591 16.5962 11.5251 18.3506C11.4701 19.8652 11.4921 20.1159 11.7119 20.944C11.9647 21.8703 12.1625 22.1427 12.5032 22.0119C12.6241 21.9683 12.6791 21.8049 12.6791 21.4998C12.6791 21.26 12.8109 20.5408 12.9758 19.8979L13.2615 18.7428L13.3824 19.2223C13.5363 19.7781 14.4375 21.4998 15.2508 22.7529C15.2947 22.8194 15.4834 22.7348 15.6536 22.327C15.8086 21.9553 15.7457 21.3616 16.0091 20.7253C16.6092 19.2759 17.7875 17.3913 19.1518 15.8828C21.1682 13.6533 21.8372 11.0732 23.7273 9.002C27.2547 5.13679 31.6818 2.75525 31.0656 2.51538Z" fill="white"/>
<path fill-rule="evenodd" clip-rule="evenodd" d="M13.9169 9.72009C13.351 10.1712 12.5111 13.8305 12.4967 13.8917C12.2 15.1449 11.9139 19.4966 12.2063 20.3205C12.4987 21.1444 13.3174 18.1744 13.3174 18.1744C13.3174 18.1744 14.5549 21.3604 15.6483 22.234C15.695 22.2713 14.3486 18.2922 13.9169 15.9693C13.3469 12.9029 14.2389 9.46334 13.9169 9.72009Z" fill="#E7EAEE"/>
<path fill-rule="evenodd" clip-rule="evenodd" d="M35.0068 73.8076C36.0619 73.5788 37.8421 72.7819 38.5238 72.5094C39.2054 72.2369 41.2824 69.329 42.0297 66.049C42.5682 63.6299 42.843 60.1864 42.5353 59.6089C42.4898 59.5269 42.3236 57.9611 42.7661 58.4724C43.7498 59.6089 44.9175 61.3931 48.6018 58.196C49.6053 57.3252 50.9354 56.2014 50.5852 55.2078C49.6053 52.428 45.3578 46.8306 44.7103 46.4066C43.936 45.8996 40.0228 46.3304 34.1991 44.6262C27.5946 42.6934 24.8445 37.002 22.26 37.7428C20.1698 38.342 15.162 42.0239 13.9052 44.3556C7.97186 55.3633 15.162 63.0765 16.7995 65.2919L18.3894 65.9727L18.4443 67.3784L18.5213 68.2611C18.6642 69.9501 18.7191 70.1027 19.4884 70.6693C21.4117 72.1186 25.2034 73.4698 28.6324 73.9493C30.226 74.1672 33.688 74.0909 35.0068 73.8076Z" fill="white"/>
<path fill-rule="evenodd" clip-rule="evenodd" d="M19.014 66.8639L19.0909 67.7465C19.2338 69.4356 19.2887 69.5881 20.058 70.1548C21.1927 71.0097 22.9775 71.8306 24.9546 72.4585C26.3288 72.8949 27.7959 73.2381 29.202 73.4347C30.7956 73.6527 34.2576 73.5764 35.5765 73.2931C36.2283 73.153 30.8662 68.9762 27.7073 70.1548C25.2814 71.0598 19.5637 64.156 21.8885 62.3524C24.4963 60.3291 19.7176 52.3488 19.5637 50.6162C19.4099 48.8837 18.8039 48.4698 18.7862 48.5305C18.7686 48.5913 18.7686 48.7986 18.8161 49.298C19.0212 51.4509 19.014 66.8639 19.014 66.8639Z" fill="#E7EAEE"/>
<path fill-rule="evenodd" clip-rule="evenodd" d="M18.444 50.1216C18.6747 50.0771 18.8982 50.2265 18.9431 50.4552C19.7726 54.6804 23.2812 57.5409 29.555 59.0367C35.8662 60.5414 40.1651 60.4602 42.4302 58.8541C42.6214 58.7186 42.4788 59.8796 42.3388 59.9686C40.8614 60.908 35.8386 62.3095 29.8445 61.0428C22.1805 59.4231 18.582 53.0335 18.1075 50.6165C18.0626 50.3877 18.2133 50.1662 18.444 50.1216Z" fill="#FFB61D"/>
<path fill-rule="evenodd" clip-rule="evenodd" d="M15.2475 42.4982C15.4515 42.3825 23.0636 51.0324 33.51 52.9903C43.9563 54.9483 46.4856 53.703 46.8921 51.0324C46.9272 50.8019 47.1441 50.6433 47.3765 50.6781C47.609 50.7129 47.7689 50.9279 47.7338 51.1583C47.2186 54.543 42.3848 55.3481 33.3668 53.8223C24.462 52.3157 18.3569 48.7361 15.0895 43.0741C14.9727 42.8718 15.0435 42.614 15.2475 42.4982Z" fill="#FFB61D"/>
<path fill-rule="evenodd" clip-rule="evenodd" d="M59.092 42.0187C58.8063 41.9207 58.4985 41.7027 58.3007 41.4521L57.971 41.0489L59.136 39.9047C60.9274 38.1612 62.3012 36.3741 63.4882 34.2492C63.8838 33.5409 64.8839 31.1763 64.8839 30.9474C64.8839 30.8712 65.0048 30.566 65.1477 30.25C65.3675 29.7924 65.5324 29.618 66.005 29.3565C66.5655 29.0296 67.2029 28.9206 67.4777 29.1059C68.0052 29.4546 68.0052 30.5551 67.4777 32.4512C66.8952 34.5325 66.1149 36.0254 64.4993 38.1721C64.2465 38.499 63.7739 39.1419 63.4332 39.5887C62.521 40.7874 61.9275 41.3649 61.1252 41.8117C60.3339 42.2476 59.8723 42.302 59.092 42.0187ZM66.9828 41.0378L67.7741 41.3865C67.9382 41.4616 69.7482 42.3239 71.9225 43.3598C75.428 45.0299 79.8803 47.151 79.9075 47.151C79.9514 47.151 80.1577 46.6782 80.2042 46.1267C80.3141 44.9389 80.7207 43.3262 81.1933 42.2038C81.4131 41.7025 81.589 41.076 81.589 41.0216C81.589 40.9967 81.4103 40.9252 81.1178 40.8082C80.7696 40.669 80.2601 40.4652 79.6986 40.1987C76.9291 38.8802 71.5108 36.1887 70.8404 35.7855C70.181 35.4041 70.0491 35.3714 70.0491 35.622C70.0491 35.9489 69.3787 37.4636 68.8622 38.2809C68.5874 38.7276 68.0489 39.534 67.6642 40.068L66.9828 41.0378ZM79.7207 45.1894C80.0359 45.3705 79.4899 45.6362 79.3581 45.6798C78.5815 45.7452 77.6673 45.6004 76.9182 45.1676C76.5265 44.8923 73.4426 43.1935 71.3969 42.0666C70.4617 41.5515 69.7434 41.1558 69.5986 41.0704C69.137 40.798 68.6974 40.5037 68.6205 40.4166C68.3897 40.1223 68.6095 39.9916 69.2579 40.0461C69.6477 40.0788 79.04 44.7982 79.7207 45.1894ZM38.0465 72.6327L38.0466 72.6326C38.2515 72.5469 38.4278 72.4732 38.5617 72.4196C39.2433 72.1471 41.3202 69.2392 42.0676 65.9592C42.6061 63.5401 42.8809 60.0967 42.5731 59.5191C42.3876 59.1847 43.4899 60.3067 44.3108 61.1424C44.5597 61.3957 44.7827 61.6227 44.9361 61.7748C49.7279 66.4932 56.8606 70.2853 64.2681 72.0615C67.9609 72.9551 70.5876 73.2711 74.1155 73.2711C80.0393 73.2711 84.7102 72.116 88.9525 69.577C89.1537 69.4566 89.3422 69.346 89.5219 69.2405L89.5229 69.2399C91.0017 68.3718 91.8827 67.8547 94.2939 65.1638C96.9985 62.1453 99.4044 55.1386 100.207 52.7195C100.558 51.6298 101.416 47.2956 101.416 46.214C101.416 44.9335 100.965 44.3288 100.35 43.7077C99.2615 42.6507 97.7888 42.2693 96.5689 42.727L95.9974 42.9449L95.8215 42.3674C95.5687 41.4956 95.0412 40.7982 94.2279 40.2751C93.019 39.4797 92.8431 39.4252 91.7551 39.4252C90.9088 39.4252 90.678 39.4688 90.1395 39.7194L89.513 40.0027L89.3811 39.6104C89.1284 38.8041 88.2805 37.6799 87.6227 37.3548C87.0393 37.0664 86.0294 37.0399 85.3257 37.1695C83.787 37.4528 82.688 38.1611 82.2374 39.1528C82.1055 39.4579 81.9407 39.6976 81.8747 39.6976C81.8198 39.6976 79.6547 39.0981 77.0719 37.9648C76.6363 37.773 76.227 37.5931 75.8427 37.4242C71.2048 35.386 70.1995 34.9443 70.2909 34.3908C70.3678 33.9222 70.3458 33.6607 70.2139 33.2575C69.9831 32.5819 69.7194 32.3967 68.972 32.3967C68.3785 32.3967 68.3785 32.3967 68.4445 32.1024C68.7962 30.4352 68.7852 29.4763 68.4115 28.8661C68.1587 28.4629 67.862 28.2994 67.1806 28.2013C66.7849 28.1469 66.5981 28.1795 66.1585 28.4193C65.8617 28.5718 65.609 28.6808 65.587 28.659C65.565 28.6372 65.6419 28.0379 65.7628 27.3296C66.664 22.0882 65.9678 17.5721 63.6708 12.7775C63.6494 12.7329 63.6248 12.6804 63.5966 12.6205L63.5963 12.6198L63.5955 12.6182L63.5943 12.6156L63.5942 12.6153C62.8959 11.1288 60.0881 5.15179 52.0578 2.13586C51.6944 1.99934 51.3504 1.86735 51.0199 1.74049C48.2845 0.690702 46.4661 -0.00718641 42.0786 5.58356e-05C37.1609 0.00817325 35.4953 0.69746 32.2532 2.16855C31.8026 2.37559 31.4069 2.49546 31.3739 2.45187C31.341 2.39738 31.1322 2.26662 30.9233 2.15765C30.7145 2.04868 30.2639 1.77626 29.9342 1.55832C28.989 0.926296 28.4065 0.664769 28.1098 0.730151C27.7691 0.817326 27.7691 1.10065 28.1098 1.23141C28.2527 1.28589 28.4175 1.47114 28.4835 1.65639C28.6263 2.04868 28.7912 2.09227 28.8901 1.76536C28.9341 1.64549 29 1.55832 29.033 1.58011C29.0454 1.58627 29.0868 1.60549 29.15 1.63482L29.1508 1.63517L29.151 1.63527L29.1512 1.63539L29.1514 1.63545L29.1515 1.63551L29.1517 1.63561C29.3125 1.71023 29.6121 1.84931 29.9342 2.00509C30.3848 2.22303 30.8794 2.45187 31.0113 2.50635C31.253 2.59353 31.1761 2.65891 30.132 3.26914C26.0546 5.64467 22.7355 9.33873 20.8781 13.545C20.5924 14.177 20.3396 14.5693 20.0758 14.7872C19.4054 15.3429 18.0866 16.923 17.7788 17.5441C17.614 17.8819 17.2623 18.405 16.9875 18.7101C16.7238 19.0152 16.438 19.4075 16.3391 19.571C16.2512 19.7453 16.1633 19.8652 16.1303 19.8434C16.1083 19.8107 16.1413 19.2767 16.2182 18.6556C16.3831 17.2063 16.3831 16.8249 16.2512 16.7922C16.0534 16.7378 15.7676 17.5005 15.6467 18.4486C15.5588 19.0261 15.5368 19.8979 15.5918 20.7914L15.6577 22.208L14.8774 20.9549C14.6093 20.5362 14.3453 20.1176 14.1577 19.82L14.1576 19.8199L14.1571 19.8191L14.1571 19.819L14.1565 19.8181L14.1562 19.8177C14.0369 19.6285 13.9487 19.4886 13.9102 19.4293C13.6245 19.0152 13.4596 18.3941 13.5805 18.187C13.6465 18.0672 13.6355 18.0127 13.5256 18.0127C13.2948 18.0127 12.8442 18.7428 12.5474 19.5819C12.4046 19.9741 12.2617 20.3011 12.2177 20.3011C12.0529 20.3011 12.1298 16.4 12.3056 15.1468C12.6683 12.6732 13.6245 9.62205 14.0531 9.62205C14.141 9.62205 14.218 9.57847 14.218 9.51308C14.218 9.31694 13.9322 9.39322 13.7014 9.64385C13.1849 10.1996 12.5035 11.9104 12.0748 13.7302C11.7781 14.9833 11.5913 16.5961 11.5253 18.3505C11.4704 19.8652 11.4924 20.1158 11.7122 20.944C11.9649 21.8702 12.1628 22.1426 12.5035 22.0119C12.6244 21.9683 12.6793 21.8048 12.6793 21.4997C12.6793 21.26 12.8112 20.5408 12.9761 19.8979L13.2618 18.7428L13.3827 19.2223C13.5366 19.778 14.4378 21.4997 15.2511 22.7529C15.8116 23.6028 15.8226 23.6573 16.0094 24.9867C16.1083 25.7386 16.416 27.5675 17.1304 30.3807C17.7616 32.8664 21.31 35.3322 22.196 35.9479L22.1961 35.9479L22.1961 35.9479C22.3128 36.029 22.3833 36.078 22.3948 36.0907C22.5047 36.2106 22.6586 36.276 22.7465 36.2433C22.8454 36.2106 22.9004 36.2542 22.9004 36.374C22.9004 36.483 22.9773 36.6247 23.0652 36.6901C23.1751 36.7663 23.2521 37.0605 23.274 37.5727C23.329 38.597 24.0983 40.5585 24.6918 41.2014C25.0765 41.6155 25.8788 41.7898 26.769 41.6373C27.3515 41.5501 27.5163 41.4847 27.4614 41.3539C27.4284 41.2668 27.6372 41.3757 27.923 41.5937C31.264 44.1218 34.6491 45.6364 38.4517 46.2903C39.9245 46.5409 42.3643 46.6825 43.6942 46.5845C44.5479 46.5291 44.7818 46.5139 44.8249 46.5973C44.8412 46.6288 44.8302 46.6743 44.8152 46.737C44.7382 47.0421 44.8372 47.2274 46.4527 49.9407C47.7386 52.0874 47.8485 52.2291 49.2773 53.6784C52.3106 56.784 55.6187 59.1922 59.3664 61.0556C62.8943 62.7991 68.5269 64.2484 73.6759 64.7061C78.8249 65.1637 82.5232 60.4781 82.5122 59.2794C82.4902 57.634 82.2594 56.5552 81.6989 55.5091C81.1494 54.4957 80.7867 54.1469 79.1381 53.0573C77.3027 51.8477 76.1707 50.8561 75.4234 49.7991C74.9508 49.1344 74.7749 48.3825 74.7749 47.9793C74.7749 47.7178 75.1156 47.1293 75.6212 47.0095C76.0828 46.8896 76.1707 46.9005 76.6873 47.1511C76.995 47.2928 77.7973 47.6633 78.4567 47.9793C79.1271 48.2844 79.7756 48.5895 79.9074 48.6549C80.2962 48.762 80.4606 49.5166 80.5497 49.9256C80.5696 50.017 80.5858 50.0911 80.5998 50.1369C80.7537 50.7035 81.4819 51.4352 81.9517 51.6842C82.7767 52.1217 84.8094 52.1802 85.3699 51.5808C85.5127 51.4283 85.9865 51.2407 86.084 51.2975C86.1816 51.3543 86.5346 51.8259 86.5346 52.2073C86.5456 52.8611 86.8863 53.4604 87.6117 54.0598C88.9855 55.1931 90.0516 55.4655 91.1286 54.9642C91.6891 54.7027 92.1485 54.6005 92.1485 54.6005C92.1485 54.6005 92.6067 55.1802 92.6343 55.3783C92.8502 56.9266 95.162 57.5756 95.7775 57.641C95.9186 57.655 96.1931 57.5951 96.4719 57.5344C96.8447 57.4531 97.2252 57.3702 97.3052 57.4596C97.4622 57.6352 94.6785 62.1998 94.2939 62.7773C90.6341 68.2258 83.5123 71.5603 74.7969 71.909C69.1369 72.1378 62.18 70.5686 56.1463 67.7136C52.2886 65.8721 48.8706 63.6164 45.2108 60.4563C44.5734 59.9114 43.837 59.2903 43.5733 59.0724C43.3095 58.8653 42.683 58.157 42.1995 57.5032C41.3862 56.4135 40.9246 56.0212 40.9246 56.3917C40.9246 56.5552 41.4521 57.5577 42.0566 58.5493C42.2984 58.9416 42.4522 59.214 42.3973 59.1704C42.3423 59.1269 42.1665 59.9114 42.0016 60.9139C41.4631 64.1285 40.5729 67.2996 39.6717 69.2719C39.1771 70.3398 38.2288 71.1373 37.9431 71.3552C36.888 72.1507 35.3085 72.5083 33.1214 72.7262C30.3518 72.9986 26.2744 72.3884 23.1641 71.2334C22.3399 70.9282 20.2187 70.0456 20.0758 69.9475C20.0673 69.939 20.0186 69.6255 19.9506 69.188C19.9314 69.0647 19.9108 68.9314 19.889 68.7924C19.4933 66.1009 18.9438 55.7379 18.9438 50.9432C18.9438 48.96 18.9218 48.5241 18.79 48.5241C18.5152 48.5241 18.4053 48.7857 18.2844 49.7228C18.0096 51.8586 18.0646 63.0062 18.3613 65.349L18.4273 65.8829L18.0536 65.6759C17.4821 65.349 15.306 63.1587 14.5477 62.1453C13.9057 61.2789 13.5241 60.1693 13.2386 59.3392L13.2386 59.3391L13.2386 59.339L13.2385 59.3388L13.2385 59.3387L13.2385 59.3386L13.2384 59.3384C13.1721 59.1456 13.111 58.9679 13.053 58.8119C11.4594 54.4313 12.0199 49.5158 14.218 45.0916C16.0863 41.3213 18.3833 39.229 21.7464 38.2156C22.2959 38.0522 22.7795 37.8778 22.8344 37.8342C23.0432 37.6381 21.7024 37.7362 20.9661 37.965C18.5702 38.6951 16.0643 40.6892 14.3608 43.2391C11.9649 46.8133 10.8879 52.0874 11.6462 56.5879C11.8221 57.6558 12.5364 59.9659 12.7343 60.1294C12.7518 60.1467 12.8421 60.3347 12.9788 60.6189L12.9788 60.6189L12.9789 60.6191L12.9789 60.6191C13.3569 61.4054 14.089 62.9282 14.6136 63.6164C15.2511 64.4772 17.1744 66.3515 17.9767 66.9291L18.4822 67.2887L18.5592 68.1713C18.702 69.8603 18.757 70.0129 19.5263 70.5795C21.4496 72.0288 25.2413 73.3801 28.6703 73.8595C30.2639 74.0775 33.7259 74.0012 35.0447 73.7179C35.8921 73.5341 37.2072 72.9839 38.0452 72.6332L38.0457 72.633L38.0458 72.633L38.0459 72.6329L38.0464 72.6327L38.0465 72.6327ZM72.1932 63.4855C65.8078 62.9298 58.0926 59.9111 52.5094 55.2472C50.1575 53.2749 47.1022 49.4394 45.8932 47.3145C45.6405 46.8786 45.4536 46.6716 45.2338 46.6171C45.003 46.5517 45.2009 46.4863 46.146 46.3337C50.1355 45.6581 54.0151 44.0127 57.1474 41.6699L57.609 41.332L57.7409 41.6481C58.0376 42.3564 59.1806 43.0756 60.0269 43.0756C60.3676 43.0756 61.5106 42.5634 62.203 42.0948L62.6755 41.7788L63.0602 42.1602C63.4119 42.5089 63.4778 42.5307 64.1373 42.5307C64.8956 42.5307 65.8078 42.1929 66.3134 41.7134L66.5881 41.4628L67.3684 41.975C67.7861 42.2692 68.951 42.9121 69.9512 43.4243C71.4459 44.187 73.0285 45.0697 74.5341 45.985L74.7759 46.1376L74.5451 46.4427C74.3033 46.7696 73.853 47.3907 73.853 48.3388C73.853 49.4067 74.9729 51.3254 77.1169 52.6431C78.8012 53.6783 81.6999 55.7145 81.59 58.6909C81.5767 59.0504 81.1723 59.944 80.6338 60.7504C80.2821 61.2626 79.304 62.0253 78.4137 62.4721C76.8971 63.224 74.2264 63.6599 72.1932 63.4855ZM13.5917 14.5691C13.8885 14.6345 14.0863 14.7326 14.0423 14.7762C13.8994 14.9178 13.1411 14.8525 12.9653 14.6781C12.6905 14.4166 12.7564 14.2313 13.1411 14.1551C13.3389 14.1224 13.6357 13.9589 13.8005 13.7955C13.9654 13.632 14.1083 13.5557 14.1083 13.6102C14.1083 13.7519 13.5587 14.2531 13.284 14.3621C13.1081 14.4384 13.1631 14.4711 13.5917 14.5691ZM17.9666 14.7435C18.2854 14.5691 18.2194 14.4493 17.8457 14.5038C17.4721 14.5582 17.4501 14.5147 17.6919 14.1442C17.7908 14.0025 17.8457 13.7955 17.8238 13.6865C17.7908 13.5448 17.7139 13.6102 17.538 13.9589C17.4061 14.2095 17.2193 14.4166 17.1314 14.4166C16.8566 14.4166 16.8346 14.6345 17.0984 14.7326C17.4391 14.8743 17.7029 14.8743 17.9666 14.7435ZM14.1638 8.79384C13.9 8.83743 13.0758 9.16434 12.3504 9.52394C11.614 9.87264 10.9876 10.1669 10.9436 10.156C9.82261 10.0361 11.3832 8.18361 14.2188 6.28755C16.9334 4.46776 18.7688 3.50883 20.4723 3.01846C21.5383 2.71335 22.7363 2.66976 23.077 2.92039C23.2638 3.06205 23.1979 3.07295 22.3846 3.08385C20.6261 3.08385 18.5929 3.9774 15.2848 6.16768C13.5703 7.30096 11.5811 8.92461 11.5811 9.18613C11.5811 9.24062 11.8998 9.13165 12.2954 8.9573C13.1417 8.5759 14.0099 8.37976 14.3946 8.46693C14.8012 8.5759 14.7133 8.71756 14.1638 8.79384ZM18.4163 9.731C19.4494 9.52396 19.4934 9.51306 19.4934 9.40409C19.4934 9.34961 19.0977 9.29512 18.6031 9.27333L17.7129 9.24064L18.5372 8.3144C18.9878 7.80224 19.5153 7.29009 19.7022 7.17022C20.1088 6.90869 20.1308 6.72345 19.8011 6.61448L19.5483 6.5382L19.8231 6.44013C19.9769 6.38564 20.2627 6.36385 20.4605 6.39654C20.7573 6.44013 20.8232 6.41833 20.7902 6.26578C20.7573 6.11322 20.6364 6.08053 20.0978 6.09142C18.5262 6.11322 17.8558 6.5273 19.0867 6.72345C19.4274 6.77793 19.7132 6.86511 19.7132 6.91959C19.7132 6.96318 19.6582 7.00677 19.5923 7.00677C19.3835 7.00677 17.614 8.78297 17.3942 9.21885C17.0535 9.86177 17.2403 9.95984 18.4163 9.731ZM25.6706 5.50302C25.3519 5.52481 25.2749 5.57929 25.2969 5.73185L25.3003 5.75405C25.3126 5.83449 25.3197 5.88077 25.3016 5.89493C25.2771 5.91412 25.2065 5.87437 25.04 5.78074L25.0112 5.76454C24.8024 5.65557 24.7804 5.60109 24.9013 5.51391C24.9782 5.44853 25.187 5.35046 25.3519 5.31777L25.6596 5.24149L25.4288 5.00176C25.3079 4.8601 25.242 4.72933 25.2749 4.68575C25.3629 4.59857 26.4399 4.71844 26.5938 4.8383C26.6597 4.89279 26.7586 4.88189 26.8246 4.81651C26.9784 4.66395 27.1873 4.78382 27.1873 5.02355C27.1873 5.15431 27.1543 5.16521 27.0554 5.06714C26.9675 4.97996 26.8905 4.97996 26.7916 5.05624C26.7037 5.13252 26.6377 5.13252 26.5828 5.04534C26.5498 4.99086 26.341 4.93638 26.1212 4.93638C25.9181 4.93638 25.8222 4.93638 25.8029 4.97487C25.7856 5.00928 25.8294 5.07446 25.9124 5.1979C26.0877 5.46949 26.0773 5.47032 25.6743 5.50272L25.6706 5.50302ZM24.0001 2.60425C24.0001 2.46259 23.8683 2.21196 23.7034 2.0485L23.3957 1.74339L25.0442 1.80877C25.9564 1.85236 26.9895 1.95043 27.3522 2.0485C27.7149 2.13568 28.1325 2.20106 28.2864 2.20106C28.5172 2.20106 28.4732 2.15747 28.0446 1.92864C27.2973 1.54724 26.3411 1.362 24.5057 1.23123C22.3076 1.07868 21.1976 1.28572 21.4064 1.83056C21.4394 1.93953 21.6152 1.99402 21.879 1.99402C22.4175 1.99402 23.2968 2.31003 23.5935 2.60425C23.9122 2.92026 24.0001 2.92026 24.0001 2.60425ZM18.6374 31.4594C19.5276 32.5927 20.7036 33.8786 21.2531 34.3144C21.5828 34.576 21.8686 34.7939 21.8905 34.7939C21.9015 34.7939 21.6597 34.2926 21.352 33.6824C20.1101 31.2306 19.3847 28.7897 19.044 25.9783C18.9671 25.3572 18.8462 24.8341 18.7143 24.6162C18.4505 24.1803 18.4505 23.6136 18.7253 23.0797C18.8682 22.7964 18.9451 22.4368 18.9451 22.0445V21.4452L18.4176 21.99C17.901 22.524 17.4065 22.7419 17.4065 22.415C17.4065 22.1752 18.2197 21.0202 18.6484 20.6606C18.9891 20.3773 19.033 20.2792 19.1429 19.4292C19.2199 18.9171 19.3957 18.0126 19.5386 17.4133C19.6925 16.814 19.7804 16.3018 19.7584 16.28C19.6815 16.2037 17.0987 19.1448 16.747 20.083C16.6698 20.289 16.4613 20.6497 16.2964 20.8676L16.0107 21.2314C16.0107 21.2314 16.0994 21.7408 16.1975 22.3809C16.2966 23.0277 16.3431 23.4723 16.3845 23.8684C16.4399 24.3981 16.4862 24.8409 16.6371 25.5642C16.813 26.4577 16.9888 27.2314 17.0328 27.2859C17.0658 27.3513 17.2086 27.8526 17.3515 28.4083C17.6592 29.6397 18.1758 30.8601 18.6374 31.4594ZM63.2352 41.768L63.0044 41.5392C63.0044 41.5392 66.835 36.7137 67.5214 34.9356C68.0452 33.5787 68.3535 33.194 68.7695 33.194C69.0021 33.194 69.192 33.2466 69.2799 33.3774C69.4338 33.6062 69.582 33.8895 69.3842 34.8594C69.0545 36.4285 68.5489 37.4637 67.0322 39.6976C66.6806 40.2097 66.2299 40.7764 66.0321 40.9725C65.5705 41.3975 64.532 41.8334 63.9276 41.9315C63.5429 41.9859 63.433 41.9641 63.2352 41.768Z" fill="#00160A"/>
<path d="M93.6682 52.428C95.0355 48.7343 94.8285 47.9473 94.5914 47.8703C94.5914 47.8703 94.0692 48.1645 93.8384 48.7857C93.4098 49.9516 91.9427 53.0028 91.3932 53.5476C90.7447 54.1905 90.7447 54.1905 90.0853 54.1905C89.4259 54.1905 87.5241 53.2059 87.2651 52.2353C86.8509 50.6825 88.6346 45.2877 88.6786 44.9826L88.3818 44.7756C88.184 44.9608 85.6108 52.6977 82.2272 50.6817C81.8398 50.4509 81.0183 49.3632 80.9523 48.7857C80.5861 47.1075 82.2664 41.2396 82.5522 40.0342C82.808 38.9554 84.1395 37.9541 85.7771 37.9541C88.2939 37.9541 87.9558 40.1354 89.0832 40.904C89.5827 41.2446 90.4037 40.6271 90.6568 40.5803C92.0746 40.3187 92.6178 40.6233 93.6572 41.4411C94.4595 42.0724 95.0531 43.3219 95.7064 43.7622C96.0694 44.0067 96.4545 43.6724 96.5806 43.6096C97.0977 43.3522 98.2072 43.5442 98.5149 43.7622C98.9661 43.9572 100.072 45.0108 100.246 45.6237C101.038 48.4011 98.5383 54.5585 97.5947 55.7136C96.0328 57.6256 92.3009 56.1217 93.6682 52.428Z" fill="white"/>
<path fill-rule="evenodd" clip-rule="evenodd" d="M30.4851 42.307C33.4965 44.1921 36.6016 45.4235 40.1405 45.7613C42.9321 46.0228 46.696 45.6632 49.3996 44.7915C51.6746 44.0614 54.7519 42.0388 56.8071 40.328C60.7966 37.0154 63.3134 31.841 64.4124 26.3489C64.5663 25.5752 64.801 23.6304 64.79 21.7017C64.79 19.4569 63.7936 13.3226 60.7746 9.78555C54.548 2.49044 44.3128 -0.795791 35.7108 2.01208C32.6078 3.02498 29.304 4.86013 26.8092 7.25746C23.6659 10.2977 21.347 14.4385 20.4238 18.6666C19.4566 23.1343 20.7147 28.4738 22.9018 32.8544C24.6493 36.3414 27.5287 40.4436 30.4851 42.307ZM59.8295 29.1384C57.7633 35.2951 52.378 39.8937 45.6079 41.2885C44.5748 41.4955 43.8604 41.5718 42.4097 41.5936C41.3876 41.6263 40.3655 41.6154 40.1567 41.5936C35.4198 41.0269 31.815 39.2943 28.4959 36.0034C27.0452 34.5541 26.4297 33.7696 25.5285 32.2222C24.1107 29.7704 23.3524 27.2641 23.1216 24.2456C22.3303 13.9044 29.7928 5.28496 40.2996 4.39141C44.4209 4.04271 48.9929 5.29586 52.4659 7.73677C53.7518 8.64122 56.0817 10.9296 56.8071 11.9975C57.1038 12.4225 59.9833 16.596 60.4889 18.9933C61.1373 22.1098 60.8845 26.0109 59.8295 29.1384Z" fill="white"/>
<path fill-rule="evenodd" clip-rule="evenodd" d="M64.794 21.7014C64.794 29.0155 61.3046 37.0118 56.8012 40.4268C54.6526 42.0561 51.8448 44.029 49.3997 44.7912C45.8164 45.9081 40.1406 45.761 40.1406 45.761C40.1406 45.761 45.9311 44.9935 48.0769 44.1373C54.2302 41.682 57.5892 37.913 59.6634 34.2966C63.7576 27.1582 64.794 21.5237 64.794 21.7014Z" fill="#E7EAEE"/>
<path fill-rule="evenodd" clip-rule="evenodd" d="M40.2671 40.2862C37.3327 39.9157 34.4202 38.8805 32.0683 37.344C30.6725 36.4395 28.5623 34.3146 27.5402 32.8C26.0785 30.6206 25.1114 28.2886 24.6388 25.7823C24.2981 23.9626 24.3091 21.162 24.6498 19.5384C25.0015 17.8821 25.4521 16.618 26.2544 15.0162C27.1885 13.1637 28.1777 11.8016 29.6614 10.3305C32.1892 7.82418 35.1236 6.23323 38.6185 5.47044C39.7505 5.23071 43.85 5.03457 43.9928 5.21981C44.0258 5.2743 44.2456 5.41596 44.4764 5.53582C44.7072 5.66659 45.3227 6.12426 45.8282 6.57103C46.5866 7.22485 46.9273 7.63893 47.5867 8.66325C48.0373 9.36065 48.4 9.99267 48.4 10.0472C48.4 10.167 48.7517 10.385 48.9495 10.385C49.2243 10.385 49.4111 9.56769 49.466 8.1293C49.499 7.33382 49.565 6.68 49.6089 6.68C49.7628 6.68 51.4553 7.60624 52.2466 8.1293C53.7963 9.15361 55.3459 10.592 56.4889 12.0958C57.0054 12.7714 57.0824 12.9457 57.0824 13.3598C57.0824 13.7412 57.1923 14.0354 57.533 14.6239C58.3902 16.1059 59.0606 17.9692 59.4673 20.0288C59.7311 21.4127 59.7311 24.0279 59.4563 25.4772C58.709 29.4655 56.4889 33.432 53.5984 35.9492C51.1476 38.0741 48.5429 39.3817 45.4655 40.0246C44.4105 40.2535 41.2452 40.406 40.2671 40.2862ZM32.4088 32.8328C32.5077 32.7238 32.5736 32.5603 32.5406 32.484C32.5307 32.4612 32.3932 32.397 32.1918 32.3032L32.1917 32.3031L32.1917 32.3031C31.7221 32.0842 30.9058 31.7037 30.552 31.3072C29.1452 29.7162 28.6287 28.5285 28.31 26.0766C28.0022 23.6902 28.2607 22.0769 28.8155 19.484C29.0861 18.2191 29.8054 17.1743 30.2529 16.5243C30.5572 16.0824 30.7359 15.8229 30.5624 15.8008C30.1337 15.7355 30.0678 15.7681 29.6172 16.1931C28.65 17.1085 28.2104 17.8386 27.7488 19.2443C27.0344 21.4454 26.8964 27.3941 28.31 30.0758C29.7235 32.7575 32.156 33.1161 32.4088 32.8328ZM48.037 23.6792C47.8504 25.372 47.0589 27.8201 46.1357 28.888C45.7071 29.3892 44.1337 30.2501 42.8056 30.0757C41.5228 29.9073 40.5196 29.3129 39.6624 28.038C38.926 26.9374 38.5457 25.6015 38.2886 23.919C37.8446 21.0136 39.7833 17.6314 40.6185 16.7924C41.4648 15.9315 42.0693 15.6264 42.8386 15.6155C43.5859 15.6155 44.0695 15.7789 44.8278 16.3129C46.2126 17.2718 48.3997 20.3898 48.037 23.6792ZM33.2223 14.6675C33.4421 14.4168 33.4751 14.297 33.4091 13.8284C33.3652 13.3925 33.2773 13.2182 33.0465 13.0329C32.6398 12.706 32.1343 12.706 31.7606 13.0547C31.4968 13.3053 31.4639 13.3925 31.4968 13.9918C31.5298 14.6348 31.5518 14.6784 31.9145 14.8745C32.398 15.136 32.8706 15.0597 33.2223 14.6675ZM40.081 7.94389C38.1027 9.34959 37.2455 9.92713 36.3552 10.472C35.6519 10.9079 35.432 10.9188 35.432 10.5265C35.432 10.3194 35.5859 10.0906 35.9816 9.73099L36.5311 9.22973L35.465 9.08807C34.2671 8.93551 33.1021 8.6086 32.8493 8.35797C32.4317 7.93299 32.7944 7.83492 33.9813 8.05286C34.5089 8.14003 35.531 8.249 36.2563 8.2708L37.5752 8.32528L38.5313 7.63877C40.6305 6.13499 42.8066 5.28503 43.8507 5.54656C44.4991 5.69912 44.4222 5.87347 43.6858 5.96064C42.8396 6.05872 42.323 6.34204 40.081 7.94389Z" fill="white"/>
<path d="M42.9043 28.5826C42.9043 28.5281 42.9702 28.4736 43.0582 28.4736C43.1461 28.4736 43.256 28.5281 43.289 28.5826C43.3219 28.648 43.256 28.6916 43.1351 28.6916C43.0032 28.6916 42.9043 28.648 42.9043 28.5826Z" fill="white"/>
<path d="M43.5625 28.4847C43.5625 28.3648 43.8373 28.2559 44.145 28.2559C44.3868 28.2668 44.3868 28.2668 44.178 28.4193C43.9362 28.6045 43.5625 28.6372 43.5625 28.4847Z" fill="white"/>
<path d="M41.8594 28.2013C41.8264 28.1141 41.7825 27.9616 41.7495 27.8744C41.7165 27.7654 41.7715 27.7109 41.9144 27.7109C42.0353 27.7109 42.1342 27.7763 42.1342 27.8635C42.1342 27.9507 42.1671 28.0923 42.2001 28.1904C42.2441 28.3103 42.2111 28.3648 42.0902 28.3648C41.9913 28.3648 41.8814 28.2885 41.8594 28.2013Z" fill="white"/>
<path d="M42.4422 27.9286C42.3873 27.6016 42.5082 27.4927 42.9038 27.4927C43.0247 27.4927 43.1236 27.6016 43.1676 27.7869C43.2555 28.1029 43.1126 28.2555 42.728 28.2555C42.5521 28.2555 42.4752 28.1792 42.4422 27.9286Z" fill="white"/>
<path d="M41.32 27.9833C41.1112 27.8198 41.1112 27.8198 41.342 27.8198C41.4848 27.8198 41.5837 27.8852 41.5837 27.9833C41.5837 28.1794 41.5837 28.1794 41.32 27.9833Z" fill="white"/>
<path d="M43.531 27.9725C43.3881 27.8309 43.454 27.4059 43.6299 27.3405C43.9486 27.2207 44.0915 27.2751 44.1574 27.5585C44.2014 27.7219 44.2234 27.8636 44.2014 27.8745C44.1135 27.9725 43.5969 28.0379 43.531 27.9725Z" fill="white"/>
<path d="M44.5093 27.7435C44.4763 27.7108 44.4434 27.5692 44.4434 27.4384C44.4434 27.2531 44.5313 27.1769 44.7951 27.1224C45.0259 27.0788 45.1687 27.1006 45.2347 27.1878C45.3446 27.3621 45.3446 27.5801 45.2457 27.6345C45.0478 27.7435 44.5862 27.8089 44.5093 27.7435Z" fill="white"/>
<path d="M40.8164 27.4056C40.8164 27.2749 40.9153 27.1659 41.0582 27.1332C41.3439 27.0569 41.3329 27.046 41.3879 27.3293C41.4099 27.4928 41.3549 27.5582 41.1241 27.58C40.8823 27.6127 40.8164 27.5691 40.8164 27.4056Z" fill="white"/>
<path d="M41.6511 27.4168C41.4972 27.2534 41.5961 26.9482 41.8049 26.9482C41.9478 26.9482 42.0247 27.0245 42.0247 27.1553C42.0247 27.3623 41.772 27.5367 41.6511 27.4168Z" fill="white"/>
<path d="M42.3086 27.0896C42.2207 26.8825 42.4075 26.73 42.7702 26.73C42.9351 26.73 43.012 26.7954 43.012 26.937C43.012 27.0569 42.9131 27.1659 42.7702 27.2094C42.4075 27.2966 42.3856 27.2966 42.3086 27.0896Z" fill="white"/>
<path d="M45.4879 27.0572C45.5209 27.0027 45.5758 26.9482 45.6088 26.9482C45.6418 26.9482 45.6308 27.0027 45.5978 27.0572C45.5649 27.1226 45.5099 27.1662 45.4769 27.1662C45.444 27.1662 45.455 27.1226 45.4879 27.0572Z" fill="white"/>
<path d="M43.3003 26.8715C43.2124 26.6536 43.3223 26.5446 43.674 26.4901C43.8718 26.4683 43.9597 26.5119 43.9817 26.6645C44.0587 27.0241 43.4322 27.2202 43.3003 26.8715Z" fill="white"/>
<path d="M40.6608 26.6862C40.5619 26.3266 40.5838 26.2939 40.8696 26.2939C41.0234 26.2939 41.1443 26.3375 41.1443 26.392C41.1443 26.4465 41.1773 26.5664 41.2103 26.6535C41.2432 26.7625 41.1773 26.8279 40.9905 26.8606C40.7817 26.9042 40.7047 26.8606 40.6608 26.6862Z" fill="white"/>
<path d="M44.332 26.567C44.332 26.3708 44.409 26.2837 44.6178 26.2292C44.9255 26.1529 45.1014 26.3055 45.1014 26.6542C45.1014 26.7958 45.0134 26.8394 44.7167 26.8394C44.376 26.8394 44.332 26.8067 44.332 26.567Z" fill="white"/>
<path d="M40.3319 26.5668C40.2989 26.4796 40.3209 26.4033 40.3759 26.4033C40.4418 26.4033 40.4858 26.4796 40.4858 26.5668C40.4858 26.6539 40.4638 26.7302 40.4418 26.7302C40.4198 26.7302 40.3759 26.6539 40.3319 26.5668Z" fill="white"/>
<path d="M41.4416 26.6538C41.2878 26.5121 41.3757 26.207 41.5735 26.1526C41.6944 26.1199 41.8153 26.1308 41.8483 26.1634C41.9802 26.2833 41.9032 26.5993 41.7384 26.6647C41.5296 26.741 41.5296 26.741 41.4416 26.6538Z" fill="white"/>
<path d="M45.3648 26.5775C45.2439 26.2615 45.3758 26.0217 45.6835 25.989C45.9143 25.9563 45.9802 25.9999 45.9802 26.1743C45.9802 26.5339 45.8594 26.73 45.6395 26.73C45.5187 26.73 45.3978 26.6646 45.3648 26.5775Z" fill="white"/>
<path d="M42.2108 26.4361C42.0789 26.3162 42.1229 26.0983 42.3097 26.0329C42.5185 25.9566 42.9581 26.1746 42.8372 26.2944C42.6834 26.4252 42.2877 26.5233 42.2108 26.4361Z" fill="white"/>
<path d="M43.1674 26.1636C43.0685 26.011 43.4202 25.7495 43.706 25.7495C43.8379 25.7495 43.8928 25.8149 43.8708 25.9348C43.8269 26.1527 43.2663 26.327 43.1674 26.1636Z" fill="white"/>
<path d="M40.1562 26.0874C40.1562 26.0329 40.1232 25.9131 40.0903 25.815C40.0573 25.7169 40.0683 25.6406 40.1342 25.6406C40.2771 25.6406 40.387 26.0547 40.2551 26.1419C40.2002 26.1746 40.1562 26.1528 40.1562 26.0874Z" fill="white"/>
<path d="M40.4524 25.8364C40.3865 25.5967 40.5183 25.4224 40.7711 25.4224C40.914 25.4224 41.0569 25.8473 40.969 25.989C40.8481 26.1743 40.5074 26.0653 40.4524 25.8364Z" fill="white"/>
<path d="M41.221 25.8914C41.0561 25.7279 41.155 25.3357 41.3748 25.2812C41.5397 25.2376 41.6276 25.2921 41.7155 25.4882C41.7815 25.6299 41.8145 25.7715 41.7925 25.7933C41.6826 25.8914 41.2869 25.9677 41.221 25.8914Z" fill="white"/>
<path d="M44.1884 25.8909C44.0456 25.7492 44.1115 25.662 44.4412 25.5422C44.716 25.455 44.7929 25.4659 44.8479 25.5967C44.9468 25.8582 44.3973 26.1088 44.1884 25.8909Z" fill="white"/>
<path d="M45.1567 25.6404C45.0468 25.466 45.2007 25.3135 45.4864 25.3135C45.8271 25.3135 45.9261 25.5968 45.6183 25.684C45.2886 25.7711 45.2337 25.7602 45.1567 25.6404Z" fill="white"/>
<path d="M46.0918 25.3789C46.0918 25.2154 46.2896 25.0411 46.3775 25.1282C46.4545 25.2045 46.3006 25.5314 46.1907 25.5314C46.1358 25.5314 46.0918 25.466 46.0918 25.3789Z" fill="white"/>
<path d="M40.0134 25.2371C39.9694 25.2045 39.9365 25.0628 39.9474 24.9429C39.9474 24.7359 39.9584 24.7359 40.0573 24.9756C40.1673 25.2371 40.1453 25.3679 40.0134 25.2371Z" fill="white"/>
<path d="M40.2224 25.0738C40.1235 24.6924 40.1345 24.6597 40.4203 24.6597C40.739 24.6597 40.9368 25.0629 40.695 25.2154C40.4422 25.368 40.2994 25.3244 40.2224 25.0738Z" fill="white"/>
<path d="M44.0039 25.2915C44.0039 25.2588 44.0589 25.0845 44.1248 24.8883C44.2787 24.4524 44.6194 24.4306 44.6963 24.8556C44.7293 25.0191 44.7403 25.1607 44.7293 25.1716C44.6743 25.237 44.0039 25.3351 44.0039 25.2915Z" fill="white"/>
<path d="M41.0027 25.0196C40.9588 24.9869 40.9258 24.8561 40.9258 24.7363C40.9258 24.5619 40.9588 24.551 41.0906 24.66C41.1786 24.7363 41.2555 24.867 41.2555 24.9433C41.2555 25.1068 41.1236 25.1504 41.0027 25.0196Z" fill="white"/>
<path d="M44.959 24.8017C44.8931 24.4639 45.036 24.3113 45.3767 24.3549C45.5415 24.3767 45.5965 24.4748 45.5965 24.7145C45.5965 24.987 45.5525 25.0523 45.3107 25.0741C45.0689 25.1068 45.014 25.0523 44.959 24.8017Z" fill="white"/>
<path d="M46.0356 24.845C45.8927 24.4091 45.9367 24.2783 46.2334 24.2456C46.4972 24.213 46.5302 24.2456 46.5302 24.529C46.5302 24.7687 46.4642 24.8668 46.2994 24.9104C46.1785 24.943 46.0576 24.9104 46.0356 24.845Z" fill="white"/>
<path d="M39.8477 24.2236C39.8477 24.0166 39.8696 23.9294 39.9026 24.0384C39.9246 24.1365 39.9246 24.3108 39.9026 24.4198C39.8696 24.5179 39.8477 24.4307 39.8477 24.2236Z" fill="white"/>
<path d="M40.1228 24.3654C39.9799 24.2346 40.0458 23.8097 40.2217 23.7443C40.4745 23.6462 40.5954 23.7661 40.5954 24.1257C40.5954 24.3545 40.5404 24.4417 40.3975 24.4417C40.2876 24.4417 40.1557 24.409 40.1228 24.3654Z" fill="white"/>
<path d="M40.7823 24.0715C40.7383 23.908 40.7163 23.7337 40.7603 23.701C40.8702 23.592 40.9361 23.7664 40.9032 24.0824L40.8702 24.3875L40.7823 24.0715Z" fill="white"/>
<path d="M44.332 23.9949C44.332 23.8751 44.387 23.8097 44.4419 23.8424C44.5079 23.8751 44.5518 23.984 44.5518 24.0712C44.5518 24.1584 44.5079 24.2238 44.4419 24.2238C44.387 24.2238 44.332 24.1257 44.332 23.9949Z" fill="white"/>
<path d="M44.8279 24.1368C44.6741 23.9734 44.795 23.6791 45.0477 23.6138C45.3665 23.5375 45.3775 23.5375 45.4764 23.8535C45.5423 24.0496 45.4983 24.0932 45.2126 24.1368C45.0367 24.1695 44.8609 24.1586 44.8279 24.1368Z" fill="white"/>
<path d="M45.8369 23.9296C45.716 23.8206 45.749 23.461 45.8699 23.461C45.9358 23.461 45.9798 23.4174 45.9798 23.3521C45.9798 23.2976 45.9139 23.2431 45.8259 23.2431C45.6391 23.2431 45.4852 22.7091 45.6391 22.5566C45.8369 22.3604 46.0567 22.5675 46.1886 23.1014C46.2656 23.3848 46.3425 23.7117 46.3755 23.8206C46.4194 23.9623 46.3755 24.0059 46.1666 24.0059C46.0238 24.0059 45.8699 23.9732 45.8369 23.9296Z" fill="white"/>
<path d="M46.4318 23.352C46.3549 23.0251 46.1571 22.3713 46.0142 21.8918C45.7944 21.1944 45.7724 21.0201 45.8933 20.9438C45.9702 20.8893 46.0692 20.8457 46.1021 20.8457C46.223 20.8457 46.6626 23.0796 46.6187 23.5155L46.5857 23.9513L46.4318 23.352Z" fill="white"/>
<path d="M39.7383 23.2978C39.7383 23.1235 39.7603 23.0581 39.7932 23.167C39.8152 23.2651 39.8152 23.4177 39.7932 23.494C39.7603 23.5593 39.7383 23.4831 39.7383 23.2978Z" fill="white"/>
<path d="M39.9575 23.2757C40.0014 22.8943 40.3202 22.8071 40.4081 23.1558C40.485 23.4391 40.507 23.4065 40.1773 23.5154C39.9465 23.5808 39.9245 23.559 39.9575 23.2757Z" fill="white"/>
<path d="M44.5958 23.1779C44.5079 22.8618 44.6947 22.6766 45.0464 22.7202C45.3102 22.7529 45.4091 23.2214 45.1893 23.3631C44.9145 23.5375 44.6617 23.4612 44.5958 23.1779Z" fill="white"/>
<path d="M40.5957 23.0905C40.5957 22.9052 40.6507 22.8071 40.7715 22.8071C40.8815 22.8071 40.9254 22.8834 40.9034 23.0469C40.8485 23.3956 40.5957 23.4283 40.5957 23.0905Z" fill="white"/>
<path d="M39.6174 22.6327C39.6174 22.5128 39.6504 22.4801 39.6833 22.5673C39.7163 22.6436 39.7053 22.7417 39.6723 22.7744C39.6394 22.8179 39.6064 22.7526 39.6174 22.6327Z" fill="white"/>
<path d="M39.8262 22.5999C39.8262 22.4365 39.8921 22.3711 40.057 22.3711C40.2108 22.3711 40.2658 22.4256 40.2438 22.5563C40.1889 22.8397 39.8262 22.8724 39.8262 22.5999Z" fill="white"/>
<path d="M40.4306 22.5019C40.3537 22.3058 40.3537 22.3058 40.6834 22.2186C40.8812 22.1532 40.9252 22.1859 40.9252 22.3493C40.9252 22.6109 40.5295 22.7416 40.4306 22.5019Z" fill="white"/>
<path d="M44.4088 22.3496C44.3318 22.0772 44.4747 21.9355 44.8594 21.9355C45.0462 21.9355 45.1012 22.0009 45.1012 22.208C45.1012 22.3714 45.0352 22.4804 44.9473 22.4804C44.8594 22.4804 44.7165 22.5131 44.6286 22.5458C44.5296 22.5785 44.4527 22.5131 44.4088 22.3496Z" fill="white"/>
<path d="M45.3651 22.0992C45.2772 21.8812 45.4091 21.7178 45.6619 21.7178C45.8157 21.7178 45.8707 21.7941 45.8707 21.9902C45.8707 22.1863 45.8157 22.2626 45.6509 22.2626C45.53 22.2626 45.3981 22.1863 45.3651 22.0992Z" fill="white"/>
<path d="M39.7168 21.9465C39.7168 21.7177 39.9696 21.4561 40.0795 21.576C40.1234 21.6087 40.1564 21.7613 40.1564 21.9029C40.1564 22.0773 40.0905 22.1535 39.9366 22.1535C39.7937 22.1535 39.7168 22.0773 39.7168 21.9465Z" fill="white"/>
<path d="M40.321 21.8156C40.2331 21.5432 40.332 21.4233 40.7056 21.3689C41.0463 21.3253 41.1562 21.6849 40.8595 21.9028C40.5738 22.1099 40.3979 22.0772 40.321 21.8156Z" fill="white"/>
<path d="M44.3 21.75C44.2231 21.6846 44.1901 21.2815 44.2561 21.2815C44.2671 21.2815 44.4319 21.2379 44.6297 21.1834C44.9594 21.0853 44.9814 21.0962 44.9704 21.3904C44.9594 21.6084 44.8935 21.7173 44.7286 21.7609C44.4319 21.8372 44.3879 21.8372 44.3 21.75Z" fill="white"/>
<path d="M43.8926 21.4995C43.8926 21.4233 43.9255 21.3906 43.9695 21.4233C44.0025 21.4669 44.0025 21.5322 43.9695 21.5758C43.9255 21.6085 43.8926 21.5758 43.8926 21.4995Z" fill="white"/>
<path d="M45.1244 21.3252C45.1573 21.14 45.498 20.8676 45.575 20.9547C45.6079 20.9874 45.6629 21.1182 45.6959 21.2599C45.7728 21.4778 45.7398 21.4996 45.4321 21.4996C45.1683 21.4996 45.0914 21.456 45.1244 21.3252Z" fill="white"/>
<path d="M39.8262 21.3144C39.8262 21.2599 39.8811 21.151 39.9361 21.0638C40.024 20.933 40.046 20.9439 40.046 21.151C40.046 21.2817 40.002 21.3907 39.9361 21.3907C39.8811 21.3907 39.8262 21.358 39.8262 21.3144Z" fill="white"/>
<path d="M40.1562 21.0746C40.1562 20.7695 40.3871 20.6714 40.5629 20.9003C40.6728 21.0637 40.6728 21.1182 40.5629 21.1945C40.3321 21.3361 40.1562 21.2926 40.1562 21.0746Z" fill="white"/>
<path d="M43.4974 20.9329C43.2996 20.715 43.2996 20.7041 43.4864 20.7695C43.5963 20.8131 43.7392 20.8458 43.7942 20.8458C43.8491 20.8458 43.8931 20.922 43.8931 21.0092C43.8931 21.2381 43.7392 21.2163 43.4974 20.9329Z" fill="white"/>
<path d="M41.1345 20.9223C40.662 20.5627 40.596 19.7563 41.0356 19.7563C41.3324 19.7563 41.6071 20.214 41.5632 20.639C41.5302 21.0313 41.3983 21.1185 41.1345 20.9223Z" fill="white"/>
<path d="M44.1455 20.9874C44.1895 20.9547 44.2554 20.9547 44.2994 20.9874C44.3324 21.031 44.2994 21.0637 44.2225 21.0637C44.1455 21.0637 44.1126 21.031 44.1455 20.9874Z" fill="white"/>
<path d="M45.8057 20.5623C45.8387 20.4642 45.8716 20.3662 45.8716 20.3444C45.8716 20.3226 45.9266 20.3008 45.9816 20.3008C46.0475 20.3008 46.0915 20.3989 46.0915 20.5187C46.0915 20.6495 46.0145 20.7367 45.9156 20.7367C45.7947 20.7367 45.7617 20.6822 45.8057 20.5623Z" fill="white"/>
<path d="M40.0469 20.5299C40.0469 20.2793 40.2777 19.8652 40.4096 19.8652C40.6404 19.8652 40.4755 20.5626 40.2337 20.6062C40.1348 20.628 40.0469 20.5953 40.0469 20.5299Z" fill="white"/>
<path d="M42.5192 20.41L42.1895 20.3337L42.4862 20.2574C42.7939 20.1702 43.0137 20.2356 43.0137 20.4209C43.0137 20.5298 43.0027 20.5298 42.5192 20.41Z" fill="white"/>
<path d="M42.1348 19.8867C42.1348 19.4399 42.3875 19.3745 42.6183 19.7668C42.7722 20.0284 42.7832 20.0828 42.6403 20.0828C42.5524 20.0828 42.4095 20.1155 42.3106 20.1482C42.1787 20.2027 42.1348 20.1373 42.1348 19.8867Z" fill="white"/>
<path d="M44.0457 20.0395C43.5511 19.8216 43.2324 19.2441 43.2324 18.5576C43.2324 18.0672 43.2764 17.9473 43.5731 17.6749C43.76 17.5005 43.9468 17.3589 44.0018 17.3589C44.2435 17.3589 45.1338 18.198 45.4305 18.721L45.7712 19.3203L45.4085 19.7017C44.9909 20.1376 44.5293 20.2575 44.0457 20.0395Z" fill="white"/>
<path d="M41.7499 19.7559C41.7169 19.7015 41.7389 19.647 41.7938 19.647C41.8598 19.647 41.9147 19.7015 41.9147 19.7559C41.9147 19.8213 41.8927 19.8649 41.8708 19.8649C41.8378 19.8649 41.7828 19.8213 41.7499 19.7559Z" fill="white"/>
<path d="M40.3091 19.5818C40.3421 19.4838 40.3751 19.3857 40.3751 19.3639C40.3751 19.3421 40.474 19.3203 40.5949 19.3203C40.8697 19.3203 40.8806 19.4947 40.6059 19.6472C40.3091 19.7998 40.2322 19.7889 40.3091 19.5818Z" fill="white"/>
<path d="M41.1778 19.4509C40.925 19.4182 40.848 19.2765 41.0129 19.1784C41.0569 19.1457 41.2547 19.0913 41.4525 19.0477C41.7492 18.9823 41.8042 19.0041 41.8042 19.1893C41.8042 19.4182 41.5734 19.5162 41.1778 19.4509Z" fill="white"/>
<path d="M42.0234 19.0805C42.0234 18.9498 42.0344 18.8735 42.0564 18.8953C42.0674 18.9171 42.1553 19.0261 42.2323 19.135C42.3641 19.2876 42.3532 19.3203 42.1993 19.3203C42.0894 19.3203 42.0234 19.2331 42.0234 19.0805Z" fill="white"/>
<path d="M40.4844 19.0041C40.4844 18.9387 40.5393 18.8624 40.5943 18.8297C40.6602 18.797 40.7042 18.8406 40.7042 18.9278C40.7042 19.0258 40.6602 19.1021 40.5943 19.1021C40.5393 19.1021 40.4844 19.0585 40.4844 19.0041Z" fill="white"/>
<path d="M40.8917 18.8406C40.8037 18.6227 41.584 18.3829 41.7159 18.59C41.8148 18.7643 41.7159 18.8406 41.2983 18.9278C41.0455 18.9823 40.9356 18.9605 40.8917 18.8406Z" fill="white"/>
<path d="M41.926 18.4921C41.926 18.3722 41.959 18.3395 41.9919 18.4267C42.0249 18.503 42.0139 18.601 41.9809 18.6337C41.948 18.6773 41.915 18.6119 41.926 18.4921Z" fill="white"/>
<path d="M40.9926 18.3176C41.1245 18.0778 41.5091 17.6855 41.608 17.6855C41.7179 17.6855 41.7289 18.1977 41.619 18.2631C41.5641 18.2849 41.3882 18.3394 41.2234 18.383C40.9816 18.4374 40.9266 18.4265 40.9926 18.3176Z" fill="white"/>
<path d="M41.8697 18.0667C41.7488 17.7398 41.8037 17.5982 42.0675 17.5546C42.3422 17.5001 42.3422 17.5001 42.1664 17.8379C41.9466 18.2738 41.9576 18.2738 41.8697 18.0667Z" fill="white"/>
<path d="M41.8047 17.4132C41.8047 17.3914 42.0245 17.2389 42.2993 17.0863C42.629 16.8902 42.8598 16.8248 43.0246 16.8684C43.2224 16.9338 43.1675 16.9773 42.6839 17.2062C42.1454 17.4459 41.8047 17.5331 41.8047 17.4132Z" fill="white"/>
<path d="M47.9041 7.75842C47.6074 7.33344 46.9809 6.64693 46.5303 6.23285C46.0797 5.81876 45.783 5.48096 45.8709 5.48096C46.1127 5.48096 47.9591 5.98222 48.4207 6.17836C48.8053 6.34182 48.8163 6.36361 48.7174 6.70141C48.6625 6.89756 48.6185 7.38792 48.6185 7.79111C48.6185 8.20519 48.5855 8.5321 48.5416 8.5321C48.4866 8.5321 48.2119 8.1834 47.9041 7.75842Z" fill="white"/>
<path d="M25.5394 40.7653C25.0888 40.5365 24.9898 40.4057 24.4183 39.2834C23.5941 37.6924 23.5721 37.3219 24.3524 38.2263C24.6601 38.5859 25.3745 39.3269 25.935 39.8718C26.8912 40.7871 26.9351 40.8525 26.6164 40.8089C26.3856 40.7762 26.2977 40.798 26.3527 40.8852C26.4845 41.0813 26.0669 41.0269 25.5394 40.7653Z" fill="white"/>
<path fill-rule="evenodd" clip-rule="evenodd" d="M43.9565 60.6184C43.8653 60.4036 43.9669 60.1562 44.1836 60.0658L44.4204 59.9661C46.7225 58.9895 48.0439 58.4028 48.9418 57.4712C49.8396 56.5396 49.9471 55.1712 50.1158 54.3386C50.1621 54.1101 50.6839 54.5114 50.9144 54.5573C51.1448 54.6032 51.2941 54.8257 51.2478 55.0542C51.045 56.0553 50.4988 57.0097 49.6196 57.9156C48.7433 58.8186 47.0467 59.7864 44.5139 60.8436C44.2972 60.9341 44.0477 60.8332 43.9565 60.6184Z" fill="#00160A"/>
<path fill-rule="evenodd" clip-rule="evenodd" d="M54.3681 17.14C54.5701 17.0208 54.8313 17.0865 54.9515 17.2868C56.1554 19.292 56.8004 21.5842 56.8004 23.969C56.8004 31.1941 50.8931 37.0511 43.6062 37.0511C41.6699 37.0511 39.7918 36.637 38.072 35.8481C37.8587 35.7502 37.0528 34.971 37.8645 35.2879C38.6761 35.6048 41.8165 36.3162 43.6288 36.3162C50.4456 36.3162 55.2681 30.7279 55.2681 23.969C55.2681 21.7372 54.3681 19.7562 54.2201 17.7185C54.2029 17.4823 54.1661 17.2592 54.3681 17.14Z" fill="#00160A"/>
<path fill-rule="evenodd" clip-rule="evenodd" d="M12.2138 49.0788C12.3643 48.8998 12.6326 48.5379 12.8133 48.6871C13.5542 49.299 14.3449 50.008 15.1907 50.1448C16.0708 50.2872 17.1149 50.2872 18.3217 50.1423C18.555 50.1143 18.7671 50.2792 18.7954 50.5106C18.8236 50.7419 18.6573 50.9522 18.424 50.9802C17.1424 51.134 16.0194 51.134 15.0536 50.9778C14.0534 50.816 13.1232 50.3791 12.2685 49.6732C12.0879 49.524 12.0634 49.2579 12.2138 49.0788Z" fill="#00160A"/>
<path d="M21.2522 34.3147C20.7027 33.8788 19.5267 32.593 18.6365 31.4597C18.1749 30.8604 17.6583 29.6399 17.3506 28.4086C17.2077 27.8528 17.0648 27.3516 17.0319 27.2862C16.9879 27.2317 16.8121 26.458 16.6362 25.5645C16.3724 24.3004 16.4282 23.8932 16.1966 22.3812C16.0985 21.741 16.0098 21.2316 16.0098 21.2316L16.2955 20.8679C16.4604 20.6499 16.6689 20.2893 16.7461 20.0833C17.0978 19.145 19.6805 16.204 19.7575 16.2803C19.7795 16.3021 19.6915 16.8142 19.5377 17.4135C19.3948 18.0129 19.219 18.9173 19.142 19.4295C19.0321 20.2794 18.9882 20.3775 18.6475 20.6608C18.2188 21.0204 17.4055 22.1755 17.4055 22.4152C17.4055 22.7422 17.9001 22.5242 18.4167 21.9903L18.9442 21.4454V22.0447C18.9442 22.437 18.8673 22.7966 18.7244 23.08C18.4496 23.6139 18.4496 24.1805 18.7134 24.6164C18.8453 24.8344 18.9662 25.3574 19.0431 25.9785C19.3838 28.79 20.1092 31.2309 21.3511 33.6827C21.6588 34.2929 21.9006 34.7942 21.8896 34.7942C21.8676 34.7942 21.5819 34.5762 21.2522 34.3147Z" fill="white"/>
<path fill-rule="evenodd" clip-rule="evenodd" d="M66.9824 41.0377L67.7737 41.3864C67.9378 41.4615 69.7479 42.3239 71.9221 43.3597C75.4277 45.0298 79.8799 47.1509 79.9071 47.1509C79.951 47.1509 80.1573 46.6781 80.2038 46.1266C80.3137 44.9388 80.7204 43.3261 81.1929 42.2037C81.4128 41.7024 81.5886 41.076 81.5886 41.0215C81.5886 40.9966 81.4099 40.9252 81.1174 40.8082C80.7692 40.6689 80.2597 40.4652 79.6983 40.1987C76.9287 38.8801 71.5104 36.1886 70.84 35.7854C70.1806 35.404 70.0487 35.3713 70.0487 35.622C70.0487 35.9489 69.3783 37.4635 68.8618 38.2808C68.587 38.7276 68.0485 39.534 67.6638 40.0679L66.9824 41.0377ZM79.7204 45.1894C80.0355 45.3705 79.4896 45.6361 79.3577 45.6797C78.5811 45.7451 77.6669 45.6003 76.9178 45.1676C76.5261 44.8922 73.4422 43.1934 71.3965 42.0666C70.4613 41.5514 69.743 41.1558 69.5982 41.0703C69.1366 40.7979 68.697 40.5037 68.6201 40.4165C68.3893 40.1223 68.6091 39.9915 69.2575 40.046C69.6473 40.0788 79.0396 44.7982 79.7204 45.1894Z" fill="white"/>
<path d="M59.0917 42.019C58.806 41.9209 58.4982 41.703 58.3004 41.4524L57.9707 41.0492L59.1357 39.905C60.9271 38.1615 62.246 36.256 63.4329 34.1311C63.8286 33.4228 65.0045 30.5663 65.1474 30.2503C65.3672 29.7926 65.5321 29.6183 66.0047 29.3568C66.5652 29.0299 67.2026 28.9209 67.4774 29.1061C68.0049 29.4548 68.0049 30.5554 67.4774 32.4515C66.8949 34.5328 66.1146 36.0257 64.499 38.1724C64.2462 38.4993 63.7736 39.1422 63.4329 39.589C62.5207 40.7876 61.9272 41.3652 61.1249 41.812C60.3336 42.2478 59.872 42.3023 59.0917 42.019Z" fill="white"/>
<path d="M63.2347 41.7684L63.0039 41.5395C63.0039 41.5395 66.8346 36.714 67.521 34.936C68.0448 33.5791 68.353 33.1943 68.769 33.1943C69.0016 33.1943 69.1915 33.247 69.2794 33.3777C69.4333 33.6066 69.5816 33.8899 69.3837 34.8597C69.054 36.4289 68.5485 37.4641 67.0318 39.698C66.6801 40.2101 66.2295 40.7768 66.0317 40.9729C65.5701 41.3979 64.5316 41.8338 63.9271 41.9318C63.5424 41.9863 63.4325 41.9645 63.2347 41.7684Z" fill="white"/>
<path fill-rule="evenodd" clip-rule="evenodd" d="M69.6694 36.7219C69.891 36.2192 70.049 35.7806 70.049 35.622C70.049 35.3713 70.1809 35.404 70.8403 35.7854C71.5107 36.1886 76.9289 38.8801 79.6985 40.1987C80.7316 40.689 81.5888 40.967 81.5888 41.0215C81.5888 41.076 69.4344 37.255 69.6694 36.7219Z" fill="#E7EAEE"/>
<path fill-rule="evenodd" clip-rule="evenodd" d="M32.0663 37.3439C30.6705 36.4395 28.5604 34.3146 27.5383 32.7999C26.0766 30.6205 25.1094 28.2886 24.6368 25.7823C24.2961 23.9625 24.3071 21.162 24.6478 19.5383C24.9995 17.882 25.4501 16.618 26.2524 15.0161C27.1866 13.1636 28.1757 11.8015 29.6594 10.3304C31.1144 8.88783 24.6478 14.8536 26.2524 25.5276C27.5383 34.4723 33.0645 37.996 32.0663 37.3439Z" fill="#E7EAEE"/>
</svg>
