<svg width="377" height="339" viewBox="0 0 377 339" fill="none" xmlns="http://www.w3.org/2000/svg">
<path fill-rule="evenodd" clip-rule="evenodd" d="M50.3529 270.694C-3.79231 233.051 61.0546 183.169 45.2139 123.524C29.3732 63.8777 -8.99831 -25.0555 142.381 6.63372C295.76 38.7415 393.038 80.0853 370.049 208.149C347.06 336.212 104.498 308.337 50.3529 270.694Z" fill="#7222F5" fill-opacity="0.32"/>
<path fill-rule="evenodd" clip-rule="evenodd" d="M285.364 322.256C281.969 318.864 280.361 314.121 278.861 309.558C274.93 315.263 266.154 315.447 260.127 312.043C254.1 308.639 250.033 302.695 245.706 297.286C237.958 287.601 204.769 263.685 204.224 256.47C203.934 252.643 215.039 245.677 215.039 245.677L195.084 233.911C195.084 233.911 184.735 241.867 178.785 242.813C162.231 245.444 150.522 243.877 150.508 246.863C150.458 257.666 215.678 312.473 194.88 312.043C163.667 311.398 106.658 250.515 88.1912 245.677C80.4577 243.651 27.4151 246.863 27.4151 233.997C27.4151 216.716 74.7928 204.826 74.7928 204.826C74.7928 204.826 62.4449 163.098 77.39 128.975C80.8129 121.16 85.0507 112.08 85.4637 104.401C85.577 102.295 145.327 45.5774 153.003 42.7439C170.901 36.1374 189.939 32.646 209.011 32.4724C211.553 32.4492 284.047 42.7439 316.646 96.6672C322.537 106.412 349.299 178.783 322.128 224.181C317.841 231.343 318.366 240.232 321.33 248.117C324.294 256.002 327.938 264.772 324.579 272.496C322.745 260.121 319.524 247.952 314.996 236.293C308.682 240.893 311.879 250.791 315.643 257.645C320.387 266.282 325.131 274.919 329.875 283.555C331.847 287.147 333.887 291.105 333.177 295.143C332.366 299.761 328.26 302.955 324.457 305.686C315.775 311.921 307.093 318.156 298.411 324.391C294.514 327.19 288.759 325.648 285.364 322.256Z" fill="white"/>
<path fill-rule="evenodd" clip-rule="evenodd" d="M168.081 131.147C168.746 129.343 171.14 128.598 172.906 129.35C174.672 130.102 175.768 131.981 176.045 133.884C176.322 135.787 175.902 137.721 175.361 139.566C174.868 141.249 174.274 142.901 173.581 144.511C173.517 144.661 173.431 144.829 173.272 144.864C173.103 144.902 172.947 144.771 172.826 144.647C169.825 141.6 168.015 137.404 167.858 133.126C167.833 132.458 167.85 131.774 168.081 131.147M173.269 131.587C172.777 131.164 172.141 130.887 171.493 130.907C169.979 130.953 168.923 132.607 168.957 134.124C168.991 135.641 169.797 137.018 170.58 138.317C171.14 139.248 171.701 140.178 172.261 141.108C172.452 141.425 172.828 141.787 173.125 141.567C173.245 141.479 173.292 141.324 173.331 141.18C173.56 140.334 173.79 139.489 174.019 138.644C174.347 137.436 174.678 136.208 174.657 134.956C174.637 133.704 174.218 132.402 173.269 131.587L173.269 131.587Z" fill="#F17D29"/>
<path fill-rule="evenodd" clip-rule="evenodd" d="M172.279 136.443C171.91 136.547 171.508 136.527 171.151 136.388C170.459 136.118 169.981 135.374 170.021 134.631C170.061 133.887 170.616 133.199 171.334 133.005C172.421 132.711 173.645 133.715 173.573 134.841C173.526 135.572 172.983 136.245 172.279 136.443Z" fill="#F17D29"/>
<path fill-rule="evenodd" clip-rule="evenodd" d="M192.093 313.26C193.335 313.424 192.877 315.355 192.071 316.316C184.378 325.494 174.333 332.677 163.169 336.981C160.666 337.947 158.076 338.776 155.4 338.961C150.437 339.304 145.494 337.361 141.569 334.298C137.645 331.235 134.654 327.117 132.217 322.771C125.553 310.886 122.759 296.862 124.359 283.324C124.51 282.05 125.377 280.361 126.548 280.878C126.209 285.404 126.156 289.952 126.391 294.485C126.621 298.937 127.134 303.402 128.41 307.672C129.591 311.627 131.408 315.357 133.303 319.022C135.251 322.789 137.314 326.546 140.127 329.717C142.94 332.888 146.591 335.465 150.744 336.287C155.951 337.318 161.295 335.52 166.096 333.252C176.052 328.548 184.983 321.68 192.093 313.26Z" fill="#00160A"/>
<path fill-rule="evenodd" clip-rule="evenodd" d="M228.114 261.674C237.155 252.759 246.197 243.844 255.239 234.93C255.745 234.43 256.495 233.898 257.093 234.28C257.892 234.791 257.253 236.019 256.58 236.687C246.848 246.332 237.116 255.977 227.385 265.623C226.683 265.266 226.479 264.305 226.727 263.557C226.974 262.809 227.553 262.227 228.114 261.674H228.114Z" fill="#00160A"/>
<path fill-rule="evenodd" clip-rule="evenodd" d="M158.894 210.403C158.343 210.498 157.792 210.594 157.241 210.689C156.171 209.08 155.076 207.41 154.74 205.506C154.404 203.602 155.033 201.386 156.719 200.447C158.628 199.384 159.203 196.77 158.595 194.669C157.987 192.567 156.481 190.865 155.006 189.252C153.508 187.614 151.105 185.875 149.327 187.202C148.167 188.067 146.432 187.577 145.394 186.569C144.356 185.561 143.807 184.168 143.136 182.885C141.866 180.457 140.015 178.268 137.593 176.995C135.171 175.723 132.139 175.47 129.702 176.712C127.283 177.944 125.758 180.396 123.697 182.163C121.635 183.931 118.231 184.869 116.374 182.887C115.902 182.384 115.585 181.636 115.853 180.999C116.122 180.363 117.164 180.144 117.496 180.749C118.344 182.293 120.687 182.27 122.152 181.297C123.617 180.323 124.534 178.731 125.736 177.446C128.087 174.931 131.66 173.622 135.075 174.024C138.49 174.426 141.663 176.53 143.368 179.522C144.19 180.964 144.697 182.604 145.769 183.869C146.842 185.134 148.792 185.909 150.168 184.985C151.723 183.94 153.75 185.238 155.115 186.522C156.961 188.259 158.76 190.137 159.799 192.452C160.839 194.766 161.004 197.614 159.645 199.756C158.514 201.539 156.35 202.983 156.537 205.087C156.712 207.05 158.966 208.434 158.894 210.403V210.403Z" fill="#00160A"/>
<path fill-rule="evenodd" clip-rule="evenodd" d="M182.763 122.041C186.073 123.594 189.018 126.078 190.72 129.319C192.421 132.561 192.768 136.587 191.242 139.915C188.086 146.801 178.05 149.482 176.943 156.977C176.662 158.887 177.045 160.871 176.574 162.743C176.249 164.036 175.536 165.191 174.966 166.396C173.743 168.981 173.166 171.87 173.3 174.728C172.025 175.42 170.525 173.947 170.362 172.502C170.199 171.058 170.776 169.624 170.745 168.171C170.687 165.439 168.578 163.264 166.78 161.211C164.081 158.131 161.737 154.505 161.299 150.43C161.158 149.117 161.217 147.778 160.923 146.491C160.606 145.106 159.896 143.851 159.269 142.578C157.577 139.143 156.432 135.179 157.473 131.494C158.515 127.808 162.398 124.759 166.083 125.774C167.13 126.062 168.155 126.65 169.229 126.49C171.115 126.208 171.876 123.953 173.19 122.569C175.547 120.088 179.667 120.588 182.763 122.041M166.734 157.854C168.824 160.61 170.914 163.365 173.004 166.121C175.401 163.591 174.41 159.499 175.139 156.088C176.131 151.441 180.279 148.287 183.873 145.186C187.466 142.085 191.035 137.843 190.228 133.16C189.579 129.398 186.303 126.723 183.161 124.563C181.389 123.345 179.345 122.119 177.233 122.511C175.097 122.907 173.633 124.805 172.094 126.341C170.555 127.877 168.235 129.212 166.309 128.205C163.599 126.788 160.148 129.205 159.383 132.171C158.618 135.137 159.718 138.24 160.925 141.055C162.132 143.869 163.494 146.786 163.265 149.841C163.042 152.813 164.934 155.481 166.734 157.854Z" fill="#00160A"/>
<path fill-rule="evenodd" clip-rule="evenodd" d="M0.0184809 94.5589C-0.117211 94.1905 0.527353 94.0868 0.872938 94.272C0.858059 94.6551 0.27031 94.8488 0.0314426 94.5493L0.0184809 94.5589Z" fill="#00160A"/>
<path fill-rule="evenodd" clip-rule="evenodd" d="M250.701 245.471C251.411 245.57 251.788 246.445 251.626 247.145C251.465 247.844 250.94 248.392 250.436 248.903C246.363 253.029 242.289 257.155 238.216 261.281C237.915 261.585 237.562 261.912 237.134 261.899C236.559 261.88 236.183 261.214 236.253 260.642C236.324 260.07 236.699 259.589 237.063 259.143C240.808 254.55 244.873 250.219 249.218 246.191C249.636 245.804 250.138 245.392 250.701 245.471V245.471Z" fill="#00160A"/>
<path fill-rule="evenodd" clip-rule="evenodd" d="M130.929 185.8C133.174 186.003 134.9 188.117 135.285 190.342C135.67 192.567 134.978 194.842 134.039 196.895C133.522 198.026 132.927 199.121 132.261 200.171C131.782 200.927 131.171 201.721 130.29 201.868C128.818 202.112 127.785 200.489 127.218 199.107C126.418 197.162 125.685 195.189 125.02 193.194C124.693 192.214 124.378 191.184 124.545 190.164C124.801 188.606 126.122 187.44 127.507 186.687C128.557 186.114 129.738 185.692 130.929 185.8M128.821 197.257C128.993 197.526 129.177 197.802 129.446 197.973C129.668 198.113 129.939 198.171 130.198 198.135C130.866 198.042 131.295 197.398 131.635 196.816C132.528 195.291 133.443 193.691 133.544 191.927C133.644 190.162 132.644 188.199 130.918 187.836C128.899 187.41 127.017 189.438 126.846 191.498C126.675 193.559 127.707 195.516 128.821 197.257Z" fill="#F17D29"/>
<path fill-rule="evenodd" clip-rule="evenodd" d="M130.833 189.981C131.387 190.16 131.864 190.566 132.132 191.084C132.371 191.545 132.442 192.09 132.331 192.597C132.075 193.769 130.754 194.586 129.594 194.292C128.434 193.997 127.661 192.647 127.992 191.495C128.323 190.343 129.694 189.612 130.833 189.981M130.576 192.412C130.998 192.189 130.621 191.378 130.179 191.559C129.837 191.604 129.61 192.036 129.766 192.345C129.923 192.653 130.405 192.724 130.643 192.474L130.576 192.412Z" fill="#F17D29"/>
<path fill-rule="evenodd" clip-rule="evenodd" d="M249.612 212.15C248.361 210.796 247.236 209.325 246.257 207.762C245.945 207.262 246.593 206.611 247.176 206.689C247.76 206.767 248.189 207.257 248.561 207.714C249.857 209.308 251.154 210.901 252.45 212.495C252.301 213.063 251.585 213.321 251.018 213.17C250.451 213.019 250.01 212.582 249.612 212.15L249.612 212.15Z" fill="#00160A"/>
<path fill-rule="evenodd" clip-rule="evenodd" d="M292.326 285.98C292.34 286.166 292.271 286.347 292.201 286.52C291.489 288.257 290.429 289.85 289.103 291.177C286.993 293.288 284.134 294.852 283.004 297.617C282.737 298.272 281.739 298.367 281.22 297.886C280.701 297.406 280.63 296.583 280.859 295.913C281.089 295.244 281.564 294.693 282.028 294.16C283.54 292.422 285.053 290.684 286.565 288.946C287.724 287.615 288.933 286.244 290.539 285.514C291.2 285.214 292.27 285.255 292.326 285.98V285.98Z" fill="#00160A"/>
<path fill-rule="evenodd" clip-rule="evenodd" d="M251.153 204.914C252.646 206.672 254.138 208.43 255.631 210.187C255.882 210.482 256.147 210.818 256.13 211.205C256.103 211.807 255.365 212.167 254.781 212.026C254.196 211.886 253.754 211.418 253.361 210.961C252.096 209.491 250.964 207.907 249.981 206.234C249.598 205.582 249.449 204.442 250.198 204.344C250.582 204.295 250.902 204.619 251.153 204.914L251.153 204.914Z" fill="#00160A"/>
<path fill-rule="evenodd" clip-rule="evenodd" d="M233.962 214.711C233.735 214.392 233.5 213.976 233.692 213.634C234.009 213.07 234.869 213.507 235.298 213.992C236.814 215.706 238.105 217.62 239.126 219.67C238.154 220.163 237.119 219.159 236.487 218.269C235.646 217.083 234.804 215.897 233.962 214.711Z" fill="#00160A"/>
<path fill-rule="evenodd" clip-rule="evenodd" d="M235.307 219.758C235.914 220.391 236.529 221.432 235.896 222.039C235.253 222.657 234.223 221.96 233.655 221.272C232.279 219.608 231.083 217.795 230.094 215.875C230.729 215.329 231.669 215.964 232.249 216.569C233.268 217.632 234.288 218.695 235.307 219.758Z" fill="#00160A"/>
<path fill-rule="evenodd" clip-rule="evenodd" d="M236.962 213.527C236.687 213.122 236.429 212.566 236.726 212.178C237.152 211.623 238.016 212.132 238.492 212.643C239.873 214.127 241.255 215.61 242.636 217.094C242.574 217.63 241.947 217.951 241.414 217.871C240.881 217.792 240.438 217.432 240.038 217.07C238.878 216.017 237.842 214.825 236.962 213.527L236.962 213.527Z" fill="#00160A"/>
<path fill-rule="evenodd" clip-rule="evenodd" d="M245.668 210.238C246.528 211.337 247.388 212.437 248.248 213.536C248.589 213.972 248.949 214.532 248.726 215.039C248.512 215.528 247.835 215.657 247.345 215.447C246.855 215.237 246.512 214.792 246.192 214.365C245.295 213.164 244.405 211.957 243.524 210.744C243.33 210.476 243.126 210.175 243.156 209.845C243.205 209.295 243.907 209.01 244.432 209.178C244.957 209.346 245.328 209.803 245.668 210.238H245.668Z" fill="#00160A"/>
<path fill-rule="evenodd" clip-rule="evenodd" d="M245.02 215.309C245.198 215.503 245.389 215.73 245.37 215.994C245.344 216.345 244.933 216.563 244.585 216.511C244.237 216.458 243.95 216.22 243.688 215.985C241.972 214.438 240.525 212.591 239.433 210.553C239.648 209.993 240.493 210.374 240.898 210.815C242.272 212.313 243.646 213.811 245.02 215.309Z" fill="#00160A"/>
<path fill-rule="evenodd" clip-rule="evenodd" d="M261.689 205.392C261.823 205.546 261.964 205.723 261.956 205.927C261.943 206.236 261.577 206.429 261.274 206.377C260.97 206.325 260.724 206.108 260.498 205.898C258.882 204.402 257.336 202.829 255.868 201.187C256.387 200.488 257.484 201.049 258.114 201.649C259.364 202.839 260.557 204.089 261.689 205.392V205.392Z" fill="#00160A"/>
<path fill-rule="evenodd" clip-rule="evenodd" d="M256.569 206.887C255.665 205.647 254.761 204.406 253.858 203.166C253.692 202.939 253.517 202.662 253.606 202.395C253.782 201.869 254.578 202.103 255.006 202.454C256.365 203.565 257.519 204.928 258.391 206.453C258.56 206.748 258.723 207.099 258.604 207.418C258.451 207.824 257.896 207.944 257.497 207.774C257.099 207.604 256.824 207.237 256.569 206.887L256.569 206.887Z" fill="#00160A"/>
<path fill-rule="evenodd" clip-rule="evenodd" d="M263.78 202.329C262.887 201.367 261.995 200.405 261.102 199.443C260.784 199.1 261.169 198.492 261.633 198.442C262.098 198.392 262.523 198.686 262.891 198.974C263.568 199.505 264.221 200.066 264.847 200.655C265.194 200.981 265.545 201.338 265.676 201.796C265.806 202.254 265.627 202.836 265.178 202.991C264.661 203.17 264.153 202.731 263.78 202.329L263.78 202.329Z" fill="#00160A"/>
<path fill-rule="evenodd" clip-rule="evenodd" d="M262.048 204.234C260.812 202.964 259.629 201.643 258.501 200.276C258.305 200.038 258.098 199.745 258.182 199.448C258.276 199.112 258.714 198.981 259.044 199.093C259.373 199.205 259.614 199.483 259.839 199.75C260.871 200.974 261.904 202.199 262.937 203.423C263.216 203.755 263.491 204.276 263.174 204.571C262.854 204.869 262.352 204.547 262.048 204.234V204.234Z" fill="#00160A"/>
<path fill-rule="evenodd" clip-rule="evenodd" d="M320.825 282.73C322.219 282.299 325.75 281.339 327.145 280.908C327.77 280.715 328.699 280.69 328.816 281.335C328.912 281.865 328.303 282.227 327.793 282.398C326.385 282.872 322.792 283.731 321.317 283.909C320.792 283.973 320.029 283.777 320.135 283.258C320.196 282.959 320.534 282.82 320.825 282.73Z" fill="#00160A"/>
<path fill-rule="evenodd" clip-rule="evenodd" d="M164.999 224.283C167.207 224.315 169.817 224.83 170.698 226.86C171.525 228.766 170.224 231.057 168.4 232.046C166.576 233.035 164.403 233.06 162.329 233.057C134.031 233.021 105.734 232.336 77.4679 231.004C75.7065 230.921 75.5396 228.374 75.9421 226.654C76.1823 225.627 76.4522 224.545 77.1914 223.794C78.2548 222.713 79.9415 222.64 81.4557 222.635C101.776 222.569 122.134 222.505 142.368 224.379C145.573 224.676 148.782 225.021 152.001 224.99C156.341 224.948 160.659 224.22 164.999 224.283M168.168 229.431C168.642 228.503 167.944 227.324 166.995 226.898C166.046 226.472 164.955 226.583 163.92 226.685C150.655 227.993 137.3 226.483 123.993 225.704C114.322 225.137 104.632 224.957 94.9456 224.777C90.9076 224.702 86.8697 224.627 82.8317 224.551C81.5435 224.527 80.1324 224.544 79.1427 225.371C78.1529 226.198 78.1197 228.146 79.3481 228.536C79.5701 228.607 79.8058 228.619 80.0384 228.63C108.468 230.015 136.934 230.637 165.397 230.494C166.44 230.489 167.692 230.361 168.168 229.431V229.431Z" fill="#00160A"/>
<path fill-rule="evenodd" clip-rule="evenodd" d="M146.933 247.205C149.457 252.741 154.893 256.839 160.9 257.734C163.726 258.155 165.656 260.731 167.265 263.097C168.938 265.556 170.165 269.724 167.4 270.809C178.132 282.669 188.864 294.529 199.596 306.39C200.843 307.767 202.054 310.067 200.608 311.233C200.072 311.666 199.336 311.735 198.647 311.758C189.805 312.055 181.462 307.907 173.81 303.457C162.791 297.05 152.266 289.788 142.362 281.758C135.126 275.891 124.731 274.212 116.022 277.505C111.504 279.213 105.841 275.731 105.313 270.921C104.786 266.111 109.56 261.48 114.341 262.164C107.154 251.478 94.3009 244.874 81.448 245.263C65.9347 245.733 50.3595 244.102 35.2783 240.428C33.9536 240.105 32.5313 239.703 31.7004 238.62C30.0438 236.46 31.7818 233.39 33.6027 231.367C47.019 216.467 67.6626 208.429 87.5981 210.342C88.4476 210.423 88.9097 209.39 89.1088 208.558C94.1765 187.393 99.2442 166.228 104.312 145.063C104.923 142.511 108.799 142.158 110.72 143.942C112.64 145.727 113.062 148.571 113.284 151.187C114.934 170.682 112.052 191.67 121.723 208.666C122.173 209.458 122.682 210.269 123.473 210.718C124.253 211.161 125.192 211.188 126.088 211.204C143.993 211.522 161.898 211.839 179.803 212.157C182.034 212.197 184.773 211.931 185.675 209.886C187.984 204.644 190.294 199.403 192.603 194.161C193.338 192.493 194.351 190.602 196.149 190.327C198.725 189.933 200.354 193.175 200.271 195.785C200.188 198.394 199.312 201.167 200.459 203.511C204.665 199.031 208.943 194.492 214.203 191.32C219.463 188.148 225.924 186.463 231.823 188.167C226.608 196.476 221.393 204.785 216.179 213.094C220.534 215.982 220.878 223.287 216.812 226.572C215.076 227.975 216.454 230.744 217.892 232.451C222.396 237.802 226.901 243.153 231.406 248.504C227.561 250.291 223.083 248.452 219.302 246.532C212.545 243.102 205.95 239.352 199.545 235.301C196.436 233.335 193.01 237.021 190.189 239.382C185.711 243.13 179.527 243.877 173.722 244.469C164.793 245.381 155.863 246.293 146.933 247.205M162.509 235.574C167.995 235.875 173.585 236.256 178.909 234.893C184.359 233.498 189.319 230.249 192.783 225.806C193.624 224.727 195.097 224.422 196.443 224.19C201.091 223.388 205.986 222.605 210.426 224.199C212.429 224.917 214.873 224.094 216.037 222.309C217.2 220.524 216.97 217.951 215.508 216.401C213.926 216.358 213.638 218.608 212.799 219.953C211.696 221.719 209.291 222.007 207.215 222.112C199.595 222.496 191.976 222.88 184.357 223.264C182.507 223.357 179.959 222.817 180.015 220.962C180.039 220.146 180.634 219.471 181.217 218.901C183.263 216.9 185.598 215.196 188.127 213.859C157.19 214.094 126.248 213.746 95.3245 212.814C80.1183 212.356 63.9028 212.009 50.9456 219.998C49.736 220.744 48.7901 222.943 50.1937 223.16C54.327 223.799 58.4602 224.438 62.5935 225.077C63.0859 225.153 63.6125 225.246 63.9688 225.595C65.0369 226.64 63.5405 228.322 62.1644 228.902C56.4867 231.298 49.7209 230.932 44.333 227.939C43.1119 227.261 41.6633 226.436 40.4193 227.071C38.9163 227.838 39.1228 230.259 40.3977 231.366C41.6725 232.473 43.4882 232.628 45.1716 232.732C60.2946 233.668 75.4176 234.603 90.5405 235.538C94.7914 235.801 99.0554 236.064 103.306 235.798C123.014 234.567 142.793 234.492 162.509 235.574M184.585 294.326C179.292 287.028 173.263 280.267 166.619 274.178C164.444 272.185 162.528 269.928 160.618 267.678C152.268 257.84 143.917 248.002 135.567 238.164C134.733 237.182 133.292 237.053 132.006 237.012C121.039 236.664 110.035 237.48 99.2384 239.444C98.4403 239.59 97.5788 239.777 97.0518 240.395C95.8293 241.828 97.357 243.923 98.7895 245.145C113.125 257.377 127.987 268.989 143.321 279.938C146.143 281.953 149.007 283.96 152.194 285.324C158.206 287.897 164.219 290.47 170.231 293.043C174.831 295.012 180.315 296.937 184.585 294.326M112.787 185.708C112.567 182.834 112.565 179.91 111.777 177.138C110.358 172.144 106.571 168.223 102.803 164.659C102.511 164.382 102.125 164.085 101.747 164.223C101.404 164.349 101.279 164.762 101.201 165.12C98.3922 177.938 95.5835 190.755 92.7749 203.573C92.2448 205.992 91.7116 208.445 91.8264 210.92C101.673 211.044 111.52 211.168 121.367 211.293C116.461 203.648 113.484 194.77 112.787 185.708M228.484 189.965C222.367 189.441 216.068 191.694 211.664 195.98C203.598 203.83 194.985 211.116 185.907 217.766C184.665 218.676 183.333 219.685 182.912 221.169C190.516 220.825 198.121 220.482 205.726 220.138C207.732 220.047 210.093 219.746 211.052 217.978C216.3 208.304 222.124 198.944 228.484 189.965M33.2849 235.346C33.0777 235.79 32.8941 236.285 33.0092 236.762C33.2126 237.604 34.1947 237.955 35.0354 238.159C52.0389 242.294 69.6794 242.826 87.1689 243.339C88.9092 243.39 90.7148 243.429 92.3128 242.737C93.9108 242.044 95.2387 240.397 94.9789 238.672C83.6104 237.093 72.1355 236.284 60.6584 236.253C53.7829 236.234 46.7115 236.462 40.2659 234.064C38.711 233.485 36.9512 232.326 37.1493 230.675C35.4933 231.869 34.1492 233.494 33.2849 235.346M195.425 232.269C194.814 230.943 193.096 230.452 191.671 230.758C190.246 231.064 189.035 231.969 187.84 232.805C185.082 234.735 182.099 236.438 178.825 237.216C175.971 237.894 173.002 237.845 170.069 237.793C159.363 237.603 148.657 237.413 137.95 237.223C140.335 240.788 143.602 244.793 147.859 244.325C156.187 243.408 164.623 243.627 172.911 242.401C181.199 241.176 189.596 238.3 195.425 232.269M220.195 241.447C220.585 241.395 221.039 241.264 221.161 240.89C221.264 240.575 221.076 240.247 220.893 239.971C217.81 235.322 214.012 231.199 210.231 227.098C209.655 226.472 209.053 225.829 208.27 225.499C207.459 225.157 206.545 225.189 205.668 225.255C202.082 225.524 198.531 226.257 195.13 227.43C194.853 227.525 194.53 227.679 194.498 227.972C194.474 228.199 194.644 228.397 194.804 228.56C198.377 232.2 202.846 234.801 207.257 237.356C211.248 239.669 215.626 242.065 220.195 241.447M118.526 264.829C118.193 264.57 117.838 264.303 117.421 264.248C117.082 264.204 116.742 264.307 116.416 264.409C115.66 264.644 114.905 264.879 114.149 265.114C113.409 265.344 112.484 266.027 112.911 266.675C114.243 268.697 114.784 271.228 114.395 273.62C114.268 274.396 115.382 274.673 116.165 274.618C120.21 274.332 124.255 274.046 128.3 273.759C128.722 273.73 129.291 273.515 129.193 273.103C125.637 270.345 122.082 267.587 118.526 264.829M187.837 210.007C187.553 210.751 188.31 211.56 189.102 211.642C189.893 211.725 190.646 211.324 191.342 210.936C193.848 209.538 196.551 207.915 197.498 205.201C197.806 204.317 197.902 203.374 197.995 202.442C198.154 200.843 198.314 199.244 198.473 197.644C198.509 197.289 198.538 196.905 198.35 196.601C198.163 196.298 197.665 196.175 197.457 196.465C196.616 197.635 195.382 198.516 194.003 198.93C193.406 199.109 192.765 199.212 192.263 199.58C191.664 200.019 191.37 200.752 191.105 201.445C190.016 204.299 188.926 207.153 187.837 210.007M162.913 261.259C161.821 259.218 158.812 258.532 156.947 259.899C159.352 261.783 160.708 264.689 162.749 266.963C163.452 267.745 164.365 268.502 165.414 268.433C166.462 268.364 167.328 266.96 166.585 266.216C165.128 264.755 163.887 263.079 162.913 261.259M109.439 266.826C107.816 268.415 108.369 271.105 109.039 273.277C109.265 274.01 109.985 274.921 110.583 274.442C110.786 274.28 110.858 274.007 110.919 273.754C111.218 272.506 111.52 271.228 111.386 269.952C111.252 268.675 110.596 267.378 109.439 266.826Z" fill="#00160A"/>
<path fill-rule="evenodd" clip-rule="evenodd" d="M288.984 325.279C285.589 321.887 283.981 317.144 282.48 312.581C278.549 318.286 273.45 322.335 267.424 318.931C261.397 315.527 253.653 305.717 249.325 300.308C241.577 290.624 232.373 282.111 222.12 275.148C227.596 281.168 230.87 289.157 231.199 297.296C235.353 297.253 239.506 297.21 243.66 297.166C229.695 301.936 214.734 303.753 200.036 302.466C208.023 295.735 214.268 286.948 218.003 277.183C217.17 274.541 213.209 275.153 210.895 276.671C208.582 278.188 205.589 280.115 203.361 278.475C200.618 276.455 200.806 270.13 197.549 271.119C189.092 273.687 179.067 268.585 176.146 260.228C174.151 261.478 172.156 262.727 170.161 263.977C169.201 260.88 173.648 258.488 176.646 259.709C179.643 260.93 181.399 263.968 183.477 266.453C185.556 268.938 188.891 271.132 191.857 269.837C197.384 267.424 204.655 271.782 205.148 277.803C209.434 274.356 215.314 272.989 220.677 274.194C217.255 269.228 213.437 264.536 209.271 260.178C212.439 255.948 216.355 252.284 220.783 249.407C218.61 253.524 215.597 257.194 211.986 260.125C230.51 278.325 249.034 296.525 267.559 314.725C268.725 315.871 270.062 317.092 271.695 317.114C273.484 317.139 274.927 315.727 276.146 314.415C284.841 305.065 293.535 295.715 302.229 286.366C304.494 283.93 306.877 281.244 307.217 277.932C307.644 273.772 304.746 270.083 301.979 266.953C290.847 254.358 279.002 242.396 266.521 231.142C261.047 226.206 253.83 221.074 246.943 223.687C238.634 226.841 236.656 239.373 228.121 241.849C230.673 238.333 233.225 234.818 235.777 231.303C230.717 227.635 224.388 219.448 224.059 213.198C228.121 209.49 233.128 206.683 237.282 204.53C233.128 194.729 233.622 192.691 239.176 191.353C244.731 190.015 249.543 188.688 254.648 186.977C268.801 182.234 275.556 159.743 263.676 150.401C257.141 145.262 208.159 94.8147 187.128 76.215C188.721 83.3338 179.363 90.0459 173.153 86.2388C174.344 90.3423 171.48 95.3083 167.25 95.8497C163.02 96.391 158.893 91.6904 160.374 87.6826C161.648 84.2329 165.726 82.8058 168.094 79.9949C170.462 77.1841 168.397 71.0065 165.178 72.7757C163.479 79.6312 153.475 82.552 148.367 77.6839C146.569 75.9703 144.214 75.5489 141.805 75.9539C138.855 76.45 133.751 77.5977 131.568 79.7179C128.149 83.0394 127.377 87.8915 123.307 90.1462C122.658 90.5055 121.978 90.8139 121.259 91.0592C116.033 92.8438 108.716 87.6613 111.429 82.8428C96.5601 96.5823 86.3524 115.3 82.8433 135.262C90.6044 137.479 92.0779 147.693 92.056 155.781C83.3007 158.007 91.5369 174.755 83.9648 179.69C75.333 185.316 77.7328 198.399 81.151 208.132C72.401 189.261 71.3482 166.94 78.283 147.326C77.5977 159.769 76.9123 172.213 76.2269 184.657C82.0981 183.796 84.4696 176.625 84.9551 170.699C85.4405 164.772 85.8098 157.799 90.7819 154.554C88.9257 149.812 88.1641 144.644 88.5734 139.568C86.4125 138.869 84.2517 138.169 82.0908 137.47C80.7927 146.632 70.6382 151.139 62.2646 155.04C53.2247 159.252 44.72 164.615 37.0203 170.961C28.7615 177.767 20.8967 187.124 21.8113 197.8C22.6908 208.066 31.5179 215.915 40.7849 220.377C30.8612 220.355 22.3439 211.508 20.7442 201.693C19.1446 191.879 23.4119 181.782 30.0836 174.42C36.7554 167.058 45.6022 162.054 54.5734 157.802C66.3213 152.235 80.5711 145.013 81.0095 131.998C81.3749 121.148 93.2498 110.514 87.5611 101.275C79.5707 88.2975 75.1137 73.1589 74.795 57.9133C74.6378 50.392 76.0077 41.8779 82.1601 37.5674C85.2231 35.4213 89.0339 34.672 92.7469 34.2447C106.517 32.6601 120.702 34.8711 133.341 40.572C140.801 43.9367 148.947 48.6002 156.623 45.7668C174.52 39.1603 193.558 35.6688 212.63 35.4952C215.173 35.4721 217.283 33.6012 219.053 31.7722C226.019 24.5752 231.832 16.2473 239.413 9.70389C246.993 3.16047 257.078 -1.55028 266.876 0.474819C277.135 2.59484 284.792 11.7495 288.143 21.6942C291.494 31.6388 291.304 42.3825 291.078 52.8765C290.673 71.6696 314.195 81.9041 320.265 99.69C323.844 110.177 335.653 115.036 346.272 118.13C356.892 121.224 368.788 124.651 374.262 134.282C379.36 143.252 376.839 155.003 370.82 163.38C364.802 171.758 355.891 177.499 347.198 183.037C333.124 192.003 337.075 214.937 325.747 227.203C320.037 233.388 321.986 243.255 324.95 251.14C327.913 259.024 331.557 267.795 328.199 275.519C326.365 263.143 323.144 250.975 318.616 239.315C312.302 243.916 315.499 253.814 319.263 260.668C324.007 269.305 328.75 277.941 333.494 286.578C335.467 290.17 337.506 294.128 336.797 298.166C335.985 302.784 331.879 305.978 328.077 308.709C319.395 314.944 310.713 321.179 302.03 327.414C298.134 330.213 292.379 328.671 288.984 325.279ZM307.513 245.675C306.752 244.816 305.358 245.235 304.318 245.717C303.275 246.2 302.232 246.682 301.189 247.165C300.96 247.271 300.708 247.379 300.465 247.313C300.008 247.188 299.931 246.509 300.218 246.131C300.505 245.753 300.993 245.601 301.444 245.454C302.405 245.142 303.342 244.758 304.247 244.307C304.764 244.049 305.319 243.708 305.46 243.147C305.6 242.585 304.957 241.903 304.482 242.231C303.082 243.198 301.507 243.91 299.857 244.321C299.362 244.444 298.591 244.289 298.707 243.791C298.752 243.601 298.929 243.475 299.094 243.371C300.566 242.444 302.173 241.731 303.847 241.262C304.45 241.093 304.3 240.076 303.726 239.827C303.151 239.577 302.494 239.83 301.92 240.081C300.532 240.687 299.144 241.293 297.756 241.9C297.458 242.03 297.124 242.201 297.044 242.517C296.973 242.8 297.137 243.084 297.293 243.33C298.302 244.913 299.311 246.496 300.32 248.079C300.474 248.32 300.649 248.578 300.92 248.667C301.215 248.763 301.531 248.63 301.812 248.498C303.733 247.6 305.634 246.658 307.513 245.675ZM212.676 73.4684C209.408 73.5242 206.955 69.8017 207.563 66.5842C208.171 63.3666 211.057 60.9588 214.183 60.005C218.431 58.7088 223.503 59.4672 226.889 56.5882C228.41 55.2949 229.339 53.4372 230.724 51.9988C233.743 48.8636 238.995 48.2003 242.696 50.4868C243.527 48.3016 241.068 46.1887 238.767 45.7996C236.466 45.4105 233.985 45.8752 231.865 44.8972C228.142 43.1791 223.757 45.3862 220.777 48.207C217.797 51.0279 215.353 54.5813 211.68 56.4054C208.007 58.2294 202.449 57.2121 201.439 53.2306C201.124 51.9899 201.086 50.3461 199.878 49.9278C197.974 49.268 196.983 47.04 197.096 45.024C197.209 43.0081 198.174 41.1523 199.118 39.3683C195.386 39.1798 191.639 39.2958 187.926 39.715C187.035 39.8155 185.902 40.1923 185.904 41.0905C185.908 42.9469 184.189 44.2785 182.643 45.3021C179.373 47.4687 176.102 49.6352 172.831 51.8018C172.934 53.9658 176.118 54.4834 177.982 53.3875C179.847 52.2916 181.161 50.3325 183.171 49.5359C184.245 49.1105 185.424 49.0583 186.578 49.0113C188.548 48.931 190.519 48.8506 192.489 48.7703C195.014 48.6674 198.421 49.3098 198.554 51.8388C198.664 53.9129 196.366 55.1247 194.895 56.5877C191.546 59.9178 191.558 66.3635 187.164 68.0823C185.602 68.6931 185.182 70.8609 185.867 72.3942C186.552 73.9276 187.981 74.9697 189.332 75.9636C212.924 93.3108 254.021 138.033 254.92 138.153C255.819 138.272 256.874 137.626 256.824 136.718C256.694 134.371 256.568 131.982 257.141 129.703C257.713 127.423 259.104 125.23 261.248 124.277C263.224 123.398 266.099 123.2 266.527 121.076C267.484 116.326 272.229 112.653 277.057 112.925C279.429 113.058 282.046 113.965 284.02 112.641C282.428 111.127 280.075 110.815 278.102 109.854C276.128 108.894 274.392 106.461 275.571 104.607C277.313 101.868 274.776 98.2868 275.297 95.0815C275.519 93.7211 276.285 92.5169 277.096 91.4034C279.844 87.6289 283.315 84.3851 287.263 81.9012C288.181 81.3237 288.412 80.1078 288.556 79.0313C288.905 76.432 289.254 73.8327 289.603 71.2334C289.847 69.4199 290.012 67.3389 288.77 65.9975C284.729 61.632 278.001 61.489 272.063 61.6832C266.124 61.8774 259.413 61.8008 255.299 57.5044C254.022 56.1709 251.69 56.6243 250.305 57.8447C248.92 59.0651 248.155 60.8224 247.124 62.3549C243.904 67.1424 237.668 69.6799 232.029 68.4978C229.008 67.8646 225.963 66.2695 222.997 67.1238C219.044 68.2625 216.789 73.3981 212.676 73.4684ZM326.174 191.3C326.355 191.96 326.621 192.715 327.268 192.937C327.786 193.115 328.346 192.872 328.84 192.633C330.48 191.842 332.121 191.05 333.761 190.258C334.603 189.851 335.549 189.312 335.699 188.388C338.737 169.638 337.857 150.261 333.133 131.866C332.016 127.516 330.683 123.211 328.907 119.087C326.639 113.819 323.667 108.887 320.616 104.031C316.225 97.0423 311.649 90.1697 306.894 83.4232C306.012 84.8018 305.749 86.4718 305.301 88.0464C304.852 89.6211 304.1 91.2535 302.656 92.0213C301.213 92.7891 298.996 92.1374 298.74 90.52C298.187 87.0234 294.443 84.3796 290.971 85.034C290.224 85.1748 289.977 86.1051 289.884 86.8608C289.039 93.7292 288.194 100.597 287.349 107.466C287.287 107.965 287.262 108.559 287.654 108.874C287.98 109.136 288.446 109.077 288.863 109.071C291.226 109.035 293.287 111.509 292.831 113.832C292.374 116.156 289.532 117.662 287.358 116.732C286.42 116.33 285.686 117.604 285.451 118.599C284.031 124.603 282.612 130.607 281.193 136.611C280.774 138.382 282.3 140.054 283.941 140.832C285.583 141.61 287.459 141.892 288.965 142.908C292.738 145.455 292.575 151.246 295.626 154.627C298.111 157.381 302.711 157.882 305.728 155.728C308.429 153.8 309.602 150.278 309.603 146.956C309.604 144.69 311.009 142.484 313.058 141.528C315.108 140.572 317.696 140.916 319.427 142.375C321.112 143.795 321.876 146.002 322.566 148.098C322.87 149.022 323.175 150.03 322.848 150.947C322.314 152.445 320.476 152.889 318.973 153.404C316.213 154.349 313.794 156.263 312.236 158.734C311.476 159.94 310.961 161.631 311.902 162.701C314.202 165.317 316.502 167.932 318.802 170.547C320.004 171.914 321.243 173.347 321.726 175.105C323.209 180.503 324.691 185.901 326.174 191.3ZM91.8929 105.331C95.497 98.5895 99.1366 91.7951 104.033 85.9289C108.321 80.7913 113.485 76.4716 118.643 72.2115C125.437 66.5989 132.273 61.0367 139.15 55.5253C142.012 53.2313 144.919 50.9227 148.256 49.4034C138.251 44.9854 128.183 40.5453 117.561 37.9501C106.94 35.3549 95.6261 34.6784 85.1456 37.7968C84.1359 38.0972 83.1217 38.4391 82.2501 39.0316C80.7781 40.0324 79.8484 41.6534 79.151 43.2932C76.41 49.7378 76.5638 57.0397 77.4554 63.988C79.3273 78.5749 84.28 92.7572 91.8929 105.331ZM317.782 305.39C317.688 306.369 316.634 307.29 315.749 306.865C315.331 306.664 315.076 306.237 314.846 305.834C311.317 299.66 307.789 293.487 304.26 287.313C301.983 288.171 300.889 290.922 301.145 293.347C301.4 295.771 302.69 297.945 303.95 300.031C305.876 303.222 307.802 306.413 309.728 309.603C308.715 310.648 307.085 309.259 306.335 308.011C303.662 303.565 300.989 299.118 298.316 294.671C293.211 299.933 288.107 305.195 283.002 310.457C286.326 315.665 289.651 320.872 292.975 326.08C293.759 327.307 295.436 327.699 296.857 327.391C298.278 327.082 299.506 326.218 300.691 325.374C309.6 319.024 318.509 312.674 327.419 306.323C328.096 305.841 328.822 305.29 329.02 304.481C329.228 303.635 328.796 302.777 328.378 302.014C308.224 265.272 286.714 229.277 263.907 194.127C263.236 193.092 262.387 191.949 261.158 191.867C260.339 191.813 259.579 192.26 258.88 192.691C249.835 198.269 240.789 203.848 231.744 209.426C230.069 210.459 228.394 211.492 226.72 212.524C226.284 212.793 225.814 213.104 225.668 213.596C225.496 214.177 225.838 214.774 226.168 215.282C229.463 220.355 232.941 225.308 236.594 230.128C240.911 225.472 246.046 220.458 252.386 220.616C257.859 220.752 262.375 224.741 266.362 228.502C268.694 230.702 271.026 232.902 273.358 235.102C269.672 228.182 265.315 221.622 260.366 215.545C260.153 214.521 261.951 214.801 262.644 215.583C269.549 223.367 273.35 233.597 280.622 241.038C288.053 248.643 295.484 256.247 302.915 263.852C306.071 267.082 309.42 270.731 309.669 275.245C309.896 279.367 307.457 283.117 305.006 286.435C309.328 291.548 313.282 296.975 316.825 302.658C317.346 303.492 317.876 304.411 317.782 305.39ZM239.085 40.2167C242.214 40.8382 245.347 41.4606 248.417 42.3292C256.324 44.5667 263.676 48.3956 270.964 52.1986C277.324 55.5176 283.719 58.8587 289.428 63.2077C290.048 47.6607 289.434 32.2238 284.272 17.5496C282.783 13.318 279.188 8.75492 275.691 5.95361C271.584 2.66447 265.883 2.08566 260.679 2.8317C251.589 4.13493 243.309 9.01392 236.49 15.1772C229.67 21.3406 224.141 28.7768 218.659 36.1599C225.467 37.5122 232.276 38.8645 239.085 40.2167ZM330.407 115.679C339.19 138.136 342.059 162.886 338.645 186.763C349.791 180.361 359.754 171.897 367.88 161.924C371.929 156.955 375.682 151.106 375.418 144.695C375.201 139.428 372.21 134.565 368.262 131.08C364.314 127.596 359.464 125.318 354.59 123.332C346.751 120.137 338.655 117.575 330.407 115.679ZM313.181 154.076C315.245 152.558 317.454 151.238 319.767 150.14C319.761 148.66 319.745 147.133 319.153 145.778C318.56 144.423 317.231 143.276 315.758 143.378C314.21 143.485 313.043 144.901 312.551 146.376C312.06 147.851 312.051 149.442 311.711 150.959C310.771 155.155 307.061 158.58 302.811 159.175C298.561 159.77 294.056 157.495 292.004 153.718C290.351 150.674 290.103 146.735 287.469 144.489C286.01 143.245 284.068 142.767 282.203 142.328C281.77 142.226 281.309 142.125 280.888 142.269C280.212 142.501 279.894 143.258 279.656 143.934C278.059 148.458 276.462 152.983 274.865 157.508C274.274 159.181 273.789 161.321 275.109 162.504C287.298 173.437 292.26 190.825 304.657 201.521C305.024 201.838 305.476 202.168 305.948 202.056C311.861 200.65 317.595 198.483 322.962 195.626C323.39 195.398 323.835 195.147 324.08 194.729C324.329 194.305 324.328 193.784 324.302 193.293C324.125 189.912 323.123 186.578 321.405 183.662C320.593 182.283 319.597 180.922 319.442 179.328C319.31 177.968 319.814 176.572 319.492 175.244C319.229 174.159 318.453 173.284 317.704 172.458C315.587 170.123 313.47 167.788 311.353 165.454C310.306 164.299 309.219 163.067 308.898 161.54C308.273 158.565 310.735 155.874 313.181 154.076ZM180.509 85.3354C183.006 83.8298 184.519 80.8269 184.246 77.9194C183.848 73.6765 180.202 70.5846 176.836 67.9799C171.321 63.7123 158.71 53.3432 153.165 51.1145C147.621 48.8857 123.089 70.8148 114.565 79.2227C114.134 79.6473 113.685 80.1104 113.565 80.7037C113.445 81.297 110.84 87.6815 116.085 89.2333C121.33 90.7852 121.892 89.5894 124.035 87.6815C126.178 85.7736 127.425 83.0671 128.432 80.3777C129.292 78.0807 131.892 76.9815 134.29 76.4918C136.689 76.0022 139.274 75.8198 141.258 74.3829C143.324 72.8864 146.21 72.9734 148.565 73.9518C150.92 74.9302 152.865 76.6706 154.761 78.3793C156.344 79.8068 158.904 78.2106 159.881 76.3134C160.857 74.4161 161.267 72.0753 162.974 70.7991C165.415 68.9743 169.162 70.6075 170.665 73.2619C172.802 77.0368 171.291 82.4268 167.504 84.5334C165.31 85.7542 162.099 86.5723 162.011 89.086C161.968 90.3357 162.838 91.435 163.808 92.2215C165.549 93.6325 168.383 94.302 169.865 92.6213C171.978 90.2263 169.619 85.165 172.545 83.8929C175.13 82.7694 178.095 86.7908 180.509 85.3354ZM247.241 58.5421C248.116 57.181 248.994 55.6901 250.454 54.9965C252.32 54.1099 254.561 54.8141 256.332 55.8801C258.102 56.946 259.683 58.3725 261.625 59.0775C263.601 59.7951 265.766 59.6982 267.866 59.592C271.358 59.4154 274.849 59.2388 278.341 59.0622C257.235 46.8069 233.494 38.212 209.101 37.9705C207.045 37.9501 204.942 37.9971 203.013 38.7099C201.083 39.4227 199.331 40.9231 198.837 42.9233C198.083 45.9692 200.848 49.225 203.978 49.3221C202.343 50.5215 202.595 53.3073 204.153 54.606C205.71 55.9048 208.041 55.8946 209.911 55.1126C211.781 54.3305 213.296 52.9044 214.767 51.5078C217.504 48.9085 220.241 46.3092 222.978 43.7099C224.698 42.0762 227.377 42.0069 229.702 42.468C232.027 42.929 234.303 43.8214 236.672 43.7637C241.647 43.6426 246.054 48.7612 245.205 53.6753C242.973 51.565 239.724 50.587 236.701 51.1144C233.677 51.6419 230.949 53.6623 229.559 56.4045C228.432 58.6278 225.917 59.8027 223.471 60.2601C221.025 60.7175 218.498 60.6219 216.061 61.1265C213.624 61.631 211.139 62.9166 210.143 65.2014C209.146 67.4862 210.448 70.7449 212.926 70.9752C215.812 71.2435 217.497 67.8475 219.924 66.2606C222.235 64.7504 225.25 64.9482 227.946 65.5352C230.641 66.1222 233.336 67.048 236.084 66.8098C240.86 66.3958 244.644 62.5797 247.241 58.5421ZM324.534 197.81C319.004 199.947 313.473 202.084 307.943 204.221C307.173 204.518 306.237 205.278 306.699 205.962C311.975 213.764 316.035 222.39 318.69 231.431C318.948 232.311 320.281 231.652 320.802 230.898C325.639 223.89 329.495 216.203 332.223 208.133C332.717 206.672 333.177 205.094 332.753 203.611C332.088 201.281 329.589 200.107 327.747 198.536C327.239 198.102 326.724 197.6 326.063 197.504C325.543 197.428 325.025 197.621 324.534 197.81ZM260.734 128.509C258.194 131.212 260.328 135.792 259.023 139.267C258.734 140.037 258.266 140.85 258.533 141.629C258.666 142.017 258.964 142.321 259.253 142.611C260.156 143.518 261.059 144.425 261.963 145.332C262.672 146.044 263.822 146.782 264.561 146.101C267.599 143.301 271.28 141.205 275.235 140.022C276.374 139.682 277.607 139.374 278.402 138.488C279.103 137.707 279.329 136.621 279.529 135.589C280.646 129.815 281.755 124.039 282.856 118.262C282.942 117.811 283.025 117.328 282.842 116.907C282.648 116.461 282.198 116.188 281.759 115.979C277.31 113.855 271.326 116.031 269.272 120.521C268.575 122.045 268.253 123.809 267.082 125.006C265.376 126.751 262.406 126.73 260.734 128.509ZM172.019 54.6475C171.159 53.8651 170.269 52.8832 170.354 51.7222C170.445 50.4847 171.588 49.6314 172.625 48.9522C176.296 46.5457 179.967 44.1392 183.639 41.7327C183.55 41.0181 182.55 40.9426 181.843 41.0714C172.336 42.804 163.022 45.5966 154.128 49.3813C164.047 55.5088 173.562 62.2916 182.593 69.6712C183.688 67.1781 186.509 65.951 188.179 63.8013C190.288 61.0856 190.446 57.0526 193.04 54.7977C194.313 53.6912 196.204 52.9241 196.459 51.2548C194.232 51.2704 192.005 51.286 189.778 51.3016C187.069 51.3206 184.184 51.3909 181.933 52.9016C179.969 54.2202 178.459 56.6182 176.095 56.6858C174.538 56.7304 173.173 55.6969 172.019 54.6475ZM283.051 203.126C284.78 206.232 286.508 209.338 288.237 212.443C285.07 202.347 281.294 192.442 276.936 182.801C276.781 182.459 276.604 182.093 276.272 181.917C275.863 181.7 275.365 181.843 274.926 181.99C262.648 186.104 250.369 190.218 238.091 194.332C237.718 194.457 237.313 194.607 237.113 194.946C236.872 195.353 237.016 195.871 237.177 196.316C237.897 198.306 238.838 200.215 239.979 201.996C247.68 197.506 255.38 193.016 263.081 188.526C264.266 187.834 265.514 187.124 266.885 187.072C268.019 187.029 269.121 187.446 270.134 187.958C276.15 190.999 279.769 197.229 283.051 203.126ZM227.303 287.151C225.755 283.838 223.099 281.126 220.05 279.115C216.306 286.085 212.009 292.758 207.214 299.049C206.847 299.53 206.712 300.515 207.315 300.472C213.162 300.06 219.009 299.648 224.856 299.236C226.03 299.154 227.441 298.906 227.872 297.809C229.21 294.406 228.851 290.464 227.303 287.151ZM315.585 238.277C316.058 237.551 316.54 236.804 316.732 235.957C316.986 234.838 316.705 233.673 316.404 232.565C314.085 224.048 310.436 215.919 305.882 208.362C305.352 207.482 304.782 206.581 303.918 206.026C303.055 205.471 301.814 205.369 301.061 206.067C300.055 206.998 300.437 208.644 300.895 209.938C304.525 220.188 308.156 230.438 311.786 240.688C312.003 241.298 312.495 242.05 313.098 241.815C313.333 241.724 313.486 241.5 313.623 241.289C314.277 240.285 314.931 239.281 315.585 238.277ZM279.149 107.911C280.2 108.8 281.594 109.136 282.934 109.445C284.008 109.694 284.644 108.289 284.83 107.2C286.072 99.9278 286.869 92.5874 287.666 85.2523C287.057 84.9928 286.41 85.4919 285.935 85.9538C284.227 87.6144 282.519 89.275 280.811 90.9356C279.622 92.0915 278.379 93.3401 278.002 94.9566C277.284 98.0335 279.901 101.54 278.247 104.23C277.526 105.403 278.098 107.023 279.149 107.911ZM275.429 166.089C275.019 165.627 274.576 165.151 273.989 164.96C273.402 164.77 272.637 164.986 272.433 165.569C270.615 170.782 268.796 175.995 266.978 181.207C266.805 181.703 266.921 182.537 267.423 182.389C270.49 181.481 273.32 179.876 276.399 179.015C279.479 178.153 283.08 178.164 285.541 180.21C282.672 175.168 279.277 170.427 275.429 166.089ZM301.697 89.8641C302.62 87.3566 303.542 84.849 304.464 82.3415C304.643 81.8555 304.289 81.3495 303.957 80.9528C300.663 77.0216 297.343 73.0633 293.356 69.8413C293.186 69.7041 292.993 69.5609 292.776 69.5726C292.361 69.5948 292.196 70.1113 292.137 70.5229C291.641 74.0193 291.144 77.5157 290.648 81.0122C290.503 82.031 291.44 82.9165 292.422 83.2178C293.404 83.5192 294.461 83.4354 295.471 83.6237C297.333 83.9708 298.981 85.3064 299.711 87.058C300.173 88.1693 300.515 89.6472 301.697 89.8641ZM272.255 157.403C273.999 152.935 275.598 148.409 277.05 143.837C277.147 143.528 277.245 143.194 277.141 142.888C276.864 142.072 275.658 142.283 274.888 142.669C271.865 144.187 268.957 145.937 266.2 147.898C265.857 148.142 265.483 148.449 265.47 148.87C265.46 149.188 265.665 149.468 265.86 149.719C267.909 152.349 270.042 154.912 272.255 157.403ZM297.834 231.062C297.507 230.705 296.97 230.649 296.487 230.657C295.394 230.675 294.304 230.899 293.292 231.312C292.794 231.516 292.298 231.769 291.761 231.796C291.224 231.824 290.621 231.543 290.489 231.021C291.909 230.003 293.631 229.415 295.376 229.351C296.152 229.323 296.174 228.003 295.493 227.629C294.812 227.255 293.972 227.529 293.247 227.808C292.049 228.269 290.851 228.73 289.653 229.191C289.305 229.326 288.946 228.903 288.996 228.532C289.047 228.161 289.347 227.88 289.644 227.652C290.722 226.827 292.008 226.278 293.348 226.071C293.987 225.972 294.09 224.979 293.623 224.531C293.156 224.083 292.438 224.054 291.793 224.088C289.916 224.186 288.056 224.594 286.309 225.289C287.798 227.967 289.319 230.628 290.871 233.27C291.272 233.954 291.709 234.668 292.404 235.047C293.654 233.465 295.555 232.416 297.558 232.204C298.039 232.153 298.16 231.419 297.834 231.062ZM323.484 279.376C322.337 279.669 321.2 280.004 320.076 280.379C319.768 280.482 319.413 280.643 319.36 280.964C319.329 281.155 319.421 281.342 319.51 281.513C320.17 282.784 320.831 284.056 321.491 285.327C321.759 285.842 322.297 286.448 322.797 286.153C324.444 285.183 326.283 284.543 328.175 284.281C328.695 284.209 329.036 283.649 329.048 283.123C329.06 282.596 328.827 282.099 328.6 281.624C328.21 280.81 327.782 279.952 327.016 279.478C325.985 278.84 324.658 279.076 323.484 279.376ZM327.914 293.347C327.465 293.429 326.946 293.565 326.77 293.987C326.627 294.331 326.778 294.72 326.928 295.061C327.501 296.363 328.074 297.665 328.646 298.967C328.825 299.374 329.062 299.83 329.495 299.927C329.803 299.996 330.115 299.856 330.399 299.719C331.282 299.295 332.164 298.872 333.047 298.448C333.544 298.21 334.07 297.944 334.342 297.465C334.615 296.985 334.47 296.234 333.939 296.088C333.656 296.009 333.357 296.121 333.092 296.25C332.302 296.635 331.59 297.194 330.746 297.44C329.902 297.686 328.828 297.497 328.428 296.713C330.507 295.973 332.494 294.975 334.33 293.75C334.165 292.6 332.557 292.498 331.416 292.706C330.249 292.92 329.081 293.133 327.914 293.347ZM310.93 263.454C311.268 263.086 311.758 262.905 312.229 262.738C313.524 262.276 314.819 261.815 316.114 261.354C316.787 261.114 316.621 259.993 315.986 259.665C315.351 259.337 314.585 259.542 313.902 259.752C312.421 260.209 310.94 260.667 309.459 261.124C309.266 261.183 309.063 261.249 308.927 261.4C308.618 261.744 308.826 262.285 309.046 262.692C309.632 263.779 310.219 264.865 310.806 265.952C310.875 266.079 310.951 266.214 311.082 266.275C311.239 266.348 311.424 266.292 311.588 266.235C313.39 265.611 315.192 264.987 316.995 264.363C317.425 264.214 317.941 263.941 317.905 263.486C317.855 262.866 316.949 262.862 316.357 263.05C314.503 263.639 312.65 264.229 310.796 264.818C310.469 264.44 310.592 263.823 310.93 263.454ZM333.969 192.583C332.373 193.487 330.778 194.39 329.182 195.294C328.99 195.403 328.789 195.521 328.683 195.715C328.405 196.228 328.955 196.786 329.44 197.111C330.432 197.778 331.425 198.444 332.417 199.111C332.613 199.242 332.823 199.378 333.058 199.38C333.593 199.385 333.868 198.755 334.005 198.237C334.445 196.575 334.886 194.913 335.326 193.251C335.381 193.042 335.435 192.813 335.346 192.617C335.13 192.143 334.422 192.327 333.969 192.583ZM312.96 267.177C312.574 267.276 312.135 267.421 311.991 267.793C311.884 268.069 311.981 268.381 312.107 268.65C312.43 269.342 312.941 269.944 313.571 270.374C315.245 269.734 316.919 269.093 318.594 268.453C319.313 268.178 320.165 267.714 320.134 266.943C320.112 266.391 319.592 265.963 319.052 265.857C318.511 265.75 317.955 265.889 317.422 266.026C315.934 266.41 314.447 266.793 312.96 267.177ZM288.702 206.821C289.288 207.967 290.737 208.299 292.005 208.505C294.027 208.833 296.05 209.162 298.072 209.49C298.107 208.34 296.923 207.575 295.871 207.114C293.943 206.267 291.931 205.613 289.874 205.165C289.652 205.117 289.421 205.071 289.2 205.125C288.542 205.284 288.394 206.217 288.702 206.821ZM281.205 205.954C281.363 205.894 281.524 205.833 281.66 205.732C282.264 205.288 282.08 204.244 281.464 203.816C280.849 203.389 280.015 203.446 279.301 203.671C278.586 203.896 277.92 204.269 277.189 204.434C276.202 204.658 274.911 204.648 274.533 205.588C274.21 206.391 274.95 207.301 275.794 207.487C276.638 207.673 277.503 207.361 278.311 207.054C279.276 206.687 280.24 206.321 281.205 205.954ZM285.087 213.198C285.902 212.666 285.526 211.262 284.659 210.819C283.792 210.375 282.751 210.583 281.802 210.8C280.802 211.03 279.733 211.298 279.052 212.067C278.37 212.836 278.371 214.277 279.301 214.713C280.565 215.304 281.75 213.634 283.129 213.427C283.788 213.328 284.529 213.563 285.087 213.198ZM313.697 258.156C313.97 258.064 314.259 257.961 314.435 257.732C314.631 257.478 314.638 257.115 314.527 256.813C314.267 256.107 313.455 255.731 312.704 255.744C311.953 255.758 311.246 256.078 310.563 256.392C309.694 256.792 308.825 257.191 307.956 257.591C307.479 257.811 306.938 258.109 306.859 258.63C306.779 259.16 307.264 259.641 307.787 259.753C308.31 259.865 308.848 259.708 309.359 259.55C310.81 259.102 312.256 258.637 313.697 258.156ZM317.612 276.597C319.484 275.808 321.356 275.019 323.227 274.231C323.404 274.156 323.587 274.077 323.716 273.935C324.096 273.513 323.749 272.778 323.219 272.575C322.69 272.372 322.098 272.529 321.553 272.687C320.289 273.054 319.024 273.421 317.759 273.788C317.059 273.991 316.276 274.264 315.982 274.932C315.579 275.844 316.695 276.983 317.612 276.597ZM330.246 287.531C330.994 287.241 330.721 285.979 329.979 285.676C329.236 285.374 328.403 285.685 327.651 285.962C326.177 286.506 324.658 286.927 323.115 287.219C322.577 287.945 323.233 289.057 324.101 289.303C324.969 289.55 325.884 289.219 326.726 288.894C327.899 288.439 329.073 287.985 330.246 287.531ZM290.403 203.478C291.911 203.874 293.419 204.27 294.927 204.666C295.501 204.817 296.386 204.733 296.344 204.139C293.739 202.335 290.743 201.102 287.624 200.553C287.459 200.523 287.285 200.497 287.127 200.554C286.586 200.751 286.792 201.591 287.2 201.998C288.042 202.841 289.251 203.176 290.403 203.478ZM296.101 197.639C296.634 198.925 297.167 200.21 297.701 201.495C298.022 202.269 298.383 203.092 299.092 203.537C299.8 203.982 300.953 203.794 301.185 202.988C301.362 202.375 300.949 201.761 300.555 201.259C299.053 199.34 297.507 197.456 295.917 195.61C295.565 196.221 295.831 196.988 296.101 197.639ZM293.518 200.055C293.801 200.152 294.145 200.24 294.374 200.047C294.642 199.82 294.545 199.382 294.363 199.082C293.703 197.991 292.365 197.559 291.141 197.211C289.494 196.742 287.848 196.274 286.202 195.805C285.69 195.659 285.305 196.407 285.544 196.883C285.784 197.359 286.334 197.573 286.837 197.747C289.064 198.516 291.291 199.285 293.518 200.055ZM315.531 270.914C315.069 271.054 314.566 271.224 314.312 271.637C313.862 272.371 314.52 273.329 315.294 273.706C317.04 272.282 319.264 271.459 321.515 271.405C322.28 271.387 322.347 270.1 321.698 269.693C321.048 269.286 320.206 269.496 319.473 269.718C318.159 270.117 316.845 270.515 315.531 270.914ZM308.219 250.827C307.157 251.108 306.096 251.389 305.034 251.67C304.061 251.928 302.84 252.567 303.074 253.548C303.273 254.384 304.437 254.573 305.219 254.222C306.001 253.87 306.598 253.188 307.376 252.828C308.648 252.239 310.439 252.454 311.152 251.245C310.545 250.381 309.239 250.556 308.219 250.827ZM268.434 194.571C268.23 194.66 268.02 194.76 267.886 194.938C267.539 195.395 267.917 196.106 268.454 196.306C268.991 196.507 269.587 196.363 270.144 196.229C272.017 195.78 273.923 195.469 275.842 195.299C276.028 194.244 274.653 193.653 273.585 193.611C271.825 193.541 270.051 193.872 268.434 194.571ZM299.476 235.468C300.027 234.884 299.715 233.582 298.929 233.736C296.843 234.145 294.832 234.935 293.026 236.057C292.604 236.918 293.772 237.812 294.718 237.663C295.664 237.513 296.424 236.818 297.31 236.454C298.052 236.149 298.926 236.052 299.476 235.468ZM300.619 216.58C300.372 216.267 299.976 216.119 299.602 215.985C297.779 215.331 295.956 214.678 294.133 214.025C293.634 213.846 293.075 213.668 292.59 213.882C292.104 214.095 291.911 214.901 292.386 215.136C294.721 216.293 297.204 217.151 299.755 217.683C300.02 217.739 300.317 217.785 300.545 217.639C300.881 217.425 300.866 216.893 300.619 216.58ZM292.036 195.087C292.296 195.242 292.638 194.95 292.645 194.647C292.652 194.344 292.448 194.081 292.244 193.857C290.285 191.716 287.412 190.716 284.663 189.796C283.966 189.562 282.946 189.483 282.742 190.191C285.92 191.664 289.023 193.299 292.036 195.087ZM332.581 290.075C332.417 289.501 331.813 289.144 331.22 289.084C330.627 289.024 330.039 289.2 329.469 289.375C328.474 289.68 327.48 289.984 326.485 290.289C325.798 290.5 324.963 290.914 325.021 291.632C325.067 292.216 325.747 292.565 326.329 292.509C326.911 292.453 327.424 292.123 327.951 291.87C329.101 291.318 330.414 291.112 331.678 291.284C332.269 291.365 332.746 290.649 332.581 290.075ZM270.21 198.938C270.202 199.477 270.622 199.992 271.152 200.089C271.494 200.152 271.844 200.058 272.179 199.964C274.115 199.424 276.051 198.883 277.986 198.342C278.017 197.797 277.547 197.326 277.025 197.168C276.504 197.01 275.944 197.091 275.405 197.173C273.999 197.387 272.593 197.602 271.187 197.816C270.655 197.897 270.218 198.398 270.21 198.938ZM302.185 237.742C302.262 237.235 301.765 236.788 301.257 236.724C300.75 236.66 300.252 236.868 299.782 237.071C298.288 237.717 296.794 238.364 295.301 239.01C294.856 239.575 295.403 240.472 296.104 240.631C296.804 240.79 297.514 240.469 298.161 240.156C299.181 239.663 300.202 239.17 301.223 238.677C301.642 238.474 302.115 238.204 302.185 237.742ZM280.82 185.903C280.992 186.21 281.334 186.373 281.655 186.517C284.317 187.713 286.979 188.908 289.641 190.103C290.113 190.315 290.803 190.459 291.036 189.996C291.286 189.499 290.669 189.023 290.157 188.806C287.294 187.586 284.43 186.367 281.566 185.148C281.422 185.087 281.269 185.024 281.115 185.05C280.768 185.108 280.648 185.595 280.82 185.903ZM294.605 220.317C294.516 220.279 294.42 220.24 294.325 220.259C294.226 220.278 294.144 220.365 294.13 220.465C294.362 222.061 296.15 222.848 297.681 223.346C299.683 223.997 301.684 224.649 303.686 225.3C304.167 224.766 303.382 224.028 302.721 223.748C300.015 222.604 297.31 221.461 294.605 220.317ZM279.805 201.607C280.028 201.185 279.692 200.658 279.269 200.44C278.529 200.058 277.636 200.271 276.833 200.492C275.919 200.743 275.005 200.995 274.091 201.246C273.433 201.427 272.639 201.77 272.614 202.453C272.596 202.965 273.078 203.384 273.58 203.478C274.083 203.572 274.595 203.424 275.085 203.277C276.389 202.887 277.693 202.497 278.996 202.107C279.309 202.014 279.653 201.895 279.805 201.607ZM325.121 275.887C324.578 275.572 323.894 275.756 323.296 275.948C321.393 276.557 319.491 277.167 317.588 277.777C317.168 278.452 317.933 279.35 318.726 279.397C319.519 279.445 320.238 278.981 320.938 278.605C322.212 277.921 323.616 277.481 325.051 277.316C325.675 277.244 325.664 276.202 325.121 275.887ZM288.787 218.007C288.178 217.844 287.533 217.958 286.912 218.072C286.144 218.214 285.377 218.356 284.609 218.498C283.739 218.659 282.635 219.11 282.727 219.992C282.782 220.513 283.294 220.889 283.811 220.965C284.328 221.04 284.848 220.886 285.347 220.733C286.879 220.266 288.411 219.798 289.943 219.331C289.958 218.699 289.397 218.171 288.787 218.007ZM283.562 207.666C283.136 207.23 282.434 207.198 281.849 207.368C281.264 207.537 280.74 207.87 280.169 208.081C279.495 208.329 278.766 208.402 278.095 208.656C277.423 208.911 276.774 209.419 276.658 210.129C276.91 210.72 277.757 210.654 278.376 210.487C280.016 210.044 281.657 209.601 283.298 209.159C283.886 209 283.988 208.101 283.562 207.666ZM281.279 215.711C280.596 215.91 280.713 217.042 281.337 217.386C281.96 217.73 282.73 217.54 283.414 217.342C284.848 216.927 286.282 216.512 287.716 216.097C287.821 215.379 287.166 214.729 286.459 214.572C285.751 214.416 285.02 214.621 284.325 214.823C283.309 215.119 282.294 215.415 281.279 215.711ZM289.417 114.586C290.329 113.928 290.189 112.57 290.216 111.444C289.027 111.298 287.725 111.177 286.723 111.834C285.721 112.491 285.452 114.264 286.525 114.797C286.893 114.98 287.323 114.975 287.735 114.966C288.319 114.953 288.943 114.928 289.417 114.586ZM291.715 210.324C291.141 210.265 290.304 210.519 290.468 211.074C290.546 211.341 290.838 211.472 291.099 211.566C293.598 212.472 296.208 213.071 298.852 213.348C299.179 213.272 299.275 212.808 299.104 212.518C298.933 212.228 298.603 212.079 298.291 211.953C296.189 211.106 293.969 210.556 291.715 210.324ZM280.082 182.518C282.245 183.631 284.448 184.664 286.687 185.612C287.122 185.797 287.615 185.979 288.052 185.799C288.489 185.62 288.656 184.886 288.224 184.697C285.678 183.58 283.133 182.464 280.587 181.347C280.183 181.17 279.606 181.043 279.388 181.428C279.148 181.849 279.652 182.296 280.082 182.518ZM301.481 219.861C301.113 219.526 300.618 219.376 300.141 219.236C298.132 218.644 296.124 218.053 294.116 217.462C293.838 217.38 293.529 217.3 293.269 217.429C293.009 217.557 292.915 217.995 293.175 218.123C295.922 219.472 298.823 220.509 301.803 221.207C302.05 220.774 301.85 220.196 301.481 219.861ZM303.057 250.922C304.489 250.414 305.921 249.906 307.353 249.399C307.983 249.175 308.659 248.917 309.02 248.353C308.928 247.848 308.382 247.53 307.87 247.519C307.357 247.509 306.872 247.732 306.407 247.949C305.152 248.537 303.897 249.124 302.642 249.712C302.189 249.924 301.667 250.237 301.658 250.738C301.894 251.198 302.57 251.094 303.057 250.922ZM291.678 222.219C292.012 221.846 291.711 221.198 291.246 221.012C290.781 220.826 290.257 220.954 289.774 221.083C288.13 221.524 286.486 221.965 284.843 222.406C284.545 222.752 284.812 223.337 285.232 223.518C285.651 223.699 286.132 223.603 286.577 223.504C288.06 223.174 289.543 222.844 291.026 222.514C291.263 222.461 291.516 222.4 291.678 222.219ZM311.761 253.088C311.422 253.013 311.076 253.147 310.755 253.279C309.003 253.996 307.251 254.714 305.499 255.431C304.991 255.639 305.196 256.503 305.711 256.691C306.226 256.88 306.789 256.636 307.282 256.396C308.788 255.666 310.293 254.936 311.799 254.205C311.97 254.122 312.153 254.028 312.237 253.857C312.39 253.545 312.1 253.162 311.761 253.088ZM298.896 225.202C298.222 224.952 297.249 224.821 296.98 225.489C299.354 226.715 301.873 227.66 304.467 228.298C304.997 227.977 304.335 227.22 303.755 227.005C302.135 226.404 300.516 225.803 298.896 225.202ZM266.23 192.317C265.776 192.833 266.223 193.812 266.909 193.806C268.478 192.78 270.309 192.161 272.177 192.026C271.585 191.284 270.559 191.002 269.614 191.076C268.668 191.151 267.776 191.528 266.904 191.901C266.659 192.006 266.405 192.116 266.23 192.317ZM304.604 230.878C305.117 231.003 305.926 230.858 305.798 230.344C303.653 229.374 301.393 228.661 299.08 228.224C298.824 228.569 298.978 229.091 299.297 229.378C299.616 229.664 300.052 229.775 300.468 229.876C301.847 230.21 303.225 230.544 304.604 230.878ZM302.981 233.571C304.183 233.944 305.426 234.178 306.68 234.269C306.931 233.936 306.788 233.428 306.481 233.146C306.174 232.865 305.752 232.753 305.349 232.65C304.07 232.324 302.79 231.998 301.511 231.672C301.046 232.473 302.098 233.297 302.981 233.571ZM330.332 301.916C330.046 302.621 330.419 303.607 331.172 303.705C332.11 302.803 332.915 301.762 333.553 300.628C333.19 300.234 332.549 300.329 332.046 300.515C331.334 300.778 330.619 301.211 330.332 301.916ZM310.3 243.369C309.689 242.799 308.936 242.385 308.128 242.175C307.998 243.322 308.655 244.517 309.691 245.019C309.94 245.14 310.234 245.223 310.488 245.115C311.13 244.841 310.81 243.845 310.3 243.369ZM307.297 236.163C306.878 235.86 306.335 235.802 305.82 235.754C305.185 235.694 304.55 235.635 303.915 235.576C303.608 236.318 304.479 237.041 305.272 237.157C306.066 237.273 306.934 237.114 307.628 237.518C307.942 237.106 307.717 236.467 307.297 236.163ZM312.217 250.146C312.466 250.359 312.773 250.549 313.098 250.513C313.213 248.952 312.16 247.499 310.85 246.646C310.696 247.942 311.227 249.3 312.217 250.146ZM308.151 239.622C307.415 239.216 306.551 239.049 305.717 239.153C306.02 239.967 306.739 240.612 307.579 240.822C308.029 240.935 308.59 240.885 308.835 240.491C309.08 240.096 308.597 239.443 308.217 239.711M266.982 189.037C266.285 189.161 265.631 189.516 265.147 190.033C266.013 190.277 267 190.031 267.65 189.407C267.49 189.192 267.241 189.044 266.975 189.007" fill="#00160A"/>
<path fill-rule="evenodd" clip-rule="evenodd" d="M252.032 258.493C259.141 251.65 269.118 252.615 276.097 260.124C282.166 266.656 280.723 275.286 273.831 282.524C271.231 285.227 266.012 287.02 262.235 286.581C259.037 286.263 254.058 283.901 251.101 281.724C249.732 280.716 248.48 278.638 247.299 275.482L247.125 275.01C245.027 269.181 246.444 263.02 251.196 259.154L251.419 258.976L251.469 258.907C251.51 258.856 251.558 258.807 251.612 258.762L251.698 258.695L251.795 258.633L251.997 258.531L252.032 258.493ZM264.389 281.998L262.239 284.302L262.476 284.322C264.68 284.482 266.837 284.137 268.797 283.301L268.906 283.253L268.754 283.244C267.4 283.147 265.968 282.733 264.481 282.041L264.389 281.998ZM258.117 277.669L257.915 277.485L257.703 277.692C256.87 278.505 256.023 279.339 255.156 280.199L254.175 281.175C254.453 281.378 254.742 281.576 255.043 281.769C256.403 282.657 257.871 283.331 259.39 283.768L259.717 283.858L261.288 282.199L262.465 280.952L262.387 280.906C260.909 279.997 259.457 278.88 258.117 277.669ZM268.372 277.727L265.809 280.475L265.939 280.531C267.933 281.369 269.706 281.528 271.232 280.911L271.392 280.842L271.238 280.667C270.467 279.802 269.638 278.946 268.731 278.07L268.372 277.727ZM252.932 271.929L252.477 272.376C251.822 273.015 251.161 273.65 250.495 274.28L249.445 275.263L249.534 275.473C250.244 277.113 251.233 278.541 252.522 279.79L252.568 279.833L252.715 279.685C253.648 278.736 254.612 277.774 255.616 276.79L256.398 276.027L256.185 275.813C255.017 274.622 254.017 273.455 253.176 272.277L252.932 271.929ZM272.558 273.239L269.761 276.238L269.789 276.264C270.863 277.29 271.843 278.297 272.754 279.314L273.03 279.626L273.039 279.616C273.993 278.317 273.829 276.2 272.682 273.523L272.558 273.239ZM262.773 272.832L262.565 273.027C261.609 273.927 260.639 274.85 259.651 275.802L259.372 276.071L259.632 276.301C260.999 277.498 262.309 278.504 263.618 279.315L263.866 279.465L265.621 277.597L266.829 276.307L266.43 275.952C265.706 275.311 264.922 274.639 263.938 273.81L262.773 272.832ZM277.714 267.711L273.845 271.859L273.971 272.103C274.184 272.523 274.393 272.95 274.598 273.384L274.903 274.04L275.186 274.672C275.475 275.283 275.674 275.892 275.781 276.492L275.797 276.593L275.913 276.385C277.479 273.508 278.12 270.548 277.728 267.797L277.714 267.711ZM269.203 267.666L269.004 267.402L268.298 267.996L266.332 269.625L265.98 269.921C265.619 270.227 265.294 270.507 264.994 270.774L264.646 271.087L264.286 271.42L265.096 272.098C266.001 272.859 266.789 273.535 267.525 274.186L268.225 274.812L270.474 272.398L271.544 271.244L271.536 271.229C270.864 270.04 270.064 268.826 269.203 267.666ZM257.224 267.909L257.056 267.743L257.003 267.8C256.345 268.49 255.682 269.175 255.013 269.855L254.345 270.527L254.484 270.74C255.297 271.961 256.303 273.153 257.476 274.309L257.773 274.597L257.827 274.648L257.918 274.56C258.596 273.911 259.291 273.252 260.01 272.575L261.167 271.489L261.008 271.355C259.705 270.243 258.447 269.097 257.224 267.909ZM250.073 263.508L250.009 263.615C248.417 266.297 247.926 269.631 248.665 272.807L248.731 273.079L248.764 273.208L249.098 272.896C249.796 272.238 250.489 271.573 251.176 270.902L251.875 270.213L251.809 270.091C250.664 267.955 250.064 265.786 250.073 263.558L250.073 263.508ZM262.718 261.501L261.888 262.456C260.946 263.531 259.99 264.594 259.021 265.646L258.451 266.26L258.593 266.399C259.721 267.492 260.89 268.556 262.111 269.603L262.678 270.084L263.22 269.584C263.568 269.267 263.941 268.941 264.362 268.582L265.054 268.002L266.678 266.66C266.972 266.418 267.234 266.199 267.477 265.993L267.715 265.79L267.6 265.655C267.042 265.007 266.518 264.45 266.082 264.041L265.954 263.923C265.068 263.123 264.1 262.39 263.021 261.693L262.718 261.501ZM274.448 261.384L274.361 261.537C273.464 263.061 272.228 264.488 270.547 266.042L270.406 266.17L270.456 266.24C271.191 267.274 271.888 268.356 272.548 269.485L272.787 269.901L274.668 267.865L277.048 265.276L276.993 265.141C276.446 263.838 275.633 262.614 274.552 261.489L274.448 261.384ZM252.18 262.543L252.171 262.63C251.978 264.686 252.38 266.707 253.321 268.696L253.345 268.745L253.596 268.493C254.15 267.93 254.702 267.363 255.25 266.791L255.668 266.352L255.498 266.178C254.534 265.183 253.588 264.155 252.654 263.089L252.18 262.543ZM253.115 260.27L252.972 260.339L253.009 260.384C254.282 261.906 255.579 263.347 256.922 264.73L257.059 264.871L257.62 264.269C258.603 263.201 259.572 262.121 260.528 261.029L260.994 260.493L260.944 260.466C260.707 260.337 260.465 260.208 260.216 260.079L259.838 259.885C257.623 258.795 255.986 258.916 253.338 260.163L253.115 260.27ZM266.972 256.381L266.156 257.396C265.605 258.075 265.049 258.75 264.488 259.421L264.094 259.887L264.194 259.95C265.679 260.91 266.944 261.951 267.983 263.105L268.219 263.374C268.449 263.641 268.676 263.913 268.9 264.189L269.157 264.51L269.193 264.478C270.849 262.931 272.018 261.522 272.821 260.008L272.844 259.961L272.632 259.793C270.485 258.103 268.912 257.098 267.248 256.48L266.972 256.381ZM263.69 255.799C261.587 255.784 259.672 256.161 257.904 256.935L257.803 256.98L257.979 257.003C258.367 257.06 258.746 257.158 259.12 257.3L259.306 257.374C260.308 257.816 261.228 258.258 262.092 258.719L262.381 258.875L262.946 258.206C263.523 257.519 264.093 256.827 264.659 256.13L264.861 255.878L264.615 255.85C264.41 255.829 264.205 255.815 263.999 255.807L263.69 255.799Z" fill="#F17D29"/>
<path fill-rule="evenodd" clip-rule="evenodd" d="M299.437 111.507C300.102 109.703 302.495 108.958 304.262 109.71C306.028 110.462 307.124 112.341 307.401 114.244C307.678 116.147 307.257 118.081 306.717 119.926C306.224 121.609 305.629 123.261 304.937 124.871C304.872 125.021 304.786 125.188 304.628 125.224C304.459 125.262 304.303 125.13 304.181 125.007C301.18 121.96 299.371 117.764 299.214 113.485C299.189 112.818 299.206 112.134 299.437 111.507M304.625 111.947C304.132 111.524 303.497 111.247 302.848 111.267C301.335 111.313 300.279 112.967 300.312 114.484C300.346 116.001 301.153 117.378 301.935 118.677C302.496 119.608 303.056 120.538 303.617 121.468C303.808 121.785 304.183 122.147 304.481 121.927C304.601 121.839 304.647 121.683 304.686 121.539C304.916 120.694 305.145 119.849 305.375 119.004C305.703 117.796 306.033 116.568 306.013 115.316C305.993 114.064 305.573 112.762 304.625 111.947L304.625 111.947Z" fill="#EF7D2A"/>
<path fill-rule="evenodd" clip-rule="evenodd" d="M303.635 116.803C303.266 116.907 302.864 116.887 302.507 116.748C301.814 116.478 301.336 115.734 301.376 114.99C301.416 114.247 301.972 113.559 302.689 113.365C303.776 113.071 305.001 114.075 304.928 115.201C304.881 115.932 304.338 116.605 303.635 116.803Z" fill="#EF7D2A"/>
</svg>
