<svg width="343" height="368" viewBox="0 0 343 368" fill="none" xmlns="http://www.w3.org/2000/svg">
<path fill-rule="evenodd" clip-rule="evenodd" d="M210.493 271.487C147.586 257.719 63.7703 230.398 77.5437 136.652C91.317 42.906 150.359 6.75999 223.404 6.75999C296.447 6.75999 379.435 61.8679 363.144 176.029C346.852 290.19 273.399 285.255 210.493 271.487ZM417.262 158.483C419.86 132.398 417.1 106.588 409.686 82.3928L430.839 71.0617C434.405 69.1526 435.745 64.7158 433.839 61.1514L404.96 7.23471C403.048 3.67033 398.61 2.32887 395.045 4.23793L373.892 15.569C357.856 -4.005 337.899 -20.6033 314.75 -32.8953L321.689 -55.8551C322.861 -59.7255 320.673 -63.8112 316.801 -64.9813L258.254 -82.6848C254.382 -83.8549 250.299 -81.6662 249.127 -77.7958L242.188 -54.8359C216.098 -57.4329 197.092 -47.873 172.896 -40.4634L161.564 -61.617C159.656 -65.1814 155.219 -66.5229 151.655 -64.6138L97.7382 -35.7326C94.1738 -33.8235 92.8324 -29.3867 94.7414 -25.8229L106.073 -4.66868C86.4985 11.3668 63.1002 24.5233 50.8083 47.6767L27.8479 40.7344C23.978 39.5643 19.8918 41.7529 18.7217 45.6228L1.01883 104.17C-0.151256 108.04 2.0374 112.126 5.90722 113.297L28.8676 120.239C26.2707 146.324 29.0306 172.134 36.4401 196.329L15.2866 207.66C11.7222 209.569 10.3807 214.006 12.2898 217.571L41.171 271.487C43.0801 275.051 47.5169 276.393 51.0807 274.483L72.2348 263.152C88.2703 282.727 108.227 299.325 131.38 311.617L124.438 334.577C123.268 338.447 125.456 342.533 129.326 343.703L187.874 361.404C191.741 362.576 195.829 360.388 197.002 356.515L203.941 333.558C230.024 336.155 255.837 333.394 280.032 325.985L291.36 347.139C293.273 350.703 297.71 352.042 301.276 350.135L355.192 321.254C358.752 319.345 360.099 314.908 358.187 311.344L346.852 290.19C366.43 274.155 383.025 254.198 395.321 231.045L418.278 237.987C422.151 239.157 426.239 236.969 427.406 233.099L445.107 174.551C446.28 170.682 444.091 166.595 440.219 165.425L417.262 158.483Z" fill="#7222F5" fill-opacity="0.32"/>
<path fill-rule="evenodd" clip-rule="evenodd" d="M303.983 26.8544L301.944 26.7855L301.887 28.597C301.79 31.8563 301.834 35.343 301.883 39.1445C301.917 41.7938 301.953 44.596 301.944 47.5808L301.606 53.4748C301.615 58.9658 301.653 66.6086 301.721 76.4034L301.943 104.286C300.445 104.783 299.318 106.077 299.093 107.651C297.856 107.839 296.907 108.889 296.907 110.152C296.907 111.046 297.383 111.833 298.099 112.283L297.227 114.391C296.84 115.328 296.201 116.129 295.379 116.707C291.775 119.242 289.654 123.347 289.704 127.688C289.706 127.804 289.709 127.919 289.713 128.034C289.729 128.45 290.085 128.771 290.511 128.759C290.936 128.744 291.268 128.394 291.252 127.978C291.248 127.876 291.245 127.774 291.244 127.671C291.2 123.821 293.761 120.18 296.957 117.932C298.016 117.187 298.838 116.159 299.335 114.958L299.595 112.683H300.69C300.69 112.683 301.071 114.73 301.071 116.331C301.071 117.931 300.69 121.101 300.69 121.101H299.428C297.983 121.101 296.807 122.252 296.807 123.668C296.807 125.084 297.983 126.235 299.428 126.235H299.609C301.054 126.235 301.55 125.496 301.55 123.668C301.55 122.711 301.656 122.027 303.217 122.027C304.779 122.027 304.377 123.668 304.377 123.668C304.377 125.084 305.553 126.235 306.998 126.235H307.179C308.624 126.235 309.8 125.084 309.8 123.668C309.8 122.252 307.362 121.055 305.917 121.055C305.917 121.055 305.532 118.175 305.532 116.707C305.532 115.47 305.917 112.941 305.917 112.941H304.377C304.377 112.941 304.698 115.301 304.698 116.742C304.698 118.183 304.377 121.055 304.377 121.055C304.377 121.055 303.528 121.208 303.123 121.217C302.718 121.225 302.23 121.101 302.23 121.101C302.23 121.101 301.892 118.156 301.892 116.742C301.892 115.329 302.23 112.683 302.23 112.683H304.377H305.917H307.012L307.952 114.957C308.425 116.1 309.839 117.102 310.918 117.866L311.054 117.963C314.178 120.182 315.364 123.76 315.364 127.534C315.364 130.722 314.087 133.711 311.768 135.949C309.451 138.186 306.382 140.073 303.123 140.026C300.54 139.989 297.898 138.566 295.833 137.023C293.834 135.529 291.244 131.442 290.813 130.499C290.382 129.556 290.179 131.045 290.305 131.442C291.134 134.073 292.831 136.448 295.084 138.131C297.413 139.871 300.185 140.813 303.101 140.855C306.775 140.906 310.236 139.546 312.849 137.023C315.464 134.499 316.904 131.129 316.904 127.534C316.904 123.278 314.801 119.244 311.278 116.742C310.42 116.133 309.764 115.32 309.379 114.391L308.508 112.283C309.224 111.833 309.7 111.046 309.7 110.152C309.7 108.889 308.751 107.839 307.514 107.651C307.26 105.876 305.861 104.458 304.073 104.136L303.975 104.136L302.793 78.2074C302.723 68.3379 303.646 48.6113 303.646 48.6113C303.663 41.0254 303.756 34.3745 303.926 28.6592L303.983 26.8544ZM306.998 124.727C306.402 124.727 305.917 124.252 305.917 123.668V122.027C305.917 122.027 308.26 122.496 308.26 123.668C308.26 124.743 307.852 124.737 307.324 124.728C307.276 124.728 307.228 124.727 307.179 124.727H306.998ZM297.758 123.668C297.858 125.143 300.917 125.786 300.69 123.668V122.027C300.69 122.027 297.658 122.193 297.758 123.668ZM300.663 107.621C300.946 106.449 302.022 105.575 303.304 105.575C304.585 105.575 305.661 106.449 305.944 107.621H300.663ZM307.116 109.129H306.787H299.821H299.491C298.916 109.129 298.447 109.588 298.447 110.152C298.447 110.716 298.916 111.175 299.491 111.175H307.116C307.692 111.175 308.16 110.716 308.16 110.152C308.16 109.588 307.692 109.129 307.116 109.129ZM320.311 115.696H321.656C322.036 115.696 322.344 115.392 322.344 115.016C322.344 114.64 322.036 114.336 321.656 114.336H320.311C319.931 114.336 319.624 114.64 319.624 115.016C319.624 115.392 319.931 115.696 320.311 115.696ZM319.241 120.51L320.536 121.055C320.901 121.209 321.079 121.644 320.932 122.027C320.786 122.41 320.371 122.596 320.006 122.442L318.711 121.897C318.346 121.743 318.168 121.308 318.315 120.925C318.427 120.633 318.694 120.456 318.976 120.456C319.064 120.456 319.154 120.473 319.241 120.51ZM318.086 109.421L319.299 108.447C319.641 108.173 319.726 107.629 319.49 107.232C319.343 106.987 319.108 106.856 318.87 106.856C318.722 106.856 318.572 106.906 318.442 107.011L317.228 107.985C316.886 108.259 316.801 108.803 317.037 109.2C317.274 109.596 317.743 109.695 318.086 109.421ZM285.616 115.696H284.271C283.891 115.696 283.584 115.392 283.584 115.016C283.584 114.64 283.891 114.336 284.271 114.336H285.616C285.996 114.336 286.303 114.64 286.303 115.016C286.303 115.392 285.996 115.696 285.616 115.696ZM286.686 120.51L285.391 121.055C285.026 121.209 284.848 121.644 284.995 122.027C285.141 122.41 285.556 122.596 285.921 122.442L287.216 121.897C287.581 121.743 287.759 121.308 287.612 120.925C287.501 120.633 287.233 120.456 286.951 120.456C286.862 120.456 286.773 120.473 286.686 120.51ZM287.842 109.421L286.628 108.447C286.286 108.173 286.201 107.629 286.437 107.232C286.584 106.987 286.819 106.856 287.058 106.856C287.205 106.856 287.355 106.906 287.485 107.011L288.699 107.985C289.041 108.259 289.126 108.803 288.89 109.2C288.653 109.596 288.184 109.695 287.842 109.421Z" fill="#F17D29"/>
<path d="M203.527 216.732C211.028 218.706 214.877 223.404 218.127 227.78C221.384 232.155 214.224 230.073 210.273 228.494C206.322 226.915 196.809 221.074 196.809 221.074L165.271 211.535V196.948L174.702 196.397C174.702 196.397 196.02 214.757 203.527 216.732Z" fill="white"/>
<path d="M170.848 109.896C177.593 135.425 181.075 159.853 181.626 183.287C181.626 183.287 187.943 184.076 187.154 189.604C186.365 195.132 169.78 210.134 169.78 210.134L164.034 191.088L161.885 120.904L170.848 109.896" fill="white"/>
<path fill-rule="evenodd" clip-rule="evenodd" d="M173.149 122.962L169.276 120.392C169.028 120.228 168.702 120.356 168.613 120.651L167.262 125.137C167.15 125.511 167.486 125.861 167.834 125.733L173.058 123.816C173.414 123.686 173.469 123.174 173.149 122.962ZM172.68 123.703L167.92 125.08L169.337 121L172.68 123.703Z" fill="#F17D29"/>
<path fill-rule="evenodd" clip-rule="evenodd" d="M171.449 155.262L167.576 152.692C167.328 152.528 167.002 152.656 166.913 152.951L165.562 157.437C165.45 157.811 165.786 158.161 166.134 158.033L171.358 156.116C171.714 155.986 171.769 155.474 171.449 155.262ZM170.98 156.003L166.22 157.38L167.637 153.3L170.98 156.003Z" fill="#F17D29"/>
<path fill-rule="evenodd" clip-rule="evenodd" d="M169.412 173.408L169.701 168.769C169.719 168.473 169.446 168.254 169.145 168.325L164.585 169.398C164.205 169.487 164.07 169.953 164.355 170.191L168.627 173.757C168.918 174 169.389 173.791 169.412 173.408ZM168.536 173.373L164.963 169.939L169.205 169.126L168.536 173.373Z" fill="#F17D29"/>
<path fill-rule="evenodd" clip-rule="evenodd" d="M176.754 169.986L172.115 169.697C171.818 169.679 171.6 169.952 171.67 170.253L172.743 174.813C172.833 175.193 173.299 175.328 173.537 175.043L177.103 170.771C177.346 170.48 177.137 170.009 176.754 169.986ZM176.718 170.862L173.285 174.435L172.472 170.193L176.718 170.862Z" fill="#F17D29"/>
<path fill-rule="evenodd" clip-rule="evenodd" d="M173.173 193.634L169.011 195.704C168.745 195.836 168.692 196.183 168.904 196.408L172.113 199.82C172.381 200.105 172.852 199.989 172.915 199.623L173.867 194.14C173.932 193.767 173.516 193.463 173.173 193.634ZM173.58 194.411L172.393 199.222L169.568 195.955L173.58 194.411Z" fill="#F17D29"/>
<path fill-rule="evenodd" clip-rule="evenodd" d="M175.212 180.714L171.051 182.784C170.785 182.916 170.732 183.263 170.944 183.488L174.153 186.9C174.421 187.185 174.892 187.069 174.955 186.703L175.907 181.22C175.972 180.847 175.556 180.543 175.212 180.714ZM175.62 181.491L174.433 186.302L171.608 183.035L175.62 181.491Z" fill="#F17D29"/>
<path d="M148.232 125.247L143.656 139.063C133.196 170.702 128.045 186.762 127.89 188.268C127.794 189.203 128.361 189.902 129.236 190.14C129.761 190.283 130.404 190.275 131.203 190.157C132.445 189.972 134.106 189.506 136.111 188.814C137.661 188.278 139.336 187.636 141.033 186.941L141.746 186.646C141.978 186.55 142.204 186.455 142.422 186.363L143.556 185.874L143.879 185.731L144.068 185.432C144.402 184.899 144.878 183.958 145.348 182.668C145.761 181.534 146.09 180.32 146.306 179.037L146.382 178.553C146.449 178.082 147.096 176.992 148.429 175.13L149.359 173.858C150.121 172.831 151.588 170.868 151.735 170.669L152.597 169.501C153.422 168.378 154.141 167.374 154.844 166.362C158.37 161.286 160.862 156.842 162.332 152.566C163.579 148.939 164.016 145.578 163.522 142.489C162.766 137.773 163.056 133.267 164.159 129.037C165.076 125.523 162.176 122.281 157.994 121.089C153.674 119.858 149.558 121.253 148.232 125.247Z" fill="white"/>
<path d="M155.891 104.818C158.44 107.523 160.578 109.586 162.307 111.006C165.218 113.399 169.391 115.964 174.827 118.7C158.201 122.55 148.048 123.312 144.37 120.984C144.37 120.984 145.902 113.774 148.104 110.686C149.743 108.386 155.891 104.818 155.891 104.818Z" fill="white"/>
<path d="M182.338 70.0624C178.884 83.1823 169.446 96.8795 159.395 94.2343C149.345 91.5885 143.782 73.6562 147.237 60.5363C150.691 47.4163 161.639 38.9252 171.69 41.5704C181.74 44.2156 185.793 56.9431 182.338 70.0624" fill="white"/>
<path d="M184.638 74.2466C180.728 89.2611 170.047 104.936 158.673 101.909C147.299 98.8812 141.004 78.3594 144.913 63.3448C148.823 48.3303 161.212 38.6129 172.586 41.6401C183.96 44.6673 188.547 59.2328 184.638 74.2466" fill="white"/>
<path fill-rule="evenodd" clip-rule="evenodd" d="M166.486 43.3671C174.237 43.8074 179.893 46.3536 183.064 50.8403L183.421 51.3591C184.99 53.6223 186.308 55.0466 186.885 59.3304L186.94 59.7857C187.27 62.6037 187.366 65.5765 187.197 66.563C187.106 66.9798 186.927 67.1253 186.701 67.0812C186.189 66.981 184.862 64.6237 182.722 60.0091L180.925 62.1121C179.947 63.2415 177.874 64.3061 176.645 65.1063C175.417 65.9065 166.486 43.3671 166.486 43.3671Z" fill="#E7EAEE"/>
<path fill-rule="evenodd" clip-rule="evenodd" d="M174.311 85.9873C178.627 87.7873 181.906 90.1251 182.775 89.1528C183.644 88.1805 180.68 85.2197 178.376 81.1984C175.965 77.1996 173.674 72.1624 173.246 70.1132L172.15 64.9333C168.943 68.9802 165.941 82.5581 174.311 85.9873Z" fill="white"/>
<path d="M224.487 333.243L224.254 347.646H216.061L213.607 331.12L224.487 333.243" fill="white"/>
<path d="M134.763 256.652C134.763 256.652 187.921 255.478 204.631 253.067C223.181 250.392 233.326 244.069 237.36 244.816C239.251 245.166 250.409 247.143 273.691 249.62C283.538 250.667 309.099 250.828 309.099 250.828L319.019 229.713C319.019 229.713 249.208 215.697 227.136 221.763C220.193 223.671 205.159 226.425 187.284 225.419C171.827 224.55 129.788 216.385 129.788 216.385C129.788 216.385 112.814 222.477 115.886 237.461C118.959 252.445 134.763 256.652 134.763 256.652Z" fill="white"/>
<path fill-rule="evenodd" clip-rule="evenodd" d="M313.331 238.747L316.599 229.285C316.599 229.285 246.905 216.285 224.833 222.351C217.891 224.259 211.617 227.406 193.742 226.4C186.899 226.015 175.199 224.414 158.642 221.595C150.267 220.17 148.921 220.697 155.504 225.002C170.769 234.984 204.723 232.632 235.531 228.133C292.788 219.773 313.331 238.747 313.331 238.747Z" fill="#E7EAEE"/>
<path d="M215.239 336.514C211.771 340.345 207.174 346.656 209.541 352.973L250.606 365.607C250.606 365.607 252.184 360.868 249.817 356.924C247.444 352.973 225.039 337.386 225.039 337.386L215.239 336.514Z" fill="white"/>
<path fill-rule="evenodd" clip-rule="evenodd" d="M234.194 345.071C234.466 344.998 234.746 345.158 234.82 345.43C234.893 345.702 234.733 345.982 234.461 346.056C233.123 346.418 232.242 347.263 231.932 348.333C231.531 349.717 231.488 351.132 231.942 353.397C231.998 353.673 231.819 353.942 231.543 353.997C231.267 354.052 230.998 353.874 230.942 353.597C230.456 351.175 230.505 349.594 230.952 348.05C231.363 346.633 232.517 345.525 234.194 345.071Z" fill="#E7EAEE"/>
<path fill-rule="evenodd" clip-rule="evenodd" d="M211.581 353.653L251.98 365.54C251.98 365.54 257.111 364.462 251.806 363.708C246.355 362.933 214.441 348.319 210.931 350.981C210.431 351.36 211.272 352.828 211.581 353.653Z" fill="#E7EAEE"/>
<path d="M110.916 253.638C110.916 253.638 129.146 259.392 143.826 261.549C158.505 263.706 187.787 264.933 187.787 264.933C187.787 264.933 196.929 269.903 197.518 272.204C197.748 273.101 199.133 284.946 202.963 300.077C204.765 307.195 214.393 339.383 214.393 339.383L227.136 333.742C227.136 333.742 226.624 274.581 218.49 254.959C210.355 235.336 126.741 216.278 126.741 216.278C126.741 216.278 108.995 213.068 104.164 227.58C99.3327 242.093 110.916 253.638 110.916 253.638Z" fill="white"/>
<path fill-rule="evenodd" clip-rule="evenodd" d="M216.433 337.343L229.176 331.702C228.835 292.261 225.953 266 220.53 252.918C220.53 252.918 226.072 322.558 216.433 337.343Z" fill="#E7EAEE"/>
<path d="M327.553 239.523C330.724 243.604 336.14 249.227 342.773 247.993L362.346 209.746C362.346 209.746 357.31 207.518 353.015 209.164C348.712 210.815 329.792 230.559 329.792 230.559L327.553 239.523Z" fill="white"/>
<path fill-rule="evenodd" clip-rule="evenodd" d="M242.536 351.863C242.74 351.668 243.062 351.675 243.257 351.878C243.452 352.082 243.445 352.404 243.242 352.599C242.057 353.735 241.837 355.637 242.517 356.786C242.66 357.028 242.58 357.341 242.338 357.484C242.095 357.628 241.783 357.548 241.639 357.305C240.722 355.757 241.002 353.333 242.536 351.863Z" fill="#E7EAEE"/>
<path fill-rule="evenodd" clip-rule="evenodd" d="M238.37 348.5C238.576 348.307 238.898 348.317 239.091 348.522C239.284 348.728 239.274 349.05 239.069 349.243L238.793 349.508C236.648 351.619 236.033 353.464 237.922 355.444C238.116 355.648 238.108 355.97 237.905 356.165C237.701 356.359 237.378 356.352 237.184 356.148C235.788 354.684 235.501 353.105 236.12 351.523C236.546 350.432 237.288 349.517 238.37 348.5Z" fill="#E7EAEE"/>
<path fill-rule="evenodd" clip-rule="evenodd" d="M218.741 347.832C219.911 350.069 226.127 349.151 225.045 342.962C224.534 340.033 215.499 341.634 218.741 347.832Z" fill="#E7EAEE"/>
<path fill-rule="evenodd" clip-rule="evenodd" d="M338.892 248.705C347.106 239.319 351.827 218.21 358.59 210.946C360.978 208.383 364.075 207.807 360.741 213.877C354.642 224.982 342.921 248.705 342.921 248.705C342.3 249.015 341.533 248.705 340.84 248.705H338.892Z" fill="#E7EAEE"/>
<path d="M203.527 216.732C211.028 218.706 214.877 223.404 218.127 227.78C221.384 232.155 214.224 230.073 210.273 228.494C206.322 226.915 198.765 220.921 198.765 220.921L203.527 216.732Z" fill="white"/>
<path d="M135.208 198.965C135.208 198.965 177.429 217.102 183.379 217.126C189.322 217.151 203.908 224.233 204.697 229.76C205.656 236.485 180.217 226.602 180.217 226.602C180.217 226.602 123.362 226.602 113.89 217.126C104.411 207.65 110.728 187.909 110.728 187.909L135.208 198.965" fill="white"/>
<path d="M124.94 114.473C124.94 114.473 135.208 120.789 136.785 141.32C138.363 161.851 132.046 186.33 132.046 186.33C132.046 186.33 135.997 189.489 136.785 192.647C137.574 195.806 135.174 199.975 135.174 199.975C135.174 199.975 111.518 211.599 109.938 212.389C108.359 213.178 102.042 210.809 102.042 204.492C102.042 198.175 104.411 192.647 104.411 192.647C105.545 150.974 98.8835 110.524 124.94 114.473" fill="white"/>
<path fill-rule="evenodd" clip-rule="evenodd" d="M166.766 70.7852C169.195 67.5329 174.328 66.4739 175.698 71.6085C175.698 71.6085 176.751 74.7065 174.629 76.6206C168.131 82.4847 164.337 74.0376 166.766 70.7852Z" fill="white"/>
<path fill-rule="evenodd" clip-rule="evenodd" d="M180.329 74.3133C182.637 71.2236 187.513 70.2176 188.815 75.0954C188.815 75.0954 189.815 78.0385 187.799 79.857C181.625 85.4279 178.022 77.4031 180.329 74.3133Z" fill="white"/>
<path d="M161.435 113.863C161.435 113.863 161.435 151.82 161.993 173.031C162.55 194.243 157.688 215.142 148.4 231.486C139.111 247.83 140.375 271.211 133.528 272.949C79.3697 286.695 93.951 118.472 113.99 107.722C134.028 96.9724 140.648 94.6954 140.648 94.6954" fill="white"/>
<path fill-rule="evenodd" clip-rule="evenodd" d="M133.66 124.512L128.992 131.481C128.605 132.059 128.898 132.846 129.568 133.032L135.796 134.754C136.52 134.954 137.205 134.33 137.072 133.59L135.511 124.9C135.349 123.997 134.17 123.75 133.66 124.512ZM134.674 125.585L136.068 133.771L130.652 131.481L134.674 125.585Z" fill="#F17D29"/>
<path fill-rule="evenodd" clip-rule="evenodd" d="M118.643 117.706L113.143 126.535C112.791 127.099 113.064 127.843 113.697 128.045L123.301 131.124C124.1 131.381 124.85 130.615 124.576 129.821L120.473 117.913C120.193 117.101 119.097 116.977 118.643 117.706ZM119.947 118.782L122.757 129.821L114.431 126.535L119.947 118.782Z" fill="#F17D29"/>
<path fill-rule="evenodd" clip-rule="evenodd" d="M115.254 184.502L118.996 198.563C119.226 199.427 120.377 199.598 120.848 198.838L126.411 189.869C126.719 189.371 126.547 188.717 126.034 188.436L116.73 183.345C115.943 182.915 115.024 183.636 115.254 184.502ZM116.24 184.92L124.864 189.331L119.981 198.3L116.24 184.92Z" fill="#F17D29"/>
<path fill-rule="evenodd" clip-rule="evenodd" d="M107.762 236.131L109.802 245.769C109.989 246.654 111.149 246.876 111.649 246.123L117.161 237.831C117.567 237.219 117.213 236.391 116.49 236.262L108.939 234.916C108.227 234.789 107.612 235.423 107.762 236.131ZM109.542 235.979L116.086 238.299L110.439 244.747L109.542 235.979Z" fill="#F17D29"/>
<path fill-rule="evenodd" clip-rule="evenodd" d="M125.442 234.091L127.482 243.729C127.669 244.614 128.829 244.836 129.329 244.083L134.841 235.791C135.247 235.179 134.893 234.351 134.17 234.222L126.619 232.876C125.907 232.749 125.292 233.383 125.442 234.091ZM126.386 234.929L134.005 234.719L127.735 242.775L126.386 234.929Z" fill="#F17D29"/>
<path fill-rule="evenodd" clip-rule="evenodd" d="M115.922 214.371L117.962 224.009C118.149 224.894 119.309 225.116 119.809 224.363L125.321 216.071C125.727 215.459 125.373 214.631 124.65 214.502L117.099 213.156C116.387 213.029 115.772 213.663 115.922 214.371ZM116.92 214.16L123.791 216.186L118.28 223.118L116.92 214.16Z" fill="#F17D29"/>
<path fill-rule="evenodd" clip-rule="evenodd" d="M341.721 245.559C341.209 246.56 340.368 246.978 339.246 247.04C335.254 247.262 332.088 245.501 329.264 242.934C328.194 241.961 327.244 240.855 326.171 239.885C325.416 239.202 324.608 238.758 323.43 239.18C322.528 239.504 321.469 239.381 320.483 239.482C318.259 239.709 316.041 240.005 313.813 240.167C312.392 240.271 312.357 241.483 312.024 242.319C311.269 244.21 310.706 246.179 310.106 248.129C309.873 248.887 309.503 249.186 308.652 249.175C304.405 249.123 300.156 249.128 295.908 249.162C293.974 249.178 292.038 249.41 290.106 249.366C286.472 249.284 282.834 249.167 279.211 248.889C275.706 248.62 272.22 248.115 268.723 247.741C266.267 247.479 263.795 247.341 261.35 247.009C258.505 246.622 255.684 246.06 252.846 245.624C251.425 245.405 249.982 245.341 248.56 245.132C246.122 244.773 243.684 244.4 241.262 243.948C239.014 243.53 236.899 243.964 234.784 244.663C230.664 246.022 226.535 247.351 222.403 248.672C221.668 248.907 221.451 249.101 221.782 249.993C223 253.268 224.14 256.578 225.131 259.928C225.83 262.292 226.313 264.727 226.762 267.154C227.312 270.129 227.772 273.123 228.181 276.121C228.494 278.411 228.693 280.718 228.899 283.021C229.16 285.948 229.407 288.877 229.604 291.81C229.801 294.73 229.965 297.653 230.076 300.578C230.265 305.544 230.405 310.512 230.555 315.48C230.645 318.488 230.702 321.497 230.801 324.504C230.829 325.378 231.11 326.273 230.977 327.111C230.876 327.743 230.427 328.628 229.912 328.826C228.584 329.338 228.201 330.326 228.212 331.686C228.227 333.423 228.445 335.162 228.4 336.895C228.371 337.999 228.794 338.77 229.597 339.356C233.246 342.019 236.932 344.631 240.579 347.296C242.311 348.561 244.018 349.862 245.678 351.219C247.455 352.673 249.197 354.174 250.891 355.723C252.579 357.267 253.477 359.154 253.762 361.508C253.982 363.334 253.749 365.03 253.444 366.767C253.286 367.671 252.769 368.041 251.829 367.734C247.878 366.445 243.934 365.131 239.965 363.903C233.407 361.873 226.832 359.902 220.263 357.908C217.922 357.198 215.581 356.488 213.237 355.786C211.801 355.356 211.497 354.069 211.231 352.903C210.473 349.588 211.452 346.571 213.2 343.792C214.27 342.091 215.517 340.501 216.687 338.862C217.642 337.524 217.396 336.154 216.923 334.706C215.383 329.994 213.869 325.272 212.413 320.532C210.976 315.854 209.552 311.169 208.251 306.452C206.875 301.466 205.626 296.445 204.368 291.428C203.687 288.713 203.045 285.986 202.494 283.242C202.082 281.191 201.848 279.103 201.525 277.034C201.138 274.561 200.905 272.047 200.269 269.64C199.995 268.604 198.989 267.656 198.113 266.906C196.204 265.271 194.011 264.053 191.629 263.221C191.04 263.015 190.402 262.873 189.781 262.849C186.826 262.738 183.867 262.709 180.912 262.59C178.025 262.474 175.14 262.313 172.257 262.119C169.285 261.919 166.314 261.679 163.346 261.413C160.17 261.127 156.982 260.901 153.829 260.445C150.486 259.963 147.174 259.261 143.856 258.612C142.777 258.401 141.989 259.056 141.822 260.577C141.456 263.903 140.326 266.993 138.984 270.02C138.016 272.202 136.189 273.293 133.936 273.666C132.328 273.931 130.68 274.185 129.062 274.124C124.458 273.949 120.351 272.431 116.699 269.51C112.066 265.806 109.355 260.857 107.048 255.581C106.013 253.216 104.682 250.96 103.87 248.526C102.989 245.883 102.543 243.093 101.929 240.362C101.451 238.237 100.963 236.112 100.562 233.972C100.244 232.279 100.044 230.564 99.8022 228.858C99.4814 226.591 99.1651 224.323 98.8601 222.053C98.7592 221.303 98.6595 220.548 98.628 219.792C98.5292 217.428 98.4807 215.061 98.3804 212.696C98.2397 209.379 97.9771 206.065 97.9332 202.747C97.8583 197.073 97.866 191.397 97.934 185.723C97.9639 183.231 98.1746 180.737 98.3985 178.252C98.653 175.429 99.039 172.617 99.3202 169.795C99.521 167.781 99.5839 165.752 99.8148 163.742C100.154 160.792 100.525 157.844 100.997 154.913C101.558 151.428 102.199 147.954 102.878 144.489C104.161 137.932 105.654 131.415 108.099 125.185C109.656 121.216 111.281 117.167 114.46 114.171C115.836 112.874 117.748 112.126 119.458 111.206C124.151 108.679 128.868 106.199 133.563 103.675C133.782 103.557 133.97 103.214 134.006 102.953C134.131 102.049 134.075 101.107 134.298 100.232C134.442 99.6626 134.842 99.0375 135.314 98.6931C136.898 97.538 138.557 96.4847 140.209 95.4257C140.504 95.2362 140.923 95.0702 141.248 95.1227C142.989 95.4038 143.862 94.3324 144.459 93.0141C145.267 91.2289 146.005 89.4027 146.632 87.5466C147.67 84.4724 148.717 81.3906 149.503 78.2475C149.774 77.1633 149.357 75.87 149.112 74.7019C148.614 72.325 148.201 69.9044 147.399 67.6262C146.886 66.1697 145.848 64.8486 144.856 63.6194C142.292 60.4415 140.946 56.8821 141.377 52.8039C141.564 51.0332 142.323 49.383 143.648 48.0963C145.207 46.5823 146.805 45.1088 148.368 43.5996C149.508 42.4994 149.427 41.6583 147.942 40.5829C145.865 39.0776 143.873 37.4513 141.886 35.8264C140.189 34.4387 139.459 32.4559 139.009 30.4234C138.397 27.6582 138.324 24.8686 139.452 22.1696C141.256 17.8531 143.855 14.2908 148.613 12.9477C152.807 11.764 156.99 11.8442 160.754 14.2214C164.173 16.3814 166.345 19.5987 167.301 23.5696C168.422 28.2296 167.146 32.4232 164.791 36.4119C164.593 36.746 164.573 37.1847 164.471 37.5747C164.821 37.6409 165.169 37.7506 165.522 37.7667C170.051 37.973 174.553 38.4758 178.61 40.6348C183.935 43.4687 187.284 47.96 188.761 53.8057C188.982 54.6808 188.98 55.6214 189.009 56.534C189.108 59.6461 189.116 62.7626 189.3 65.8692C189.339 66.5177 189.835 67.3137 190.365 67.7291C192.911 69.723 193.777 74.6056 191.41 77.4958C191.173 77.7851 190.971 78.1032 190.739 78.3961C189.829 79.5411 188.51 80.0969 187.197 79.863C186.077 79.6637 185.983 80.0404 185.613 80.8663C184.825 82.6282 183.88 84.333 182.862 85.976C181.497 88.1783 180.103 90.3779 178.525 92.4272C177.572 93.6648 176.284 94.6607 175.077 95.6829C173.613 96.9228 172.065 98.063 170.574 99.272C169.83 99.875 169.015 100.186 168.065 100.049C167.079 99.9073 166.525 100.461 166.236 101.259C165.679 102.801 165.176 104.364 164.736 105.943C164.643 106.275 164.84 106.76 165.041 107.091C166.799 109.985 168.545 112.887 170.382 115.731C171.872 118.038 173.567 120.217 175.01 122.552C175.902 123.997 176.493 125.627 177.215 127.176C178.476 129.878 179.763 132.568 180.968 135.295C181.216 135.856 181.283 136.575 181.197 137.187C181.071 138.079 180.191 138.363 179.238 137.788C178.131 137.119 177.088 136.338 176.051 135.56C175.409 135.078 174.832 134.51 174.222 133.986C174.151 133.925 174.057 133.892 173.973 133.847C173.96 133.953 173.923 134.063 173.937 134.165C174.108 135.365 174.245 136.571 174.474 137.759C174.711 138.987 175.072 140.19 175.321 141.415C175.816 143.849 176.295 146.287 176.738 148.731C177.236 151.479 177.716 154.232 178.149 156.992C178.371 158.41 178.447 159.851 178.639 161.275C178.928 163.429 179.293 165.572 179.564 167.728C179.712 168.906 179.744 170.098 179.81 171.285C179.899 172.903 179.958 174.523 180.05 176.141C180.279 180.133 180.511 184.124 180.763 188.114C180.825 189.104 181.407 189.864 182.298 190.147C184.832 190.952 186.603 193.91 186.176 196.38C186.077 196.954 185.949 197.548 185.697 198.065C185.091 199.307 185.881 200.013 186.667 200.658C187.944 201.707 189.274 202.693 190.608 203.67C193.772 205.99 196.959 208.279 200.124 210.599C202.991 212.7 206.155 214.161 209.55 215.197C212.275 216.028 214.593 217.604 216.773 219.421C217.843 220.313 218.769 221.633 220.464 221.308C222.864 220.846 225.256 220.346 227.649 219.853C228.37 219.704 229.078 219.487 229.803 219.362C232.328 218.927 233.819 217.141 235.305 215.293C236.41 213.918 237.643 212.646 238.794 211.306C241.057 208.67 243.296 206.013 245.558 203.376C246.683 202.065 247.84 200.783 248.976 199.481C252.176 195.814 255.358 192.13 258.578 188.481C260.267 186.568 262.025 184.717 263.743 182.83C264.205 182.323 264.7 181.827 265.065 181.253C265.621 180.38 266.189 180.112 267.275 180.464C269.651 181.233 269.608 181.086 267.947 182.908C264.973 186.171 262.097 189.524 259.168 192.829C257.737 194.445 256.257 196.018 254.837 197.644C252.344 200.497 249.89 203.382 247.403 206.24C245.638 208.268 243.851 210.277 242.064 212.286C240.682 213.841 239.28 215.378 237.902 216.937C237.781 217.073 237.686 217.45 237.729 217.477C238.066 217.688 238.445 218 238.8 217.986C241.687 217.873 244.569 217.652 247.456 217.554C249.617 217.48 251.784 217.48 253.945 217.554C256.714 217.65 259.488 217.769 262.244 218.034C265.316 218.328 268.371 218.801 271.434 219.19C274.575 219.588 277.725 219.916 280.855 220.388C283.982 220.859 287.084 221.495 290.204 222.014C292.789 222.444 295.392 222.763 297.973 223.212C301.264 223.785 304.539 224.452 307.826 225.055C310.133 225.479 312.45 225.849 314.757 226.273C316.982 226.682 319.195 227.156 321.422 227.551C322.826 227.8 324.242 228.052 325.66 228.11C326.255 228.135 327.012 227.812 327.453 227.392C330.827 224.183 334.097 220.864 337.486 217.67C341.279 214.096 345.245 210.723 349.521 207.723C351.478 206.351 353.669 206.59 355.8 206.775C357.043 206.883 358.244 207.482 359.461 207.868C360.46 208.186 360.549 208.802 360.105 209.674C358.087 213.634 356.106 217.612 354.087 221.571C352.343 224.993 350.566 228.399 348.745 231.871C346.365 236.473 344.047 241.018 341.721 245.559ZM155.004 216.358C156.064 213.291 156.995 210.172 157.832 207.036C158.375 204.998 158.683 202.895 159.032 200.81C159.391 198.668 159.691 196.515 159.981 194.362C160.318 191.862 160.842 189.36 160.883 186.852C160.964 181.816 160.756 176.777 160.701 171.738C160.667 168.659 160.649 165.578 160.709 162.5C160.756 160.079 159.347 158.274 158.32 156.288C157.637 154.966 156.915 153.632 156.479 152.22C155.678 149.631 155.027 146.992 154.406 144.352C153.982 142.546 153.669 140.711 153.39 138.877C153.067 136.754 152.369 134.76 151.463 132.833C151.387 132.672 150.75 132.554 150.681 132.645C150.316 133.134 150.044 133.694 149.749 134.234C149.224 135.195 148.426 136.11 148.244 137.134C147.88 139.18 146.937 140.935 145.973 142.691C145.374 143.784 144.363 143.812 143.662 142.809C142.907 141.731 142.093 140.644 141.611 139.438C140.48 136.603 139.467 133.716 138.524 130.811C137.286 126.994 136.118 123.153 135.006 119.297C134.426 117.284 133.848 115.239 133.604 113.169C133.365 111.14 133.554 109.06 133.548 107.003C133.547 106.819 133.491 106.635 133.461 106.451C133.377 106.516 133.301 106.595 133.209 106.645C131.053 107.832 128.91 109.043 126.733 110.191C124.574 111.328 122.404 112.452 120.195 113.488C117.774 114.623 115.344 115.793 113.942 118.171C112.425 120.743 110.652 123.195 109.738 126.095C108.796 129.085 107.73 132.039 106.91 135.061C106.072 138.153 105.5 141.315 104.744 144.43C104.262 146.42 103.466 148.35 103.149 150.36C102.666 153.427 102.367 156.533 102.194 159.634C102.045 162.295 102.057 164.964 101.697 167.615C101.419 169.673 101.229 171.744 100.978 173.806C100.595 176.946 99.9082 180.08 99.859 183.224C99.7502 190.186 100.037 197.152 100.004 204.116C99.9875 207.766 100.532 211.333 100.962 214.93C101.439 218.924 101.721 222.941 102.177 226.937C102.486 229.654 102.796 232.385 103.375 235.052C104.319 239.392 105.332 243.729 106.591 247.987C108.163 253.298 110.47 258.302 113.718 262.84C115.748 265.677 118.226 267.999 121.285 269.669C125.432 271.933 129.88 271.737 134.336 271.046C135.067 270.933 136.012 270.371 136.325 269.748C137.202 268.003 137.969 266.163 138.468 264.278C139.177 261.6 139.491 258.818 140.187 256.136C141.335 251.713 142.779 247.365 143.861 242.927C144.752 239.272 146.449 235.974 147.925 232.575C149.01 230.074 150.294 227.66 151.608 225.089C152.748 222.181 153.984 219.307 155.004 216.358ZM194.15 261.508C196.295 262.82 198.399 264.21 200.441 265.679C201.716 266.596 202.632 267.928 202.912 269.469C203.559 273.036 203.988 276.643 204.614 280.215C205.053 282.722 205.684 285.194 206.206 287.687C206.63 289.716 207.023 291.752 207.426 293.786C207.822 295.785 208.208 297.785 208.609 299.783C208.914 301.306 209.23 302.826 209.552 304.345C210.073 306.802 210.488 309.288 211.16 311.702C211.823 314.081 212.82 316.364 213.548 318.727C214.759 322.659 216.261 326.465 218.002 330.192C218.414 331.075 219.108 330.897 219.519 330.736C222.123 329.717 224.692 328.604 227.244 327.458C228.049 327.097 228.477 326.396 228.44 325.439C228.34 322.839 228.269 320.237 228.198 317.636C228.113 314.524 228.04 311.412 227.96 308.3C227.883 305.253 227.865 302.203 227.707 299.16C227.552 296.187 227.26 293.222 227.015 290.254C226.708 286.557 226.423 282.858 226.06 279.167C225.81 276.618 225.58 274.054 225.098 271.543C224.263 267.196 223.238 262.886 222.297 258.559C221.2 253.517 219.08 249.124 214.89 245.824C211.699 243.31 208.351 241.066 204.731 239.273C200.726 237.289 196.677 235.358 192.521 233.728C187.769 231.864 183.154 229.509 177.922 229.08C175.409 228.874 172.916 228.434 170.406 228.167C168.393 227.953 166.363 227.892 164.351 227.672C161.166 227.323 157.994 226.86 154.806 226.547C154.359 226.503 153.686 226.923 153.412 227.327C152.782 228.257 152.308 229.297 151.816 230.314C150.279 233.49 148.48 236.575 147.311 239.883C145.767 244.253 144.719 248.799 143.467 253.272C142.757 255.806 142.742 255.919 144.951 256.382C147.508 256.918 150.105 257.274 152.695 257.63C154.389 257.863 156.105 257.928 157.805 258.123C161.027 258.493 164.241 258.936 167.465 259.284C169.516 259.505 171.579 259.639 173.639 259.761C176.719 259.944 179.8 260.115 182.882 260.227C184.728 260.294 186.579 260.24 188.663 260.24C190.599 260.204 192.489 260.493 194.15 261.508ZM286.65 246.79C288.636 246.883 290.622 246.98 292.61 247.022C297.217 247.12 301.825 247.198 306.432 247.254C307.352 247.265 308.181 246.884 308.429 245.937C309.764 240.841 312.389 236.115 312.726 230.722C312.812 229.355 312.219 228.389 310.823 228.145C309.367 227.89 307.929 227.533 306.476 227.256C304.65 226.908 302.815 226.602 300.986 226.266C299.344 225.964 297.703 225.651 296.064 225.334C294.864 225.102 293.669 224.846 292.468 224.619C290.169 224.184 287.868 223.759 285.567 223.337C283.993 223.049 282.421 222.754 280.842 222.5C279.617 222.304 278.381 222.18 277.154 222.001C274.56 221.623 271.969 221.23 269.377 220.842C267.896 220.62 266.418 220.377 264.935 220.176C262.956 219.909 260.972 219.458 258.992 219.469C254.023 219.498 249.054 219.716 244.087 219.91C241.712 220.002 239.332 220.135 236.972 220.401C235.651 220.55 234.38 220.968 233.422 222.081C231.86 223.895 230.184 225.609 228.607 227.409C227.611 228.546 226.679 229.742 225.768 230.949C224.564 232.546 223.095 233.516 220.996 233.354C217.557 233.088 214.112 232.892 210.673 232.628C209.397 232.53 208.126 232.34 206.857 232.162C204.705 231.861 202.559 231.512 200.405 231.23C198.344 230.96 196.277 230.736 194.209 230.524C193.626 230.464 193.03 230.497 192.442 230.53C192.324 230.536 192.218 230.736 192.107 230.847C192.227 230.903 192.349 230.953 192.466 231.015C193.501 231.555 194.509 232.156 195.574 232.627C198.698 234.006 201.919 235.186 204.965 236.717C209.386 238.941 213.513 241.657 217.264 244.921C218.428 245.934 219.544 246.685 221.452 246.432C224.476 246.029 227.302 245.283 230.016 243.963C233.668 242.186 237.384 240.728 241.584 241.599C244.014 242.103 246.457 242.544 248.883 243.064C250.421 243.394 251.92 243.937 253.469 244.167C255.39 244.452 257.346 244.503 259.285 244.671C262.812 244.979 266.338 245.305 269.866 245.611C272.261 245.819 274.657 246.006 277.171 246.321C280.331 246.478 283.49 246.643 286.65 246.79ZM163.752 178.635C163.787 179.577 163.749 180.522 163.765 181.465C163.838 185.875 163.908 190.285 164.006 194.694C164.035 195.973 163.979 197.293 164.272 198.52C164.865 201.004 165.644 203.446 166.402 205.888C166.727 206.934 167.178 207.93 168.361 208.344C169.389 208.704 170.385 209.157 171.416 209.511C172.945 210.036 173.414 209.837 174.411 208.438C174.741 207.975 175.121 207.548 175.492 207.116C177.881 204.33 180.342 201.602 182.643 198.745C184.341 196.637 184.047 193.243 181.203 192.155C180.897 192.038 180.594 191.897 180.276 191.831C178.596 191.483 178.674 191.487 178.618 189.9C178.418 184.226 179.084 178.538 178.193 172.871C177.837 170.609 177.983 168.269 177.656 166C177.147 162.469 176.442 158.966 175.796 155.456C175.184 152.136 174.571 148.815 173.902 145.507C173.402 143.038 172.801 140.589 172.262 138.128C171.852 136.251 171.529 134.351 171.034 132.498C170.9 131.996 170.278 131.626 169.88 131.195C169.414 131.645 168.598 132.055 168.542 132.551C168.257 135.066 167.869 137.629 168.09 140.125C168.344 142.992 168.774 145.834 168.227 148.68C167.603 151.923 166.566 155.038 164.808 157.876C163.834 159.449 163.106 161.081 163.272 163.027C163.436 164.953 163.489 166.891 163.517 168.825C163.556 171.576 163.527 174.328 163.527 177.316C163.605 177.756 163.736 178.193 163.752 178.635ZM151.377 81.1867C151.178 81.4941 150.903 81.7765 150.793 82.1128C149.672 85.5429 148.649 89.0065 147.451 92.4089C146.729 94.4588 145.596 96.2879 143.723 97.5761C142.363 98.512 141.094 99.5798 139.762 100.56C139.105 101.043 139.244 101.461 139.654 102.048C140.879 103.804 142.174 105.531 143.197 107.403C144.608 109.986 145.817 112.682 147.073 115.348C148.297 117.946 149.575 120.525 150.635 123.19C151.536 125.454 152.02 127.886 152.947 130.137C153.784 132.172 154.683 134.178 154.986 136.357C155.09 137.098 155.33 137.104 155.891 137.102C159.266 137.09 162.526 136.644 165.371 134.635C165.614 134.464 165.82 134.111 165.867 133.814C165.978 133.097 165.959 132.361 166.043 131.638C166.102 131.129 166.435 130.577 166.316 130.133C165.872 128.481 165.282 126.869 164.767 125.236C163.782 122.117 162.489 119.03 162.401 115.739C162.311 112.39 162.613 109.026 162.842 105.675C162.936 104.309 163.204 102.937 163.549 101.609C163.955 100.05 163.858 99.6239 162.452 98.8638C160.138 97.6131 158.142 95.931 156.716 93.7616C154.388 90.2213 152.6 86.4111 151.962 82.007C151.767 81.7336 151.572 81.4601 151.377 81.1867ZM184.95 80.1419C185.015 80.0146 185.587 79.6175 184.736 79.474C183.875 79.329 182.904 78.9115 182.313 78.2954C181.154 77.087 180.195 75.6794 179.222 74.3063C178.946 73.9176 178.848 73.6818 178.461 74.1477C178.215 74.4435 177.895 74.6782 177.65 74.9744C175.521 77.5459 172.459 78.6379 169.592 77.9233C166.155 77.0667 164.059 73.4022 164.012 70.2229C163.994 68.9554 163.593 67.8934 162.581 67.1643C160.896 65.951 159.163 64.8032 157.431 63.6567C156.462 63.015 155.539 63.2248 155.288 64.237C154.669 66.7429 153.898 69.2546 153.681 71.8058C153.414 74.9623 153.541 78.149 154.295 81.2987C155.565 86.6048 157.213 91.6471 161.543 95.3865C164.335 97.7974 167.783 98.3399 171.108 96.8808C174.402 95.4347 176.426 92.76 178.395 89.9761C180.05 87.6362 181.7 85.2926 183.47 82.8327C183.971 81.9394 184.49 81.0553 184.95 80.1419ZM327.622 237.739C329.911 240.652 332.573 243.084 336.217 244.26C338.467 244.986 339.291 244.858 340.536 242.484C343.077 237.642 345.587 232.783 348.091 227.922C349.091 225.98 350.016 223.999 351.017 222.058C352.974 218.267 354.956 214.489 356.939 210.711C357.301 210.022 356.957 209.398 356.424 209.327C354.574 209.08 352.62 208.551 350.901 209.694C348.636 211.202 346.354 212.718 344.27 214.458C341.108 217.097 338.062 219.882 335.063 222.707C333.702 223.989 332.553 225.499 331.344 226.935C330.389 228.07 329.163 229.026 328.799 230.576C328.463 232.01 328.131 233.445 327.798 235.115C327.406 235.97 326.967 236.905 327.622 237.739ZM249.671 364.355C250.211 364.398 251.25 364.153 251.255 364.008C251.325 361.977 251.709 359.825 249.887 358.24C247.518 356.179 245.223 354.023 242.752 352.092C238.767 348.976 234.665 346.008 230.61 342.982C229.161 341.9 227.72 340.752 225.875 340.47C224.225 340.218 222.542 340.185 220.885 339.963C219.488 339.777 218.537 340.382 217.688 341.388C215.631 343.827 214.134 346.539 213.568 349.707C213.125 352.189 213.924 353.556 215.927 354.146C219.743 355.27 223.531 356.485 227.339 357.634C230.068 358.457 232.822 359.199 235.545 360.039C239.517 361.265 243.471 362.547 247.668 363.806C248.335 364 248.993 364.302 249.671 364.355ZM169.545 211.4C166.91 210.357 164.291 209.274 161.65 208.247C160.869 207.944 160.205 207.854 159.948 209.056C159.669 210.361 159.073 211.596 158.642 212.871C157.687 215.7 156.728 218.527 155.823 221.372C155.656 221.897 155.402 222.636 156.441 222.736C157.794 222.867 159.139 223.092 160.494 223.191C163.139 223.383 165.788 223.572 168.438 223.66C172.376 223.79 176.316 223.836 180.256 223.906C181.514 223.928 182.773 223.905 184.031 223.912C184.337 223.913 184.661 223.891 184.946 223.98C188.357 225.046 191.756 226.151 195.17 227.206C198.603 228.268 202.043 229.311 205.712 229.106C206.986 229.035 207.219 228.796 206.751 227.624C206.495 226.985 206.14 226.333 205.67 225.84C203.372 223.432 200.566 221.751 197.565 220.369C195.173 219.267 192.836 218.039 190.146 217.762C188.887 217.633 187.619 217.451 186.396 217.135C184.453 216.632 182.527 216.049 180.627 215.403C178.253 214.594 175.913 213.686 173.322 212.821C172.062 212.349 170.795 211.895 169.545 211.4ZM139.913 107.256C138.809 105.545 137.647 103.871 136.506 102.183C136.347 101.948 136.173 101.723 136.007 101.493C135.896 101.88 135.741 102.26 135.684 102.654C135.496 103.957 135.389 105.273 135.166 106.569C134.723 109.134 134.482 111.654 136.145 113.935C136.25 114.079 136.332 114.252 136.38 114.425C136.991 116.647 137.592 118.873 138.202 121.096C138.356 121.659 138.517 122.221 138.702 122.774C139.497 125.155 140.461 127.493 141.061 129.922C141.676 132.416 142.148 134.924 143.426 137.202C143.794 137.857 143.913 138.647 144.184 139.361C144.264 139.574 144.531 139.917 144.616 139.891C144.886 139.806 145.242 139.627 145.333 139.395C146.389 136.684 146.897 133.723 148.9 131.446C150.601 129.513 150.248 127.537 149.204 125.473C148.797 124.666 148.544 123.782 148.18 122.952C147.393 121.156 146.64 119.341 145.759 117.592C144.99 116.063 144.058 114.616 143.211 113.126C142.615 112.078 142.042 111.018 141.34 109.845C140.868 108.98 140.446 108.082 139.913 107.256ZM203.665 215.527C200.218 213.3 196.723 211.137 193.383 208.758C190.586 206.766 187.995 204.489 185.277 202.383C184.543 201.815 183.701 201.626 182.952 202.483C181.737 203.87 180.5 205.238 179.287 206.627C178.384 207.662 177.517 208.728 176.612 209.761C175.905 210.569 175.979 211.002 177.014 211.311C180.34 212.306 183.69 213.221 187.006 214.247C191.532 215.648 196.053 217.072 200.538 218.597C201.973 219.085 203.238 220.071 204.671 220.566C206.127 221.068 207.683 221.331 209.217 221.544C210.989 221.791 212.783 221.89 214.57 222.001C214.855 222.019 215.157 221.764 215.451 221.635C215.277 221.393 215.145 221.099 214.922 220.917C212.088 218.597 208.704 217.4 205.184 216.124C204.675 215.929 204.113 215.817 203.665 215.527ZM158.785 153.388C159.223 155.051 160.264 155.859 161.867 156.01C163.252 156.14 163.658 155.38 163.996 154.369C164.479 152.92 164.958 151.469 165.412 150.011C166.419 146.772 166.275 143.508 165.672 140.215C165.475 139.142 165.521 138.023 165.472 136.924C165.465 136.764 165.546 136.601 165.587 136.439C165.425 136.486 165.257 136.519 165.102 136.583C164.13 136.985 163.194 137.542 162.184 137.769C160.291 138.194 158.362 138.475 156.436 138.721C155.692 138.816 155.252 138.894 155.488 139.804C155.711 140.664 155.8 141.557 155.977 142.429C156.36 144.309 156.761 146.185 157.154 148.299C157.705 149.993 158.331 151.668 158.785 153.388ZM178.954 135.642C179.138 135.797 179.342 135.929 179.536 136.071C179.535 135.807 179.608 135.516 179.521 135.285C179.009 133.926 178.533 132.547 177.909 131.239C176.578 128.448 175.355 125.578 173.73 122.962C172.132 120.39 169.981 118.167 168.285 115.649C167.069 113.845 166.209 111.803 165.171 109.878C165.011 109.582 164.748 109.342 164.532 109.076C164.433 109.388 164.242 109.703 164.25 110.013C164.299 112.024 164.325 114.039 164.494 116.042C164.609 117.408 164.839 118.785 165.206 120.104C165.614 121.569 166.353 122.944 166.734 124.413C167.18 126.133 167.997 127.22 169.662 128.139C172.424 129.662 175.274 131.246 177.216 134.144C177.795 134.644 178.371 135.147 178.954 135.642ZM166.661 68.9805C165.755 70.3001 167.435 74.9236 168.349 75.2675C174.745 77.6748 176.568 73.5552 176.652 72.424C176.819 70.1793 177.096 67.9032 174.974 66.083C169.376 64.9695 168.125 66.8479 166.661 68.9805ZM191.152 70.8494C190.292 68.7079 188.992 67.311 186.726 67.7999C185.57 68.0493 184.552 68.9655 183.489 69.6087C181.205 70.9904 180.906 71.7464 181.704 74.1956C182.503 76.6469 184.367 78.051 186.739 78.5277C188.701 78.9222 190.104 77.7049 191.141 75.8733C191.403 74.2001 191.833 72.5444 191.152 70.8494ZM182.682 68.0803C183.604 67.4246 184.604 66.4537 185.598 66.4178C187.319 66.3557 187.04 65.3046 186.854 64.4767C186.336 62.164 185.658 59.8852 184.996 57.6066C184.543 56.0468 184.16 55.9573 183.061 57.0559C181.179 58.9379 179.273 60.7835 176.908 62.0827C176.169 62.489 176.067 63.4252 176.596 64.1626C176.793 64.4371 177.06 64.6726 177.207 64.9693C177.934 66.4311 178.594 67.9282 179.37 69.3626C179.541 69.6798 179.411 70.8013 180.52 69.9753C181.237 69.3378 181.905 68.6328 182.682 68.0803ZM321.574 237.316C323.18 237.017 324.9 236.605 325.148 234.469C325.19 234.111 325.353 233.768 325.435 233.412C325.941 231.204 325.368 230.496 323.157 230.259C321.076 230.036 319.009 229.663 316.941 229.329C315.834 229.151 315.63 229.358 315.508 230.484C315.339 232.044 315.095 233.6 314.804 235.142C314.548 236.494 314.926 237.563 316.115 237.828C317.937 237.671 319.784 237.649 321.574 237.316ZM225.193 337.82C225.418 337.81 225.799 337.365 225.808 337.11C225.863 335.423 225.823 333.733 225.842 332.044C225.852 331.094 225.125 331.063 224.603 331.229C223.467 331.592 222.386 332.131 221.289 332.614C220.497 332.962 219.606 333.245 219.702 334.387C219.77 335.194 219.77 336.02 219.956 336.8C220.264 338.096 221.383 337.479 222.296 337.737C223.262 337.777 224.231 337.863 225.193 337.82ZM162.329 200.586C162.261 200.394 161.982 200.277 161.8 200.125C161.667 200.314 161.437 200.495 161.419 200.695C161.308 201.908 161.213 203.125 161.176 204.342C161.139 205.531 161.981 206.302 163.191 206.192C163.396 206.173 163.759 205.812 163.733 205.668C163.555 204.701 163.291 203.751 162.937 202.677C162.74 201.978 162.57 201.269 162.329 200.586ZM228.827 222.873C228.958 222.614 229.233 221.891 228.432 222.041C227.211 222.27 226.011 222.617 224.81 222.944C224.591 223.004 224.411 223.21 224.213 223.348C224.443 223.456 224.669 223.65 224.902 223.658C225.881 223.693 226.862 223.673 227.961 223.555C228.261 223.334 228.676 223.17 228.827 222.873ZM137.682 99.1108C137.494 99.2202 137.306 99.3296 137.118 99.439C137.266 99.604 137.387 99.8329 137.572 99.9101C137.682 99.9562 137.924 99.7978 138.052 99.6743C138.778 98.9706 139.491 98.2532 140.2 97.5316C140.342 97.3871 140.445 97.2046 140.567 97.0396C140.328 97.0862 140.028 97.0574 139.861 97.1926C139.153 97.7662 138.484 98.3884 137.682 99.1108Z" fill="#00160A"/>
<path fill-rule="evenodd" clip-rule="evenodd" d="M162.973 85.3684C161.868 84.7706 160.774 84.2802 160.544 82.9481C160.098 80.3596 161.03 77.3102 164.404 77.4875C167.445 77.6473 169.375 80.1733 168.299 83.0264C167.506 85.13 165.58 86.1733 162.973 85.3684Z" fill="#F17D29"/>
<path fill-rule="evenodd" clip-rule="evenodd" d="M177.973 75.7124C178.034 75.3156 178.094 75.0378 178.155 74.76C178.25 75.0023 178.373 75.2373 178.437 75.4879C178.912 77.3445 180.416 81.9673 178.625 84.0946C178.476 84.2716 177.72 84.2995 177.249 84.2697C176.325 84.2112 175.247 82.847 175.418 81.9673C175.444 81.8354 177.676 84.0016 178.155 82.8292C178.953 80.8742 177.973 76.3847 177.973 75.7124Z" fill="#00160A"/>
<path fill-rule="evenodd" clip-rule="evenodd" d="M165.382 89.2591C165.289 89.2119 165.16 89.2244 165.049 89.2291C164.774 89.2405 164.398 88.7481 164.558 88.5396C164.799 88.2262 165.073 87.9096 165.4 87.7032C165.594 87.5802 165.916 87.9788 165.892 88.155C165.874 88.2867 165.999 88.493 166.12 88.5822C167.968 89.9398 170.019 90.8196 172.264 91.2425C172.413 91.2704 172.542 91.4029 172.68 91.4868C172.542 91.5823 172.405 91.7679 172.267 91.7598C169.818 91.6167 166.987 90.0729 165.382 89.2591Z" fill="#00160A"/>
<path fill-rule="evenodd" clip-rule="evenodd" d="M105.714 195.568L103.388 205.502C103.208 206.271 103.931 206.943 104.685 206.709L112.76 204.194C113.439 203.983 113.699 203.158 113.263 202.596L107.514 195.175C106.988 194.497 105.91 194.732 105.714 195.568ZM106.708 197.16L111.777 203.221L104.381 205.735L106.708 197.16Z" fill="#F17D29"/>
<path fill-rule="evenodd" clip-rule="evenodd" d="M112.931 138.248C112.081 138.172 111.519 139.111 111.988 139.824L117.904 148.818C118.303 149.424 119.189 149.432 119.598 148.833L125.044 140.859C125.483 140.215 125.068 139.337 124.292 139.267L112.931 138.248ZM113.732 139.267L123.903 141.244L117.904 147.523L113.732 139.267Z" fill="#F17D29"/>
<path fill-rule="evenodd" clip-rule="evenodd" d="M150.424 207.02H142.08C141.388 207.02 140.897 207.694 141.109 208.352L143.912 217.064C144.176 217.887 145.28 218.028 145.744 217.299L151.285 208.587C151.717 207.908 151.229 207.02 150.424 207.02ZM149.744 208.72L145.563 216.752L142.76 208.04L149.744 208.72Z" fill="#F17D29"/>
<path fill-rule="evenodd" clip-rule="evenodd" d="M123.083 254.229L122.701 261.782C122.661 262.573 123.5 263.106 124.2 262.733L133.901 257.565C134.723 257.127 134.577 255.907 133.675 255.677L124.354 253.292C123.729 253.132 123.115 253.585 123.083 254.229ZM123.82 254.95L132.736 256.188L124.2 261.234L123.82 254.95Z" fill="#F17D29"/>
<path fill-rule="evenodd" clip-rule="evenodd" d="M110.219 161.465L102.739 166.649C102.106 167.088 102.169 168.043 102.854 168.395L111.607 172.889C112.339 173.265 113.192 172.664 113.085 171.848L111.811 162.17C111.712 161.413 110.846 161.03 110.219 161.465ZM110.519 163.266L112.073 171.981L103.32 167.488L110.519 163.266Z" fill="#F17D29"/>
<path fill-rule="evenodd" clip-rule="evenodd" d="M144.54 183.672L139.872 190.641C139.471 191.241 139.802 192.057 140.509 192.207L145.966 193.361C146.64 193.503 147.259 192.95 147.192 192.264L146.403 184.141C146.31 183.188 145.073 182.877 144.54 183.672ZM145.811 185.069V192.531L141.118 190.641L145.811 185.069Z" fill="#F17D29"/>
<path fill-rule="evenodd" clip-rule="evenodd" d="M145.424 150.843C146.782 149.957 147.973 150.167 147.004 152.117C147.004 152.117 139.924 170.066 137.809 170.279C135.803 170.48 134.835 167.886 132.034 160.47L131.915 160.154C131.905 160.126 131.895 160.098 131.887 160.07L131.872 160.01L131.854 159.978L131.815 159.887L131.48 158.981C131.085 157.901 130.089 156.119 129.562 155.5C129.001 154.84 130.253 154.431 131.178 154.431C132.904 154.431 135.016 154.913 138.337 153.955C142.228 152.832 143.563 152.057 145.424 150.843ZM142.413 160.064L142.32 160.124C141.332 160.732 140.241 161.2 139.048 161.526C137.621 161.916 135.551 161.964 134.212 161.672L133.988 161.62L134.07 161.826C134.826 163.71 135.498 165.887 136.084 166.995L136.288 167.372C136.655 168.032 136.978 168.511 137.238 168.799L137.32 168.884L137.421 168.762C137.858 168.204 139.412 166.104 140.491 164.006L140.604 163.786C141.067 162.879 141.571 161.849 142.117 160.696L142.413 160.064ZM145.327 152.917L145.163 153.01C143.627 153.865 141.087 155.285 138.903 155.915C136.289 156.669 134.074 156.938 132.251 156.697L132.139 156.68L132.203 156.861C132.377 157.348 133.115 159.656 133.377 160.01C134.434 160.988 135.732 161.081 137.32 160.696L137.548 160.637C143.235 159.539 145.327 152.917 145.327 152.917Z" fill="#F17D29"/>
<path fill-rule="evenodd" clip-rule="evenodd" d="M341.19 219.752C341.399 219.563 341.721 219.578 341.911 219.787C343.697 221.751 346.069 221.863 347.999 220.832C348.248 220.7 348.557 220.793 348.69 221.042C348.822 221.29 348.728 221.599 348.48 221.732C346.175 222.963 343.297 222.827 341.156 220.473C340.966 220.264 340.982 219.942 341.19 219.752Z" fill="#E7EAEE"/>
<path fill-rule="evenodd" clip-rule="evenodd" d="M337.014 223.799C337.219 223.606 337.542 223.616 337.735 223.821C339.456 225.649 342.955 226.543 345.349 225.274C345.598 225.142 345.906 225.237 346.038 225.486C346.17 225.735 346.075 226.044 345.826 226.176C342.992 227.678 339.006 226.66 336.992 224.52C336.799 224.315 336.809 223.992 337.014 223.799Z" fill="#E7EAEE"/>
<path fill-rule="evenodd" clip-rule="evenodd" d="M340.256 239.793C343.836 238.061 340.135 231.642 336.67 234.24C334.448 235.907 336.885 241.425 340.256 239.793Z" fill="#E7EAEE"/>
</svg>
