<svg id="Layer_1" data-name="Layer 1" xmlns="http://www.w3.org/2000/svg" viewBox="0 0 216.86 163.59"><defs><style>.cls-1{fill:#66a6cb;}.cls-2{fill:#a0daeb;}.cls-3{fill:#fff;}</style></defs><path class="cls-1" d="M110,136.73c-12.62.54-23.54-2.73-34.35-6.83-4.28-1.62-8.15-4-12.23-5.85-4.56-2-8.24-4.93-12-7.88-5.67-4.44-9.62-10.25-12.93-16.55a80.45,80.45,0,0,1-7.9-21.06c-.9-4.39-1.59-8.88-2.44-13.24-1.5-7.71-1.21-15.48-2.19-23.18C25,34.81,32.45,28.45,39.46,30.81c3,1,6.31.75,9.44.92,9.61.51,19.24,1.06,28.87.15,2.69-.26,5.59,0,8-.53,2.12-.48,4.38-.93,6.57-1.42,4-.91,8.12-1.77,12.17-2.65a25,25,0,0,1,12.85.87,56.08,56.08,0,0,0,8,1.65c11.1,1.69,22.2,3.07,33.53,2.32,8-.53,16-1.25,24-1.06,4.7.11,9.26,4.41,9.4,9.07.17,5.73-.55,11.41-1.09,17.12-.65,6.77-2.12,13.38-3.26,20a59.59,59.59,0,0,1-4,12.82,101.39,101.39,0,0,1-5.21,11.48,58.5,58.5,0,0,1-21.72,21.86c-8.44,4.85-17.66,8.09-27.14,10.66C122.91,136,116.13,137.06,110,136.73ZM36.24,48.79a172.54,172.54,0,0,0,4.21,28.77,69.69,69.69,0,0,0,8.17,20.29c8.51,14,22.3,20.74,37.07,25.57,5.2,1.71,10.58,3.42,16.26,3.69,6.82.32,13.54.62,20.29-1.13,5.33-1.39,10.64-2.79,15.85-4.59a67,67,0,0,0,19.09-9.78A48.76,48.76,0,0,0,171.27,95.4a83.39,83.39,0,0,0,8.56-26.11c1.26-8.25,2.56-16.49,2.55-24.86,0-2.87-1-4.16-3.94-3.83-3.9.43-7.87.07-11.69.71-10.83,1.83-21.6.44-32.35-.41a128,128,0,0,1-13.34-2.23c-3.79-.71-7.52-1.94-11.49-2-4.38-.1-8.49,1.16-12.58,2.07a180.2,180.2,0,0,1-23.14,3.17,149.79,149.79,0,0,1-21.29,0c-4.25-.23-8.48-1-12.76-1-2.82,0-3.51.68-3.55,3.55C36.23,45.88,36.24,47.33,36.24,48.79Z"/><path class="cls-1" d="M0,64.28C.34,55.6,3.3,47.9,9.6,41.94a25.84,25.84,0,0,1,9.57-6c1.47-.47,3.49-1.09,4.33.84.92,2.1-.52,3.31-2.43,4.09-7.72,3.16-13,8.91-14.92,16.81A31.64,31.64,0,0,0,7,74.62c3.05,9.78,8.8,17.45,16.72,23.78,3,2.41,6.54,4,9.54,6.43,1.22,1,3,.77,4.57,1.33,2,.73,2.61,2.09,2.09,3.78-.6,1.88-2.5,2-3.92,1.3a105.13,105.13,0,0,1-13.17-7.18A51,51,0,0,1,4.13,82.16,43.76,43.76,0,0,1,0,64.28Z"/><path class="cls-1" d="M216.7,64.46c0,2.51-.11,4.51,0,6.51.35,5.59-1.91,10.42-4.5,15.07a50.47,50.47,0,0,1-20.58,20.57c-3,1.59-6,3.16-9.09,4.54-1.31.59-3,.9-3.83-.79a2.6,2.6,0,0,1,1.76-3.88c6.84-2.2,12.38-6.49,17.69-11.11,6.51-5.66,10.54-12.86,13.37-21A35.54,35.54,0,0,0,213,59.66a19.89,19.89,0,0,0-4.42-10c-3.2-4-6.8-7.45-12-8.85-1.68-.45-2.13-2.06-1.58-3.56.68-1.83,2.38-1.94,3.9-1.3a31.79,31.79,0,0,1,8.61,5.1,28.07,28.07,0,0,1,8.76,12.82C217.42,57.4,216.47,61.25,216.7,64.46Z"/><path class="cls-2" d="M112.85,78.07q0-8.05.07-16.11c0-4.4,0-4.4-3.89-5.45,3.68-.79,7.1.74,10.58,1.35,8.83,1.53,17.63,3,26.62,2.9,2.41,0,3.78-1,3.87-3.51s-1.4-4.52-3.79-4.69a232.78,232.78,0,0,1-23.4-2.71c-3.36-.57-6.56-2-10-1.78,0-1.09.07-2.18.07-3.28,0-3.63,1.7-5,4.94-3.5s6.45,1.72,9.68,2.35a146.84,146.84,0,0,0,32.16,2.22c4.88-.13,9.7-1.31,14.63-1,2.67.13,3.92,1,3.61,3.54C177,56.6,177,65,175.11,73.1c-1.5,6.43-3.19,12.85-6.27,18.81-3.65,7-8.41,13-15.25,17.26-5.52,3.46-11.08,6.63-17.43,8.42-6.72,1.89-13.29,4.28-20.4,4.47-2.35.06-3-.75-2.89-3,0-1.59.85-3.52-1.1-4.71,5-.16,10.11,0,15.07-1.21,2.54-.65,5.19-.88,7.65-1.72,1.76-.61,3.81-1.41,3.14-4.22-.75-3.08-3.36-4.52-6.59-3.6A57,57,0,0,1,112.86,106l0-19.51,19.86-.07c2.86,0,4.69-1.58,4.76-4,.07-2.64-1.67-4.16-4.81-4.18Z"/><path class="cls-1" d="M112.86,48.07c3.49-.21,6.69,1.21,10,1.78a232.78,232.78,0,0,0,23.4,2.71c2.39.17,3.89,2,3.79,4.69s-1.46,3.49-3.87,3.51c-9,.08-17.79-1.37-26.62-2.9-3.48-.61-6.9-2.14-10.58-1.35l-4.14,0c-.51,0-.71.29-.84.7-4.85,0-9.41,1.8-14.19,2.22-5.59.49-11.16,1.23-16.75,1.63-3.44.25-4.59-.94-4.71-4.06s.93-4.22,4.4-4.44A198.55,198.55,0,0,0,100.22,49C104.48,48.14,108.66,48.49,112.86,48.07Z"/><path class="cls-1" d="M112.86,106A57,57,0,0,0,131,103.64c3.23-.92,5.84.52,6.59,3.6.67,2.81-1.38,3.61-3.14,4.22-2.46.84-5.11,1.07-7.65,1.72-5,1.26-10,1-15.07,1.21a104.79,104.79,0,0,1-27.22-2.75c-1.74-.43-3-1-3.56-2.82a3.84,3.84,0,0,1,1.75-4.64c.73.3,1.12,0,1.29-.71l1.57,0c1,1.45,2.58,1.11,4,1.35C97.32,105.55,105.05,106.63,112.86,106Z"/><path class="cls-1" d="M112.85,78.07l19.85.14c3.14,0,4.88,1.54,4.81,4.18-.07,2.45-1.9,4-4.76,4l-19.86.07L85.6,86.42c-3.17,0-4.77-1.19-4.65-3.56.18-3.61,2.16-4.81,4.89-4.76C94.84,78.26,103.85,78.1,112.85,78.07Z"/><path class="cls-2" d="M89.58,104.8c-1.4-.24-3,.1-4-1.35C87.11,103.37,88.6,103.33,89.58,104.8Z"/><path class="cls-2" d="M84,103.47c-.17.69-.56,1-1.29.71A1,1,0,0,1,84,103.47Z"/><path class="cls-2" d="M104.05,57.24c.13-.41.33-.75.84-.7C104.75,57,104.61,57.35,104.05,57.24Z"/><rect class="cls-3" width="216.86" height="22.07"/><rect class="cls-3" y="141.52" width="216.86" height="22.07"/></svg>