<svg id="Layer_1" data-name="Layer 1" xmlns="http://www.w3.org/2000/svg" viewBox="0 0 98.52 164"><defs><style>.cls-1{fill:#66a6cb;}</style></defs><path class="cls-1" d="M125.67,163.94H115.23c-13.47,0-26.94-.06-40.4.06-3.22,0-4.9-.67-5-4.34-.11-7.73-3.38-14-8.68-19.72-4.91-5.29-8.87-11.47-13.16-17.32a49.09,49.09,0,0,1-2.92-5.25c17.93,7.65,35.86,3,53.38,3.81,5.62.26,10.68-5.23,10.87-11.16.4-12.39,1-24.86-.06-37.16-.56-6.63-4.37-13-6.66-19.46-2.79-7.93-.74-13.35,6.7-16.34,4.37,10.32,8.83,20.63,13.11,31,1.81,4.41,3.29,9,4.85,13.47,3.17,9.16,3.5,18.16,2,28-2.44,16-2.55,32.38-3.61,48.6C125.58,159.87,125.67,161.6,125.67,163.94Z" transform="translate(-31.65)"/><path class="cls-1" d="M100,35.81V14.46H53.83V62.89l-2.2.51c-1-2.87-2.71-5.73-2.77-8.62-.29-14.72-.15-29.45-.13-44.17C48.74,3.35,51.84.11,59,.06Q76.79,0,94.61.05c7.3.05,10.58,3.39,10.7,10.85.11,6.21.32,12.44-.15,18.62-.19,2.4-2.13,4.66-3.28,7ZM70.16,8l0,.86H83.52l0-.86Z" transform="translate(-31.65)"/><path class="cls-1" d="M105.16,76.55c-.27-4.66-2.39-9.2-3.68-13.8l-1.47.32V97.28H87.15c-9.21,0-18.43,0-27.64,0-2.52,0-6,.19-3.58,3.89,3.5,5.4,2.62,10.13-1.2,15.43,2.16.23,3.69.54,5.22.55,11.34,0,22.68.09,34,0,8.13-.09,11.24-3.23,11.33-11.34C105.41,96,105.74,86.26,105.16,76.55ZM78.77,109.69a4.15,4.15,0,1,1,2-5.51A4.14,4.14,0,0,1,78.77,109.69Z" transform="translate(-31.65)"/><path class="cls-1" d="M46.71,79a22,22,0,0,1-4.58-2.34,74.53,74.53,0,0,1-7.87-7.09c-2.94-3-3.76-6.61-.57-9.87,3-3,6.66-2.66,9.46.12a60.57,60.57,0,0,1,9.07,10.92C54.78,74.92,52.32,79,46.71,79Z" transform="translate(-31.65)"/><path class="cls-1" d="M35.09,78.44c4.69,2,9.19,3.76,13.61,5.74,3.3,1.47,5.49,7.18,4,9.94-1.68,3.12-5.95,3.5-9.71.54a68.22,68.22,0,0,1-7.82-7.19C32,84.06,32.21,81.87,35.09,78.44Z" transform="translate(-31.65)"/><path class="cls-1" d="M34.75,95.6c5.55,2.45,9.62,4.35,13.78,6.05,3.08,1.27,6,6.08,4,7.92-1.57,1.49-5.65,2.49-7.13,1.5a53.84,53.84,0,0,1-10.54-10C34,100,34.75,97.44,34.75,95.6Z" transform="translate(-31.65)"/><path class="cls-1" d="M80.12,18.56c-.67,1.16-1.14,2.11-1.73,3C72.5,30.14,66.67,38.79,60.61,47.28c-.87,1.21-2.89,1.6-4.38,2.37.35-1.54.3-3.34,1.12-4.57q8.85-13.23,18-26.22a8,8,0,0,1,3.27-2.11C78.83,16.67,79.6,17.9,80.12,18.56Z" transform="translate(-31.65)"/><path class="cls-1" d="M43.85,53.89c-3.52-1.75-6.76-2.51-8.61-4.53-1.68-1.85-3.32-6.12-2.37-7.44,1.46-2,5.1-2.71,8-3.28.75-.15,2.74,2.12,2.89,3.43C44.12,45.66,43.85,49.33,43.85,53.89Z" transform="translate(-31.65)"/><path class="cls-1" d="M54.8,34.92C59.37,28.36,63.3,22.65,67.34,17a1.89,1.89,0,0,1,1.85-.3c.58.48,1.3,1.76,1.08,2.08-3.91,5.58-7.93,11.08-12,16.54C58.13,35.53,57.3,35.24,54.8,34.92Z" transform="translate(-31.65)"/></svg>