<svg id="Layer_1" data-name="Layer 1" xmlns="http://www.w3.org/2000/svg" viewBox="0 0 157.8 162.92"><defs><style>.cls-1{fill:#66a6cb;}</style></defs><path class="cls-1" d="M110.55,115.48c1.67,6.26,2.72,12.37,4,18.43.55,2.65,1.45,5.23,1,8a7.89,7.89,0,0,1-6.17,6.12c-7.38,1.41-14.74,2.85-22.08,4.5-6.89,1.55-13.87,2.67-20.8,4.05s-13.54,2.8-20.3,4.21c-4.18.87-8.33,1.84-12.52,2.63s-8.06-2.41-8.86-6.67c-1.26-6.69-2.85-13.32-4.26-20-1-4.55-1.79-9.12-2.74-13.67-1.09-5.24-2.28-10.46-3.38-15.7-1-4.56-1.8-9.14-2.75-13.7C10.31,87.32,8.9,81,7.55,74.59c-1-4.7-1.9-9.41-2.92-14.1-.85-3.93-1.42-8-2.56-11.8-2-6.54-.39-11.48,8.22-12.68,2-.28,3.86-1.2,5.94-1.12.75,0,1.65-.21,1.62-1.29-.07-2.24-.48-4.55,1.77-6.12,1.93-1.35,4.31-1.06,6.41-1.8.36-.13.8-.07,1.14-.23.64-.29,1-.53.27-1.33-7.12-7.93-1.65-16.68,4.94-20.25C39.51,0,46.8-.68,54.14,3.31a11,11,0,0,1,5.57,12.36c-.48,1.82-.37,2.85,2.11,2.52,1.86-.25,3.56-1.09,5.48-1,3,.08,4.82,1.28,5.4,4.3.25,1.35.71,1.7,2,1.42,2.42-.54,4.9-.81,7.29-1.45,4.92-1.3,9.11,1,10.22,6.08s1.86,10.24,3.11,15.28S97.51,52.93,98.6,58c1.77,8.34,3.45,16.7,5.2,25,.58,2.81,1.19,5.62,1.94,8.39a1.92,1.92,0,0,1-.76,2.38c-2,1.54-4.07,3.11-6,4.79-1.21,1.05-1.83.63-2.1-.65-.52-2.42-1.07-4.85-1.57-7.27-1.48-7.14-3-14.27-4.6-21.38-1.52-6.58-2.66-13.25-4-19.86-1.25-6.07-2.6-12.11-3.9-18.16-.26-1.21-.9-1.74-2.17-1.48-2.5.53-5,1-7.53,1.49-1.1.21-1,1-.91,1.8.59,4.14.43,4.4-3.88,5.11-6,1-11.85,2.38-17.75,3.65-6.82,1.47-13.69,2.7-20.53,4a16.42,16.42,0,0,0-1.77.55c-3.15,1-4.34.4-4.88-2.79-.22-1.29-.74-1.85-2-1.6-3,.61-6.07,1.26-9.1,1.92-1.4.31-1.47,1.14-1.18,2.43,1.54,6.88,2.94,13.8,4.44,20.7,1,4.46,2.06,8.89,3,13.35,1.07,5.09,2,10.21,3.09,15.29,1,4.54,2.08,9,3,13.58,1.38,6.62,2.63,13.26,4,19.87.9,4.33,1.94,8.62,2.87,12.93.63,2.89,1.32,5.77,1.69,8.69.17,1.28.83,2.32,1,3.55.16.93.93.6,1.51.48L54,151c8-1.72,16-3.51,24-5.17,6.77-1.4,13.57-2.63,20.35-4,2.13-.42,4.21-1,6.33-1.5,1.12-.25,1.26-.77,1-1.85-1.18-4.9-2.25-9.83-3.35-14.75a2,2,0,0,1,.88-2.34C105.63,119.59,107.9,117.62,110.55,115.48ZM60,25.3a9.49,9.49,0,0,1-7.46-2.6c-2.66-2.27-2.75-3.28-.7-6.13,2.24-3.11,1.15-6.51-2.47-7.88a14.8,14.8,0,0,0-15.52,2.6c-3.9,3.28-4.19,6.74.88,9.52.61.34,1.29.57,1.87,1a1.86,1.86,0,0,1,1,2.16,10.15,10.15,0,0,1-4,6.28c-2.2,1.51-4.71,1.94-7.2,2.54-.69.16-1.46.17-1.21,1.26.52,2.2,1,4.41,1.5,6.61.28,1.17.74,1.83,2.27,1.5,4.47-1,9-1.6,13.48-2.64,7.35-1.73,14.78-3,22.14-4.68,4-.88,4-.13,3-4.39a17.63,17.63,0,0,1-.59-2.74c-.19-2.57-.84-4.14-3.87-2.62C62.21,25.46,61.05,25.23,60,25.3Z" transform="translate(-1.32 -0.63)"/><path class="cls-1" d="M159.12,69.37A8.7,8.7,0,0,1,156,75.52c-7.31,5.83-14.57,11.72-21.87,17.56-6.21,5-12.46,9.88-18.69,14.82L86.94,130.51c-.23.19-.44.53-.69.57-5.43.85-7.44,5.81-10.8,9.09a8.42,8.42,0,0,1-3.53,2.38Q64.45,144.74,57,147c-.91.26-1.88.62-2.57-.32a2.25,2.25,0,0,1,.18-2.62c2.73-4.76,5.45-9.53,8.08-14.34a4.39,4.39,0,0,1,1.8-1.73c3.18-1.75,6.4-3.43,9.59-5.15.47-.26,1.11-.55,1.26-1,1.56-4.55,5.92-6.33,9.21-9,11.7-9.6,23.65-18.89,35.49-28.31q12.77-10.17,25.48-20.39c5.36-4.28,12.08-2.14,13.42,4.25C159,68.73,159.07,69.12,159.12,69.37ZM143.2,74a1.21,1.21,0,0,0-.78-1.46c-1-.39-1.6.36-2.23.88q-6.39,5.19-12.74,10.44Q111.51,96.89,95.57,110c-.78.64-2,1.34-1,2.65s2,.17,2.74-.42q22.41-18.39,44.8-36.81A3.22,3.22,0,0,0,143.2,74ZM62.34,139c2.57-2.41,5.33-3.86,7.21-6.4a2.84,2.84,0,0,1,3-1.28c.54.12,1.1.44,1,1.12a3.25,3.25,0,0,1-2.21,2.51c-3.16,1.13-5.14,3.79-7.66,5.83a80.56,80.56,0,0,0,7.78-2.19,3.41,3.41,0,0,0,1.23-1c2.07-2.31,4.13-4.65,6.19-7,.34-.38.86-.61.54-1.34-1.16-2.68-3.1-3.33-5.74-1.87-.41.22-.84.43-1.27.61C67.62,130,63.82,133.05,62.34,139ZM83.41,116.4a1.33,1.33,0,0,0-.48.46,1.69,1.69,0,0,0,.48,1.9c1.62,1.95,3.25,3.88,4.88,5.83.46.55,1,1.2,1.73.69s.45-1.35-.11-2c-1.73-2.06-3.44-4.13-5.19-6.18C84.44,116.76,84.21,116.27,83.41,116.4Zm-3.75,3.16c-.85.55-1.51,1.14-.75,2.08,1.81,2.22,3.7,4.37,5.51,6.59.56.68,1.13.81,1.79.29s.18-1.08-.22-1.56q-2.71-3.31-5.44-6.64A6.7,6.7,0,0,0,79.66,119.56ZM94.51,121a2.08,2.08,0,0,0-.22-.6c-1.89-2.34-3.77-4.68-5.71-7a1,1,0,0,0-1.5,0,1.06,1.06,0,0,0,0,1.48q2.79,3.41,5.63,6.76a1,1,0,0,0,1.78-.66Z" transform="translate(-1.32 -0.63)"/><path class="cls-1" d="M32.54,105.46c-2.74.09-3.36-.76-2.75-3,2.47-9,4.89-18,7.37-27.06.3-1.11.72-2.16,1-3.31.41-2,2.58-2.26,4.33-.51q8.63,8.58,17.2,17.19c2,2,4.1,4,6.08,6,1.5,1.56,1.12,3.14-.92,3.61-5,1.13-10,2.09-15,3.18-5.14,1.13-10.26,2.34-15.38,3.5C33.67,105.3,32.9,105.4,32.54,105.46Zm9.25-29c-1.56,1.46-1.37,3.16-1.79,4.62-1.71,6-3.27,12-4.94,18-.45,1.61.27,1.76,1.53,1.47,1.9-.43,3.79-.88,5.69-1.3C47.74,98,53.2,96.73,58.66,95.56c1.25-.27,1.21-.72.44-1.49C58.06,93,57,92,56,90.93Q48.87,83.7,41.79,76.46Z" transform="translate(-1.32 -0.63)"/><path class="cls-1" d="M22.12,69.9c-1.37,0-2.6-.18-2.75-1.66-.13-1.33.71-2.07,2.05-2.35Q30.56,64,39.68,62.12c6.67-1.43,13.31-3,20-4.36,4.54-1,9.13-1.71,13.68-2.66a47.66,47.66,0,0,1,7.29-1.42c1.21-.07,2.69-.34,2.92,1.48s-.82,2.14-2.34,2.5c-6,1.4-12,2.59-18,3.77-6.7,1.31-13.34,2.89-20,4.31-6.53,1.37-13.06,2.69-19.6,4A12.84,12.84,0,0,1,22.12,69.9Z" transform="translate(-1.32 -0.63)"/><path class="cls-1" d="M89.74,105.72a21.74,21.74,0,0,1-13.5,6.85c-6.6.89-13.06,2.69-19.59,4.06-4.62,1-9.26,1.85-13.88,2.82-3,.62-5.9,1.31-8.85,2-.08,0-.14.07-.21.09-1.74.55-3.68-.15-3.86-1.56-.24-1.8,1.33-2.51,2.59-2.78,6.59-1.42,13.23-2.62,19.84-4s13.36-2.87,20-4.25c4.63-1,9.27-1.89,13.94-2.67C87.4,106.1,88.39,104.8,89.74,105.72Z" transform="translate(-1.32 -0.63)"/><path class="cls-1" d="M73.67,119.89c-2.12,1.75-4.71,2.75-7,4.19-4.09,2.58-8.82,2.81-13.35,3.81s-8.93,1.93-13.39,2.88a45.72,45.72,0,0,1-4.59.86c-1.18.13-2.48-.06-2.84-1.46s.59-2.21,1.81-2.51c3.08-.76,6.18-1.44,9.28-2.1,5.47-1.17,10.95-2.29,16.43-3.44,4.16-.88,8.32-1.78,12.48-2.65A1,1,0,0,1,73.67,119.89Z" transform="translate(-1.32 -0.63)"/><path class="cls-1" d="M60.54,47.13c0,2,0,3.61,0,5.25,0,.82-.1,1.54-1.07,1.82s-1.61-.3-2-1.08c-.94-1.65-1.43-3.56-3.19-5.47.49,2.27.83,4,1.25,5.68.21.82.46,1.6-.72,1.76-.85.13-1.83.25-2.08-.92-.56-2.58-1.11-5.17-1.53-7.77-.11-.68-.65-2,.79-1.94s3-1.29,3.87.82c.55,1.26,1.24,2.45,2.09,4.12a11.16,11.16,0,0,0,.72-4.64c0-2.43,1.87-1.84,3.14-2.17,1.56-.41,1.39.88,1.74,1.81C64.29,46.53,64,48.87,65,51a1.67,1.67,0,0,1-1.21,2.52c-1.49.42-1-1-1.44-1.59C61.41,50.56,62.57,48.54,60.54,47.13Z" transform="translate(-1.32 -0.63)"/><path class="cls-1" d="M37.83,141.89a2.48,2.48,0,0,1-2.77-1.71c-.4-1.23.61-2.07,1.68-2.35,2.9-.76,5.84-1.4,8.77-2,3.4-.72,6.81-1.38,10.22-2.08.5-.1,1.09-.55,1.45.06.24.4-.27.84-.37,1.25-1,3.8-4.34,3.84-7.16,4.4-3.65.73-7.29,1.41-10.89,2.35A7.16,7.16,0,0,1,37.83,141.89Z" transform="translate(-1.32 -0.63)"/><path class="cls-1" d="M49.05,49c0,.12,0,.42-.12.57-1.81,2-.14,3.07,1.16,4.31.52.5,1.86,1.25.93,1.91s-2.33,1.53-3.59.24c-.8-.83-1.59-1.67-2.38-2.52-.32-.35-.65-.73-1.18-.52s-.46.76-.43,1.21a4.79,4.79,0,0,0,.22,1.37c.46,1.19.59,1.93-1.15,2.14-1.53.18-2-.11-2.25-1.68-.28-2.3-.87-4.55-1.35-6.82-.32-1.55-.1-2.61,1.86-2.57,1.71,0,3.21-1,5-.94C48.13,45.84,49.06,46.62,49.05,49Zm-5.28,1.52c.87,0,1.8-.24,1.82-1.29s-.84-1.08-1.68-1.08c-1,0-1.34.49-1.29,1.45C42.66,50.4,42.89,50.8,43.77,50.54Z" transform="translate(-1.32 -0.63)"/><path class="cls-1" d="M31.27,59.93c-2,.43-2.37-1-2.53-2.32a55.08,55.08,0,0,0-1.37-6.14c-.24-1-.4-1.93.93-2.19,2.28-.44,4.57-.83,6.85-1.24.58-.11,1.1-.15,1.3.58s-.24,1.11-.88,1.37a9.73,9.73,0,0,1-3.21.57c-.92,0-1.49.54-1.33,1.51s1.06.73,1.68.65c.85-.11,1.67-.4,2.5-.59s1.44,0,1.64.88c.26,1-.6,1.1-1.27,1.25-.83.18-1.69.24-2.51.46s-1.43.43-1.14,1.41.73,1.22,1.75.86,2.27-.47,3.41-.75a1.14,1.14,0,0,1,1.59.89c.22.79-.15,1.14-.88,1.33C35.63,59,33.37,59.14,31.27,59.93Z" transform="translate(-1.32 -0.63)"/><path class="cls-1" d="M25.5,54a3.47,3.47,0,0,1-3.28,3.5c-2.35,0-2.26,1.27-1.81,2.91.18.64,1.06,1.56-.36,1.76-1,.15-2.3.72-2.74-.85-.76-2.76-.79-5.67-1.71-8.41-.25-.71.45-.91,1-1a54.4,54.4,0,0,1,5.62-1.29C23.88,50.31,25.43,52.07,25.5,54Zm-4.84,1.88c.48-.69,1.82-.34,1.85-1.66,0-1-.5-1.34-1.42-1.34s-1.61,0-1.61,1.12A1.91,1.91,0,0,0,20.66,55.84Z" transform="translate(-1.32 -0.63)"/><path class="cls-1" d="M80.11,38.57c1.41-.26,1.63.57,1.84,1.3.27.94-.35,1.29-1.15,1.28-2.21,0-2.45,1-2,3a19.53,19.53,0,0,1,1,4.53c0,1.3-.71,1.56-1.66,1.79-1.16.27-1.35-.45-1.66-1.36-.59-1.77-.52-3.66-1.23-5.43-.41-1-.52-1.65-1.81-1-.7.33-1.71.67-2.1-.58s.51-1.63,1.43-1.85C75.3,39.58,77.87,39.05,80.11,38.57Z" transform="translate(-1.32 -0.63)"/><path class="cls-1" d="M67.86,41.16c1.21-.16,1.6.7,1.77,1.52a68.64,68.64,0,0,0,1.54,7.52A1.3,1.3,0,0,1,70,52.06c-1.11.2-2,.22-2.22-1.24-.5-2.74-1.17-5.45-1.68-8.2C65.83,41.18,67,41.26,67.86,41.16Z" transform="translate(-1.32 -0.63)"/><path class="cls-1" d="M92.79,130.11c1.35-2,3.42-2.88,5-4.34.49-.47,1,0,1.25.54a1.8,1.8,0,0,1-.68,2.61A9.47,9.47,0,0,1,92.79,130.11Z" transform="translate(-1.32 -0.63)"/><path class="cls-1" d="M43.37,13.33c1.1-.07,2.5,0,2.87,1.49s-1,2.14-2.06,2.74a4.29,4.29,0,0,1-4.62,0,1.64,1.64,0,0,1-.69-2.05C39.3,14.22,41.05,13.33,43.37,13.33Z" transform="translate(-1.32 -0.63)"/><path class="cls-1" d="M42.16,94.69c-.91.07-1.32-.21-1-1.22.7-2.46,1.39-4.92,2-7.41.34-1.42.89-1.74,2-.69L51,91c.86.82.7,1.56-.41,1.83C47.78,93.52,45,94.08,42.16,94.69Z" transform="translate(-1.32 -0.63)"/></svg>