<svg width="20" height="21" viewBox="0 0 20 21" fill="none" xmlns="http://www.w3.org/2000/svg">
<path d="M12.7407 8.1C14.6667 8.1 15.8519 5.25 15.8519 3.45C15.8519 1.95 15.1111 0.15 13.6296 0.15C11.7037 0.15 10.5185 3 10.5185 4.8C10.5185 6.3 11.2593 8.1 12.7407 8.1ZM7.11111 8.1C8.59259 8.1 9.33333 6.3 9.33333 4.8C9.33333 2.85 8.14815 0 6.22222 0C4.74074 0 4 1.8 4 3.3C3.85185 5.25 5.03704 8.1 7.11111 8.1ZM18.0741 6.6C16.1481 6.6 14.8148 9.3 14.8148 11.25C14.8148 12.6 15.4074 13.95 16.7407 13.95C18.6667 13.95 20 11.25 20 9.3C20 7.95 19.2593 6.6 18.0741 6.6ZM5.18519 11.25C5.18519 9.3 3.7037 6.6 1.92593 6.6C0.592593 6.6 0 7.95 0 9.3C0 11.25 1.48148 13.95 3.25926 13.95C4.59259 13.95 5.18519 12.6 5.18519 11.25ZM9.92593 10.95C6.96296 10.95 2.96296 15.75 2.96296 19.05C2.96296 20.55 4 21 5.18519 21C6.96296 21 8.2963 19.8 9.92593 19.8C11.4074 19.8 12.7407 21 14.3704 21C15.5556 21 16.8889 20.7 16.8889 19.05C16.8889 15.75 12.8889 10.95 9.92593 10.95Z" fill="black"/>
</svg>
