<svg id="Layer_1" data-name="Layer 1" xmlns="http://www.w3.org/2000/svg" viewBox="0 0 160.48 163.37"><defs><style>.cls-1,.cls-2{fill:#66a6cb;}.cls-1{opacity:0.4;isolation:isolate;}.cls-3{fill:#fff;}</style></defs><path class="cls-1" d="M29.48,47.69a17,17,0,1,0-17-17A17,17,0,0,0,29.48,47.69Zm8.5,8.5H21a17,17,0,0,0-17,17v25.5a8.51,8.51,0,0,0,8.5,8.5v34a8.51,8.51,0,0,0,8.5,8.5H38a8.5,8.5,0,0,0,8.5-8.5V115.58L33.11,103a11.79,11.79,0,0,1-.34-16.67l.34-.33L52.27,67.87a10.4,10.4,0,0,1,1.49-.94A17,17,0,0,0,38,56.19Zm93.5-8.5a17,17,0,1,0-17-17A17,17,0,0,0,131.48,47.69Zm8.5,8.5H123a17,17,0,0,0-15.77,10.73,9.7,9.7,0,0,1,1.49,1L127.86,86a11.77,11.77,0,0,1,.34,16.66l-.34.34-13.38,12.63v25.6a8.51,8.51,0,0,0,8.5,8.5h17a8.5,8.5,0,0,0,8.5-8.5v-34a8.5,8.5,0,0,0,8.5-8.5V73.19A17,17,0,0,0,140,56.19Z"/><path class="cls-2" d="M122,96.15l-19.16,18.08a3.19,3.19,0,0,1-4.51-.11,3.25,3.25,0,0,1-.88-2.21v-9.6h-34v9.6a3.18,3.18,0,0,1-5.38,2.32L38.94,96.15a3.3,3.3,0,0,1,0-4.64L58.1,73.43a3.18,3.18,0,0,1,5.38,2.32v9.56h34V75.75a3.19,3.19,0,0,1,3.18-3.2,3.16,3.16,0,0,1,2.21.88L122,91.52A3.29,3.29,0,0,1,122,96.15Z"/><rect class="cls-3" width="160" height="13.09"/><rect class="cls-3" x="0.48" y="150.28" width="160" height="13.09"/></svg>