<svg width="454" height="387" viewBox="0 0 454 387" fill="none" xmlns="http://www.w3.org/2000/svg">
<g id="Group">
<g id="Blob">
<path d="M150.211 130.832C134.182 184.096 162.152 233.676 181.745 260.714C201.339 287.752 252.802 319.219 307.426 312.642C343.221 308.333 349.101 288.637 355.249 268.047C358.482 257.216 361.79 246.138 369.564 236.921C374.709 230.821 381.161 224.938 387.807 218.877C410.296 198.369 435.012 175.83 418.883 136.003C408.296 109.863 385.941 103.552 360.745 96.4396C336.207 89.5127 308.974 81.8253 287.295 54.3206C243.355 -1.42629 166.241 77.5685 150.211 130.832Z" fill="#7222F5" fill-opacity="0.32"/>
<path d="M84.6655 271.653C113.945 323.164 206.877 362.684 235.414 353.171C263.951 343.659 258.559 330.062 244.966 321.9C242.749 320.569 239.438 319.007 235.321 317.064C214.208 307.103 171.877 287.132 146.85 236.832C126.996 196.929 133.424 161.725 137.861 137.431C140.107 125.131 141.842 115.627 139.397 109.726C132.123 92.1684 118.289 76.7487 93.0313 107.931C67.7738 139.114 55.3859 220.142 84.6655 271.653Z" fill="#7222F5" fill-opacity="0.32"/>
</g>
<path id="Whites" fill-rule="evenodd" clip-rule="evenodd" d="M273.403 186.136C272.611 186.312 272.277 187.326 272.539 188.082C272.802 188.837 273.462 189.381 274.092 189.885C274.893 190.524 276.22 189.682 276.265 188.668C276.311 187.655 275.479 186.785 274.549 186.345C274.192 186.177 273.79 186.05 273.403 186.136" fill="white"/>
<path id="Whites_2" fill-rule="evenodd" clip-rule="evenodd" d="M265.165 186.766C265.525 186.992 266.003 186.829 266.367 186.609C266.794 186.351 267.175 186.02 267.489 185.636C266.891 185.353 266.219 185.063 265.587 185.26C264.955 185.457 264.606 186.415 265.165 186.766L265.165 186.766Z" fill="white"/>
<path id="Whites_3" fill-rule="evenodd" clip-rule="evenodd" d="M74.4467 306.437C74.4467 306.437 64.8773 300.522 64.6867 306.437C64.496 312.353 58.0657 320.139 51.5152 315.884C44.9647 311.628 53.0156 297.859 56.2426 290.249C59.4695 282.64 64.975 284.089 61.1344 251.477C61.1686 234.631 66.7954 220.314 66.7954 220.314C66.7954 220.314 69.1182 210.99 61.1344 218.864C53.1507 226.739 54.5614 227.571 49.0453 227.571C43.5292 227.571 46.6931 216.734 52.7231 215.241C58.7531 213.748 67.5371 208.08 67.5371 208.08C67.5371 208.08 84.9657 181.523 89.2043 173.774C93.4429 166.026 108.786 141.73 119.302 110.157C120.225 107.549 125.87 92.4281 119.302 90.4572C111.647 88.1601 91.3801 103.179 92.9793 90.4572C94.5786 77.7352 128.183 55.0651 131.268 50.0048C137.153 40.353 154.076 53.5642 149.085 47.4296C147.993 46.0876 146.658 44.7675 145.048 43.4823C144.592 33.4345 155.778 28.3651 168.981 28.3651C180.699 28.3651 197.621 33.8837 195.596 45.3563C195.489 45.963 202.048 43.3375 210.233 38.7551C221.658 32.3586 233.786 19.5148 236.406 21.405C236.078 22.8023 264.416 18.7559 263.926 20.1016C261.843 25.8129 251.78 40.3841 256.367 50.5248C258.127 54.4148 274.432 56.5273 274.432 56.5273C274.432 56.5273 286.024 61.1788 279.621 65.3113C267.926 72.8583 232.556 83.8639 235.253 88.3273C195.373 68.9944 176.89 78.5752 175.016 83.4348C168.541 100.223 166.328 121.433 180.62 145.632C189.156 159.756 191.004 161.343 191.004 161.343L196.51 168.655C196.51 168.655 197.915 158.887 202.257 158.887C206.599 158.887 213.846 167.286 207.708 184.621C206.404 190.336 207.663 193.889 211.77 203.243C213.208 208.528 212.615 211.334 212.615 211.334C212.615 211.334 211.853 217.779 215.712 223.899C219.571 230.02 226.862 240.598 220.841 247.828C216.908 252.123 214.82 245 214.82 245C214.82 245 206.57 267.122 205.181 274.361C203.792 281.599 197.382 293.083 196.51 303.615C195.77 296.16 189.482 274.159 182.618 285.248C179.491 298.77 180.62 304.133 180.62 314.474C171.933 299.844 164.208 282.64 150.639 290.249C143.468 294.271 148.217 305.461 148.217 311.628C149.621 317.631 150.823 327.137 149.52 334.783C146.952 316.616 131.731 311.442 126.06 315.884C120.39 320.325 126.06 340.617 126.06 344.966C126.06 349.314 128.329 359.192 122.565 369.5C122.012 354.681 124.16 321.087 100.808 320.325C77.4561 319.564 94.2647 348.98 92.9793 356.171C91.5353 355.863 90.7747 346.391 83.765 328.273C81.3486 322.027 74.4467 306.437 74.4467 306.437Z" fill="white"/>
<g id="Under Construction 4">
<path id="Shape Copy" fill-rule="evenodd" clip-rule="evenodd" d="M361.46 223.866C360.645 220.662 355.447 220.715 353.577 223.444C351.707 226.173 352.348 229.881 353.528 232.969C353.789 233.654 354.075 234.337 354.361 235.02C355.365 237.419 356.374 239.83 356.366 242.402C353.908 242.171 351.574 240.848 350.117 238.861C350.202 241.315 350.829 243.749 351.94 245.941C344.442 244.266 339.853 234.849 343.165 227.936C345.712 222.62 341.368 216.387 336.247 213.449C334.163 212.254 331.918 211.342 329.678 210.432C326.414 209.106 323.16 207.784 320.429 205.596C316.532 202.473 314.199 198.015 311.856 193.54C310.706 191.341 309.552 189.138 308.211 187.087C300.059 174.626 283.824 168.017 269.257 171.231C266.534 171.831 263.797 169.741 262.705 167.183C261.612 164.625 261.76 161.732 261.932 158.957C262.433 150.889 263.28 142.111 268.876 136.263C273.883 131.031 281.607 129.405 288.857 129.216C299.854 128.931 310.913 131.381 320.754 136.284C323.171 137.488 326.244 136.312 327.989 134.255C329.733 132.199 330.438 129.478 330.977 126.838C331.96 122.026 332.587 117.082 333.214 112.142C334.701 100.41 336.186 88.6998 342.434 78.8421C347.231 71.2737 354.465 65.5313 362.145 60.894C378.139 51.2368 397.526 45.7857 415.741 49.9941C408.767 52.3412 402.812 57.5528 399.573 64.1434C417.064 58.2449 436.484 58.2028 454.001 64.0255C442.664 68.8553 431.82 75.9761 425.431 86.4906C418.145 98.4826 417.577 113.029 417.025 127.187L417.025 127.187C416.953 129.031 416.882 130.868 416.795 132.691C416.047 148.521 413.102 165.91 400.819 175.965C396.681 179.353 395.21 185.175 395.764 190.485C396.318 195.795 398.594 200.753 400.839 205.6C402.419 209.013 404.112 212.567 407.12 214.831C410.129 217.096 414.876 217.54 417.424 214.77C419.539 212.47 423.651 215.774 423.081 218.842C422.511 221.911 419.536 223.845 416.831 225.414C419.389 225.28 422.079 225.172 424.374 226.306C426.669 227.44 428.336 230.273 427.276 232.599C426.774 233.701 425.777 234.487 424.817 235.228L416.764 241.44L425.677 250.803C426.599 251.771 427.553 252.795 427.911 254.082C428.651 256.744 426.437 259.502 423.812 260.383C421.186 261.264 418.321 260.775 415.596 260.278C418.108 263.579 420.525 268.591 417.46 271.388C415.452 273.22 412.633 272.635 409.772 272.042C407.092 271.486 404.374 270.922 402.252 272.33C403.672 277.166 403.841 282.914 400.508 286.702C397.176 290.49 389.556 290.063 388.21 285.205C383.687 290.39 378.081 294.632 371.856 297.581C368.853 299.003 364.014 299.268 363.435 296.003C363.203 294.694 363.892 293.416 364.558 292.264L372.934 277.762C366.035 283.294 357.47 286.732 348.651 287.508C345.674 287.77 341.61 286.734 341.722 283.755C341.76 282.73 342.351 281.816 342.942 280.976C346.449 275.999 350.736 271.483 355.006 266.986C362.727 258.854 370.388 250.784 373.26 240.162C374.241 236.532 374.489 232.322 372.197 229.338C368.499 224.523 361.035 225.769 355.205 227.493C356.148 225.073 358.883 223.486 361.46 223.866ZM264.492 160.944C264.164 161.493 264.19 162.173 264.225 162.81C264.305 164.237 264.489 165.863 265.655 166.695C267.621 165.367 267.862 162.135 266.115 160.532C265.644 160.1 264.819 160.396 264.492 160.944ZM269.861 166.041C270.501 166.258 271.003 166.839 271.124 167.503C271.151 167.653 271.16 167.809 271.129 167.958C271.08 168.192 270.931 168.403 270.726 168.528C270.322 168.773 269.773 168.646 269.41 168.344C269.047 168.042 268.833 167.6 268.653 167.164C268.581 166.991 268.512 166.807 268.53 166.62C268.581 166.066 269.333 165.862 269.861 166.041Z" fill="white"/>
<path id="Stroke" fill-rule="evenodd" clip-rule="evenodd" d="M95.2884 46.1112C63.5992 50.9589 33.5203 65.7913 10.4165 87.9631C4.29447 93.8381 -1.77986 101.833 0.484262 110.001C4.34224 97.3085 14.1025 87.238 24.6721 79.1915C53.8616 56.97 90.9016 46.7785 127.568 44.8241C136.569 44.3444 147.782 45.724 150.959 54.1382C152.346 57.8115 151.681 61.9981 150.07 65.5794C144.67 77.5845 130.797 82.5937 118.284 87.1118L117.472 87.4051L116.902 87.6113C80.7754 100.696 46.78 122.567 25.4934 154.489C24.0752 156.615 22.672 159.283 23.7625 161.594C45.6386 127.968 79.7324 102.44 118.21 90.8758C116.17 132.119 92.2811 168.668 69.1842 202.936C73.3479 201.361 75.9795 197.341 78.3244 193.564L101.444 156.329C103.466 163.904 99.7423 171.325 96.1158 178.552C95.2619 180.254 94.4133 181.945 93.6464 183.625C88.4126 195.089 86.7943 207.814 85.2375 220.315C87.0359 220.122 87.8786 218.043 88.3491 216.301L99.1191 176.419C99.6979 179.886 101.32 183.172 103.721 185.744C106.083 182.021 106.097 177.374 106.11 172.936C106.111 172.644 106.112 172.353 106.113 172.063C106.279 140.822 118.367 109.788 139.39 86.6302C140.284 85.646 141.195 84.6729 142.106 83.6991C145.645 79.9186 149.192 76.1292 151.756 71.654C154.981 66.026 156.456 58.9265 153.725 53.0441C153.3 52.1293 152.778 51.2476 152.257 50.3678C151.194 48.573 150.136 46.7859 149.918 44.7409C149.529 41.0935 152.047 37.6309 155.224 35.7829C158.4 33.935 162.14 33.3704 165.779 32.8403C171.659 31.9837 177.811 31.15 183.421 33.1048C189.031 35.0597 193.809 40.7682 192.578 46.5672C192.017 49.2126 190.342 51.4522 188.716 53.6281C188.624 53.7506 188.533 53.8728 188.442 53.9949C168.289 81.0267 159.258 116.063 163.84 149.438C166.167 140.477 167.118 131.162 166.652 121.917C173.672 137.507 182.401 152.33 192.634 166.037C193.718 161.343 190.955 156.72 188.435 152.612C177.174 134.257 168.305 112.272 174.142 91.5555C175.133 88.0392 176.587 84.5557 179.096 81.8956C186.193 74.3719 198.525 76.0244 208.311 79.405C226.081 85.5433 242.512 95.5065 256.155 108.416C249.664 95.8329 238.02 86.3349 224.975 80.7727C211.93 75.2104 197.539 73.3506 183.353 73.5216L196.423 51.8073C197.34 50.2831 198.313 48.7017 199.827 47.7635C202.15 46.3237 205.127 46.7407 207.822 47.2072L287.195 60.9481C262.359 46.9478 232.82 44.6673 204.362 42.6983C222.81 34.9004 238.883 21.6106 249.987 4.97467C251.081 3.33683 251.683 0.433079 249.759 0C237.344 18.1364 219.948 32.8432 199.977 42.0854C199.372 33.6927 190.532 28.3216 182.273 26.6104C174.449 24.9892 166.222 25.3406 158.565 27.6229C153.268 29.2019 148.311 31.6616 143.35 34.1232C139.253 36.1562 135.153 38.1905 130.856 39.7313C122.59 42.6956 113.838 43.7576 105.087 44.8195C101.812 45.2169 98.5375 45.6142 95.2884 46.1112ZM195.63 295.687C192.99 307.181 192.521 319.584 197.043 330.472C198.065 306.576 203.09 282.858 211.845 260.611L211.981 260.266C212.812 258.159 213.652 256.031 213.914 253.784C214.102 252.164 213.461 249.982 211.836 250.029C210.407 250.071 209.762 251.803 209.431 253.198C208.714 256.224 207.769 259.191 206.764 262.133C205.622 265.479 204.4 268.802 203.179 272.125L203.179 272.127C200.328 279.884 197.478 287.64 195.63 295.687ZM90.3342 386.991L89.184 387C91.9468 363.986 88.67 339.916 77.456 319.564C77.1289 318.97 76.7947 318.379 76.4602 317.787C74.865 314.962 73.2638 312.127 72.3985 309.019C71.3517 305.259 71.5489 300.916 73.9989 297.859C79.5648 307.088 85.1596 316.376 89.0264 326.418C94.0166 339.377 96.0112 353.365 95.7001 367.228C95.5444 374.169 94.6579 381.519 90.3342 386.991ZM118.264 327.923C117.496 325.517 116.621 323.146 115.745 320.777L114.598 317.672L112.412 311.754C115.904 311.097 119.474 313.118 121.605 315.946C123.735 318.774 124.696 322.286 125.5 325.727C127.587 334.658 128.926 343.859 128.14 352.995C127.353 362.131 124.321 371.246 118.433 378.304C123.508 362.013 123.448 344.18 118.264 327.923ZM151.177 330.879C150.962 332.766 150.627 334.717 149.524 336.27C148.868 313.376 141.739 290.698 129.158 271.488C128.848 271.013 128.533 270.54 128.218 270.065C126.113 266.896 123.991 263.701 122.896 260.081C122.615 259.153 122.407 258.145 122.727 257.23C123.046 256.315 124.074 255.582 124.996 255.902C125.622 256.119 126.011 256.723 126.351 257.287C133.179 268.597 140.039 279.969 144.924 292.228C149.81 304.486 152.674 317.782 151.177 330.879ZM189.889 200.01C187.151 209.316 182.821 218.151 177.142 226.016C174.162 230.142 170.446 234.232 165.471 235.311C165.58 242.856 167.672 250.363 171.483 256.876C172.914 250.683 176.822 245.482 180.673 240.356L180.674 240.356L180.674 240.355L180.675 240.354L180.676 240.353L180.677 240.352L180.678 240.351L180.678 240.35L180.679 240.348C181.331 239.481 181.981 238.616 182.617 237.748C189.863 227.866 195.664 216.926 199.777 205.383C200.343 203.795 202.158 201.874 203.268 203.142C203.8 203.75 203.601 204.681 203.366 205.454C197.643 224.258 188.218 241.928 175.787 257.156C174.413 258.839 175.341 261.334 176.315 263.277L183.333 277.273C186.654 269.091 191.948 261.887 197.188 254.779L207.936 240.201C209.759 242.082 208.236 245.172 206.68 247.279C195.882 261.901 184.729 277.44 182.648 295.496C181.906 301.935 182.365 308.415 182.823 314.897C183.01 317.538 183.197 320.179 183.302 322.818C183.667 331.933 182.939 341.492 178.245 349.315L176.996 292.74C176.877 287.348 176.742 281.861 175.042 276.742C173.63 272.49 171.211 268.702 168.788 264.908L168.788 264.908L168.788 264.907L168.787 264.907L168.787 264.906L168.787 264.906L168.787 264.906L168.786 264.905L168.786 264.905L168.786 264.904L168.785 264.904L168.785 264.903L168.785 264.903L168.785 264.902L168.784 264.902L168.784 264.901L168.784 264.901L168.784 264.9L168.783 264.9L168.783 264.9L168.783 264.899L168.782 264.899C167.519 262.921 166.255 260.941 165.132 258.892C155.595 241.493 156.744 220.4 158.768 200.663C159.166 196.784 159.674 192.683 162.075 189.61C162.746 188.751 164.045 187.976 164.825 188.737C165.292 189.194 165.249 189.945 165.172 190.594L161.693 220.028C164.949 215.337 166.846 209.714 167.097 204.01C167.717 204.653 168.217 205.411 168.564 206.234C171.628 198.788 178.731 193.152 186.68 191.86C194.629 190.568 203.152 193.664 208.417 199.756L206.933 195.513C206.779 195.071 206.624 194.585 206.79 194.148C207.308 192.783 209.373 193.93 210.1 195.197C212.32 199.067 213.636 203.451 213.916 207.904C214.01 209.401 213.935 211.052 212.935 212.17C211.935 213.288 209.715 213.289 209.211 211.876C207.501 207.081 204.902 202.604 201.586 198.741C199.186 195.945 194.978 193.367 192.118 195.691C190.857 196.716 190.367 198.385 189.907 199.946L189.889 200.01ZM188.281 194.639C180.333 195.088 173.546 201.134 170.053 208.285C166.56 215.437 165.788 223.578 165.335 231.523C165.313 231.914 165.308 232.353 165.579 232.635C166.128 233.206 167.053 232.579 167.57 231.98C172.305 226.502 177.06 220.996 180.89 214.852C184.72 208.708 187.618 201.848 188.281 194.639ZM69.2547 215.242C65.7437 216.795 64.2322 220.796 63.2572 224.436C58.5783 241.901 58.2281 260.456 62.2445 278.077C62.2869 278.264 62.3315 278.454 62.4354 278.615C62.9081 279.35 64.1086 278.967 64.7244 278.341C66.8882 276.143 66.4318 272.633 65.9486 269.621C63.2302 252.681 64.3589 235.164 69.2304 218.69C69.5675 217.55 69.9023 216.246 69.2547 215.242ZM86.306 258.926C86.3775 255.375 87.8164 251.87 90.2566 249.303C92.9532 263.492 96.951 277.62 104.243 290.067C105.031 291.41 103.222 293.066 101.704 292.746C100.186 292.426 99.1754 291.018 98.3479 289.699C93.9129 282.63 90.3694 274.997 87.8288 267.04C86.9882 264.407 86.2504 261.691 86.306 258.926ZM268.228 6.19086C268.008 5.50032 267.277 4.91394 266.574 5.11299C265.942 5.2921 265.625 5.97505 265.388 6.58296C261.131 17.5075 256.93 28.4541 252.787 39.4219C252.24 40.8718 252.043 43.0561 253.556 43.4381C254.766 43.7435 255.728 42.4565 256.288 41.3504C261.587 30.8839 265.578 19.7672 268.139 8.33527C268.297 7.62828 268.449 6.88141 268.228 6.19086ZM90.8549 51.6665C91.2841 51.4112 92.0264 51.3121 92.106 51.8097C90.5638 52.689 89.3349 53.9973 88.105 55.3064C86.9235 56.5642 85.7411 57.8229 84.2795 58.7027C83.9308 58.368 84.2517 57.7879 84.5731 57.4263C86.4706 55.2911 88.4092 53.1214 90.8549 51.6665ZM112.412 49.331C111.843 49.1194 111.28 49.6261 110.874 50.0878L107.817 53.5588C107.429 53.9989 107.083 54.7922 107.588 55.0793C109.636 53.629 111.314 51.6291 112.412 49.331ZM95.006 54.9707C97.1227 54.2471 98.9301 52.7612 99.9694 50.8902C100.64 49.6821 102.323 49.3972 103.773 49.288C103.992 49.2716 104.254 49.274 104.377 49.4441C104.584 49.7286 104.184 50.0476 103.865 50.2185C102.738 50.8232 101.924 51.8014 101.12 52.7693C100.96 52.9618 100.8 53.1538 100.638 53.3425C99.663 54.4798 98.4448 55.5907 96.9003 55.7844C96.1527 55.8781 95.2453 55.6401 95.006 54.9707ZM102.261 55.2173C102.235 55.4909 102.421 55.8029 102.69 55.8034L107.62 51.1377C107.942 50.8325 108.26 50.2677 107.903 50.0057C105.88 51.1339 104.077 52.6688 102.627 54.4965C102.458 54.71 102.286 54.9438 102.261 55.2173ZM109.892 216.024C110.332 216.642 110.775 217.268 111.06 217.971C111.292 218.539 111.414 219.145 111.535 219.747L112.843 226.232C113.038 227.2 113.234 228.191 113.085 229.167C112.913 230.296 111.89 231.49 110.816 231.115C110.07 230.854 109.744 229.997 109.513 229.239C107.967 224.168 106.547 219.057 105.254 213.914C105.192 213.666 105.129 213.408 105.176 213.156C105.303 212.471 106.204 212.181 106.852 212.431C107.501 212.681 107.941 213.278 108.345 213.846L109.892 216.024ZM92.4297 53.7567C91.486 54.5387 90.591 55.384 89.752 56.2854C89.3058 56.7647 88.9223 57.6602 89.4866 57.9781C91.0046 56.8009 92.376 55.4202 93.5558 53.8812C93.2018 53.6856 92.7432 53.497 92.4297 53.7567ZM119.876 48.9106C120.242 48.5904 120.922 48.3568 121.114 48.8044C119.941 50.1063 118.843 51.4761 117.827 52.9045C117.328 52.7373 117.458 51.9917 117.721 51.5353C118.289 50.5495 119.02 49.6586 119.876 48.9106ZM95.0835 52.9044L97.907 51.2782C97.4042 50.71 96.4897 50.5606 95.8324 50.9392C95.175 51.3178 94.8449 52.184 95.0835 52.9044ZM80.8594 54.8872C80.5292 55.0674 80.1401 55.1237 79.7763 55.0438C79.769 53.9762 81.1373 53.2318 81.952 53.8602C81.6587 54.2727 81.2807 54.6173 80.8519 54.863L80.8594 54.8872ZM125.75 49.6754C125.494 49.9953 125.295 50.5428 125.693 50.7011C125.945 50.8014 126.219 50.6241 126.425 50.4582L128.687 48.6394C128.925 48.4482 129.187 48.1717 129.06 47.9067C127.753 47.5256 126.557 48.6643 125.75 49.6754ZM133.195 47.5597C132.986 47.9106 132.757 48.2804 132.377 48.4665C131.998 48.6525 131.428 48.5497 131.296 48.1671C131.208 47.9121 131.343 47.6293 131.546 47.4403C132.049 46.9693 132.98 47.0028 133.444 47.5086L133.195 47.5597ZM69.6241 62.4591C69.5995 62.776 69.8896 63.1271 70.1944 63.035C70.3435 62.99 70.4472 62.8585 70.5409 62.7341C70.9607 62.1772 71.3518 61.3076 70.8038 60.8758C70.5614 61.1295 70.3221 61.386 70.0857 61.6453C69.8714 61.8803 69.6486 62.1422 69.6241 62.4591ZM116.169 48.2734C116.554 47.872 117.365 47.5849 117.489 48.1391C116.304 49.8689 114.946 51.4689 113.445 52.9044C112.905 52.6932 113.168 51.8359 113.528 51.3633C114.352 50.2817 115.234 49.2495 116.169 48.2734ZM73.6452 59.3925C74.0381 59.5326 74.6024 59.226 74.4418 58.9277L74.433 58.8969C74.8222 58.6753 74.7771 58.161 74.3523 57.978C73.9426 58.0891 73.5386 58.2687 73.3448 58.5561C73.151 58.8435 73.2524 59.2523 73.6452 59.3925ZM123.836 48.5894C124.166 48.7562 123.983 49.2917 123.759 49.6002C123.083 50.5315 122.21 51.5598 121.115 51.4465C121.579 50.3436 122.342 49.3876 123.285 48.7251C123.45 48.6092 123.658 48.4991 123.836 48.5894ZM248.427 57.9349C248.866 58.1013 249.513 57.7485 249.311 57.4232L249.482 57.379L249.474 56.5281C248.982 56.5657 248.471 56.7057 248.195 57.0017C247.919 57.2978 247.989 57.7686 248.427 57.9349ZM272.3 152.613C271.558 151.167 272.092 149.197 273.462 148.324C274.833 147.451 276.844 147.801 277.839 149.086C278.834 150.37 278.672 152.405 277.485 153.515C276.298 154.626 274.258 154.652 273.043 153.572C272.739 153.302 272.486 152.975 272.3 152.613ZM275.383 150.863C275.175 151.296 275.578 151.883 276.057 151.846C276.536 151.809 276.843 151.167 276.571 150.77C276.299 150.374 275.59 150.429 275.383 150.863ZM361.459 223.865C358.883 223.486 356.147 225.072 355.204 227.493C361.034 225.769 368.498 224.523 372.196 229.337C374.488 232.321 374.24 236.532 373.259 240.161C370.388 250.784 362.726 258.853 355.005 266.986C350.736 271.482 346.448 275.998 342.941 280.976C342.35 281.816 341.76 282.73 341.721 283.755C341.609 286.734 345.673 287.77 348.65 287.508C357.469 286.732 366.034 283.294 372.933 277.761L364.557 292.263C363.892 293.415 363.202 294.693 363.434 296.002C364.013 299.267 368.853 299.003 371.856 297.58C378.081 294.632 383.686 290.39 388.209 285.205C389.555 290.062 397.175 290.49 400.508 286.702C403.84 282.913 403.671 277.166 402.251 272.33C404.374 270.921 407.091 271.485 409.771 272.041C412.632 272.635 415.451 273.22 417.459 271.388C420.525 268.591 418.107 263.579 415.596 260.277C418.321 260.775 421.186 261.264 423.811 260.383C426.437 259.502 428.651 256.744 427.911 254.082C427.553 252.795 426.598 251.771 425.676 250.802L416.764 241.439L424.816 235.227C425.777 234.486 426.773 233.701 427.276 232.598C428.335 230.272 426.669 227.44 424.373 226.305C422.078 225.171 419.389 225.28 416.831 225.413C419.535 223.845 422.51 221.91 423.08 218.842C423.65 215.774 419.538 212.47 417.423 214.77C414.875 217.54 410.128 217.095 407.12 214.831C404.111 212.567 402.419 209.012 400.838 205.6C398.594 200.753 396.317 195.795 395.764 190.484C395.21 185.174 396.681 179.352 400.819 175.965C413.102 165.91 416.047 148.521 416.795 132.691C416.881 130.867 416.953 129.03 417.025 127.186C417.577 113.029 418.144 98.4821 425.431 86.4902C431.82 75.9756 442.663 68.8549 454 64.025C436.484 58.2024 417.063 58.2444 399.572 64.1429C402.812 57.5524 408.767 52.3407 415.74 49.9936C397.526 45.7852 378.139 51.2364 362.145 60.8936C354.465 65.5309 347.231 71.2732 342.433 78.8416C336.185 88.6994 334.7 100.409 333.213 112.142C332.587 117.082 331.96 122.026 330.976 126.837C330.437 129.477 329.733 132.198 327.988 134.255C326.243 136.312 323.17 137.487 320.753 136.283C310.912 131.38 299.854 128.93 288.856 129.216C281.606 129.404 273.882 131.031 268.875 136.263C263.28 142.111 262.433 150.889 261.932 158.956C261.759 161.732 261.611 164.624 262.704 167.183C263.797 169.741 266.534 171.831 269.256 171.23C283.823 168.017 300.058 174.626 308.21 187.087C309.552 189.138 310.705 191.341 311.856 193.539C314.198 198.015 316.531 202.472 320.428 205.595C323.159 207.784 326.413 209.105 329.677 210.431C331.918 211.341 334.163 212.253 336.247 213.449C341.367 216.386 345.711 222.62 343.165 227.935C339.852 234.849 344.442 244.266 351.939 245.94C350.828 243.749 350.201 241.314 350.117 238.86C351.573 240.848 353.908 242.171 356.366 242.402C356.374 239.829 355.365 237.419 354.36 235.02C354.074 234.336 353.789 233.654 353.527 232.969C352.347 229.88 351.706 226.173 353.576 223.444C355.446 220.714 360.645 220.661 361.459 223.865ZM292.981 133.318C302.188 133.373 311.369 135.904 319.298 140.572C315.064 142.949 313.367 148.94 315.726 153.175C318.537 146.996 324.957 144.037 331.349 141.091C333.589 140.058 335.826 139.027 337.903 137.86C350.785 130.618 358.158 117.281 365.521 103.961C373.007 90.4189 380.483 76.8938 393.731 69.8054C401.029 65.9002 409.386 64.43 417.638 63.7297C427.181 62.9199 436.888 63.077 446.204 65.2926C431.502 70.9624 419.817 83.8797 415.671 99.0461C413.384 107.416 413.31 116.129 413.237 124.853C413.171 132.7 413.105 140.556 411.427 148.178C408.098 163.297 398.189 176.854 384.775 184.643C387.147 186.145 390.255 186.424 392.857 185.366C392.171 193.733 395.697 201.604 399.183 209.388C400.069 211.366 400.952 213.338 401.763 215.31C405.767 225.051 407.666 237.426 400.478 245.135L405.461 243.577C406.974 251.898 410.063 259.931 414.518 267.127C412.622 269.976 407.896 269.419 405.614 266.866C403.332 264.314 402.887 260.647 402.759 257.23C402.747 256.899 402.736 256.566 402.725 256.233C402.624 253.124 402.521 249.937 401.081 247.203L398.008 280.797C397.836 282.673 397.442 284.881 395.728 285.673C393.742 286.592 391.385 284.708 390.939 282.571C390.509 280.512 391.264 278.424 391.983 276.437L392.065 276.209C394.193 270.307 395.685 264.178 396.508 257.961C396.752 256.118 395.879 253.365 394.137 254.025C392.252 258.134 390.927 262.46 389.602 266.788C388.451 270.548 387.299 274.309 385.779 277.93C382.509 285.719 376.905 293.251 368.765 295.576C376.369 276.294 384.276 256.522 398.406 241.332C391.751 245.42 387.079 252.001 382.85 258.556C382.437 259.197 382.025 259.839 381.613 260.483C377.805 266.43 373.955 272.441 368.579 276.994C362.621 282.039 354.251 285.036 346.864 282.489C357.54 273.722 366.411 262.779 372.77 250.531C375.441 245.387 377.723 239.651 376.788 233.934C375.518 226.167 368.595 220.468 361.324 217.409C357.573 215.831 353.641 214.758 349.707 213.685C346.017 212.678 342.327 211.671 338.784 210.247C330.472 206.904 323.109 201.247 317.749 194.083C316.174 191.978 314.761 189.74 313.351 187.505C310.747 183.379 308.149 179.262 304.543 176.009C299.2 171.19 292.166 168.748 285.274 166.657C279.381 164.87 272.865 162.824 269.758 157.52C266.323 151.654 268.736 143.644 273.878 139.189C279.02 134.733 286.169 133.276 292.981 133.318ZM355.311 70.2743C369.286 59.0697 386.929 52.492 404.848 51.8055C402.174 52.3688 400.284 54.7407 398.98 57.135C398.662 57.7168 398.363 58.3129 398.064 58.9094C397.13 60.7678 396.195 62.63 394.718 64.0742C393.237 65.5224 391.34 66.4231 389.455 67.3178C389.045 67.5125 388.636 67.7068 388.231 67.9065C380.106 71.9177 373.456 78.4836 368.235 85.8753C363.015 93.267 359.128 101.501 355.475 109.775C355.353 110.052 355.231 110.328 355.109 110.605C353.058 115.262 350.991 119.954 347.974 124.048C344.778 128.386 340.351 132.062 335.084 133.242C336.934 117.954 339.844 102.794 343.787 87.9054C344.502 85.2053 345.26 82.4903 346.559 80.0163C348.602 76.1258 351.879 73.0259 355.311 70.2743ZM413.431 256.773C413.031 256.482 412.834 255.996 412.657 255.535L408.297 244.228C407.432 241.986 406.567 239.465 407.507 237.253C407.8 236.565 408.758 235.92 409.196 236.526C413.878 243.015 419.212 249.035 425.093 254.467C425.464 254.81 425.305 255.471 424.91 255.786C424.516 256.1 423.982 256.163 423.479 256.213L415.264 257.036C414.635 257.099 413.941 257.145 413.431 256.773ZM348.869 225.379C348.137 224.738 347.121 225.798 346.827 226.724C345.667 230.389 346.352 234.411 347.733 237.999L347.76 238.067C348.407 239.746 349.159 241.699 348.196 243.211C347.161 242.583 346.537 241.464 346.051 240.358C344.112 235.95 343.65 230.913 344.753 226.228C345.214 224.274 346.175 222.146 348.095 221.548C348.456 221.435 348.516 220.908 348.299 220.6C348.09 220.304 347.734 220.16 347.397 220.024L347.354 220.007C345.211 219.137 343.297 217.71 341.856 215.904C341.707 215.718 341.555 215.491 341.612 215.26C341.721 214.826 342.354 214.877 342.776 215.029L354.535 219.271C354.173 219.93 353.451 220.187 352.715 220.449C352.242 220.617 351.764 220.787 351.37 221.067C349.81 222.177 350.052 224.518 350.462 226.385L353.177 238.76C349.06 235.86 347.214 230.126 348.869 225.379ZM422.145 230.914C422.726 231.066 423.331 231.231 423.775 231.634C422.171 232.89 420.481 234.036 418.72 235.062C417.137 235.983 415.311 236.833 413.532 236.395C412.281 236.088 411.25 235.167 410.547 234.09C409.843 233.013 409.425 231.78 409.024 230.559C408.831 229.972 408.646 229.309 408.928 228.76C409.414 227.812 410.792 227.941 411.824 228.212L422.145 230.914ZM414.9 222.617C414.329 223.105 413.718 223.598 412.982 223.749C412.104 223.928 411.206 223.587 410.407 223.182C409.477 222.71 408.596 222.142 407.783 221.49C407.476 221.244 407.153 220.825 407.383 220.507C407.503 220.339 407.727 220.291 407.93 220.257C411.215 219.708 414.572 219.59 417.887 219.906C416.919 220.839 415.922 221.744 414.9 222.617ZM264.491 160.944C264.818 160.396 265.643 160.099 266.114 160.532C267.861 162.135 267.62 165.366 265.655 166.694C264.488 165.863 264.305 164.237 264.225 162.81C264.189 162.172 264.164 161.492 264.491 160.944ZM271.123 167.502C271.15 167.653 271.159 167.808 271.128 167.958C271.08 168.192 270.93 168.403 270.726 168.527C270.322 168.772 269.773 168.645 269.41 168.343C269.046 168.041 268.832 167.6 268.652 167.164C268.581 166.99 268.512 166.807 268.529 166.62C268.58 166.066 269.332 165.861 269.86 166.041C270.501 166.258 271.003 166.839 271.123 167.502Z" fill="#00160A"/>
<path id="Highlights" fill-rule="evenodd" clip-rule="evenodd" d="M168.98 163.843C168.996 161.573 168.673 159.317 168.351 157.071C168.182 155.89 167.917 154.555 166.91 153.937C165.855 153.29 164.423 153.778 163.561 154.672C162.849 155.41 162.417 156.361 161.988 157.304L161.987 157.304L161.987 157.304L161.987 157.304L161.987 157.304L161.987 157.305L161.987 157.305C161.897 157.503 161.806 157.702 161.714 157.898C158.99 163.655 153.861 167.798 148.899 171.734C146.075 173.974 144.592 177.828 145.173 181.415C145.755 185.001 148.377 188.172 151.76 189.379C153.728 190.08 156.021 190.111 157.803 189.012C159.244 188.123 160.19 186.621 161.075 185.165C165.054 178.615 168.929 171.535 168.98 163.843ZM162.124 175.174C161.038 180.121 157.294 184.379 152.57 186.041C152.22 186.164 151.837 186.274 151.484 186.157C150.781 185.924 150.634 184.994 150.64 184.245C150.704 175.456 155.095 166.809 162.114 161.647C162.424 161.419 162.873 161.202 163.155 161.465C163.344 161.641 163.339 161.94 163.319 162.199L162.64 171.003C162.533 172.401 162.424 173.805 162.124 175.174ZM105.901 275.745C104.093 274.472 103.122 272.338 102.438 270.244C99.0319 259.818 101.052 247.799 107.683 239.035C109.352 236.828 112.18 234.637 114.647 235.909C116.192 236.706 116.824 238.542 117.255 240.216C119 247.003 119.717 254.031 119.661 261.036C119.628 265.184 119.244 269.571 116.826 272.954C114.407 276.337 109.309 278.145 105.901 275.745ZM110.664 272.232C112.691 272.406 114.051 270.239 114.736 268.337C117.944 259.437 117.391 249.266 113.237 240.761C112.913 240.098 112.5 239.385 111.791 239.166C110.588 238.794 109.541 240.042 108.957 241.15C104.538 249.545 103.914 259.822 107.284 268.683C107.896 270.293 108.937 272.084 110.664 272.232ZM50.7928 318.971C47.1837 316.395 46.6971 311.155 47.4355 306.756C48.6217 299.688 52.1232 293.047 57.2183 288.054C59.8067 285.518 62.9175 283.345 66.468 282.7C66.8399 282.633 67.2438 282.587 67.578 282.765C68.0231 283.002 68.1947 283.547 68.3169 284.04C70.2852 291.977 70.0239 300.465 67.5711 308.263C66.4006 311.985 64.6349 315.687 61.5838 318.086C58.5326 320.486 53.9506 321.225 50.7928 318.971ZM57.4569 315.573C58.2958 315.157 58.9034 314.388 59.4392 313.615C64.0283 306.994 65.2969 298.469 64.4355 290.435C64.3419 289.562 64.2023 288.638 63.6379 287.97C63.0734 287.302 61.9362 287.056 61.3445 287.699C56.4403 293.033 53.0917 299.807 51.8186 306.97C51.4441 309.078 51.2667 311.35 52.2039 313.271C53.1412 315.192 55.5532 316.517 57.4569 315.573ZM107.966 188.157C112.238 189.534 116.529 191.003 120.337 193.365C124.145 195.728 127.478 199.088 129 203.282C130.523 207.475 129.966 212.551 126.931 215.837C123.897 219.123 118.268 219.983 114.778 217.177C113.693 216.305 112.865 215.165 112.073 214.023C109.622 210.49 107.386 206.808 105.385 203.006C103.532 199.487 101.837 195.617 102.352 191.68C102.568 190.032 103.395 188.226 105.013 187.798C105.985 187.541 107.009 187.848 107.966 188.157ZM107.504 194.079C107.655 200.42 110.438 206.659 115.065 211.032C116.586 212.47 118.387 213.75 120.463 214.06C122.54 214.37 124.913 213.458 125.736 211.54C126.497 209.769 125.793 207.732 124.942 206.001C122.531 201.091 118.906 196.773 114.475 193.533C113.005 192.458 111.329 191.465 109.504 191.498C109.037 191.507 108.548 191.593 108.183 191.882C107.557 192.378 107.485 193.284 107.504 194.079ZM72.7811 253.595C74.8376 256.015 78.3887 257.248 81.3718 256.142C85.1276 254.748 86.8314 250.462 87.7124 246.568C89.2043 239.975 89.582 233.133 88.825 226.417C88.699 225.3 87.4396 224.588 86.3136 224.669C85.1875 224.75 84.1933 225.405 83.2886 226.078C79.6544 228.78 76.506 232.128 74.0369 235.916C72.3038 238.575 70.8856 241.509 70.4666 244.652C70.0475 247.794 70.7246 251.175 72.7811 253.595ZM83.6788 245.449C83.0231 247.077 81.8856 248.462 80.7278 249.784C79.4862 251.202 77.8493 252.711 75.9898 252.377C74.4219 252.095 73.3568 250.506 73.1858 248.929C73.0149 247.351 73.5437 245.788 74.1182 244.309C76.4944 238.188 79.8232 232.387 84.3 227.573L84.469 238.749C84.5032 241.013 84.5251 243.347 83.6788 245.449ZM223.154 249.102C221.734 250.56 219.757 251.92 217.806 251.341C216.362 250.912 215.423 249.547 214.685 248.234C209.992 239.878 208.733 229.341 212.641 220.591C213.116 219.527 213.814 218.377 214.96 218.173C216.624 217.876 217.819 219.688 218.509 221.231C220.798 226.342 222.925 231.526 224.884 236.772C225.799 239.223 226.69 241.866 226.068 244.407C225.626 246.218 224.454 247.766 223.154 249.102ZM215.36 226.878C214.822 227.215 214.796 227.975 214.831 228.61L215.367 238.216C215.52 240.974 215.866 244.106 218.092 245.741C218.542 246.072 219.118 246.328 219.651 246.161C220.441 245.912 220.685 244.928 220.756 244.103C221.29 237.956 219.283 231.641 215.36 226.878ZM121.573 311.502C122.613 311.962 123.707 312.431 124.84 312.343C126.059 312.249 127.139 311.518 128.03 310.678C130.164 308.668 131.575 305.73 131.212 302.817C130.917 300.457 129.493 298.336 127.641 296.851C125.789 295.365 123.537 294.46 121.247 293.842C117.42 292.81 113.393 292.53 109.461 293.023C108.072 293.198 106.606 293.512 105.607 294.496C104.385 295.698 104.174 297.67 104.718 299.297C105.262 300.924 106.439 302.259 107.703 303.416C111.671 307.049 116.659 309.324 121.573 311.502ZM128.728 305.09C128.75 306.097 128.364 307.146 127.567 307.759C126.705 308.42 125.533 308.48 124.452 308.399C118.567 307.959 113.113 303.844 111.058 298.296C110.734 297.421 111.351 296.42 112.186 296.008C113.021 295.596 113.998 295.63 114.925 295.708C117.418 295.919 119.914 296.396 122.192 297.43C124.471 298.465 126.53 300.089 127.806 302.247C128.318 303.114 128.706 304.082 128.728 305.09ZM56.1978 227.054C54.4981 228.62 52.3135 229.962 50.0082 229.704C47.1495 229.385 45.0337 226.515 44.9669 223.661C44.9 220.808 46.5106 218.119 48.6491 216.21C50.7875 214.301 53.4229 213.045 56.0187 211.815L68.667 205.82C69.4508 206.311 69.7342 207.351 69.5845 208.259C69.4348 209.166 68.9359 209.974 68.4407 210.751C65.9206 214.707 63.2272 218.554 60.3708 222.278C59.0832 223.957 57.7556 225.618 56.1978 227.054ZM47.9999 223.165C47.8332 224.822 49.7508 226.09 51.4172 225.894C53.0836 225.697 54.4499 224.526 55.6321 223.344C59.2961 219.683 62.3106 215.383 64.4966 210.701C58.5837 212.727 53.2303 216.337 49.1541 221.045C48.6179 221.665 48.0816 222.353 47.9999 223.165ZM207.972 159.505C205.965 157.546 202.842 156.617 200.3 157.762C196.991 159.253 195.815 163.464 195.814 167.151C195.811 175.785 200.339 184.285 207.445 188.987C208.004 189.357 208.798 189.059 209.206 188.522C209.615 187.985 209.736 187.284 209.844 186.613L210.67 181.508C211.444 176.726 212.219 171.843 211.456 167.06C211.011 164.264 209.98 161.463 207.972 159.505ZM198.714 166.87C198.706 165.587 199.145 164.306 199.934 163.306C200.407 162.706 201.017 162.199 201.732 161.954C203.343 161.4 205.173 162.317 206.166 163.723C207.16 165.128 207.477 166.911 207.615 168.638C207.953 172.864 207.369 177.164 205.919 181.139C205.819 181.413 205.67 181.725 205.387 181.773C205.044 181.832 204.789 181.469 204.627 181.156C202.931 177.863 201.347 174.51 199.88 171.105C199.297 169.753 198.723 168.347 198.714 166.87Z" fill="#EF7D2A"/>
<path id="Highlights_2" fill-rule="evenodd" clip-rule="evenodd" d="M258.147 167.079C258.714 166.667 259.297 166.246 259.973 166.055C260.648 165.864 261.447 165.946 261.944 166.44C262.436 166.928 262.527 167.683 262.537 168.376C262.547 169.122 262.229 170.117 261.485 170.045C258.813 171.707 255.916 173.008 252.897 173.9C252.156 174.119 251.505 173.167 251.69 172.418C251.875 171.669 252.542 171.154 253.167 170.699C254.827 169.493 256.487 168.286 258.147 167.079Z" fill="#EF7D2A"/>
<path id="Highlights_3" fill-rule="evenodd" clip-rule="evenodd" d="M264.58 190.067C264.054 190.236 263.567 190.523 263.026 190.635C261.141 191.024 259.425 188.953 259.658 187.073C259.891 185.192 261.483 183.722 263.223 182.91C264.964 182.099 266.895 181.785 268.718 181.176C269.414 180.944 270.142 180.631 270.524 180.013C270.831 179.517 270.862 178.907 270.859 178.327C270.847 176.092 270.455 173.86 269.704 171.75C270.117 170.704 271.825 170.884 272.516 171.778C273.206 172.671 273.237 173.876 273.447 174.98C274.003 177.896 275.926 180.344 277.401 182.932C278.875 185.521 279.927 188.724 278.635 191.405C278.389 191.916 278.058 192.396 277.616 192.758C275.811 194.235 273.078 193.252 271.082 192.034C269.087 190.817 266.812 189.349 264.58 190.067M273.404 186.136C272.612 186.312 272.277 187.326 272.54 188.082C272.802 188.838 273.462 189.382 274.093 189.885C274.893 190.525 276.221 189.682 276.266 188.669C276.311 187.655 275.479 186.785 274.55 186.346C274.193 186.177 273.79 186.051 273.404 186.136M265.165 186.767C265.525 186.993 266.003 186.83 266.367 186.61C266.794 186.352 267.175 186.021 267.489 185.636C266.891 185.353 266.219 185.064 265.587 185.261C264.955 185.458 264.606 186.416 265.165 186.767L265.165 186.767Z" fill="#EF7D2A"/>
</g>
</g>
</svg>
