<svg width="106" height="78" viewBox="0 0 106 78" fill="none" xmlns="http://www.w3.org/2000/svg">
<path fill-rule="evenodd" clip-rule="evenodd" d="M11.5336 69.5111C19.5339 78.2507 50.4718 73.2305 70.8428 73.2305C79.6311 73.2305 109.123 77.6507 96.9445 47.2941C57.0133 -52.24 -13.8156 41.8197 11.5336 69.5111Z" fill="#7222F5" fill-opacity="0.32"/>
<path fill-rule="evenodd" clip-rule="evenodd" d="M46.9321 70.2144C46.971 70.1844 47.0117 70.1519 47.0286 70.1058C47.0829 69.9577 46.8699 69.8594 46.7128 69.8629C46.4847 69.8681 46.1923 70.0223 46.2621 70.2402C46.3025 70.3663 46.4573 70.4247 46.5872 70.4015C46.7172 70.3782 46.8274 70.2951 46.9321 70.2144H46.9321ZM47.61 67.6192C47.7823 67.6735 47.9523 67.7404 48.1023 67.8412C48.3838 68.0304 48.5754 68.3242 48.7593 68.6099C48.8911 68.8147 49.0247 69.0235 49.0905 69.2582C49.1618 69.5124 49.1491 69.7837 49.1013 70.0434C48.9527 70.8524 48.4552 71.5905 47.7624 72.0301C47.0697 72.4697 46.1919 72.6042 45.3999 72.3922C45.2458 72.3509 45.0905 72.2946 44.9719 72.1875C44.8723 72.0975 44.8052 71.9775 44.7437 71.858C44.4211 71.2303 44.2036 70.533 44.2285 69.8273C44.2533 69.1215 44.5424 68.4073 45.09 67.9637C45.7772 67.407 46.7674 67.3539 47.61 67.6192" fill="white"/>
<path fill-rule="evenodd" clip-rule="evenodd" d="M83.9795 29.2243C83.6019 29.2195 83.2478 29.5372 83.2104 29.9143C83.1951 30.0684 83.2602 30.26 83.4131 30.2812C83.5276 30.2972 83.6282 30.2083 83.7051 30.1218C83.868 29.9386 84.0079 29.7348 84.1204 29.5169C84.1582 29.4437 84.1915 29.3499 84.1419 29.2843C84.1057 29.2365 84.0393 29.225 83.9795 29.2243ZM83.8157 27.5332C84.3519 27.7209 84.8378 28.0511 85.2106 28.4811C85.531 28.8506 85.7751 29.3302 85.7077 29.8153C85.683 29.9934 85.6175 30.1633 85.5429 30.3267C85.2601 30.9458 84.7736 31.539 84.1056 31.6589C83.7552 31.7218 83.3939 31.6465 83.0569 31.5314C82.6671 31.3983 82.2955 31.2117 81.9557 30.9783C81.7755 30.8545 81.5965 30.7076 81.5175 30.5033C81.463 30.3624 81.4614 30.2074 81.4634 30.0563C81.4685 29.6828 81.4931 29.3029 81.6229 28.9528C81.7871 28.5098 82.1084 28.1441 82.449 27.8177C82.586 27.6865 82.7314 27.5571 82.9073 27.4868C83.1952 27.3717 83.5231 27.4307 83.8157 27.5332Z" fill="white"/>
<path fill-rule="evenodd" clip-rule="evenodd" d="M83.9795 0.582923C86.1981 2.87903 87.9492 5.62465 89.0955 8.6043C89.1742 8.80895 89.2506 9.03628 89.1755 9.24229C88.5972 10.8284 87.4811 12.1508 86.3869 13.4366C85.6876 14.2582 84.9884 15.0798 84.2891 15.9015C83.6216 16.6858 82.9539 17.4703 82.2639 18.2349C78.7503 22.1281 74.5987 25.5323 69.7904 27.6269C69.6089 27.7059 69.4143 27.7848 69.2189 27.7532C69.0235 27.7216 68.8403 27.5319 68.8915 27.3407C69.486 25.1191 70.0842 22.7964 69.6072 20.5466C69.4922 20.0039 69.3639 19.3207 69.8124 18.9941C73.4439 16.3504 76.0585 12.5715 78.5642 8.84393C79.1942 7.90664 79.8226 6.96677 80.3802 5.98464C81.3701 4.24089 82.1324 2.36822 82.6419 0.428986C82.7118 0.162873 83.0479 0.0430429 83.3141 0.112782C83.5803 0.18252 83.7883 0.385033 83.9795 0.582923" fill="white"/>
<path fill-rule="evenodd" clip-rule="evenodd" d="M14.7901 9.50307C15.1508 12.7755 16.1548 15.9753 17.7273 18.8648C18.701 20.6539 19.8854 22.3174 21.0665 23.9758C21.8885 25.1299 22.7674 26.3326 24.0499 26.929C24.3909 27.0876 24.3433 27.581 24.2518 27.9468C23.8562 29.528 23.6716 31.1622 23.7045 32.7922C23.7077 32.9462 23.7117 33.1058 23.6514 33.2474C23.4467 33.7283 22.7455 33.6482 22.2628 33.4515C19.2759 32.2347 16.9827 29.7876 14.8405 27.3702C12.0592 24.2315 9.31923 20.955 7.67618 17.0919C7.56448 16.8293 7.45608 16.5529 7.47477 16.2679C7.49381 15.9776 7.64244 15.7137 7.79321 15.4652C9.28268 13.0101 11.3548 10.9137 13.7891 9.39908C13.9605 9.2924 14.1436 9.18549 14.3452 9.17849C14.5468 9.17149 14.7679 9.30184 14.7901 9.50307Z" fill="white"/>
<path fill-rule="evenodd" clip-rule="evenodd" d="M83.5445 66.9108C83.8019 66.4731 84.121 65.991 84.6206 65.908C84.8176 65.8753 84.9215 65.6605 84.9885 65.4718C85.8144 63.1468 85.8941 60.5612 85.2127 58.1895C85.0183 57.5125 85.2577 56.7949 85.4946 56.1316C86.106 54.4201 86.7174 52.7085 87.3287 50.9969C86.9785 50.3889 86.0549 50.4069 85.5817 49.8894C84.9728 49.2235 85.4321 48.1646 85.9091 47.398C88.6958 42.9194 91.4825 38.4407 94.2691 33.9621C94.6106 33.4134 95.3597 33.2414 95.9877 33.3876C96.6156 33.5338 97.1519 33.9304 97.6683 34.3175C99.7007 35.8409 101.733 37.3643 103.766 38.8878C104.856 39.7054 106.06 40.7498 105.998 42.1147C105.963 42.8699 105.532 43.5413 105.116 44.1713C103.505 46.607 101.894 49.0428 100.284 51.4785C99.3761 52.8508 99.6267 54.653 99.3524 56.2767C98.9191 58.8423 97.166 60.9494 95.5426 62.9785C93.9192 65.0076 92.2949 67.2734 92.2036 69.874C92.0949 72.9735 90.6276 76.0008 88.2649 78.0001C88.9502 76.3316 84.6206 76.9971 79.668 75.0196C80.483 72.1262 82.0217 69.5002 83.5445 66.9108Z" fill="white"/>
<path fill-rule="evenodd" clip-rule="evenodd" d="M29.1623 74.1669C28.8535 73.9134 28.755 73.4855 28.7005 73.0877C28.0697 68.4855 30.7785 63.9429 30.296 59.3225C30.0473 56.9414 28.9571 54.7197 27.5853 52.7657C26.6379 51.4164 26.5848 49.6087 26.9382 47.9942C27.2917 46.3797 28.0047 44.87 28.4856 43.2893C30.6241 36.2602 28.0219 28.7509 25.4492 21.8714C30.5757 19.3835 36.558 19.8654 42.2373 20.2024C47.9166 20.5395 54.0245 20.5633 58.758 17.3804C59.4068 24.2661 57.9762 31.1594 56.5537 37.9257C63.7714 37.2201 70.9891 36.5144 78.2068 35.8087C78.4139 35.7885 78.6402 35.7729 78.8122 35.8908C79.0416 36.0482 79.0768 36.3691 79.09 36.6486C79.4274 43.8095 79.6319 50.9768 79.7035 58.1454C79.7053 58.3252 79.6991 58.5257 79.5734 58.6532C79.4659 58.7623 79.3016 58.7852 79.1499 58.8021C69.0377 59.933 58.9255 61.0639 48.8132 62.1949C47.9388 62.2927 46.6931 62.0641 46.7443 61.1782C46.9727 57.2283 46.8394 53.2572 46.3467 49.3319C43.6593 49.2299 40.9536 49.6411 38.4154 50.5375C37.8396 50.7408 37.1472 51.2876 37.4577 51.8172C39.5124 55.3213 36.9622 60.5884 39.7528 63.5297C40.7124 64.5411 40.646 66.1322 40.4559 67.5188C40.0482 70.4909 39.3558 73.4232 38.3912 76.2615C38.8575 72.9946 29.4472 75.9188 29.1623 74.1669Z" fill="white"/>
<path fill-rule="evenodd" clip-rule="evenodd" d="M0.237825 0.00474121C0.246464 0.074501 0.208851 0.147752 0.147228 0.181177C0.0981521 0.131903 0.049076 0.0826293 0 0.0333553C0.0735711 0.0010627 0.157009 -0.00814804 0.235816 0.0073236L0.237825 0.00474121Z" fill="#00160A"/>
<path fill-rule="evenodd" clip-rule="evenodd" d="M47.4323 67.6192C47.6045 67.6735 47.7745 67.7404 47.9245 67.8412C48.2061 68.0304 48.3977 68.3242 48.5816 68.6099C48.7134 68.8147 48.847 69.0235 48.9128 69.2582C48.984 69.5124 48.9713 69.7837 48.9236 70.0434C48.775 70.8524 48.2775 71.5905 47.5847 72.0301C46.8919 72.4697 46.0141 72.6042 45.2222 72.3922C45.068 72.3509 44.9128 72.2946 44.7942 72.1875C44.6946 72.0975 44.6274 71.9775 44.566 71.858C44.2434 71.2303 44.0259 70.533 44.0508 69.8273C44.0756 69.1215 44.3647 68.4073 44.9123 67.9637C45.5995 67.407 46.5897 67.3539 47.4323 67.6192M46.4669 71.8214C46.8976 71.7558 47.2767 71.4734 47.5243 71.1136C47.7719 70.7538 47.8989 70.3223 47.9599 69.8894C47.9948 69.6421 47.9979 69.3588 47.824 69.1802C47.7199 69.0734 47.5712 69.0256 47.4285 68.9828C46.893 68.822 46.2816 68.6853 45.8019 68.9733C45.4526 69.1831 45.2578 69.5718 45.0812 69.9399C44.8745 70.371 44.9256 70.915 45.2089 71.2998C45.4923 71.6846 45.9955 71.8932 46.4669 71.8214V71.8214Z" fill="#00160A"/>
<path fill-rule="evenodd" clip-rule="evenodd" d="M67.1089 48.2025C67.1163 48.1108 67.1273 48.0124 67.1878 47.9432C67.247 47.8756 67.34 47.8513 67.4274 47.8309C69.6778 47.3051 72.0022 47.0994 74.3096 47.2218C74.6034 47.2374 74.9814 47.3373 75.0009 47.6319C75.1123 49.3213 75.2238 51.0108 75.3352 52.7002C75.3409 52.7857 75.3437 52.8805 75.2892 52.9464C75.2448 53.0002 75.1731 53.021 75.1058 53.0386C72.7059 53.6664 70.1762 53.7902 67.7268 53.3996C67.6638 53.3895 67.5974 53.3777 67.5485 53.3365C67.4893 53.2868 67.4686 53.2058 67.4516 53.1302C67.0905 51.5176 66.9745 49.8499 67.1089 48.2025ZM67.6391 51.0051C67.6833 51.643 67.8166 52.2747 68.034 52.8759C68.2508 52.9073 68.4654 52.9524 68.6813 52.9891C70.5427 53.3054 72.4464 52.9872 74.3076 52.6694C74.4396 52.6468 74.5844 52.6168 74.6659 52.5102C74.7492 52.4012 74.7381 52.2494 74.7231 52.1129C74.659 51.5308 74.5949 50.9486 74.5308 50.3665C74.5256 50.3196 74.519 50.2692 74.4873 50.2343C74.4489 50.1919 74.386 50.185 74.3291 50.1813C73.0065 50.0939 71.6795 50.1929 70.3578 50.2919C69.6272 50.3466 68.8966 50.4013 68.1661 50.4561C67.9943 50.4689 67.7993 50.4944 67.7006 50.636C67.6278 50.7403 67.6303 50.8781 67.6391 51.0051ZM67.6608 48.5703C67.5452 48.9423 67.5245 49.3437 67.601 49.7258C67.6148 49.7944 67.6342 49.8668 67.6861 49.9136C67.7631 49.9829 67.8805 49.9715 67.9828 49.9564C69.2275 49.7735 70.4857 49.6826 71.7437 49.6847C71.9211 49.685 71.9756 49.4452 71.9736 49.2672C71.9708 49.0062 71.9679 48.7453 71.9651 48.4844C71.9634 48.3334 71.956 48.167 71.853 48.057C71.7292 47.9247 71.5223 47.9288 71.342 47.9427C70.9253 47.9746 70.5085 48.0066 70.0917 48.0385C69.8924 48.0538 69.3636 48.1897 69.1206 48.2057C68.6975 48.2735 68.2744 48.3412 67.8512 48.409C67.8061 48.4162 67.7585 48.4246 67.7238 48.4543C67.6899 48.4833 67.6741 48.5277 67.6608 48.5703ZM73.2401 49.7052C73.5709 49.7095 73.9021 49.6763 74.2254 49.6064C74.3024 49.5898 74.3834 49.5687 74.4383 49.512C74.5189 49.4289 74.5181 49.2985 74.5122 49.1826C74.4951 48.8461 74.478 48.5097 74.4609 48.1733C74.4548 48.0533 74.4414 47.9181 74.3479 47.843C74.2657 47.777 74.1496 47.7809 74.0445 47.7881C73.6767 47.8132 73.309 47.8383 72.9412 47.8634C72.8829 47.8674 72.8218 47.8723 72.7731 47.9046C72.684 47.9637 72.6707 48.0874 72.6682 48.1945C72.66 48.5512 72.6745 48.9083 72.7116 49.263C72.7224 49.3657 72.7373 49.4739 72.8006 49.5553C72.8992 49.6821 73.0798 49.7031 73.2401 49.7052Z" fill="#EF7D2A"/>
<path fill-rule="evenodd" clip-rule="evenodd" d="M72.8689 40.8196C73.3606 40.606 73.9638 40.6776 74.3923 41.0002C74.8208 41.3228 75.0579 41.884 74.9912 42.4173C75.2925 42.254 75.6745 42.093 75.9556 42.2892C76.273 42.5109 76.2005 42.9881 76.1528 43.3732C76.0695 44.046 76.1776 44.7416 76.461 45.3571C76.578 45.6113 76.6786 45.997 76.4189 46.0996C76.3751 46.1169 76.3273 46.1208 76.2803 46.1246C73.2354 46.3709 70.1904 46.6172 67.1455 46.8635C67.062 46.8702 66.9685 46.8739 66.9053 46.8186C66.8409 46.7623 66.8328 46.6664 66.8293 46.5807C66.8001 45.8619 66.7709 45.1432 66.7417 44.4244C66.7339 44.2316 66.7301 44.0237 66.8386 43.8644C67.0182 43.6008 67.3944 43.6016 67.7086 43.5511C68.0228 43.5006 68.3884 43.2345 68.2674 42.9391C68.1326 42.6098 68.5921 42.3692 68.9428 42.3157C69.2935 42.2621 69.7588 42.0523 69.6525 41.7126C69.5364 41.3416 70.0452 41.1113 70.4294 41.0601C70.7005 41.0239 70.9839 40.989 71.2411 41.0823C71.4982 41.1757 71.7155 41.4413 71.6576 41.7095C71.5913 42.0165 71.964 42.3026 72.2578 42.1942C72.5516 42.0857 72.6706 41.6827 72.5219 41.4063C72.4004 41.1805 72.6343 40.9215 72.8689 40.8196ZM74.441 45.5561C74.3272 45.3443 74.3263 45.0919 74.3253 44.8512C74.3205 43.7207 74.2513 42.5905 74.1181 41.4679C74.1114 41.4113 74.1007 41.348 74.0545 41.3148C74.0147 41.2862 73.9611 41.2895 73.9123 41.2941C73.6744 41.3164 73.3925 41.3692 73.2985 41.5896C73.2584 41.6836 73.2632 41.7899 73.2686 41.8921C73.3289 43.0251 73.3892 44.1581 73.4495 45.2911C73.4552 45.3967 73.4691 45.5178 73.5565 45.5768C73.6042 45.6089 73.6641 45.6149 73.7214 45.6181C73.9626 45.6313 74.2056 45.6103 74.441 45.5561ZM70.3457 43.8138C70.3162 44.0026 70.2747 44.19 70.2637 44.3807C70.2452 44.6995 70.3121 45.0164 70.3786 45.3286C70.4213 45.5289 70.6792 45.6274 70.8681 45.5502C71.0571 45.473 71.1712 45.2707 71.2026 45.0684C71.234 44.8661 71.1972 44.6602 71.1651 44.458C71.0389 43.6637 70.9843 42.8579 71.0021 42.0538C71.0066 41.8503 70.8089 41.6665 70.607 41.6866C70.4052 41.7067 70.2473 41.9258 70.2915 42.1245C70.4147 42.6776 70.4332 43.2539 70.3457 43.8138ZM72.3483 42.729C72.2296 42.5729 71.9575 42.656 71.8648 42.8289C71.7722 43.0019 71.8005 43.2116 71.8235 43.4065C71.8835 43.9157 71.8892 44.4313 71.8405 44.9416C71.8262 45.0921 71.8103 45.2564 71.893 45.3826C72.0204 45.5769 72.2997 45.5751 72.5302 45.5516C72.6025 45.5442 72.6856 45.5302 72.7219 45.4671C72.7472 45.4232 72.7413 45.3686 72.7345 45.3183C72.6282 44.5265 72.5219 43.7346 72.4156 42.9428C72.4056 42.8678 72.394 42.7891 72.3483 42.729ZM74.9863 43.0692C74.8969 43.1916 74.878 43.351 74.8703 43.5026C74.8436 44.0223 74.9122 44.5417 74.9807 45.0576C75.0077 45.2608 75.1003 45.5221 75.3042 45.5082C75.5108 45.4942 75.5647 45.2168 75.5599 45.0091C75.5472 44.4588 75.5345 43.9085 75.5218 43.3583C75.5184 43.2136 75.5032 43.046 75.3836 42.9652C75.2581 42.8805 75.0758 42.9468 74.9863 43.0692ZM68.7443 42.9392C68.7443 42.9392 68.835 43.6573 68.8666 44.0232C68.9064 44.4826 68.957 44.941 69.0184 45.3979C69.0274 45.4643 69.0393 45.5361 69.0881 45.5818C69.1726 45.661 69.4989 45.6084 69.559 45.5092C69.6191 45.41 69.6158 45.2862 69.6105 45.1703C69.594 44.8035 69.5774 44.4367 69.5608 44.0699C69.5431 43.6767 69.4499 42.8289 69.4499 42.8289M67.5609 45.5394C67.587 45.6217 67.6178 45.7078 67.6841 45.7629C67.8134 45.8703 68.0232 45.8038 68.1252 45.6699C68.2271 45.5361 68.2501 45.3598 68.2696 45.1925C68.2935 44.9871 68.3167 44.7737 68.2504 44.578C68.1841 44.3822 68.0007 44.21 67.7955 44.2282C67.6068 44.2449 67.4606 44.418 67.4166 44.6029C67.3726 44.7878 67.4097 44.9818 67.4555 45.1663C67.4867 45.2918 67.5218 45.4162 67.5609 45.5394Z" fill="#E7EAEE"/>
<path fill-rule="evenodd" clip-rule="evenodd" d="M79.9047 16.1322C79.6588 16.5025 79.3923 16.8776 79.0119 17.1063C78.6315 17.3349 78.1063 17.3795 77.7645 17.096C77.3874 16.7833 77.3641 16.2195 77.394 15.7294C77.4054 15.5408 77.4205 15.3506 77.4744 15.1695C77.5678 14.8554 77.7718 14.5873 77.9848 14.3387C78.2432 14.0371 78.5294 13.7462 78.8878 13.5765C79.2462 13.4068 79.6915 13.377 80.0273 13.5882C80.4293 13.8409 80.5781 14.3785 80.5019 14.8484C80.4258 15.3183 80.1677 15.736 79.9047 16.1322M79.1243 16.5239C79.4343 16.1926 79.7002 15.8197 79.9126 15.4183C80.0525 15.1542 80.1715 14.8671 80.1658 14.568C80.1602 14.269 80.0031 13.9564 79.7263 13.8454C79.3659 13.7009 78.9701 13.9321 78.6689 14.1778C78.4544 14.3527 78.2467 14.5445 78.1091 14.785C78.0221 14.9371 77.9656 15.1045 77.9096 15.2706C77.8037 15.5849 77.6962 15.9123 77.7366 16.2416C77.7769 16.5709 78.0117 16.9015 78.3405 16.9356C78.6449 16.9672 78.9148 16.7478 79.1243 16.5239Z" fill="#EF7D2A"/>
<path fill-rule="evenodd" clip-rule="evenodd" d="M16.5764 20.3182C16.9615 20.7097 17.2794 21.1676 17.5119 21.6658C17.7457 22.1664 17.51 22.8099 17.0514 23.1162C16.5927 23.4225 15.9726 23.4185 15.4696 23.1927C14.9667 22.967 14.5715 22.5457 14.2804 22.0763C14.061 21.7224 13.8908 21.3258 13.8726 20.9094C13.8543 20.4929 14.0071 20.0547 14.3353 19.7993C14.6674 19.541 15.1342 19.5041 15.5357 19.6281C15.9373 19.752 16.2812 20.0182 16.5764 20.3182ZM15.0737 20.0802C14.7405 20.0457 14.4445 20.3527 14.3873 20.6839C14.3301 21.0152 14.456 21.3513 14.6188 21.6451C14.9719 22.2822 15.6018 22.8481 16.3274 22.8128C16.7004 22.7947 17.1092 22.5354 17.1026 22.1607C17.0997 21.9987 17.0201 21.8492 16.9405 21.7082C16.7292 21.3336 16.5009 20.9628 16.1961 20.6599C15.8913 20.357 15.5004 20.1242 15.0737 20.0802Z" fill="#EF7D2A"/>
<path fill-rule="evenodd" clip-rule="evenodd" d="M45.6967 69.6027C45.9642 69.3988 46.297 69.2668 46.6322 69.2885C46.9675 69.3102 47.2993 69.5032 47.4396 69.8096C47.5901 70.1384 47.4963 70.5469 47.2615 70.8215C47.0266 71.0961 46.6728 71.2477 46.3157 71.2978C46.072 71.332 45.7814 71.3012 45.648 71.0938C45.5836 70.9936 45.569 70.8703 45.5561 70.7519C45.5328 70.5392 45.5096 70.3266 45.4863 70.114C45.4765 70.0239 45.467 69.9304 45.4958 69.8446C45.5298 69.7436 45.6122 69.6672 45.6967 69.6027M46.7545 70.2145C46.7934 70.1845 46.8341 70.1521 46.8511 70.1059C46.9054 69.9578 46.6924 69.8595 46.5352 69.863C46.3072 69.8682 46.0148 70.0224 46.0846 70.2403C46.125 70.3664 46.2797 70.4248 46.4097 70.4016C46.5396 70.3784 46.6498 70.2952 46.7545 70.2145Z" fill="#00160A"/>
<path fill-rule="evenodd" clip-rule="evenodd" d="M83.588 1.619C85.6723 3.78436 87.3174 6.37363 88.3944 9.18361C88.4683 9.37661 88.5401 9.59098 88.4695 9.78526C87.9262 11.2811 86.8777 12.5282 85.8496 13.7407L83.8789 16.0652L83.8785 16.0656L83.8783 16.0659L83.8782 16.066C83.2513 16.8054 82.6242 17.545 81.9762 18.2658C78.6752 21.9373 74.7748 25.1477 70.2575 27.123C70.087 27.1975 69.9042 27.2718 69.7206 27.242C69.537 27.2123 69.3649 27.0334 69.413 26.8531C69.9715 24.758 70.5336 22.5675 70.0854 20.4459C69.9773 19.9341 69.8568 19.2898 70.2782 18.9818C73.6899 16.4886 76.1462 12.9249 78.5003 9.40959C79.0923 8.52568 79.6826 7.63932 80.2064 6.71312C81.1364 5.06867 81.8527 3.30264 82.3313 1.47383C82.397 1.22287 82.7127 1.10987 82.9628 1.17563C83.213 1.2414 83.4083 1.43238 83.588 1.619ZM82.1292 4.30792C81.9174 4.22001 81.7221 4.45777 81.6142 4.66071C81.4999 4.87575 81.3856 5.09112 81.2713 5.30667L81.2668 5.31512L81.2638 5.32067L81.2638 5.32075C79.1042 9.39153 76.9116 13.5248 73.6207 16.7311C73.3097 17.034 72.9622 17.4 73.0195 17.8311C73.2032 19.2129 72.4681 20.6722 71.2503 21.3431C70.6975 21.6477 70.704 22.4336 70.785 23.0613C70.8174 23.3126 70.912 23.6275 71.1636 23.6488C71.9016 23.7112 72.6098 24.0758 73.0909 24.6409C73.2426 24.8192 73.5303 24.7078 73.7281 24.583C78.7067 21.442 82.532 16.8025 86.267 12.2441C86.3959 12.0869 86.533 11.8887 86.4658 11.6966C85.9006 10.0809 85.9912 8.24467 86.7126 6.69286C86.2869 5.8428 85.7796 5.03394 85.2 4.28113C84.2354 4.70136 83.101 4.71126 82.1292 4.30792ZM70.3205 26.2933C70.5168 26.3965 70.7546 26.2984 70.951 26.1954C71.4674 25.9249 71.9648 25.6179 72.4382 25.2774C72.5633 25.1874 72.6006 25.0077 72.5564 24.8597C72.5122 24.7118 72.4014 24.5925 72.2788 24.4991C71.896 24.2075 71.3609 24.1308 70.9121 24.3032C70.8291 24.3351 70.7467 24.3767 70.6896 24.4448C70.6227 24.5247 70.5982 24.631 70.5767 24.7331C70.4683 25.249 70.3828 25.7697 70.3205 26.2933ZM84.3015 3.23195C83.9632 2.56816 83.4415 1.99972 82.81 1.6069C82.5904 1.8012 82.5477 2.09645 82.5041 2.39745V2.39748C82.4743 2.60404 82.444 2.8133 82.3559 2.99451C82.3272 3.05353 82.2921 3.10999 82.2571 3.16632C82.1904 3.27355 82.1241 3.38032 82.1027 3.50347C82.07 3.69131 82.2285 3.92695 82.4081 3.8648C82.5541 3.81427 82.7072 3.84673 82.8616 3.87946C82.9431 3.89674 83.0249 3.91409 83.1063 3.91936C83.5804 3.95008 83.9738 3.5773 84.3015 3.23195ZM86.9825 7.21071C86.6201 7.93409 86.6775 8.78846 86.7433 9.59542L86.8378 10.7527C86.8482 10.8799 86.9172 11.0517 87.0395 11.0164C87.1154 10.8033 87.2599 10.6274 87.4049 10.4511C87.5317 10.2969 87.6587 10.1423 87.7404 9.96204C88.0171 9.35169 87.71 8.64826 87.4075 8.05041L86.9825 7.21071ZM70.7617 20.055C70.7769 20.2814 71.0111 20.4509 71.2371 20.4445C71.4631 20.4381 71.6666 20.2914 71.7986 20.1072C71.9306 19.9231 72.0031 19.7037 72.0736 19.4882L72.3066 18.7764C72.3716 18.578 72.3756 18.2746 72.1688 18.2512C72.0941 18.2428 72.0228 18.2825 71.9616 18.3262C71.7298 18.4915 71.561 18.7291 71.3967 18.9621L70.9491 19.5966C70.852 19.7343 70.7505 19.8868 70.7617 20.055ZM17.3738 18.1552C15.8012 15.2657 14.7973 12.0659 14.4366 8.79348C14.4144 8.59226 14.1933 8.46191 13.9917 8.4689C13.7901 8.4759 13.607 8.58281 13.4356 8.68949C11.0013 10.2041 8.92916 12.3005 7.4397 14.7556C7.28893 15.0041 7.14029 15.268 7.12125 15.5584C7.10257 15.8433 7.21097 16.1197 7.32267 16.3823C8.96571 20.2454 11.7056 23.5219 14.487 26.6606C16.6292 29.078 18.9223 31.5251 21.9092 32.7419C22.392 32.9386 23.0932 33.0187 23.2979 32.5379C23.3574 32.398 23.3542 32.2406 23.3511 32.0884L23.351 32.0826C23.3181 30.4527 23.5027 28.8184 23.8983 27.2372C23.9898 26.8714 24.0374 26.378 23.6964 26.2194C22.4139 25.623 21.5349 24.4203 20.713 23.2663C19.5318 21.6078 18.3475 19.9443 17.3738 18.1552ZM20.1506 30.7858C19.9739 30.8331 19.7975 30.7212 19.65 30.6128C16.9315 28.6139 14.8248 25.9086 12.7549 23.2396L9.10216 18.5296C9.71872 18.1356 9.79701 17.2793 9.81045 16.5459C9.82792 15.5925 9.84068 14.6109 9.49749 13.7217C9.42121 13.524 9.52051 13.305 9.62685 13.1219C10.0829 12.3365 10.7154 11.655 11.4637 11.1428C11.5361 11.0932 11.6128 11.0439 11.6996 11.0316C11.9288 10.9991 12.1046 11.2228 12.227 11.4198C12.7106 12.1981 13.3753 13.0782 14.287 13.0142C14.6342 12.9898 14.8267 13.4001 14.9279 13.7343C16.1873 17.8893 18.5519 21.6369 21.3248 24.9712C21.6852 25.4045 21.7756 25.9893 21.8652 26.5687C21.9651 27.2149 22.0639 27.8545 22.535 28.27C22.9372 28.6247 22.8625 29.2618 22.754 29.788C22.7318 29.8957 22.7053 30.011 22.6238 30.0845C22.5633 30.1391 22.4815 30.1618 22.4029 30.1829L20.1506 30.7858ZM13.7049 12.0518C13.2062 11.7022 12.7754 11.2553 12.4437 10.7435C12.3719 10.6329 12.3022 10.5088 12.3148 10.3773C12.3285 10.2344 12.4356 10.12 12.5423 10.0243C12.8056 9.78777 13.1031 9.5898 13.4227 9.43851C13.5397 9.3831 13.6908 9.3381 13.7881 9.42379C13.8453 9.47425 13.8634 9.55486 13.8783 9.62983L14.3389 11.9417C14.3661 12.0783 14.2233 12.2014 14.0845 12.2054C13.9456 12.2093 13.8187 12.1317 13.7049 12.0518ZM9.14649 16.5233C9.13673 16.9582 9.10363 17.4462 8.7789 17.7342C8.71094 17.7423 8.66581 17.6675 8.63918 17.6042C8.40521 17.0484 8.168 16.4792 8.13116 15.877C8.09432 15.2747 8.29544 14.6226 8.78583 14.2735C8.85218 14.2263 8.94951 14.1873 9.00808 14.2439C9.03162 14.2667 9.04169 14.2998 9.05027 14.3314C9.18351 14.823 9.17304 15.3407 9.16161 15.8499L9.14649 16.5233ZM22.3806 30.9872C22.4593 31.0518 22.4677 31.1675 22.4698 31.2696L22.4933 32.3873C22.0364 32.1331 21.5987 31.8443 21.1851 31.524C21.1067 31.4633 21.0205 31.3649 21.0686 31.278C21.0924 31.2349 21.1419 31.2141 21.188 31.197C21.4836 31.0877 21.7893 31.0056 22.0998 30.9522C22.1958 30.9358 22.3052 30.9253 22.3806 30.9872ZM22.4063 26.5847C22.4021 26.5342 22.4021 26.4792 22.432 26.4384C22.5109 26.3308 22.6822 26.4282 22.7545 26.5404C22.9289 26.8105 22.9673 27.1643 22.8552 27.4658C22.5992 27.2456 22.4343 26.9219 22.4063 26.5847ZM90.4595 18.0978C90.9149 17.5223 91.745 17.4395 92.477 17.4574C92.6481 17.4616 92.8241 17.4699 92.9798 17.5412C93.4129 17.7392 93.5048 18.3072 93.5195 18.7846C93.5328 19.219 93.5303 19.6591 93.4251 20.0807C93.3199 20.5023 93.1023 20.9085 92.7544 21.1672C92.598 21.2835 92.4165 21.3682 92.2246 21.4005C91.9279 21.4504 91.6243 21.3739 91.3423 21.2686C90.9666 21.1283 90.6103 20.9356 90.2869 20.6978C90.1289 20.5816 89.9658 20.4295 89.9607 20.233C89.949 19.7799 89.9995 19.3253 90.1105 18.8859C90.1814 18.6051 90.2801 18.3247 90.4595 18.0978ZM91.6409 20.9642C92.2256 21.1326 92.8475 20.6787 93.069 20.1101C93.2906 19.5416 93.2086 18.9031 93.0868 18.305C93.04 18.0754 92.7956 17.9471 92.5702 17.8857C92.2213 17.7907 91.8503 17.7781 91.4958 17.8492C91.3196 17.8846 91.1396 17.9451 91.016 18.0759C90.9487 18.1472 90.902 18.2353 90.8563 18.3221L90.5138 18.9717C90.4535 19.086 90.3929 19.2013 90.3575 19.3256C90.2515 19.6973 90.3915 20.1101 90.6502 20.3966C90.9088 20.6832 91.2706 20.8575 91.6409 20.9642ZM83.8143 27.5329C84.3505 27.7206 84.8365 28.0508 85.2093 28.4808C85.5297 28.8503 85.7738 29.3299 85.7064 29.815C85.6817 29.9931 85.6162 30.163 85.5415 30.3264C85.2587 30.9455 84.7723 31.5388 84.1042 31.6586C83.7538 31.7215 83.3925 31.6462 83.0555 31.5311C82.6657 31.398 82.2942 31.2114 81.9544 30.978C81.7741 30.8542 81.5952 30.7073 81.5161 30.503C81.4617 30.3622 81.46 30.2071 81.4621 30.056C81.4671 29.6825 81.4918 29.3026 81.6216 28.9525C81.7858 28.5095 82.107 28.1438 82.4477 27.8174C82.5847 27.6862 82.73 27.5569 82.906 27.4865C83.1938 27.3714 83.5217 27.4304 83.8143 27.5329ZM84.3621 30.7888C84.7496 30.4041 84.975 29.8463 84.9136 29.3028C84.8523 28.7592 84.4857 28.2491 83.9729 28.0636C83.7599 27.9865 83.5236 27.9649 83.3053 28.0255C83.1875 28.0582 83.077 28.1139 82.9739 28.1797C82.5326 28.4614 82.2227 28.942 82.1475 29.4614C82.0723 29.9808 82.233 30.53 82.5761 30.9262C82.7959 31.1798 83.1545 31.2886 83.4868 31.2465C83.8191 31.2043 84.124 31.0253 84.3621 30.7888ZM35.4297 24.3285C35.4117 24.0723 35.0703 24.0051 34.8144 24.0126C33.4708 24.0523 32.1291 24.1533 30.7947 24.3153C30.5755 24.3419 30.5578 24.6965 30.7337 24.8305C30.9096 24.9645 31.1546 24.9396 31.3732 24.9083L35.4297 24.3285ZM31.135 26.0615C31.1465 25.9295 31.3118 25.8818 31.443 25.8668L39.3564 24.9675C39.4995 24.9512 39.652 24.9365 39.7808 25.0012C39.9096 25.0659 39.9926 25.2428 39.9085 25.3602C39.8465 25.4467 39.7276 25.4642 39.6219 25.4745L31.528 26.2627C31.3597 26.2791 31.1202 26.2305 31.135 26.0615ZM48.876 27.3992C48.4333 27.4968 47.9789 27.3365 47.5543 27.1772C46.1813 26.6623 44.8137 26.1332 43.4517 25.5899C42.9018 25.3706 42.2985 25.699 41.804 26.025C40.3729 26.9684 38.9951 27.9932 37.6793 29.0928C37.3413 29.3752 36.8213 29.1771 36.4804 28.8981C36.4085 28.8392 36.3377 28.7764 36.2666 28.7134L36.2666 28.7133L36.2665 28.7133L36.2665 28.7133L36.2665 28.7133L36.2664 28.7132L36.2664 28.7132L36.2664 28.7132L36.2663 28.7131L36.2663 28.7131L36.2663 28.7131L36.2662 28.7131C36.0007 28.4776 35.7318 28.2391 35.3885 28.1902C34.8606 28.1151 34.3962 28.5166 34.0137 28.8894L31.5472 31.2934C31.2154 31.6167 30.8663 32.1345 31.1615 32.4916C31.3563 32.7273 31.7139 32.7153 32.017 32.68C33.5994 32.4959 35.174 32.2378 36.7481 31.9798C39.3496 31.5533 41.9496 31.1271 44.5809 31.0358C45.164 31.0155 45.7475 31.0118 46.331 31.0081C46.6963 31.0057 47.0616 31.0034 47.4269 30.997C49.0745 30.9682 50.7206 30.8568 52.3572 30.6633C52.4363 30.654 52.5264 30.6376 52.5675 30.5691C52.5985 30.5173 52.5908 30.452 52.582 30.3923L51.8888 25.659C51.8536 25.4185 51.792 25.1405 51.573 25.0366C51.3518 24.9316 51.0911 25.067 50.9095 25.2316C50.6252 25.4892 50.4063 25.8314 50.1903 26.1689C49.8361 26.7226 49.4897 27.2638 48.876 27.3992ZM37.6193 29.9891C39.0997 28.7675 40.6434 27.6231 42.242 26.562C42.5703 26.3441 42.9693 26.121 43.3361 26.264L47.2125 27.7757C47.8594 28.028 48.567 28.2835 49.2312 28.0813C50.0032 27.8461 50.4648 27.0752 50.8536 26.3657C50.9292 26.2277 51.1492 26.2436 51.2581 26.3569C51.367 26.4703 51.3946 26.6372 51.417 26.7931L51.7007 28.767C51.7443 29.07 51.7871 29.3846 51.6998 29.678C51.6126 29.9714 51.3562 30.2379 51.0511 30.232C46.0613 30.1353 41.0619 30.5483 36.1551 31.4623C36.0031 31.4906 35.8511 31.5194 35.699 31.5483C34.5268 31.7703 33.3503 31.9933 32.159 31.9973C32.7342 31.1796 33.4631 30.4851 34.1869 29.7965C34.5844 29.4184 35.0813 29.0106 35.6148 29.1343C35.9029 29.201 36.1239 29.4088 36.3438 29.6155L36.3438 29.6155L36.3439 29.6155L36.3439 29.6156L36.3439 29.6156L36.3439 29.6156L36.3439 29.6156L36.344 29.6156L36.344 29.6156L36.344 29.6157C36.4144 29.6819 36.4848 29.748 36.5572 29.8093C36.8555 30.0621 37.3176 30.238 37.6193 29.9891ZM101.633 43.7585C101.501 43.808 101.353 43.7742 101.219 43.7317C100.306 43.4438 99.5651 42.8001 98.8368 42.1674C98.7382 42.0817 98.6398 41.9962 98.5412 41.9119C97.3346 40.8789 96.025 39.967 94.6384 39.1942C94.4974 39.1156 94.3494 39.0328 94.263 38.8961C94.1766 38.7593 94.1792 38.5511 94.3124 38.4598C94.9342 38.0337 95.3374 37.3027 95.367 36.5477C95.3749 36.3466 95.6015 36.2124 95.8015 36.2285C96.0014 36.2446 96.1758 36.3653 96.3394 36.4818L102.675 40.9953C102.799 41.0831 102.931 41.185 102.962 41.3337C102.986 41.4551 102.936 41.5779 102.885 41.6907C102.611 42.2958 102.297 42.8823 101.945 43.4447C101.865 43.572 101.774 43.706 101.633 43.7585ZM95.2944 38.4042C95.2199 38.536 95.1555 38.7267 95.2762 38.8178L100.446 42.7245C100.73 42.9385 101.169 43.139 101.392 42.8625C101.648 42.545 101.888 42.2138 102.108 41.8707C102.169 41.7768 102.231 41.6696 102.209 41.56C102.189 41.46 102.105 41.3873 102.026 41.3231C100.129 39.7791 98.1196 38.3732 96.0201 37.1201L95.2944 38.4042ZM92.721 40.7933C92.8045 40.6496 92.9058 40.4923 93.0678 40.4571C93.1917 40.43 93.3178 40.4833 93.4319 40.5389C94.0545 40.8424 94.6247 41.2536 95.1097 41.749C95.2264 41.8682 95.2409 42.0601 95.189 42.2189C95.137 42.3776 95.0299 42.5112 94.925 42.641C94.7563 42.8495 94.5765 43.0665 94.3277 43.1654C94.0591 43.2722 93.7466 43.2207 93.4923 43.0833C93.2379 42.9458 93.0338 42.7308 92.8538 42.504C92.6191 42.2081 92.409 41.8532 92.4454 41.4768C92.4693 41.2302 92.5966 41.0074 92.721 40.7933ZM93.8097 42.4498C94.2012 42.6026 94.4517 42.4815 94.462 42.2238C94.4685 42.0612 94.3271 41.936 94.1986 41.8368L93.8097 41.5366C93.6812 41.4374 93.5394 41.3334 93.3773 41.3345C93.2152 41.3355 93.0501 41.5033 93.1165 41.6518C93.1065 41.7235 93.4182 42.297 93.8097 42.4498ZM92.2646 45.6221C92.36 45.6745 92.4612 45.7259 92.5701 45.7282C92.6789 45.7305 92.7969 45.6686 92.8236 45.5627C92.8864 45.3142 93.0503 45.1081 93.2107 44.9064L93.263 44.8404C93.4387 44.6172 93.6082 44.3644 93.613 44.08C93.6177 43.7956 93.383 43.4925 93.1022 43.5313C92.881 43.5619 92.6752 43.4164 92.5146 43.2607C92.4889 43.2359 92.4635 43.2104 92.438 43.1849C92.3036 43.0503 92.1669 42.9135 91.9884 42.8552C91.7761 42.7857 91.4869 42.8962 91.4701 43.1197C91.4362 43.5697 91.0634 43.9086 90.7177 44.1973C90.6142 44.2836 90.7077 44.4494 90.8045 44.5433C91.2403 44.9661 91.7328 45.33 92.2646 45.6221ZM92.3333 44.7645L91.6523 44.3022C91.4791 44.1847 91.4931 43.8967 91.6474 43.7553C91.8018 43.6138 92.0417 43.603 92.2385 43.6738C92.4353 43.7446 92.599 43.8835 92.758 44.0197C92.8632 44.1099 92.8778 44.2739 92.8296 44.4041C92.7814 44.5343 92.6834 44.6386 92.5879 44.7391C92.5552 44.7735 92.5186 44.8099 92.4716 44.816C92.4217 44.8224 92.375 44.7928 92.3333 44.7645ZM97.7319 44.795L98.0648 44.085C98.1668 43.8676 98.2656 43.5986 98.1279 43.402C98.0802 43.3338 98.0097 43.2856 97.9407 43.239L96.7293 42.4197C96.5987 42.3314 96.457 42.2396 96.2995 42.2421C96.1128 42.245 95.9564 42.3788 95.8238 42.5107C95.6253 42.7082 95.4397 42.9188 95.2686 43.1407C95.1383 43.3096 95.0313 43.5876 95.2093 43.7047L97.063 44.9253C97.2093 45.0216 97.395 45.1206 97.5487 45.0368C97.6389 44.9875 97.6881 44.8883 97.7319 44.795ZM97.3213 44.2924C97.2434 44.3104 97.1622 44.2906 97.0857 44.2674C96.6177 44.1259 96.1893 43.8549 95.8603 43.4921C95.7508 43.3715 95.8127 43.1584 95.9518 43.0738C96.0908 42.9893 96.2715 43.0087 96.4215 43.0719C96.5183 43.1127 96.6069 43.1695 96.6956 43.2264C96.7442 43.2576 96.7928 43.2888 96.8428 43.3174C96.8967 43.3481 96.9528 43.3764 97.0089 43.4046C97.1682 43.4847 97.3277 43.565 97.4364 43.7036C97.5833 43.8911 97.5529 44.239 97.3213 44.2924ZM97.9473 45.0853C98.161 45.0343 98.2262 44.8157 98.2941 44.5885C98.3502 44.4008 98.408 44.2071 98.5528 44.0973C98.802 43.9082 99.155 44.0662 99.4235 44.2265L100.277 44.7364C100.414 44.8176 100.553 44.9017 100.65 45.0268C100.748 45.1519 100.796 45.3291 100.728 45.4725C100.682 45.5682 100.596 45.6317 100.509 45.6956C100.438 45.748 100.366 45.8008 100.317 45.8718C100.252 45.9631 100.228 46.0775 100.205 46.1906C100.175 46.3325 100.146 46.4722 100.038 46.5614C99.8416 46.7239 99.5493 46.5937 99.332 46.4604L98.1289 45.7226C98.0075 45.6482 97.8795 45.5665 97.82 45.4369C97.7604 45.3073 97.809 45.1183 97.9473 45.0853ZM99.5239 45.8179C99.6962 45.7589 99.8346 45.6307 99.9676 45.5059C100.064 45.4154 99.935 45.2665 99.8201 45.2016L99.083 44.7851C99.0061 44.7416 98.8991 44.702 98.8395 44.7673C98.6475 44.9776 98.6196 45.3207 98.7751 45.5594C98.9306 45.7981 99.255 45.9101 99.5239 45.8179ZM91.0679 45.7921C90.9029 45.7454 90.7349 45.6979 90.6001 45.6057C90.3908 45.4625 90.0995 45.4971 89.8798 45.6238C89.6602 45.7504 89.4964 45.9533 89.3379 46.1516C89.25 46.2616 89.1596 46.3764 89.126 46.5133C89.0924 46.6503 89.1325 46.8163 89.2553 46.885L90.5406 47.604C90.6379 47.6584 90.7466 47.7147 90.8554 47.6905C90.9637 47.6664 91.0384 47.5698 91.1037 47.4797L91.4344 47.0231C91.6185 46.7689 91.8108 46.4449 91.6762 46.1612C91.5683 45.9338 91.3217 45.864 91.0679 45.7921ZM90.6607 46.9749C90.5935 46.9927 90.5243 46.9602 90.4623 46.9286L89.5866 46.4813C89.755 46.2422 90.0753 46.1505 90.3656 46.1794C90.6559 46.2084 90.9255 46.3379 91.1881 46.4654L90.7856 46.8848C90.7496 46.9224 90.7109 46.9615 90.6607 46.9749ZM84.5946 29.0921C84.7302 29.2996 84.6877 29.5768 84.5978 29.8079C84.4793 30.1124 84.2789 30.3946 83.9959 30.5567C83.7129 30.7187 83.3412 30.7424 83.0654 30.5682C82.7897 30.3941 82.6512 30.0069 82.799 29.7154C82.8332 29.648 82.8798 29.5883 82.9264 29.5286C82.9711 29.4715 83.0157 29.4143 83.0495 29.3504C83.0717 29.3083 83.089 29.2636 83.1062 29.219C83.1312 29.1547 83.156 29.0906 83.1955 29.0345C83.3359 28.835 83.6124 28.7958 83.8557 28.7992C84.1317 28.8031 84.4433 28.8604 84.5946 29.0921ZM83.9785 29.224C83.6009 29.2192 83.2468 29.5369 83.2094 29.914C83.1941 30.0681 83.2593 30.2597 83.4121 30.2809C83.5267 30.2969 83.6272 30.208 83.7042 30.1215C83.867 29.9383 84.0069 29.7345 84.1195 29.5166C84.1573 29.4435 84.1906 29.3496 84.1409 29.284C84.1047 29.2362 84.0383 29.2247 83.9785 29.224ZM93.009 19.341C92.9799 18.994 92.7486 18.6528 92.4126 18.5658C91.9858 18.4554 91.5722 18.757 91.2334 19.0399C91.1332 19.1236 91.0285 19.2135 90.9861 19.3372C90.9141 19.5472 91.0436 19.7684 91.1712 19.9497C91.3174 20.1574 91.4735 20.3661 91.6867 20.5034C91.9 20.6406 92.1843 20.6939 92.4081 20.5747C92.5221 20.5139 92.6108 20.4145 92.6879 20.3106C92.8951 20.0313 93.0381 19.688 93.009 19.341ZM92.0623 20.2306C91.9177 20.2524 91.7677 20.1938 91.6612 20.0932C91.5017 19.9424 91.4384 19.7001 91.4941 19.4874C91.5528 19.2635 91.7401 19.0786 91.9641 19.0234C92.1881 18.9681 92.4395 19.0449 92.5949 19.2161C92.589 19.2627 92.5842 19.3096 92.5793 19.3566C92.5629 19.5161 92.5463 19.676 92.4913 19.8259C92.42 20.0199 92.2661 20.2 92.0623 20.2306ZM80.5745 74.3523C81.3614 71.5586 82.847 69.0232 84.3174 66.5231C84.5659 66.1004 84.874 65.635 85.3564 65.5549C85.5466 65.5233 85.6469 65.3159 85.7116 65.1336C86.5091 62.8888 86.5859 60.3924 85.9281 58.1025C85.7403 57.4488 85.9715 56.7559 86.2002 56.1155L87.9711 51.1579C87.787 50.8382 87.4387 50.6977 87.0859 50.5555C86.7908 50.4364 86.4924 50.3161 86.2843 50.0885C85.6965 49.4455 86.1399 48.4232 86.6004 47.683L94.6723 34.7103C95.0019 34.1805 95.7253 34.0145 96.3316 34.1556C96.9378 34.2968 97.4556 34.6797 97.9543 35.0535L103.841 39.4662C104.894 40.2556 106.057 41.264 105.996 42.5818C105.963 43.3111 105.547 43.9593 105.145 44.5675L100.479 51.6228C99.876 52.5351 99.8028 53.6443 99.7293 54.7585C99.6961 55.2624 99.6628 55.7674 99.5803 56.2556C99.178 58.6378 97.5972 60.6105 96.0827 62.5005L95.9018 62.7264C94.3344 64.6855 92.7661 66.8732 92.678 69.3841C92.573 72.3768 91.1562 75.2997 88.875 77.23L90.8601 72.3971C91.3322 71.2477 91.7693 69.8178 90.9793 68.8603C90.6218 68.4271 90.0816 68.1979 89.563 67.9844L86.4799 66.715C86.2674 66.6274 86.0482 66.5385 85.8184 66.5371C85.1022 66.5327 84.6761 67.3123 84.3857 67.9693C83.381 70.2423 82.0979 72.3912 80.5745 74.3523ZM90.7118 67.7888C91.2404 67.9852 91.9847 68.1045 92.2352 67.5977C93.4476 65.1451 94.6932 62.6453 96.623 60.7101C97.7353 59.5947 98.4173 58.1064 98.803 56.5766C99.1887 55.0468 99.298 53.4625 99.4056 51.8881C98.9373 52.0593 98.8966 52.6934 98.8986 53.1936C98.903 54.2962 98.7109 55.3992 98.3342 56.4349C98.2553 56.6517 98.1495 56.8859 97.9383 56.9774C97.7272 57.0688 97.4162 56.8851 97.4872 56.6656C98.0318 54.9809 98.2347 53.1858 98.0801 51.4214C98.0322 50.8744 97.9306 50.2892 97.5431 49.9015C97.5851 50.7653 97.6271 51.6329 97.5399 52.4932C97.389 53.9817 96.8572 55.4009 96.3301 56.8004C96.2617 56.9822 96.1789 57.1803 96.005 57.2656C95.8311 57.351 95.5613 57.2157 95.6068 57.0269L96.3961 53.7522C96.8301 51.9517 97.257 50.0149 96.5851 48.2895C96.2467 48.2667 96.167 48.7522 96.1972 49.0913C96.4042 51.4133 95.7646 53.7179 95.1312 55.9609C95.0573 56.2227 94.7956 56.5502 94.5923 56.3701C94.5047 56.2924 94.5006 56.1586 94.5077 56.0414C94.5477 55.3819 94.7278 54.7434 94.9078 54.1056L94.9078 54.1054C94.9637 53.9075 95.0195 53.7096 95.0711 53.5111C95.547 51.6819 95.6684 49.7605 95.4265 47.8856C95.0095 48.4219 94.8326 49.1022 94.6657 49.7615L93.6749 53.6753C93.227 55.4445 92.6547 57.3896 91.1017 58.34C90.978 58.4157 90.8346 58.4861 90.6936 58.4525C90.5184 58.4109 90.4191 58.2292 90.3461 58.0641C89.3549 55.8236 89.2311 53.2098 90.006 50.885C90.053 50.7439 89.91 50.5965 89.7622 50.5849C89.6144 50.5732 89.4761 50.6539 89.355 50.7397C88.0834 51.6402 87.5963 53.2713 87.1918 54.7794L86.654 56.7846C86.5754 57.0776 86.4965 57.3731 86.48 57.676C86.4551 58.1363 86.5749 58.5867 86.6941 59.0347C86.7217 59.1385 86.7493 59.2422 86.775 59.3459C87.2923 61.4292 87.0586 63.692 86.1266 65.6246C85.9891 65.9095 86.3519 66.1687 86.6477 66.2786L90.7118 67.7888ZM92.721 48.6508C92.5089 48.5043 92.2818 48.3369 92.2162 48.0871C92.1157 47.7039 92.4793 47.319 92.8708 47.2675C93.2622 47.2159 93.6452 47.4056 93.9696 47.6314C94.4266 47.9495 95.005 47.4644 95.3471 47.0244C94.8855 46.7473 94.4452 46.3172 94.427 45.7778C94.4089 45.2383 95.0624 44.7245 95.4973 45.042C95.6661 45.1652 95.8703 45.2406 96.0722 45.3151C96.3747 45.4268 96.6721 45.5366 96.8381 45.8025C97.0268 46.1049 96.9597 46.5137 96.7676 46.814C96.5755 47.1142 96.2798 47.3297 95.9911 47.538C96.4055 47.5792 96.8089 47.7274 97.1518 47.9646L97.5256 46.8718C97.5546 46.787 97.586 46.6983 97.6525 46.6385C97.7806 46.5231 97.9799 46.5588 98.1439 46.6111C98.5742 46.7481 98.9963 46.9621 99.2803 47.3143C99.5643 47.6664 99.6827 48.178 99.4842 48.585C99.2858 48.992 98.7256 49.209 98.3461 48.9636C98.2673 48.9127 98.1882 48.8446 98.1091 48.7766C97.8975 48.5947 97.686 48.4128 97.4818 48.5584C98.1054 49.0457 98.5337 49.7777 98.6539 50.5616C100.617 47.5608 102.559 44.5462 104.48 41.5179C104.663 41.2289 104.811 40.7732 104.512 40.607C103.237 39.8969 102.109 38.9458 100.985 37.997C99.5648 36.7994 98.1493 35.6054 96.4457 34.9042C96.3376 34.8597 96.2194 34.8166 96.1064 34.8465C95.9879 34.8779 95.9046 34.9813 95.8301 35.0788C92.6577 39.2341 89.8106 43.6394 87.3236 48.2408C86.9766 48.8827 87.441 49.6479 87.8853 50.2263C88.1072 50.5153 88.5357 50.8206 88.7777 50.5484C89.0828 50.2052 89.583 50.009 90.0151 50.1623C90.4471 50.3155 90.716 50.8794 90.481 51.2742C90.3111 51.5598 90.6438 51.8772 90.9344 52.037C91.5152 52.3563 92.111 52.6481 92.7191 52.9112C92.8037 52.9478 92.902 52.9837 92.9844 52.9423C93.0628 52.9029 93.0945 52.8092 93.119 52.7247L93.7927 50.3985C93.9035 50.0159 93.9776 49.5194 93.6507 49.2934L92.721 48.6508ZM104.772 42.13C104.683 42.0993 104.601 42.1891 104.549 42.268L99.5046 49.8455C99.3689 50.0493 99.2299 50.2613 99.1904 50.5032C99.1508 50.7451 99.2393 51.0264 99.4587 51.1341C99.822 51.3124 100.202 50.9377 100.435 50.606L105.122 43.9401C105.47 43.4452 105.175 42.7685 104.877 42.2417C104.852 42.1961 104.822 42.147 104.772 42.13ZM90.5707 52.2486C90.4819 52.1837 90.3491 52.2224 90.2747 52.3035C90.2004 52.3847 90.17 52.4958 90.142 52.6024C90.0731 52.8648 90.0038 53.1298 89.9936 53.401C89.9833 53.6721 90.0325 53.9416 90.0814 54.2085L90.5644 56.8435C90.5846 56.9539 90.6083 57.0713 90.6864 57.1518C90.7645 57.2323 90.9165 57.2498 90.9797 57.1571C91.6947 56.1078 92.4197 55.038 92.7937 53.8235C92.8402 53.6725 92.8536 53.4602 92.7062 53.4045C91.9469 53.1178 91.2265 52.7278 90.5707 52.2486ZM96.1487 45.747C95.9066 45.5156 95.5865 45.3677 95.2539 45.3337C94.9506 45.3026 94.7756 45.7301 94.9141 46.0027C95.0526 46.2752 95.3583 46.4102 95.6413 46.524C95.841 46.6044 96.0833 46.6801 96.2574 46.5532C96.5076 46.3709 96.3726 45.961 96.1487 45.747ZM94.1571 48.8006C94.2558 48.7301 94.2686 48.5861 94.241 48.4677C94.1369 48.0217 93.6496 47.7938 93.212 47.6632C93.0428 47.6126 92.8323 47.5774 92.713 47.7081C92.6134 47.8172 92.6346 47.9978 92.7205 48.118C92.8064 48.2383 92.9408 48.3124 93.0706 48.3826L93.7463 48.7479C93.8748 48.8173 94.0382 48.8855 94.1571 48.8006ZM98.002 47.1929C97.8588 47.3851 97.8734 47.6647 97.9928 47.8726C98.1123 48.0805 98.319 48.2249 98.5371 48.3232C98.6119 48.3569 98.6939 48.3865 98.7743 48.3705C98.8435 48.3567 98.9027 48.3099 98.9449 48.2532C99.101 48.0439 99.0253 47.7285 98.8464 47.5384C98.6675 47.3482 98.4131 47.253 98.1681 47.1639C98.1258 47.1485 98.0766 47.1336 98.038 47.1569C98.0234 47.1657 98.0122 47.1791 98.002 47.1929ZM30.2267 64.6205C30.3203 63.9266 30.4514 63.1629 30.9947 62.7234C31.4279 62.373 32.0226 62.317 32.579 62.3063C34.4014 62.2712 36.2297 62.5682 37.9481 63.1785C38.4917 63.3716 39.0606 63.6259 39.3578 64.1218C39.6796 64.6586 39.6011 65.3357 39.5122 65.9558L38.132 75.5776C39.0837 72.7911 39.7669 69.9124 40.1691 66.9946C40.3567 65.6333 40.4221 64.0713 39.4754 63.0784C37.9976 61.5285 38.0379 59.3207 38.0789 57.0759C38.1143 55.1386 38.1501 53.1736 37.211 51.58C36.9046 51.06 37.5878 50.5233 38.1559 50.3236C40.6602 49.4437 43.3296 49.0399 45.9811 49.1401C46.4672 52.9937 46.5987 56.8922 46.3734 60.7699C46.3228 61.6396 47.5518 61.864 48.4146 61.768L78.3454 58.4373C78.495 58.4206 78.6571 58.3982 78.7632 58.291C78.8872 58.1658 78.8933 57.969 78.8916 57.7925C78.821 50.7549 78.6191 43.7186 78.2863 36.6885C78.2733 36.4141 78.2385 36.0991 78.0122 35.9446C77.8425 35.8288 77.6192 35.8442 77.4149 35.864L56.0515 37.9423C57.455 31.2997 58.8664 24.5323 58.2263 17.7724C53.5562 20.8972 47.5299 20.8738 41.9266 20.5429C41.6938 20.5292 41.4604 20.5152 41.2265 20.5011C35.8342 20.1777 30.2109 19.8405 25.3632 22.1813C27.9015 28.9352 30.4688 36.3072 28.3589 43.2079C28.1722 43.8184 27.9501 44.4181 27.7281 45.0176C27.3858 45.9418 27.0438 46.8653 26.8323 47.8268C26.4836 49.4118 26.536 51.1864 27.4707 52.5112C28.8242 54.4294 29.8998 56.6106 30.1451 58.9481C30.3779 61.1663 29.8577 63.3663 29.3381 65.5638C28.7952 67.8598 28.253 70.1531 28.5709 72.4617C28.6247 72.8522 28.7219 73.2724 29.0266 73.5212L30.2267 64.6205ZM32.3445 36.7458C32.9105 36.7659 33.1355 37.4791 33.2079 38.0428L33.781 42.5066C32.662 41.9244 31.088 42.9126 31.1201 44.177C30.1772 42.3507 30.034 40.2576 29.8922 38.1857C29.8613 37.735 29.8306 37.2853 29.7916 36.8395C29.3753 32.0727 27.9438 27.4621 26.5212 22.895C26.3183 22.2438 27.1945 21.8215 27.8673 21.7225C32.2817 21.073 36.7496 21.1627 41.2195 21.2524C43.2456 21.2931 45.2721 21.3337 47.2943 21.3056C50.8874 21.2556 54.6893 20.9143 57.604 18.8049C58.2591 23.1876 57.3687 27.6095 56.4895 31.9757C56.3706 32.5663 56.2519 33.1559 56.1372 33.7442C55.1749 38.6819 54.5199 43.9451 56.3611 48.6248C56.4387 48.822 56.1742 48.9707 55.9674 49.014C54.4531 49.331 52.8873 49.3992 51.3513 49.2153C50.6924 49.1363 50.0405 49.0116 49.3884 48.8869C48.8974 48.7929 48.4062 48.699 47.912 48.6245C44.1915 48.0643 40.3081 48.6458 36.9126 50.2716C36.7765 50.3367 36.6146 50.3062 36.4721 50.2567C35.7845 50.0178 35.2939 49.3802 35.0491 48.6925C34.8043 48.0047 34.7693 47.2624 34.7366 46.5329L34.5997 43.473C34.5948 43.3631 34.6235 43.2138 34.7331 43.2104C40.6812 43.0239 46.6225 42.6215 52.5416 42.0041C52.2914 40.5987 52.2665 39.1531 52.4684 37.7398C52.5958 36.8477 51.7598 36.0342 50.8696 35.9148C49.9794 35.7955 49.0991 36.2001 48.3599 36.7121C48.0834 36.9036 47.8179 37.1117 47.5525 37.3196C47.1086 37.6674 46.665 38.015 46.1711 38.2843C45.8479 38.4605 45.4591 38.6027 45.1197 38.4604C44.7043 38.2861 44.565 37.7902 44.4407 37.3474C44.4328 37.3196 44.4251 37.292 44.4173 37.2647C44.2553 36.6945 43.9878 36.1271 43.5173 35.7685C43.0468 35.4099 42.3369 35.3205 41.8724 35.687C41.4754 36.0004 41.3498 36.543 41.2833 37.0455C41.2774 37.0902 41.2717 37.1352 41.2659 37.1803C41.2069 37.6423 41.146 38.1198 40.8712 38.4903C40.5696 38.8969 39.8967 39.0713 39.5659 38.6881C38.9118 37.9304 37.7639 37.7715 36.8007 38.0374C35.8376 38.3033 35.0134 38.9175 34.2143 39.5191C33.7322 38.762 33.6923 37.7425 34.1138 36.9498L34.1208 36.9366C34.2 36.7878 34.2911 36.6169 34.221 36.4653C34.1776 36.3714 34.0819 36.3138 33.9871 36.2731C33.4204 36.0292 32.6963 36.2376 32.3445 36.7458ZM49.3755 49.5414C49.6924 49.6049 50.0819 49.7467 50.1015 50.0703C50.2884 53.1573 52.733 55.9314 55.7386 56.6146C58.7442 57.2979 62.0752 55.9162 63.8276 53.3723C65.5801 50.8284 65.7174 47.2944 64.2803 44.5585C62.7392 41.6245 58.994 40.0664 55.8363 41.0455C55.6898 40.3972 55.7063 39.7124 55.8839 39.0719C55.9169 38.953 55.9599 38.8286 56.0555 38.751C56.149 38.6751 56.2752 38.6579 56.3946 38.6434L65.2896 37.5683C66.0716 37.4737 66.8556 37.3791 67.6432 37.3726C71.0303 37.3446 74.4148 37.0056 77.7406 36.3614C78.2573 43.3253 78.5005 50.3096 78.4693 57.2927C78.4678 57.624 78.3673 58.0642 78.0374 58.0738C72.4393 58.2375 66.8853 58.9765 61.3291 59.7158C57.5962 60.2125 53.8622 60.7093 50.1133 61.0318C49.2777 61.1037 48.4364 61.167 47.6015 61.0871C47.4502 61.0726 47.2795 61.0416 47.1973 60.9134C47.1476 60.836 47.142 60.7392 47.1379 60.6472L46.6388 49.4779C46.6323 49.3335 46.641 49.1596 46.7656 49.0871C46.8481 49.0391 46.9514 49.0563 47.0449 49.0751L49.3755 49.5414ZM34.0601 46.9555C33.9716 47.5356 33.8721 48.1883 34.2508 48.6272C35.6634 50.2643 37.1308 52.0135 37.5063 54.146C37.6816 55.1419 37.6063 56.1668 37.5313 57.1876C37.4368 58.4733 37.3428 59.7525 37.7508 60.9587C37.7615 60.9902 37.7725 61.0217 37.7835 61.0533C37.8584 61.2683 37.9349 61.4875 37.9106 61.712C37.8827 61.9695 37.66 62.2286 37.4056 62.1846L34.4525 61.6735C33.4746 61.5042 32.4415 61.3395 31.5125 61.6898C31.3329 61.7576 31.1262 61.6387 31.03 61.4721C30.9337 61.3056 30.9211 61.1051 30.9127 60.9127C30.9026 60.6805 30.8951 60.4466 30.8875 60.212C30.8398 58.7367 30.7912 57.2337 30.1107 55.9411L27.9397 51.8168C27.6192 51.2079 27.2912 50.5719 27.2691 49.8837C27.2543 49.4241 27.3779 48.9726 27.5005 48.5295L28.5836 44.6143C28.8116 43.7901 29.0528 42.9396 29.5928 42.2777C30.9047 44.5112 31.0341 47.4007 29.9273 49.7433C29.8249 49.9601 30.1377 50.1832 30.3606 50.0968C30.5836 50.0104 30.6968 49.7653 30.7754 49.5388C31.0903 48.6316 31.2007 47.6751 31.3112 46.7173C31.4007 45.9424 31.4902 45.1665 31.6883 44.4151C31.8096 43.9547 31.9846 43.4848 32.3388 43.168C32.693 42.8512 33.2707 42.7427 33.6418 43.0393C33.9259 43.2663 34.0182 43.6542 34.0723 44.0146C34.2148 44.9653 34.2142 45.9375 34.0703 46.8881C34.0669 46.9104 34.0635 46.9329 34.0601 46.9555ZM39.1549 39.2262C39.5902 39.5605 40.0165 39.888 40.5388 39.8273C41.2026 39.7502 41.6163 39.0644 41.8091 38.4223C41.8513 38.2817 41.8888 38.1379 41.9265 37.9938C42.0608 37.4793 42.1961 36.9608 42.5478 36.5737C42.6501 36.4612 42.7973 36.3565 42.9425 36.4006C43.0601 36.4363 43.1286 36.5559 43.1832 36.6663C43.2606 36.8229 43.3339 36.9821 43.4071 37.1413C43.6138 37.5904 43.8205 38.0397 44.1205 38.4299C44.5269 38.9585 45.1593 39.3743 45.8206 39.3016C46.412 39.2365 46.874 38.8163 47.3244 38.4067C47.4167 38.3227 47.5086 38.2392 47.6009 38.1592C48.6857 37.2205 50.0984 36.6713 51.5303 36.6317C51.3371 37.1161 51.4659 37.6444 51.5923 38.1629C51.6227 38.2877 51.653 38.412 51.6786 38.5349C51.8807 39.5047 51.7786 40.536 51.3901 41.4469L41.8268 42.1858C39.5942 42.3582 37.3561 42.5309 35.1183 42.4519C34.9769 42.4469 34.832 42.4401 34.7019 42.3842C34.4563 42.2788 34.3104 42.0157 34.2575 41.7529C34.139 41.1636 34.4097 40.5499 34.8198 40.1116C35.2298 39.6734 35.7653 39.3782 36.2912 39.0904C36.8385 38.7909 37.4462 38.4814 38.0564 38.6093C38.4625 38.6944 38.8115 38.9624 39.1549 39.2262ZM57.264 53.2061C55.8152 53.1762 54.5599 51.99 54.1297 50.6013C54.0419 50.3177 54.2246 50.0067 54.4765 49.851C54.7284 49.6953 55.0333 49.6586 55.3273 49.6254L57.4501 49.3861C56.8045 48.1269 56.3447 46.7719 56.0903 45.379C56.0672 45.2527 56.0462 45.1199 56.086 44.9979C56.1559 44.7835 56.3861 44.6707 56.5991 44.5988C58.3239 44.0171 60.3948 44.7233 61.4091 46.2393C62.4233 47.7553 62.2903 49.9467 61.0999 51.3277C60.5845 51.9256 59.9092 52.3669 59.1978 52.7065C58.5912 52.996 57.9356 53.22 57.264 53.2061ZM64.1388 45.7217C64.3966 46.576 64.471 47.4746 64.5065 48.3665C63.9276 48.2785 63.3429 48.2286 62.7575 48.2171C62.6431 46.717 61.6481 45.3616 60.3401 44.6263C59.0321 43.891 57.4533 43.7322 55.9752 43.9839C55.9627 43.7724 55.9243 43.5518 55.8859 43.3311C55.7845 42.7488 55.6831 42.1665 56.0583 41.7532C56.2849 41.5035 56.6302 41.4036 56.961 41.3418C58.4679 41.0601 60.0747 41.3553 61.3844 42.1544C62.6941 42.9536 63.6947 44.2494 64.1388 45.7217ZM53.514 50.45C53.5116 50.4777 53.5092 50.5049 53.508 50.5309C53.4982 50.7382 53.5945 50.9284 53.6898 51.1166C53.7153 51.167 53.7408 51.2173 53.7641 51.2678C53.8745 51.5065 53.928 51.821 53.7435 52.008C53.2969 52.4603 52.9022 52.9643 52.5698 53.5067C52.4876 53.6409 52.2853 53.6518 52.1501 53.5718C52.0149 53.4918 51.931 53.3492 51.853 53.2126C51.3589 52.348 50.8524 51.4436 50.7908 50.4489C50.7831 50.3252 50.7966 50.1754 50.906 50.1178C50.9541 50.0924 51.011 50.0916 51.0654 50.0915L53.2752 50.0847C53.328 50.0846 53.3836 50.0851 53.4295 50.1113C53.5379 50.1731 53.5255 50.3167 53.514 50.45Z" fill="#00160A"/>
</svg>
