<svg width="132" height="132" viewBox="0 0 132 132" fill="none" xmlns="http://www.w3.org/2000/svg">
<g opacity="0.5">
<circle cx="66" cy="66" r="63" stroke="#F21E1E" stroke-width="6"/>
<path d="M48.1108 66.9346C48.2315 67.0553 48.4125 67.2363 48.6538 67.4776C48.8801 67.7039 49.0838 67.983 49.2648 68.3149C48.8575 68.873 48.6312 69.3708 48.586 69.8083C48.5407 70.2156 48.7443 70.6455 49.1969 71.098L56.7092 78.6103C58.3836 80.2848 59.0549 82.0723 58.723 83.973C58.3912 85.8737 57.2523 87.7971 55.3063 89.743C53.3603 91.689 51.4445 92.8204 49.5589 93.1371C47.6733 93.4539 45.8933 92.7751 44.2189 91.1007L35.5978 82.4796C35.0548 82.6908 34.4438 83.1358 33.765 83.8146C33.6594 83.7392 33.5161 83.611 33.3351 83.43C33.139 83.2339 32.8901 82.9095 32.5884 82.457L39.2408 75.8045C39.3615 75.9252 39.5425 76.1062 39.7839 76.3476C40.0102 76.5739 40.2138 76.8529 40.3948 77.1848C40.0026 77.7279 39.7839 78.2181 39.7386 78.6556C39.6783 79.078 39.8744 79.5154 40.3269 79.968L47.8392 87.4803C48.9857 88.6267 50.0266 89.2151 50.9618 89.2452C51.8971 89.2754 52.7796 88.8756 53.6092 88.046C55.3591 86.2961 55.1781 84.3652 53.0662 82.2533L44.4451 73.6323C43.9021 73.8435 43.2911 74.2885 42.6123 74.9673C42.5067 74.8617 42.3559 74.7109 42.1598 74.5148C41.9637 74.3187 41.7223 74.017 41.4357 73.6097L48.1108 66.9346ZM65.9981 75.8834C66.4507 75.4308 66.7071 74.9632 66.7674 74.4805C66.8278 73.9676 66.6845 73.5377 66.3375 73.1907C65.9755 72.8287 65.3872 72.708 64.5726 72.8287C63.7429 72.9343 62.9132 73.1455 62.0836 73.4622C61.2539 73.7489 60.3412 73.862 59.3456 73.8017C58.35 73.7413 57.5053 73.3642 56.8114 72.6703C55.7403 71.5993 55.3104 70.4151 55.5216 69.1178C55.7479 67.8054 56.5474 66.4628 57.9201 65.0901C58.795 64.2152 59.8812 63.4458 61.1785 62.7821C61.3897 62.9933 61.7517 63.3553 62.2646 63.8682C62.7775 64.3811 63.3658 65.0599 64.0295 65.9047C63.6373 66.2969 63.23 66.6288 62.8076 66.9003C62.6568 66.6891 62.4984 66.5005 62.3325 66.3346C61.3972 65.3993 60.4393 65.422 59.4588 66.4025C59.1118 66.7494 58.9157 67.1417 58.8705 67.5791C58.8252 67.9864 58.9911 68.3786 59.3683 68.7557C59.7303 69.1178 60.3186 69.2234 61.1332 69.0725C61.9478 68.8915 62.7624 68.6351 63.577 68.3032C64.3916 67.9412 65.3117 67.7903 66.3375 67.8506C67.3784 67.8959 68.2835 68.3032 69.0528 69.0725C70.0484 70.0681 70.4331 71.3428 70.2068 72.8966C69.9805 74.4201 69.1961 75.8532 67.8536 77.1958C66.511 78.5383 65.2137 79.549 63.9616 80.2278C63.6298 79.9261 63.2074 79.5189 62.6945 79.006C62.1665 78.478 61.548 77.7841 60.8391 76.9242C61.1407 76.6225 61.5631 76.2605 62.1062 75.8381C62.1514 75.8834 62.2872 76.0191 62.5135 76.2454C62.7398 76.4717 63.0415 76.6678 63.4186 76.8337C63.8108 76.9846 64.1955 76.9921 64.5726 76.8564C65.0704 76.6603 65.5456 76.3359 65.9981 75.8834ZM69.7972 56.5619C68.8469 57.5122 69.0807 58.9227 70.4987 60.7932L72.1278 58.8925L73.1008 57.829C71.5621 56.3205 70.4609 55.8981 69.7972 56.5619ZM71.6527 62.083L71.6979 62.1282C74.0361 64.4664 76.0801 64.7605 77.8299 63.0107C78.7501 62.0905 79.5723 60.8158 80.2963 59.1866L81.6313 59.4808C81.6615 62.0754 80.764 64.2854 78.9387 66.1106C77.6866 67.3627 76.0876 68.1169 74.1417 68.3734C73.1913 68.5091 72.1957 68.4035 71.1549 68.0566C70.1291 67.6946 69.1863 67.0836 68.3264 66.2238C66.5766 64.4739 65.7469 62.5129 65.8374 60.3406C65.9128 58.1533 66.7651 56.2451 68.3943 54.6159C69.4804 53.5298 70.7325 52.8811 72.1505 52.6699C73.7646 52.4135 75.4088 53.1225 77.0832 54.7969C77.3246 55.2796 77.483 55.7397 77.5584 56.1772L71.6527 62.083ZM81.6771 44.9082C80.8475 45.7379 80.5081 46.5902 80.6589 47.4651C80.8248 48.325 81.6017 49.4488 82.9895 50.8366C85.3126 53.1597 87.1454 53.6499 88.488 52.3074C88.9707 51.8247 89.2875 51.2816 89.4383 50.6782L82.7632 44.0031C82.4163 44.2294 82.0543 44.5311 81.6771 44.9082ZM94.6426 50.4067C93.5565 51.4928 92.3799 51.9303 91.1128 51.7191C90.9317 53.3181 90.2982 54.6606 89.2121 55.7467C88.141 56.8178 86.6929 57.3759 84.8676 57.4212C83.0423 57.4363 81.2698 56.584 79.5502 54.8643C77.8154 53.1295 77.0536 51.1308 77.2648 48.868C77.4609 46.5902 78.5545 44.4557 80.5458 42.4645L80.8852 42.125L77.4684 38.7083C77.2723 38.8441 77.031 39.0553 76.7444 39.3419C76.4728 39.6134 76.2013 39.9 75.9298 40.2017C75.4169 39.6285 75.0624 39.1382 74.8663 38.7309C75.8317 36.7397 77.1517 34.8466 78.8261 33.0514L92.2215 46.4469C92.9607 47.186 93.5565 47.3293 94.0091 46.8768C94.0845 46.8014 94.3183 46.477 94.7105 45.9038L95.8193 46.3337C95.8494 46.9371 95.857 47.4274 95.8419 47.8045C95.7966 48.785 95.3969 49.6524 94.6426 50.4067Z" fill="#F21E1E"/>
</g>
</svg>
