<svg width="17" height="21" viewBox="0 0 17 21" fill="none" xmlns="http://www.w3.org/2000/svg">
<path d="M16.9224 1.69094V0.875C16.9224 0.642936 16.8328 0.420376 16.6734 0.256282C16.5141 0.0921874 16.2979 0 16.0725 0H0.927978C0.702581 0 0.486415 0.0921874 0.327036 0.256282C0.167656 0.420376 0.0781176 0.642936 0.0781176 0.875V1.69094C0.000567799 2.31273 -0.434455 6.65328 2.0397 9.60367C3.3607 11.1787 5.2458 12.0564 7.65037 12.221V19.25H3.40107C3.17567 19.25 2.95951 19.3422 2.80013 19.5063C2.64075 19.6704 2.55121 19.8929 2.55121 20.125C2.55121 20.3571 2.64075 20.5796 2.80013 20.7437C2.95951 20.9078 3.17567 21 3.40107 21H13.5994C13.8248 21 14.041 20.9078 14.2003 20.7437C14.3597 20.5796 14.4493 20.3571 14.4493 20.125C14.4493 19.8929 14.3597 19.6704 14.2003 19.5063C14.041 19.3422 13.8248 19.25 13.5994 19.25H9.35009V12.221C11.7547 12.057 13.6398 11.1787 14.9608 9.60367C17.4349 6.65328 16.9988 2.31273 16.9224 1.69094ZM1.76828 1.87742C1.77465 1.83527 1.77784 1.79266 1.77784 1.75H15.2226C15.2226 1.79266 15.2258 1.83527 15.2322 1.87742C15.3239 2.70727 15.3239 3.54515 15.2322 4.375H1.77146C1.67974 3.54521 1.67867 2.70745 1.76828 1.87742Z" fill="black"/>
</svg>
