<svg width="375" height="378" viewBox="0 0 375 378" fill="none" xmlns="http://www.w3.org/2000/svg">
<rect width="440" height="440" transform="translate(-22 -62)" fill="white"/>
<path d="M352.579 253.802C350.135 301.477 311.936 344.68 265.112 353.973C218.288 363.266 167.041 338.549 144.226 296.616C141.708 291.989 139.466 287.135 137.224 282.283C131.436 269.754 125.65 257.229 115.128 248.611C103.114 238.771 87.6639 236.139 72.0578 233.481C62.1478 231.793 52.1751 230.094 42.9799 226.533C20.8133 217.946 3.60202 197.604 -1.19583 174.322C-8.97078 136.593 15.6565 98.0723 48.4978 77.938C81.3392 57.8036 120.803 52.1961 159.082 47.8752C173.725 46.2223 185.619 35.1874 194.115 23.1466C197.403 18.4852 200.362 13.587 203.319 8.69248C208 0.944019 212.676 -6.79538 218.646 -13.5722C243.924 -42.2677 290.998 -47.1099 323.195 -26.4762C355.393 -5.84241 370.804 36.5866 362.242 73.8575C360.767 80.2769 358.673 86.5275 356.58 92.7787L356.58 92.7796C354.576 98.7634 352.572 104.748 351.11 110.881C347.985 123.99 347.389 137.556 347.033 151.027C346.609 167.089 346.509 183.193 348.014 199.191C348.537 204.755 349.254 210.313 349.971 215.87C351.601 228.497 353.23 241.118 352.579 253.802Z" fill="#7222F5" fill-opacity="0.32"/>
<path d="M159.028 36.4885C176.536 27.7786 190.471 12.6522 199.246 -4.82316C200.397 -7.11448 201.487 -9.54901 201.447 -12.1126C201.406 -14.6763 199.915 -17.3917 197.435 -18.0428C193.881 -18.9758 190.824 -15.5684 188.608 -12.6376C173.384 7.49527 151.225 23.3005 126.22 26.7475C116.617 28.0713 106.867 27.5741 97.1855 27.0743L82.0637 26.2935C69.8843 25.6647 57.5358 25.0485 45.6141 27.6185C33.6923 30.1885 22.0434 36.3694 15.4956 46.6581C13.4114 49.9331 11.8503 53.7924 12.427 57.6312C13.0179 61.565 15.8142 64.9039 19.1824 67.0203C22.5507 69.1367 26.4639 70.1955 30.342 71.0814C33.1814 71.73 36.0814 72.3046 38.9867 72.1C43.7367 71.7656 48.0471 69.4037 52.2413 67.1055C52.5207 66.9524 52.7996 66.7996 53.078 66.6477C60.4084 62.6486 68.0042 59.097 75.9266 56.4581C87.4795 52.6099 99.6275 50.7267 111.745 48.8482C128.07 46.3175 144.341 43.7952 159.028 36.4885Z" fill="#7222F5" fill-opacity="0.32"/>
<path d="M67.9814 268.525L67.9916 268.525C68.7052 268.554 69.4184 268.582 70.1296 268.62C81.38 269.205 92.5133 271.963 102.736 276.697C106.633 278.503 110.581 280.762 112.77 284.457C115.478 289.03 118.73 293.281 122.434 297.092C123.871 298.571 125.427 300.017 127.345 300.772C129.264 301.527 131.633 301.458 133.189 300.106C135.08 298.464 135.203 295.547 134.62 293.111C133.665 289.119 131.283 285.64 128.926 282.28C121.191 271.252 113.047 260.227 102.282 252.13C91.5178 244.034 77.6256 239.131 64.4494 241.928C59.8999 242.894 55.3909 244.862 52.3746 248.402C49.3582 251.942 48.1663 257.27 50.3387 261.383C52.0621 264.645 55.5559 266.653 59.1329 267.557C62.0159 268.286 65.0015 268.406 67.9807 268.525H67.9814Z" fill="#7222F5" fill-opacity="0.32"/>
<path d="M372.29 102.669C369.283 101.535 365.877 102.904 363.331 104.867C358.303 108.743 355.329 114.806 353.975 121.008C352.622 127.211 352.731 133.627 352.847 139.974L353.841 194.511C353.914 198.495 354.091 202.79 356.541 205.932C357.308 206.916 358.358 207.779 359.598 207.906C361.102 208.059 362.493 207.11 363.579 206.058C369.517 200.309 370.297 191.252 371.007 182.997L371.033 182.697C372.078 170.579 373.886 158.527 376.445 146.636C377.164 143.293 377.955 139.927 379.46 136.856C384.178 127.227 383.049 115.004 376.648 106.401C375.49 104.845 374.105 103.353 372.29 102.669Z" fill="#7222F5" fill-opacity="0.32"/>
<path d="M264.561 176.489C267.734 177.363 270.577 180.006 270.888 183.283C271.49 181.979 272.812 181.037 274.241 180.894L272.167 183.098L274.791 183.15L271.18 185.167C273.419 189.307 273.056 194.413 271.621 198.896C270.743 201.639 269.473 204.388 269.72 207.258C269.964 210.081 272.471 212.965 275.211 212.387L275.348 212.355C278.642 211.523 282.248 212.005 285.208 213.672C289.46 216.068 292.04 220.517 294.963 224.426C297.543 227.876 300.596 231.085 304.413 233.084C308.23 235.083 312.91 235.743 316.886 234.084C318.859 233.26 320.626 231.897 322.719 231.463C324.812 231.029 326.957 232.193 327.726 234.177C328.066 235.054 327.335 238.306 325.472 242.104C325.775 242.017 326.092 241.961 326.424 241.939C336.216 241.304 346.099 239.175 354.527 234.147C357.205 232.549 359.708 230.676 362.192 228.788L363.64 227.685L364.516 227.01C369.967 222.787 375.349 218.079 377.59 211.656L377.707 211.31L377.956 210.551C378.435 209.114 379.043 207.628 380.431 207.182C382.351 206.564 384.1 208.423 385.267 210.068L393.678 221.926C393.894 222.231 394.115 222.546 394.197 222.91C394.562 224.522 392.156 225.336 390.606 224.764C387.788 223.723 385.525 220.623 382.568 221.155C380.489 221.529 379.247 223.542 378.22 225.438L377.96 225.922C371.736 237.575 361.262 246.898 348.966 251.73C345.796 252.975 342.521 253.929 339.252 254.882L332.646 256.806L333.81 257.013C343.666 258.742 354.182 259.797 363.133 255.429C369.092 252.521 373.683 247.515 378.013 242.455L379.585 240.609L380.233 239.837C382.89 236.649 385.416 233.236 386.192 229.195C386.49 227.643 388.448 226.903 389.971 227.323C391.495 227.744 392.654 228.949 393.733 230.103L401.91 238.855C402.554 239.545 403.232 240.306 403.326 241.244C403.42 242.183 402.579 243.246 401.673 242.982L392.806 240.407C391.974 240.166 391.053 239.93 390.27 240.3C389.67 240.583 389.283 241.165 388.939 241.739L379.407 257.836C376.723 262.369 371.748 264.997 366.861 266.963C355.14 271.676 342.421 273.891 329.797 273.416C328.425 273.365 327.053 273.282 325.697 273.068C320.605 272.266 316.006 269.676 311.552 267.057C312.333 269.913 311.638 272.321 307 272.504C302.893 272.667 292.831 255.754 289.703 254.877C272.624 250.088 269.82 240.634 264.333 234.177C264.333 234.177 253.245 235.61 245.925 234.084C228.764 230.506 217.232 219.501 213.075 218.8C208.917 218.099 206.176 220.764 204.892 219.148L204.892 217.977C205.091 217.655 207.078 215.798 212.745 217.004C220.659 218.688 233.31 225.044 242.971 226.231C253.113 227.477 261.704 225.828 261.657 225.551C261.561 224.986 264.11 222.586 262.073 221.375C260.036 220.163 230.467 208.295 224.039 198.405L223.962 198.281C222.857 196.447 222.018 191.889 224.241 193.976L224.864 192.872C227.258 195.13 235.119 200.291 243.285 205.379C251.918 210.758 264.11 214.203 264.333 214.052C269.302 210.691 264.895 208.259 264.072 207.544C262.148 205.872 259.592 204.961 257.933 203.025C253.955 198.38 256.797 190.071 252.249 185.982C251.561 185.363 250.726 184.877 250.228 184.097C249.373 182.761 249.793 180.902 250.828 179.701C251.862 178.499 253.375 177.828 254.872 177.306C257.98 176.221 261.387 175.615 264.561 176.489Z" fill="white"/>
<ellipse cx="267.227" cy="200.24" rx="1.17334" ry="1.17332" fill="#FFB61D"/>
<ellipse cx="260.073" cy="200.24" rx="0.870132" ry="1.17332" fill="#FFB61D"/>
<path d="M217.553 205.926C206.644 203.105 195.179 202.454 184.02 204.022C184.864 199.852 185.921 195.725 187.185 191.662C183.555 192.834 179.268 189.507 179.503 185.699C179.738 181.891 184.401 179.115 187.86 180.724C189.048 177.982 189.123 174.777 188.065 171.982C187.558 170.641 189.581 169.868 191.015 169.868L198.936 169.866C200.043 169.866 201.587 169.351 201.312 168.279C200.66 165.735 202.409 162.829 204.961 162.215C207.468 161.612 210.289 163.328 210.937 165.815L210.97 165.954C211.572 168.625 214.955 169.473 217.693 169.42L219.055 169.388C221.423 169.338 223.891 169.415 225.475 171.071C227.371 173.052 226.947 176.206 226.322 178.895L226.281 179.074C225.395 182.806 224.452 186.525 223.45 190.228C225.395 205.887 220.577 206.708 217.553 205.926Z" fill="white"/>
<path d="M126.565 192.851C125.409 185.325 125.41 177.621 126.57 170.095L126.629 169.731C126.916 168.023 127.422 166.22 128.849 165.279C129.917 164.575 131.267 164.522 132.554 164.521L142.407 164.549C142.855 164.55 143.347 164.566 143.684 164.862C144.021 165.158 144.012 165.837 143.58 165.957C142.548 166.242 141.954 167.433 142.08 168.496C142.205 169.56 142.897 170.481 143.709 171.179C145.645 172.844 148.656 173.435 150.8 172.047C152.944 170.659 153.448 167.083 151.416 165.535C156.019 165.441 160.623 165.456 165.225 165.578L166.951 165.629C167.508 165.647 168.125 165.692 168.515 166.091C168.807 166.391 168.903 166.827 168.97 167.241C169.479 170.426 168.922 173.773 167.408 176.622C167.166 177.076 166.608 177.576 166.227 177.231C164.611 175.763 161.891 175.963 160.237 177.388C158.582 178.813 157.943 181.181 158.235 183.345C158.516 185.428 160.035 187.653 162.134 187.547C163.787 187.465 165.626 186.019 166.875 187.105L164.77 196.51C164.396 198.18 163.725 200.162 162.051 200.52C152.386 202.588 142.252 202.431 132.656 200.067L132.19 199.949C131.026 199.644 129.865 199.25 128.957 198.472C127.375 197.118 126.881 194.909 126.565 192.851Z" fill="white"/>
<path d="M202.391 119.05L225.747 119.519L226.128 119.529C226.83 119.551 227.536 119.612 228.168 119.907C229.596 120.573 230.25 122.216 230.684 123.73C233.002 131.815 232.716 140.624 229.879 148.541L229.759 148.865C229.39 149.839 228.907 150.81 228.035 151.359C227.318 151.81 226.443 151.904 225.592 151.949L225.41 151.958C221.937 152.123 218.452 152.034 214.992 151.693C216.794 150.584 217.249 147.883 216.104 146.103C214.96 144.323 212.543 143.58 210.507 144.158C209.266 144.51 208.111 145.358 207.662 146.567C207.213 147.776 207.647 149.329 208.793 149.92C209.587 150.328 209.45 151.614 208.755 152.174C208.061 152.734 207.096 152.774 206.204 152.788L194.486 152.978C193.605 152.993 192.679 152.996 191.906 152.574C190.809 151.976 190.305 150.687 189.996 149.477C189.251 146.556 189.15 143.473 189.703 140.51C190.369 142.85 193.253 144.271 195.514 143.374C197.775 142.477 198.9 139.465 197.781 137.305C196.662 135.145 193.553 134.328 191.516 135.658L191.431 134.903C191.139 132.257 190.912 129.576 191.42 126.969C191.976 124.115 193.564 121.311 196.167 120.014C198.066 119.068 200.258 119.016 202.391 119.05Z" fill="white"/>
<path d="M131.555 145.322C128.266 145.335 124.977 145.2 121.7 144.917L121.382 144.887C120.208 144.77 118.978 144.536 118.209 143.663C117.171 142.485 117.425 140.709 117.736 139.156L117.768 139.001C119.16 132.184 119.707 125.195 119.393 118.244L119.335 117.046C119.247 114.891 119.385 112.448 121.175 111.339C121.72 111.002 122.352 110.846 122.982 110.719L123.192 110.677C134.653 108.445 146.587 108.671 157.955 111.336C159.452 111.687 159.869 113.715 159.373 115.17C158.876 116.626 157.81 117.849 157.411 119.334C157.012 120.819 157.743 122.829 159.28 122.877C162.479 122.977 165.19 126.226 164.76 129.397C164.33 132.568 160.903 134.973 157.765 134.343C157.029 134.196 156.769 135.284 156.849 136.03L157.745 144.308C157.891 145.659 155.974 146.086 154.619 145.98L146.715 145.365C145.473 145.268 143.807 145.482 143.616 146.713C143.14 149.778 139.998 152.171 136.917 151.815C133.836 151.46 131.321 148.414 131.555 145.322Z" fill="white"/>
<path fill-rule="evenodd" clip-rule="evenodd" d="M110.279 196.264C111.156 196.477 112.412 196.856 112.342 197.685C110.939 214.4 104.897 211.324 99.5099 216.116C98.0864 217.383 97.2358 220.378 96.6243 220.447C98.8915 221.494 102.182 225.695 107.844 225.887C123.621 226.422 129.363 214.91 129.363 214.91C129.734 211.218 127.862 204.571 130.199 206.432C131.812 207.717 131.493 201.457 133.696 202.081C134.359 202.268 133.202 206.43 133.696 206.679C133.97 206.817 134.373 205.682 135.078 204.779C135.666 204.027 136.572 203.469 136.76 203.633C136.887 203.745 136.765 204.821 136.236 205.731C135.492 207.01 134.249 208.241 134.423 208.446C134.614 208.672 137.894 205.62 138.094 205.887C139.421 207.657 131.016 228.032 116.833 231.878L115.71 232.18C107.442 234.377 103.97 234.676 96.3096 231.878C92.6775 230.552 90.4185 242.943 88.3996 247.067C87.1248 249.671 80.9331 256.054 78.1057 254.123C74.3754 251.577 71.3337 246.837 68.1593 244.44L67.9553 244.29C65.7919 242.739 60.8988 240.385 53.2758 237.228L53.6192 237.07C55.2097 236.347 59.3063 234.579 62.4518 231.878C66.9212 228.041 69.3418 219.799 72.4575 215.353C75.5337 210.965 79.6618 211.611 77.1704 210.834C77.1704 210.834 70.8574 207.49 67.9553 207.184C58.2632 206.161 45.6283 210.741 41.5864 213.693C36.0404 217.743 41.5506 223.704 33.8876 220.782C31.3336 219.809 38.1789 207.195 47.6212 202.081C60.7457 194.972 73.1555 193.016 85.5973 204.333C90.6608 208.938 91.1619 213.038 92.5198 216.164L92.2419 215.398C107.251 214.408 84.7624 199.381 103.537 195.621C105.509 195.226 107.578 195.637 109.555 196.094L110.279 196.264Z" fill="white"/>
<ellipse cx="100.613" cy="206.693" rx="1.17333" ry="1.17334" fill="#FFB61D"/>
<ellipse cx="107.067" cy="209.04" rx="1.17333" ry="1.17332" fill="#FFB61D"/>
<path fill-rule="evenodd" clip-rule="evenodd" d="M38.9507 252.197C51.6688 261.003 35.3963 248.839 49.2923 263.335C52.0985 266.263 66.3064 249.544 67.7721 259.452C68.3067 263.066 67.1409 266.828 67.8516 270.412C68.5148 273.756 83.0586 271.748 84.1821 270.286C88.2544 264.984 75.5808 251.365 72.9234 249.188C58.0943 237.041 53.2008 237.883 39.3449 250.452L38.9507 252.197Z" fill="white"/>
<path fill-rule="evenodd" clip-rule="evenodd" d="M369.797 32.0747C372.292 32.3729 374.611 32.6502 374.611 29.7427C374.611 29.051 366.216 22.9742 363.728 25.3144C360.529 28.3238 357.988 31.7747 355.527 35.1174C350.361 42.1347 345.546 48.6747 335.729 49.649L335.61 49.6621C331.805 50.1217 338.895 53.4993 346.857 49.649C352.332 47.0017 359.615 38.6266 363.075 34.6487C363.98 33.6077 364.623 32.8678 364.904 32.6105L364.976 32.5487C366.155 31.6394 368.021 31.8624 369.797 32.0747ZM381.64 39.9435L389.947 46.5371C391.566 47.8217 389.671 50.5899 387.609 50.7225C386.412 50.7995 385.265 50.4314 384.112 50.0613C383.277 49.7936 382.44 49.5249 381.578 49.423C376.7 48.8463 372.981 53.4405 369.955 57.3099C367.19 60.8459 364.162 64.1765 360.904 67.2652L360.464 67.6791L360.004 68.1016C357.384 70.4838 354.445 72.6416 350.988 73.2633C345.898 74.1788 340.842 71.5725 336.685 68.4968C335.67 67.7462 334.674 66.9588 333.677 66.171C330.589 63.7307 327.496 61.2862 323.834 59.9163C320.661 61.6479 317.691 63.7403 314.979 66.1272L315.1 66.032C319.653 70.5957 322.837 76.5086 324.141 82.822L323.27 82.669L322.695 82.571C317.315 81.6688 311.553 81.1349 307.006 84.0142C305.403 85.0289 303.974 86.4458 302.561 87.8468L302.561 87.8469C301.577 88.8223 300.601 89.7899 299.58 90.6088C299.839 90.7629 300.105 90.9231 300.377 91.0894C305.408 93.1475 310.741 94.4656 316.152 94.9883C316.979 95.0682 317.814 95.1317 318.653 95.1954H318.653H318.653H318.653H318.653H318.653C322.534 95.4901 326.465 95.7887 329.782 97.7372L330.945 98.4325C332.812 99.5377 334.89 100.589 336.454 99.3099C336.904 98.9419 337.198 98.4374 337.494 97.9306C337.674 97.6223 337.854 97.313 338.07 97.0332C338.642 96.2934 339.775 95.7727 340.486 96.3804L340.774 98.6411C340.983 97.1867 342.386 96.0045 343.855 96.0453C345.323 96.0861 346.659 97.3445 346.787 98.8082C347.019 101.465 344.007 103.055 341.45 103.901L328.198 108.172C323.463 109.698 318.213 108.907 313.648 106.929C309.398 105.087 305.649 102.284 302.066 99.3385L301.272 98.6818C298.566 96.4301 294.909 93.984 291.838 95.7062C297.173 96.0306 301.064 100.628 304.245 104.976L304.551 105.395C305.066 106.105 305.596 106.853 305.724 107.721C306.08 110.15 303.32 111.763 300.989 112.536C302.953 113.588 301.98 116.643 300.458 118.271C298.243 120.638 295.343 122.342 292.215 123.186L291.929 124.174C291.911 124.241 291.903 124.276 291.905 124.277C293.38 124.174 294.29 126.156 293.689 127.508C293.088 128.859 291.604 129.578 290.181 129.981C285.491 131.307 280.194 130.261 276.361 127.251L275.615 127.64C272.376 129.316 269.026 130.875 265.426 131.404C261.55 131.973 257.282 131.174 254.479 128.435L254.664 128.839C255.06 129.717 255.416 130.627 255.429 131.585C255.444 132.69 254.872 133.883 253.826 134.237C252.098 134.822 250.589 132.976 249.693 131.388C249.202 132.611 249.708 133.987 250.201 135.325C250.762 136.851 251.306 138.327 250.329 139.47C249.313 140.66 247.384 140.355 245.984 139.653C240.743 137.024 238.281 130.407 239.416 124.654C240.551 118.901 244.688 114.083 249.614 110.901C246.27 108.45 243.823 104.801 242.826 100.776C243.092 101.118 244.278 100.016 245.962 98.451L245.962 98.4509L245.962 98.4508C249.043 95.5871 253.792 91.1726 257.63 91.2138C258.365 91.2216 259.552 91.7905 260.715 92.3476C261.557 92.7511 262.386 93.1484 263.022 93.3222C263.075 93.2543 263.139 93.1928 263.212 93.1391L262.486 92.6175C261.025 91.5801 259.501 90.6043 257.771 90.1743C255.754 89.6728 253.365 90.0855 252.079 91.7195C248.936 95.7151 244.954 99.0474 240.467 101.437L243.127 106.347C242.027 106.873 240.658 106.776 239.637 106.114L239.512 106.029L239.591 106.127C241.123 108.125 239.776 111.609 237.269 112.004C234.723 113.072 232.157 109.882 232.407 107.134C232.583 105.207 233.537 103.5 234.493 101.79C234.901 101.06 235.31 100.329 235.658 99.5803C236.835 97.0517 237.353 94.2428 237.867 91.4517C238.571 87.6261 239.27 83.8341 241.652 80.8439C243.32 78.7495 245.656 77.2933 248.052 76.0989C257.562 71.359 268.817 70.2256 279.081 72.974C280.829 66.7106 284.295 60.9357 289 56.4468L289.28 56.1837C291.08 54.5254 293.319 53.0438 295.706 53.3158L295.895 53.3409C298.266 53.7025 300.327 51.8731 302.05 50.18L302.581 49.6585L302.997 49.2575C306.417 45.9917 310.386 42.9777 315.057 42.6525C319.213 42.3633 323.192 44.2714 326.779 46.3899C330.837 48.7866 334.698 51.5186 338.308 54.5486L338.943 55.0864C339.11 55.2296 339.278 55.3739 339.447 55.5189L339.453 55.5247C342.858 58.4493 346.584 61.6494 351.016 61.3842C355.56 61.1123 358.88 57.3402 361.939 53.8643L361.939 53.8636C362.187 53.5826 362.432 53.3036 362.677 53.0285C366.45 48.7808 370.747 45.0412 375.096 41.3782L376.961 39.8117C377.526 39.3385 378.133 38.8457 378.864 38.7508C379.892 38.6174 380.829 39.2991 381.64 39.9435ZM299.511 111.946C298.587 111.762 297.328 111.842 295.731 112.187C296.782 112.191 297.667 112.172 298.386 112.131C298.734 112.087 299.08 112.033 299.42 111.965L299.511 111.946ZM265.306 91.6073C265.643 91.2616 265.998 90.897 266.392 90.5852C267.126 90.1986 267.951 90.0023 268.783 90.0813C271.597 90.3486 273.728 93.3415 273.36 96.1441C271.875 99.8252 268.199 101.926 264.563 104.003C262.323 105.283 260.098 106.554 258.411 108.18C258.835 107.482 259.298 106.924 259.768 106.582C261.235 105.514 262.77 104.588 264.216 103.715L264.217 103.715C265.432 102.982 266.585 102.286 267.584 101.575C269.156 100.456 270.211 99.3925 271.029 98.5685C271.654 97.9384 272.141 97.4482 272.613 97.1801C272.652 97.1581 274.425 93.5634 270.138 91.2138C266.901 89.4398 265.459 91.6841 264.684 92.8901C264.432 93.2814 264.251 93.5634 264.102 93.5634C264.063 93.5634 264.009 93.5574 263.941 93.5456C264.048 93.1628 264.211 92.7934 264.419 92.4474C264.71 92.2187 265 91.9208 265.306 91.6073ZM266.221 90.6802C265.485 91.1067 264.853 91.7262 264.419 92.4474L264.313 92.5283C264.099 92.6833 263.885 92.7974 263.664 92.8496C263.219 92.9546 262.158 92.1407 261.259 91.4513L261.259 91.4512C260.722 91.039 260.242 90.6713 259.987 90.5713C258.307 89.9123 258.11 89.903 256.945 89.8477C256.748 89.8384 256.523 89.8277 256.26 89.8124L255.776 89.7822C255.671 89.7761 255.553 89.7712 255.429 89.7659C254.463 89.7254 253.074 89.667 253.351 88.9161C258.315 75.4799 279.526 72.5559 276.019 87.7444C275.729 89.0002 274.968 90.0994 274.206 91.1986L274.206 91.1988C273.826 91.7483 273.445 92.2979 273.123 92.867C271.753 90.9194 270.259 89.8927 268.643 89.787C267.742 89.728 267.019 90.0899 266.392 90.5852L266.221 90.6802ZM304.695 78.6264L304.7 78.6187C303.532 80.8377 302.279 83.5085 300.939 86.6312C301.947 83.8567 303.208 81.1764 304.695 78.6264ZM314.153 80.6728L313.99 80.6789C312.696 80.7333 311.535 80.927 310.507 81.2599C309.367 81.6294 308.153 82.2472 306.867 83.1133C309.118 81.8665 311.606 81.0324 314.153 80.6728Z" fill="white"/>
<path fill-rule="evenodd" clip-rule="evenodd" d="M247.97 136.946C246.953 138.136 245.479 137.752 244.129 136.436C241.303 133.681 240.167 128.366 241.303 122.613C242.438 116.86 246.864 114.489 251.79 111.308C249.579 110.398 245.575 104.625 245.173 99.0158C246.536 100.774 246.607 103.929 247.97 105.687C249.263 107.355 251.846 109.386 253.139 111.054C253.304 111.267 253.446 111.625 253.212 111.759C248.49 114.441 245.43 115.328 242.645 122.612C239.86 129.896 245.514 136.634 246.266 136.436C247.191 136.191 246.863 134.963 246.332 134.167C244.832 131.921 246.259 128.926 247.481 126.518C248.135 127.251 246.563 129.353 246.894 131.538C247.218 133.672 248.875 135.886 247.97 136.946Z" fill="#E7EAEE"/>
<ellipse cx="267.227" cy="112.827" rx="1.17334" ry="1.17333" fill="#FFB61D"/>
<ellipse cx="263.12" cy="108.133" rx="1.17331" ry="1.17333" fill="#FFB61D"/>
<path d="M87.6543 119.657C88.3326 120.923 87.2663 122.733 85.8301 122.753C84.6001 115.839 83.2739 108.685 79.2717 102.915C71.6084 91.8653 55.8168 88.2362 49.2558 76.499C44.7884 79.6786 37.9575 78.868 34.3583 74.7313C32.1199 72.1586 28.2182 71.8428 24.8567 72.4168C21.4952 72.9908 18.2111 74.2596 14.8026 74.1517C13.3236 74.105 11.7123 73.7072 10.8515 72.5036C9.99074 71.3 10.488 69.1818 11.9528 68.9721C18.3342 68.0587 24.7157 67.1453 31.0971 66.2318C31.5983 66.1601 32.1301 66.0748 32.5105 65.7408C32.9409 65.363 33.0761 64.7588 33.1878 64.1971C34.1116 59.5476 34.7772 54.0049 31.3536 50.7263C28.5162 48.009 24.0378 48.1028 20.183 48.8608C16.3281 49.6189 12.3553 50.8661 8.55622 49.8651C4.75719 48.8641 1.58011 44.3513 3.62813 40.9986C4.99984 38.7531 3.45313 35.7584 1.33724 34.1941C-0.778656 32.6298 -3.41183 31.8593 -5.46271 30.2107C-7.51358 28.5621 -8.81515 25.3811 -7.18158 23.3183C-6.46314 22.411 -5.33821 21.933 -4.23455 21.5849C-0.581886 20.4326 3.49101 20.3447 7.01193 21.8523C10.5329 23.3599 13.3921 26.5912 13.9651 30.3782C14.4319 33.4634 13.5449 37.0526 15.5845 39.4141C18.251 42.5016 23.1795 40.7699 27.2589 40.7327C31.4312 40.6947 35.5571 42.9069 37.8345 46.4031C40.1118 49.8992 40.4676 54.5672 38.7464 58.3681C43.5928 53.4371 50.1203 49.6545 57.0295 49.912C63.4111 50.1498 69.2748 53.8205 73.5429 58.5708C77.811 63.3211 80.7227 69.1065 83.5777 74.8188C84.6414 76.947 87.3394 78.1004 89.6128 77.3989C91.8861 76.6973 93.465 74.2241 93.1444 71.8666C95.1257 72.2985 95.332 74.9768 95.3931 77.0037C95.5214 81.2622 97.0635 85.4663 99.7192 88.7978C100.608 87.159 101.286 85.4061 101.731 83.5959C103.669 85.8245 104.393 89.0502 103.591 91.8931C102.79 94.7361 100.489 97.1093 97.6718 97.9976C96.1727 98.4703 94.3399 98.6975 93.5959 100.082C96.4069 105.004 98.8247 110.151 100.819 115.457C101.888 118.302 102.659 121.964 100.409 124.006C97.8068 122.085 96.3281 119.038 94.9476 116.113C92.7941 111.551 90.6406 106.988 88.4871 102.425" fill="white"/>
<path fill-rule="evenodd" clip-rule="evenodd" d="M94.7573 73.9854C94.1919 79.5102 96.2598 85.2469 100.22 89.1402C101.633 88.288 102.535 86.6525 102.504 85.0033C103.988 87.4436 103.157 90.7528 101.311 92.9327C99.466 95.1125 96.8181 96.4195 94.2488 97.6668C92.7766 98.3815 91.2481 99.1106 89.6123 99.1595C87.1167 99.234 84.8808 97.7332 82.8403 96.2945L76.8535 92.0733C79.9465 97.8452 86.987 101.206 93.4199 99.982C97.8935 106.258 100.633 113.757 101.257 121.438L100.055 119.217C100.044 119.189 100.029 119.162 100.011 119.136L100.055 119.217C100.228 119.643 99.5518 120.114 99.0968 119.894C98.6128 119.659 98.4302 119.076 98.2872 118.558C96.526 112.172 93.3697 106.174 89.1031 101.106L95.5635 114.794C96.9441 117.718 98.4227 120.766 101.025 122.687C103.275 120.644 102.504 116.983 101.435 114.137C99.4407 108.831 97.0229 103.685 94.2119 98.7626C94.816 97.6381 96.1383 97.277 97.4167 96.9278C97.7125 96.847 98.0061 96.7669 98.2878 96.678C101.105 95.7897 103.406 93.4165 104.207 90.5735C105.009 87.7306 104.285 84.5049 102.347 82.2763C101.901 84.0865 101.224 85.8393 100.335 87.4782C97.6794 84.1467 96.1373 79.9426 96.009 75.684C95.948 73.6572 95.7416 70.9789 93.7604 70.547C94.0809 72.9045 92.5021 75.3777 90.2287 76.0792C87.9553 76.7808 85.2573 75.6274 84.1937 73.4992C81.3386 67.7869 78.427 62.0015 74.1589 57.2512C69.8907 52.5009 64.0271 48.8302 57.6454 48.5924C50.7363 48.3349 44.2088 52.1175 39.3624 57.0485C41.0836 53.2476 40.7278 48.5796 38.4504 45.0834C36.173 41.5873 32.0472 39.3751 27.8749 39.4131C26.8165 39.4228 25.7011 39.5465 24.5828 39.6705L24.5828 39.6705L24.5827 39.6705C21.3904 40.0245 18.1752 40.381 16.2004 38.0945C14.8057 36.4796 14.7795 34.2906 14.7531 32.0812C14.7409 31.0598 14.7286 30.034 14.5811 29.0586C14.0081 25.2716 11.1488 22.0403 7.62789 20.5327C4.10696 19.0251 0.0340648 19.113 -3.6186 20.2652C-4.72226 20.6134 -5.84719 21.0914 -6.56563 21.9986C-8.1992 24.0615 -6.89763 27.2425 -4.84676 28.8911C-3.76738 29.7588 -2.52671 30.3832 -1.28505 31.0081L-1.28505 31.0081C-0.167479 31.5706 0.950893 32.1335 1.95319 32.8745C4.06909 34.4388 5.61579 37.4335 4.24408 39.679C2.19606 43.0317 5.37314 47.5445 9.17217 48.5455C12.3126 49.373 15.5719 48.6641 18.7851 47.9653L18.7853 47.9652C19.4591 47.8187 20.1308 47.6726 20.7989 47.5412C24.6538 46.7831 29.1321 46.6894 31.9696 49.4066C35.3932 52.6853 34.7275 58.228 33.8037 62.8774C33.6921 63.4392 33.5569 64.0434 33.1264 64.4212C32.746 64.7552 32.2142 64.8405 31.7131 64.9122L12.5688 67.6525C11.104 67.8622 10.6067 69.9804 11.4674 71.184C12.3282 72.3876 13.9396 72.7853 15.4186 72.8321C17.6799 72.9037 19.8866 72.3692 22.0974 71.8338C23.2188 71.5622 24.3414 71.2904 25.4726 71.0972C28.8341 70.5232 32.7359 70.839 34.9743 73.4117C38.5734 77.5484 45.4044 78.359 49.8717 75.1794C53.3242 81.3556 59.3326 85.2867 65.3676 89.2353C70.8014 92.7905 76.2568 96.3599 79.8876 101.595C83.8898 107.365 85.2161 114.52 86.4461 121.434C87.8822 121.413 88.9486 119.603 88.2702 118.337L86.9208 120.117C86.4224 109.22 80.8568 98.6588 72.1495 92.0878C69.9932 90.4605 67.6285 89.034 65.269 87.6106C60.0842 84.4828 54.9239 81.3698 52.053 76.1744C51.7945 75.7064 51.5537 75.211 51.5119 74.678C51.4589 74.0037 51.7277 73.3537 51.9871 72.7262L52.0241 72.6367C53.059 70.1261 53.7818 67.3713 53.2735 64.7039C52.7652 62.0364 50.757 59.5141 48.0714 59.1127C52.6173 62.0204 53.5492 69.2365 49.8911 73.2036C46.2331 77.1708 38.9652 76.826 35.6991 72.5304C33.0816 69.0877 27.8474 69.5092 23.6344 70.4856C19.4213 71.462 14.4599 72.4838 11.2053 69.6358C18.1683 67.7213 25.3333 66.5425 32.5427 66.1253C34.2601 66.026 34.9338 63.8836 35.1651 62.1789C35.5207 59.5584 35.8763 56.8957 35.4867 54.28C35.0971 51.6643 33.8539 49.055 31.6343 47.6174C28.9689 45.8909 25.528 46.1585 22.3695 46.489L13.976 47.3672C12.1674 47.5564 10.3088 47.742 8.55529 47.2604C6.80179 46.7788 5.15193 45.4714 4.81572 43.6843C4.60337 42.5556 4.9265 41.4442 5.25226 40.3237C5.48678 39.517 5.72267 38.7056 5.76113 37.8797C5.87064 35.528 4.35141 33.3732 2.50539 31.9122C1.37436 31.017 0.11407 30.3126 -1.1474 29.6076L-1.14741 29.6076L-1.14742 29.6076L-1.14743 29.6076L-1.14744 29.6076L-1.14745 29.6076L-1.14747 29.6076L-1.14748 29.6076L-1.14753 29.6075C-1.94493 29.1619 -2.74281 28.7159 -3.5088 28.2214C-4.9507 27.2904 -6.43015 25.7863 -6.02923 24.1174C-5.77284 23.0502 -4.80707 22.3104 -3.83612 21.7986C-0.557889 20.0705 3.5397 19.9928 6.88108 21.5954C10.2225 23.198 12.7269 26.442 13.4314 30.0803C13.6052 30.9777 13.6842 31.9152 13.763 32.8507C13.9453 35.0146 14.1268 37.1684 15.4788 38.7943C17.0939 40.7364 19.8851 41.2256 22.4082 41.1054C23.2732 41.0642 24.1382 40.9673 25.0025 40.8705C26.6589 40.685 28.3128 40.4997 29.9596 40.7071C35.4973 41.4046 39.8604 47.1664 39.0303 52.6858C38.9844 52.9909 38.9253 53.2989 38.866 53.6077C38.6547 54.7088 38.4414 55.8204 38.8174 56.8546C39.299 58.1788 41.4054 58.884 42.0728 57.643C45.0632 52.0823 51.922 49.2806 58.193 50.0151C64.464 50.7495 70.076 54.5255 74.1931 59.3123C78.3102 64.0992 81.1109 69.8596 83.6652 75.6337C84.5649 77.6675 87.2435 78.404 89.3835 77.7989C91.5236 77.1938 93.2217 75.594 94.7573 73.9854ZM83.5197 83.6769C83.5805 83.6683 83.7215 83.9445 83.9342 84.3609C84.4577 85.3855 85.4149 87.2592 86.677 87.8291C86.6209 88.3601 85.7859 88.0758 85.4387 87.6702C84.4518 86.517 83.4045 85.1904 83.5197 83.6769ZM86.4989 92.7786C87.1503 93.7333 83.2488 94.2084 81.9519 93.3755C82.1803 93.3315 82.4812 93.3549 82.8145 93.3808C83.2097 93.4116 83.6504 93.4458 84.0691 93.3755C84.6821 93.2724 85.274 93.0842 85.7208 92.9421L85.7209 92.9421L85.7211 92.942L85.7212 92.942L85.7213 92.9419C86.1549 92.804 86.4518 92.7096 86.4989 92.7786ZM85.5623 89.2308C84.0092 89.4971 82.1012 87.4286 82.1012 85.483C82.5488 86.9214 84.1391 88.0625 85.0178 88.693C85.4649 89.0138 85.7278 89.2024 85.5623 89.2308ZM91.1268 97.366C89.0582 97.366 88.1206 93.878 89.0582 93.6539C89.2826 93.5522 89.2932 93.8646 89.3087 94.3259C89.3251 94.811 89.3471 95.4607 89.6291 95.9667C89.9423 96.5289 90.6057 96.9045 90.9929 97.1238C91.2856 97.2896 91.4205 97.366 91.1268 97.366ZM93.4312 92.6165C93.8853 92.8666 94.2997 93.2546 94.4172 93.7595C94.5348 94.2645 94.2524 94.8766 93.7448 94.9819C93.5858 94.7481 93.672 94.5996 93.7629 94.443C93.8964 94.2129 94.0401 93.9653 93.4312 93.4043C93.1749 93.1681 92.8764 93.0654 92.6671 92.9934C92.506 92.9379 92.3976 92.9006 92.4017 92.8346C92.428 92.415 93.0629 92.4137 93.4312 92.6165ZM89.5594 88.0711C89.457 88.1423 89.3866 88.1912 89.447 88.2474C89.634 88.4212 89.8538 88.5043 90.0736 88.3781C90.2412 88.2818 90.3262 88.0865 90.3657 87.8973C90.5865 86.8405 89.4705 85.7491 88.4188 85.9934C88.5121 86.2393 88.6908 86.318 88.9077 86.4136C89.158 86.5238 89.4591 86.6565 89.7387 87.0942C90.1157 87.6844 89.7699 87.9248 89.5594 88.0711ZM89.2058 98.0331C87.9878 97.6785 86.7833 94.8021 87.4318 94.5842C87.8362 94.4483 87.8339 94.4701 87.8104 94.6977C87.7888 94.9061 87.7494 95.287 87.9878 95.8774C88.2837 96.6104 88.6982 97.2053 88.9621 97.5841C89.143 97.8437 89.2532 98.0018 89.2058 98.0331ZM368.178 32.7279C365.563 33.049 363.503 35.158 362.203 37.4497C361.575 38.5579 361.072 39.7306 360.569 40.9031C360.032 42.1554 359.495 43.4074 358.805 44.5803C355.515 50.1761 349.263 53.2348 343.272 55.7345C342.239 56.1655 340.429 55.9628 340.752 54.8908C350.56 53.0296 359.004 45.2637 361.678 35.6447C361.993 34.5116 360.519 33.5552 359.382 33.8548C358.353 34.126 357.62 34.9842 356.959 35.8358L356.753 36.1038C351.289 43.2101 343.446 49.218 334.49 49.6059C333.856 49.6333 332.95 49.2466 333.229 48.6766C339.861 48.4543 346.114 45.1805 351.039 40.7322C355.964 36.2839 359.72 30.7085 363.234 25.0783C363.777 24.2074 365.082 24.3936 366.054 24.7249C369.035 25.7416 371.895 27.1129 374.555 28.8009C375.982 29.707 374.851 32.1247 373.228 32.5988C372.295 32.8713 371.321 32.8051 370.343 32.7387C369.619 32.6895 368.892 32.6402 368.178 32.7279ZM365.631 27.1826L365.402 27.1132C364.704 26.9131 363.925 26.8021 363.363 27.2352C363.146 27.4031 362.99 27.6348 362.847 27.8713L360.98 31.0188C361.96 31.2455 362.899 31.6469 363.74 32.1985C364.427 32.6492 365.374 32.6665 366.077 32.2412C366.78 31.816 367.204 30.9695 367.124 30.1518C367.094 29.8468 367.594 29.7639 367.802 29.9882C367.958 30.1559 368.005 30.3858 368.051 30.6149L368.052 30.6154L368.052 30.6158L368.052 30.6162L368.052 30.6166L368.052 30.6169C368.067 30.6938 368.083 30.7706 368.103 30.8449C368.181 31.1411 368.423 31.4601 368.724 31.3992C369.028 31.1098 369.195 30.6811 369.165 30.2619C369.274 29.8294 369.949 30.215 370.054 30.6486C370.158 31.0822 370.354 31.6989 370.785 31.583C371.418 31.4266 371.617 30.5448 371.308 29.9702C371 29.3956 370.379 29.0707 369.787 28.7965C368.438 28.1713 367.049 27.6319 365.631 27.1826ZM359.958 32.2996C360.932 33.2803 362.35 33.8021 363.728 33.6871C362.883 32.6236 361.447 32.068 360.106 32.2736L359.958 32.2996ZM290.181 129.981C285.491 131.307 280.194 130.261 276.361 127.251C272.89 129.07 269.303 130.834 265.426 131.404C261.55 131.973 257.282 131.174 254.479 128.435C254.943 129.439 255.414 130.48 255.429 131.585C255.444 132.69 254.872 133.883 253.826 134.237C252.098 134.822 250.589 132.976 249.693 131.388C249.202 132.611 249.708 133.987 250.201 135.325C250.762 136.851 251.306 138.327 250.329 139.47C249.312 140.66 247.384 140.355 245.984 139.653C240.743 137.024 238.28 130.407 239.416 124.654C240.551 118.901 244.688 114.083 249.614 110.901C246.27 108.45 243.823 104.801 242.826 100.776C243.508 101.655 244.013 102.676 244.518 103.697L244.518 103.697L244.518 103.697L244.518 103.697L244.518 103.698C245.023 104.719 245.529 105.74 246.21 106.618C246.856 107.453 247.679 108.145 248.501 108.836L248.501 108.837C249.324 109.528 250.146 110.22 250.792 111.054C250.957 111.267 251.1 111.625 250.865 111.759C246.143 114.441 242.104 118.714 240.764 123.977C239.424 129.24 241.288 135.452 245.913 138.299C246.728 138.801 247.7 139.204 248.625 138.96C249.551 138.715 250.245 137.553 249.713 136.757C248.214 134.511 248.031 131.45 249.254 129.042L253.129 133.387C254.02 133.158 254.24 131.96 254.003 131.071C253.928 130.789 253.825 130.511 253.722 130.233C253.501 129.635 253.28 129.039 253.34 128.414C253.427 127.498 254.622 126.679 255.253 127.348C257.773 130.019 261.822 130.776 265.447 130.188C269.072 129.6 272.392 127.861 275.639 126.146L279.471 124.122C279.195 125.227 278.299 126.156 277.204 126.471C280.903 129.128 285.85 129.963 290.217 128.668C290.969 128.444 291.741 128.136 292.229 127.521C292.717 126.906 292.796 125.907 292.207 125.389C292.135 125.325 292.054 125.27 291.974 125.214C291.816 125.106 291.66 124.997 291.569 124.832C291.433 124.582 291.644 124.162 291.905 124.277C293.38 124.174 294.29 126.156 293.689 127.508C293.088 128.859 291.604 129.578 290.181 129.981ZM263.998 110.366C263.156 110.095 262.21 110.676 261.844 111.482C261.478 112.288 261.582 113.235 261.859 114.075C261.947 113.127 262.067 112.412 262.426 111.789C262.581 111.52 263.06 111.267 263.481 111.044C264.026 110.756 264.473 110.519 263.998 110.366ZM263.284 107.984C264.513 107.677 265.901 108.15 266.687 109.144C267.474 110.137 267.616 111.597 267.036 112.723C266.897 112.555 266.864 112.249 266.822 111.867C266.7 110.737 266.505 108.931 263.284 107.984ZM262.218 116.714C261.829 117.2 263.183 118.482 265.302 117.598C265.694 117.434 265.374 117.415 264.869 117.386C264.409 117.359 263.795 117.323 263.429 117.159C263.12 117.021 262.961 116.8 262.842 116.634C262.666 116.389 262.577 116.266 262.218 116.714ZM266.51 118.338C267.868 117.662 267.016 119.645 264.176 119.402C263.92 119.38 263.585 119.281 263.588 119.023C263.589 118.932 263.829 118.911 264.202 118.879C264.783 118.828 265.684 118.75 266.51 118.338ZM258.134 114.574C258.645 115.073 259.389 115.086 259.885 114.991C260.187 114.932 260.336 114.662 260.058 114.574C259.994 114.554 259.886 114.537 259.757 114.516C259.462 114.47 259.055 114.406 258.781 114.241C258.606 114.135 258.506 113.774 258.42 113.464C258.332 113.145 258.258 112.881 258.134 113.005C257.889 113.249 257.623 114.075 258.134 114.574ZM258.587 116.262C258.834 116.639 257.893 116.509 257.69 116.262C257.488 116.015 257.288 115.086 257.627 115.086C257.726 115.086 257.759 115.233 257.8 115.408C257.837 115.57 257.88 115.756 257.984 115.875C258.188 116.106 258.324 116.14 258.424 116.165C258.492 116.182 258.543 116.195 258.587 116.262ZM300.956 114.394C301.464 115.408 300.575 116.546 299.718 117.289C296.236 120.313 292.074 122.55 287.63 123.785C292.419 123.818 297.186 121.768 300.457 118.271C301.98 116.643 302.953 113.588 300.989 112.536C303.32 111.763 306.08 110.15 305.724 107.721C305.596 106.853 305.066 106.105 304.551 105.395L304.245 104.976C301.064 100.628 297.173 96.0306 291.838 95.7062C294.909 93.984 298.566 96.4301 301.272 98.6818L302.066 99.3385C305.649 102.284 309.398 105.087 313.648 106.929C318.213 108.907 323.462 109.698 328.198 108.172L341.45 103.901C344.007 103.055 347.019 101.465 346.787 98.8082C346.659 97.3445 345.323 96.0861 343.855 96.0453C342.386 96.0045 340.983 97.1868 340.774 98.6411L340.486 96.3804C339.775 95.7727 338.642 96.2934 338.07 97.0332C337.854 97.3131 337.673 97.6223 337.494 97.9306C337.198 98.4374 336.904 98.9419 336.454 99.31C334.89 100.589 332.812 99.5377 330.945 98.4326L329.782 97.7372C326.465 95.7887 322.534 95.4902 318.653 95.1954L318.653 95.1954L318.652 95.1953L318.652 95.1953L318.652 95.1953L318.651 95.1953L318.651 95.1952C317.814 95.1316 316.978 95.0682 316.152 94.9883C310.741 94.4656 305.408 93.1475 300.376 91.0894C304.991 94.8731 311.019 95.5082 317.1 96.1489C320.165 96.4717 323.243 96.796 326.16 97.5252C328.474 98.1036 331.031 99.2829 331.599 101.599C332.423 104.963 328.427 107.568 324.979 107.883C319.339 108.397 313.843 105.999 309.054 102.937L308.515 102.588C306.782 101.45 305.102 100.226 303.423 99.0028C300.342 96.7581 297.265 94.5152 293.864 92.8105C297.376 92.9872 299.941 90.4444 302.561 87.8468C303.974 86.4458 305.403 85.0289 307.006 84.0142C311.715 81.0321 317.728 81.7113 323.27 82.669L324.141 82.822C322.837 76.5086 319.653 70.5957 315.1 66.032L322.924 81.4141C314.686 78.6697 304.807 82.0992 300.041 89.3576C303.72 76.9449 312.47 66.1174 323.834 59.9163C327.496 61.2862 330.589 63.7307 333.677 66.171C334.674 66.9588 335.67 67.7462 336.685 68.4968C340.842 71.5725 345.898 74.1788 350.988 73.2633C354.649 72.605 357.728 70.2247 360.464 67.6791L360.904 67.2652C364.162 64.1765 367.19 60.8459 369.955 57.3099C372.981 53.4405 376.7 48.8463 381.578 49.423C382.44 49.5249 383.277 49.7936 384.112 50.0613C385.265 50.4314 386.412 50.7995 387.609 50.7225C389.671 50.5899 391.566 47.8217 389.947 46.5371L381.64 39.9435C380.829 39.2991 379.892 38.6174 378.864 38.7508C378.133 38.8457 377.526 39.3385 376.961 39.8117L375.096 41.3781C370.747 45.0412 366.45 48.7808 362.677 53.0285C362.432 53.3038 362.186 53.583 361.939 53.8642C358.88 57.3402 355.56 61.1123 351.016 61.3842C346.584 61.6494 342.858 58.4493 339.453 55.5247C339.282 55.3777 339.112 55.2315 338.943 55.0864L338.308 54.5486C334.698 51.5186 330.837 48.7866 326.779 46.3899C323.191 44.2714 319.213 42.3633 315.057 42.6525C310.195 42.9909 306.094 46.2422 302.581 49.6585L302.049 50.1799C300.327 51.8731 298.266 53.7025 295.895 53.3409L295.706 53.3158C293.319 53.0438 291.08 54.5254 289.28 56.1837L289 56.4468C284.295 60.9357 280.829 66.7106 279.081 72.974C268.817 70.2256 257.562 71.359 248.052 76.0989C245.656 77.2933 243.32 78.7495 241.652 80.8439C239.27 83.8341 238.571 87.6261 237.867 91.4517C237.352 94.2428 236.835 97.0517 235.658 99.5803C235.31 100.329 234.902 101.059 234.494 101.789L234.494 101.789L234.494 101.789L234.493 101.789L234.493 101.79C233.537 103.5 232.583 105.207 232.407 107.134C232.157 109.882 234.723 113.072 237.269 112.004C239.818 111.603 241.167 108.008 239.512 106.028C240.543 106.767 241.981 106.894 243.127 106.347L240.467 101.437C244.954 99.0474 248.936 95.7151 252.079 91.7195C253.365 90.0855 255.754 89.6728 257.771 90.1744C259.501 90.6043 261.025 91.5801 262.486 92.6175L263.212 93.1391C262.366 93.7544 262.854 95.3902 263.898 95.4422C263.224 92.6971 265.969 89.8141 268.783 90.0813C271.597 90.3486 273.728 93.3415 273.36 96.1441C271.875 99.8254 268.198 101.926 264.562 104.003C260.617 106.257 256.719 108.484 255.719 112.674C254.712 116.894 257.967 121.621 262.269 122.186C266.571 122.75 270.935 119.022 271.05 114.685C271.05 114.685 271.687 114.75 271.912 114.075C272.268 113.011 272.604 111.833 272.937 110.665C273.564 108.469 274.18 106.31 274.891 105.02C276.886 101.404 280.599 98.5415 284.727 98.4417C286.038 98.41 287.341 98.2155 288.642 98.0212L288.642 98.0212C290.305 97.773 291.965 97.5252 293.638 97.6174C296.621 97.7818 299.89 99.5282 300.32 102.484C297.013 101.842 293.562 101.95 290.301 102.799L301.845 104.172C304.38 104.474 304.854 108.399 303.048 110.202C301.344 111.903 298.749 112.182 296.319 112.291L295.88 112.309C296.304 113.175 297.36 113.264 298.416 113.354C299.47 113.444 300.525 113.533 300.956 114.394ZM362.364 63.9472C358.785 67.9207 354.602 72.1913 349.258 72.3906C344.585 72.5649 340.497 69.5533 336.716 66.7679L336.437 66.5623L335.534 65.9026C331.31 62.8385 326.935 59.9825 322.43 57.3485C318.942 55.3087 314.93 53.3383 311.017 54.35L317.211 56.2994C316.167 56.8595 315.794 58.3838 316.463 59.3622C316.607 57.8974 318.301 56.9659 319.755 57.1949C321.209 57.4239 322.392 58.4914 323.292 59.6556C315.484 62.6497 308.841 68.5773 304.98 75.9952C304.262 77.3749 303.637 78.8019 303.013 80.2284L303.013 80.2291C302.166 82.1622 301.321 84.0942 300.243 85.9059C298.371 89.0547 295.599 91.9192 292.032 92.7534C291.532 92.8703 291.02 92.947 290.509 93.0235C289.483 93.177 288.461 93.3301 287.549 93.8052C287.45 93.8568 287.348 93.9114 287.243 93.9674L287.234 93.9718L287.232 93.9732C286.16 94.5452 284.84 95.2502 284.18 94.3203C283.099 92.7971 281.375 91.7462 279.526 91.4828C282.583 81.21 290.45 72.4802 300.35 68.3734C300.91 68.141 300.696 67.3026 300.39 66.7788L295.887 59.0734C295.471 58.3617 295.957 57.3938 296.69 57.0163C297.423 56.6387 298.297 56.6954 299.115 56.7973C304.323 57.446 309.339 59.5834 313.414 62.8916C314.066 63.4207 315.134 63.9404 315.611 63.2492C310.962 58.5604 304.311 56.3865 297.767 55.5103C303.424 54.9574 309.274 56.7389 313.663 60.3512L313.877 60.526C314.925 61.3773 316.194 62.282 317.403 61.7601C312.502 57.0588 305.8 54.284 299.009 54.1453C300.407 53.1061 301.711 51.9511 303.016 50.796C304.342 49.6224 305.668 48.4488 307.09 47.3969C309.913 45.3097 313.287 43.6801 316.792 43.8848C319.336 44.0334 321.722 45.1313 323.973 46.3265C328.731 48.853 333.211 51.9026 337.307 55.4027C337.597 55.6505 337.889 55.902 338.183 56.1552C342.075 59.5097 346.322 63.1693 351.354 62.6965C354.422 62.4083 357.14 60.5549 359.299 58.3564C360.493 57.1404 361.558 55.8087 362.624 54.4766L362.624 54.4762L362.624 54.4756C363.485 53.3995 364.345 52.3233 365.275 51.3075C366.615 49.8424 368.167 48.4646 370.072 47.9053C371.977 47.3459 374.299 47.809 375.431 49.4406L362.364 63.9472ZM239.065 91.1613C239.755 87.3856 240.437 83.6519 242.989 80.9031C244.238 79.5571 245.837 78.5876 247.464 77.7364C255.79 73.3818 265.499 71.7242 274.798 73.0699C277.074 73.3992 279.893 74.6759 279.856 76.8365C279.843 76.9686 279.83 77.1007 279.819 77.233C279.842 77.0977 279.854 76.9655 279.856 76.8365C280.784 67.8028 286.045 59.3038 293.733 54.4639C294.414 59.2178 296.497 63.7622 299.653 67.3821C291.289 70.9052 284.343 77.6794 280.613 85.9536L280.553 86.0843C279.494 88.404 277.813 91.2521 275.359 90.6745L276.574 83.1675C276.686 82.4792 276.788 81.7337 276.462 81.1175C276.098 80.4296 275.319 80.1126 274.559 79.8837L274.292 79.8061C269.894 78.561 264.96 77.3655 260.943 79.5472C258.818 80.7015 257.293 82.636 255.866 84.6219L254.807 86.1097C252.293 89.6194 249.479 92.9137 246.405 95.9448C245.167 97.1657 243.828 98.3789 242.171 98.9044C240.513 99.4298 238.454 99.0763 237.47 97.6425C238.255 95.5935 238.661 93.3702 239.065 91.1613ZM266.172 120.414C263.56 121.382 261.435 120.905 259.397 119.718C258.525 119.21 257.703 118.556 257.212 117.674C256.475 116.352 256.586 114.71 257.011 113.257C257.646 111.085 258.945 109.113 260.69 107.672C261.897 106.676 263.286 105.945 264.675 105.214C265.154 104.961 265.634 104.709 266.105 104.446C270.712 101.876 274.685 98.1816 277.583 93.7739C278.161 92.8941 279.38 92.6088 280.4 92.8687C281.421 93.1286 282.271 93.8273 283.007 94.5805C283.533 95.1195 283.924 96.1913 283.221 96.4633C278.302 98.3674 274.341 102.593 272.759 107.624C272.716 107.762 272.674 107.9 272.632 108.039L272.632 108.039C272.392 108.835 272.148 109.64 271.632 110.284C271.026 111.041 269.809 113.704 270.43 114.966C270.43 114.966 268.783 119.445 266.172 120.414ZM272.996 80.558C273.793 80.7367 274.66 80.9936 275.098 81.6834C275.456 82.2482 275.433 82.9662 275.377 83.6324C275.155 86.268 274.601 88.8754 273.732 91.3734C273.585 91.7957 273.131 92.3035 272.801 92.0026C272.426 90.1116 270.698 88.5739 268.776 88.4213C266.854 88.2687 264.905 89.5144 264.237 91.3226C264.105 91.6795 263.641 91.8123 263.274 91.7138C262.998 91.6399 262.762 91.4732 262.537 91.2933L262.315 91.1119C260.025 89.252 256.926 88.4263 254.015 88.9002C255.566 86.29 257.534 83.9278 259.821 81.9306C260.756 81.1132 261.772 80.3424 262.954 79.9591C264.066 79.5984 265.261 79.6018 266.429 79.6612C268.638 79.7736 270.837 80.074 272.996 80.558ZM377.391 47.339C376.278 46.1526 374.753 45.3588 373.142 45.1332L374.97 42.8109C375.55 42.083 376.227 41.3361 377.142 41.2212C377.801 41.1384 378.45 41.409 379.05 41.6949C381.058 42.6519 382.951 43.8506 384.675 45.2568C385.25 45.7261 385.829 46.2499 386.079 46.9489C386.329 47.6479 386.128 48.5629 385.458 48.8826C384.788 49.2024 383.822 48.5021 384.097 47.8124L384.124 47.735C384.236 47.3429 384.059 46.8797 383.704 46.6733L383.057 47.9144C382.997 48.0228 382.928 48.1278 382.821 48.1868C382.389 48.4256 382.038 47.7541 382.01 47.2612L382.005 47.1929C381.959 46.7077 381.704 46.0886 381.258 46.2398C381.198 47.0711 380.603 47.839 379.813 48.1054C379.024 48.3719 378.085 48.121 377.534 47.4959L377.391 47.339ZM237.987 108.6L237.206 105.635C236.834 105.531 236.472 105.904 236.419 106.286C236.384 106.54 236.441 106.792 236.517 107.041L236.637 107.411C237.039 108.669 237.029 110.055 236.609 111.308C235.835 109.722 235.43 107.957 235.438 106.192C234.933 105.915 234.589 106.761 234.625 107.336L234.843 110.768C233.784 109.813 233.411 108.265 233.592 106.851C233.773 105.436 234.437 104.131 235.183 102.916C235.573 102.282 236.005 101.647 236.625 101.235C237.244 100.823 238.098 100.682 238.731 101.073C239.257 101.398 239.501 101.975 239.749 102.56C239.936 103.002 240.125 103.449 240.44 103.795C240.551 103.918 240.681 104.043 240.813 104.171C241.325 104.664 241.872 105.192 241.514 105.723C240.412 105.047 239.404 104.217 238.528 103.266C238.211 105.231 238.502 107.289 239.35 109.089C239.523 109.457 238.95 109.808 238.589 109.62C238.228 109.431 238.091 108.994 237.987 108.6ZM343.813 98.9015C344.377 98.4021 344.893 97.9455 345.142 98.0699C345.87 98.4325 343.894 100.027 342.848 100.477C342.923 100.982 343.657 100.756 344.085 100.477C344.513 100.198 345.711 99.8985 345.477 100.202C344.015 102.093 341.192 103.596 338.582 103.89C337.524 104.009 336.216 103.727 335.879 102.717C335.571 101.795 336.256 100.886 336.98 100.202L337.154 100.042C337.458 99.7697 337.947 99.504 338.227 99.8007C338.973 100.59 340.277 99.9444 341.136 99.2802C341.136 99.2802 343.368 97.1266 343.743 97.2644C344.115 97.4014 342.629 99.83 342.629 99.83C342.997 99.6232 343.417 99.2518 343.813 98.9015ZM333.126 100.901C333.393 100.84 333.671 100.948 333.902 101.096C334.741 101.634 335.141 102.77 334.826 103.716C334.511 104.662 333.51 105.33 332.515 105.257C332.374 105.247 332.226 105.221 332.116 105.132C331.884 104.946 331.913 104.591 331.965 104.298L332.339 102.155C332.43 101.638 332.614 101.017 333.126 100.901ZM285.836 96.0363C287.275 95.7933 288.764 95.8527 290.178 96.2095C290.096 96.7929 289.415 97.0579 288.838 97.1771C287.058 97.545 285.219 97.6244 283.414 97.4112C283.866 96.5613 284.887 96.1966 285.836 96.0363ZM376.008 48.5309L372.233 46.3018C374.093 46.0239 376.076 47.0008 376.989 48.6445C376.728 48.8833 376.313 48.7111 376.008 48.5309ZM293.293 93.2374C291.693 93.6611 290.111 94.1537 288.553 94.7133C290.171 95.608 292.469 94.8926 293.293 93.2374ZM277.651 91.2138C278.092 91.3047 277.892 91.9979 277.54 92.2785C276.471 93.1327 274.846 93.2064 273.703 92.4525L277.651 91.2138ZM378.101 39.5071C378.36 39.4457 378.627 39.5505 378.87 39.6601C380.446 40.3719 381.89 41.376 383.106 42.6061L377.682 39.8363C377.765 39.673 377.923 39.5493 378.101 39.5071ZM295.458 54.4707L295.512 54.5082C296.001 54.4377 296.506 54.4792 296.978 54.6284C296.566 55.4061 295.994 56.098 295.307 56.6478C294.963 55.966 295.023 55.0983 295.458 54.4707ZM388.281 46.8599L388.293 46.8941C388.892 47.1376 389.3 47.7878 389.258 48.4334C388.024 47.7931 387.025 46.71 386.486 45.4278C387.223 45.6832 387.868 46.1976 388.281 46.8599ZM275.968 94.2054L275.878 94.3278C275.566 94.7528 275.193 95.2142 274.669 95.2751C274.145 95.336 273.608 94.6582 273.977 94.2816C274.598 94.0032 275.327 93.9753 275.968 94.2054ZM238.844 99.4689C239.311 99.5781 239.84 99.919 239.766 100.393C238.695 100.254 237.638 100.006 236.616 99.6555C237.315 99.3631 238.106 99.2968 238.844 99.4689ZM338.33 99.3777C338.087 99.4833 337.867 99.0393 338.098 98.9096C338.098 98.9096 339.695 96.1082 339.764 98.0699C339.798 98.5581 338.766 99.1552 338.33 99.3777ZM270.836 113.761C270.954 112.911 271.178 111.308 271.632 111.308C272.276 111.24 272.028 112.336 271.854 113.108L271.853 113.11L271.853 113.113L271.852 113.113L271.852 113.117C271.804 113.327 271.763 113.511 271.746 113.642C271.688 114.106 271.254 114.47 270.758 114.247C270.777 114.179 270.802 114 270.836 113.761ZM121.113 143.157C124.39 143.44 127.679 143.575 130.968 143.562C130.734 146.654 133.249 149.7 136.33 150.055C139.411 150.411 142.553 148.018 143.029 144.953C143.221 143.722 144.886 143.508 146.128 143.605L154.032 144.22C155.387 144.326 157.304 143.899 157.158 142.548L156.263 134.271C156.182 133.524 156.442 132.436 157.179 132.583C160.316 133.213 163.743 130.808 164.173 127.637C164.603 124.467 161.892 121.217 158.694 121.117C157.157 121.069 156.426 119.059 156.825 117.574C157.039 116.775 157.446 116.052 157.854 115.329C158.205 114.706 158.556 114.083 158.786 113.41C159.282 111.955 158.866 109.927 157.369 109.576C146 106.911 134.067 106.685 122.605 108.917L122.395 108.959C121.765 109.086 121.133 109.242 120.588 109.579C118.798 110.688 118.661 113.131 118.748 115.286L118.806 116.484C119.121 123.435 118.573 130.424 117.181 137.241L117.15 137.396C116.838 138.95 116.585 140.725 117.622 141.903C118.391 142.776 119.622 143.01 120.795 143.128L121.113 143.157ZM141.276 144.824C141.368 145.271 141.253 145.738 141.073 146.158L141.016 146.285C139.958 148.518 136.81 149.476 134.7 148.17C132.55 146.839 132.023 143.495 133.659 141.568C129.501 142.065 125.288 142.098 121.124 141.665C119.835 141.531 118.15 140.835 118.414 139.566C120.226 130.841 120.792 121.858 120.09 112.975C119.962 111.365 121.944 110.529 123.532 110.238C133.781 108.356 144.386 108.434 154.606 110.466C155.913 110.726 157.596 111.719 157.017 112.92C155.653 115.746 155.107 118.962 155.464 122.08C155.555 122.875 156.177 123.916 156.871 123.517C158.74 122.444 161.446 123.305 162.351 125.261C163.256 127.217 162.161 129.837 160.133 130.566C158.104 131.296 155.591 129.975 155.043 127.89C154.553 132.184 154.727 136.552 155.559 140.793C155.847 142.263 153.707 142.818 152.213 142.706L140.289 141.818C139.923 142.393 140.298 142.989 140.692 143.614C140.938 144.005 141.191 144.407 141.276 144.824ZM202.978 117.876L226.333 118.346L226.715 118.355C227.416 118.377 228.123 118.439 228.755 118.734C230.182 119.4 230.837 121.042 231.271 122.557C233.588 130.641 233.302 139.451 230.465 147.368L230.346 147.692C229.977 148.666 229.494 149.637 228.622 150.185C227.904 150.636 227.029 150.73 226.178 150.776L225.996 150.785C222.523 150.95 219.038 150.861 215.578 150.52C217.38 149.41 217.835 146.71 216.691 144.93C215.547 143.15 213.129 142.406 211.094 142.984C209.853 143.337 208.697 144.185 208.248 145.394C207.799 146.603 208.233 148.156 209.38 148.747C210.173 149.155 210.036 150.441 209.342 151.001C208.648 151.561 207.683 151.601 206.791 151.615L195.073 151.805C194.192 151.819 193.266 151.823 192.492 151.401C191.396 150.803 190.892 149.514 190.583 148.304C189.837 145.383 189.736 142.3 190.29 139.337C190.956 141.677 193.839 143.098 196.101 142.201C198.362 141.304 199.487 138.292 198.368 136.132C197.248 133.972 194.139 133.154 192.102 134.484L192.018 133.729C191.725 131.083 191.498 128.402 192.006 125.796C192.563 122.941 194.151 120.138 196.754 118.841C198.652 117.895 200.845 117.842 202.978 117.876ZM228.473 120.319C227.888 119.968 227.183 119.907 226.497 119.878L226.326 119.872C219.061 119.6 211.791 119.463 204.52 119.459L202.097 119.463C200.564 119.469 198.981 119.491 197.578 120.109C195.484 121.031 194.127 123.169 193.574 125.389C193.021 127.609 193.153 129.934 193.289 132.218C196.971 131.204 200.931 134.945 200.494 138.738C200.057 142.532 195.852 145.271 192.104 144.54C191.934 145.738 191.767 146.983 192.119 148.141C192.471 149.299 193.498 150.346 194.708 150.307L205.572 149.958C206.245 149.936 207.175 149.588 206.979 148.944C205.869 145.287 209.072 141.019 212.894 141.062C216.715 141.105 219.821 145.445 218.628 149.076C221.016 149.613 223.499 149.726 225.926 149.408C226.714 149.305 227.537 149.138 228.14 148.62C228.734 148.112 229.025 147.343 229.273 146.602C231.794 139.047 232.07 130.758 230.057 123.053C229.797 122.056 229.436 120.984 228.602 120.403L228.473 120.319ZM125.392 192.265C124.235 184.738 124.237 177.035 125.397 169.509L125.455 169.145C125.743 167.436 126.248 165.633 127.676 164.692C128.744 163.988 130.093 163.935 131.38 163.935L141.233 163.962C141.682 163.963 142.173 163.98 142.511 164.275C142.848 164.571 142.839 165.25 142.406 165.37C141.374 165.656 140.781 166.846 140.906 167.91C141.032 168.973 141.723 169.894 142.535 170.592C144.472 172.257 147.483 172.848 149.626 171.46C151.77 170.072 152.274 166.496 150.243 164.948C154.845 164.855 159.45 164.869 164.052 164.992L165.777 165.043C166.335 165.061 166.952 165.105 167.341 165.505C167.634 165.804 167.73 166.24 167.796 166.654C168.306 169.84 167.748 173.187 166.234 176.036C165.993 176.489 165.435 176.989 165.054 176.644C163.437 175.176 160.718 175.376 159.063 176.801C157.409 178.227 156.769 180.594 157.062 182.758C157.343 184.841 158.861 187.066 160.961 186.961C161.552 186.931 162.167 186.727 162.771 186.527C163.854 186.168 164.899 185.821 165.702 186.518L163.597 195.923C163.223 197.594 162.552 199.576 160.878 199.934C151.213 202.001 141.079 201.845 131.482 199.481L131.017 199.363C129.852 199.058 128.692 198.663 127.783 197.886C126.202 196.532 125.708 194.322 125.392 192.265ZM163.836 188.2C161.102 189.486 157.54 188.382 155.829 185.892C154.118 183.402 154.285 179.843 156.041 177.384C157.797 174.925 160.953 173.618 163.963 173.875L164.214 173.898C164.636 173.933 165.069 173.949 165.428 173.738C165.881 173.471 166.074 172.922 166.2 172.412C166.703 170.375 166.675 168.209 166.12 166.185L153.382 166.279C153.614 169.815 150.704 173.265 147.179 173.632C143.655 174 140.095 171.223 139.594 167.715L139.524 167.194C139.448 166.667 139.33 166.147 138.937 165.814C138.661 165.579 138.299 165.486 137.94 165.415L137.806 165.39C134.1 164.689 129.402 164.398 127.457 167.63C126.795 168.73 126.617 170.047 126.482 171.324C125.708 178.657 125.892 186.09 127.028 193.376L127.083 193.717C127.268 194.801 127.557 195.914 128.364 196.642C128.919 197.142 129.647 197.39 130.37 197.594L130.55 197.644C139.792 200.186 149.631 200.525 159.027 198.631L159.549 198.523C160.011 198.426 160.491 198.314 160.854 198.012C161.327 197.619 161.509 196.985 161.666 196.39L163.836 188.2ZM232.577 206.834C232.577 206.834 232.629 205.368 232.814 204.887C233.148 204.017 234.133 202.781 234.133 202.781C234.065 203.115 233.969 203.474 233.87 203.843L233.87 203.843C233.531 205.11 233.157 206.509 233.726 207.544C234.165 208.343 240.582 212.548 242.788 213.534C252.22 217.749 261.7 221.564 271.224 225.396L271.224 225.396C275.119 226.963 279.021 228.534 282.931 230.136C276.217 229.318 270.035 226.191 264.011 223.115C262.711 230.328 266.73 237.599 272.153 242.53C276.102 246.121 280.75 248.783 285.397 251.444C287.132 252.437 288.867 253.431 290.565 254.473L291.189 254.859C297.214 258.631 302.977 263.392 305.637 269.959C306.125 271.163 307.622 271.849 308.853 271.431C310.084 271.013 310.855 269.557 310.508 268.305C311.796 269.362 311.053 271.724 309.493 272.308C307.932 272.892 306.143 272.1 304.991 270.896C304.124 269.989 303.518 268.881 302.913 267.774L302.913 267.774C302.715 267.411 302.517 267.049 302.31 266.694C298.591 260.318 292.021 256.358 285.503 252.734L282.443 251.04C275.37 247.09 268.123 242.346 265.093 234.869C254.095 236.614 242.646 235.43 232.238 231.472C230.012 230.626 227.833 229.655 225.654 228.685L225.654 228.685L225.654 228.685L225.654 228.685L225.653 228.685L225.653 228.685L225.652 228.685L225.652 228.684L225.652 228.684L225.652 228.684L225.652 228.684L225.652 228.684C222.181 227.139 218.713 225.594 215.064 224.555C213.031 223.975 210.229 223.913 209.467 225.885C209.467 225.885 209.466 225.886 209.464 225.89C209.442 225.929 209.297 226.182 208.649 226.238C208.345 226.264 208.065 225.73 207.979 225.377C207.905 225.278 207.879 224.999 207.879 224.426C207.879 224.116 208.509 222.766 209.694 221.93C210.518 221.349 211.446 221.138 211.932 221.028C212.151 220.978 212.28 220.949 212.269 220.915C212.245 220.837 211.402 220.619 210.636 220.99C210.045 221.277 209.485 221.655 208.971 222.004L208.971 222.004C208.175 222.542 207.487 223.008 206.958 222.946C206.242 222.863 205.734 222.529 205.726 221.808C205.718 221.087 205.909 220.211 206.465 219.758C207.654 218.79 209.188 218.257 210.721 218.279C211.052 218.284 211.419 218.331 211.635 218.582C211.851 218.833 211.744 219.333 211.413 219.348C209.427 219.438 207.13 219.77 206.357 221.808C206.132 222.401 207.554 222.497 208.103 222.18C208.422 221.997 208.696 221.75 208.971 221.503L208.971 221.503C209.169 221.324 209.368 221.145 209.584 220.99C210.229 220.525 211.032 220.282 211.827 220.311C212.148 220.322 212.501 220.396 212.69 220.655C212.879 220.914 212.745 221.385 212.425 221.39C210.365 221.424 208.485 223.209 208.344 225.264C208.352 225.338 208.409 225.677 208.649 225.758C208.929 225.852 209.239 225.623 209.251 225.601C210.323 223.686 212.281 222.406 214.386 223.047C215.181 223.29 215.947 223.659 216.709 224.026C218.043 224.668 219.365 225.305 220.819 225.251L219.947 220.625C216.409 217.382 211.078 216.239 206.523 217.746C206.035 217.907 205.509 218.141 205.31 218.615C205.111 219.088 205.547 219.776 206.027 219.593C205.273 220.29 203.998 219.106 204.285 218.12C204.572 217.133 205.654 216.626 206.648 216.367C212.228 214.917 217.789 217.445 223.163 219.888C224.161 220.341 225.152 220.792 226.135 221.213C237.079 225.904 249.443 227.216 261.126 224.926C260.62 226.313 258.892 226.733 257.424 226.898C247.018 228.068 236.328 226.636 226.596 222.767C225.408 224.278 225.974 226.623 227.327 227.988C228.68 229.353 230.593 229.974 232.434 230.524C242.753 233.608 253.692 235.966 264.236 233.774L262.527 223.776L262.492 223.594C262.408 223.194 262.253 222.782 261.88 222.655L261.786 222.623C248.272 218.034 237.972 214.536 224.599 201.788C224.572 201.762 224.546 201.736 224.52 201.709C224.421 205.541 223.206 206.384 218.139 205.339C207.084 203.061 195.765 201.868 184.607 203.435C185.451 199.265 186.508 195.138 187.772 191.076C184.141 192.247 179.855 188.92 180.09 185.112C180.325 181.304 184.987 178.529 188.446 180.137C189.635 177.396 189.71 174.19 188.652 171.395C188.144 170.055 190.168 169.281 191.601 169.281L199.523 169.279C200.63 169.279 202.174 168.765 201.899 167.692C201.246 165.149 202.995 162.243 205.548 161.628C208.054 161.025 210.876 162.741 211.523 165.228L211.557 165.367C212.158 168.038 215.542 168.886 218.279 168.834L219.642 168.801C222.01 168.751 224.477 168.828 226.062 170.484C227.957 172.465 227.534 175.619 226.909 178.308L226.867 178.487C226.563 179.772 226.118 180.816 225.672 181.866C224.82 183.866 223.96 185.889 224.036 189.641C224.067 191.171 224.123 192.575 224.185 193.86C224.405 192.957 224.599 192.361 224.599 192.361C224.599 192.361 250.417 211.584 266.363 214.194C268.273 212.506 267.171 209.216 265.246 207.544C264.435 206.84 263.511 206.27 262.59 205.702C261.326 204.922 260.066 204.145 259.107 203.025C257.201 200.799 256.86 197.733 256.522 194.693C256.155 191.387 255.791 188.112 253.422 185.982C253.211 185.792 252.986 185.615 252.762 185.438L252.76 185.437C252.253 185.037 251.746 184.637 251.401 184.097C250.547 182.761 250.967 180.902 252.001 179.701C253.036 178.499 254.549 177.828 256.046 177.306C259.153 176.221 262.561 175.615 265.734 176.489C268.908 177.363 271.75 180.006 272.062 183.283C272.664 181.979 273.986 181.037 275.414 180.894L273.34 183.098L275.965 183.15L272.354 185.167C274.592 189.307 274.23 194.413 272.795 198.896C272.619 199.444 272.428 199.992 272.237 200.541L272.237 200.541L272.237 200.541L272.237 200.541L272.237 200.542L272.236 200.542L272.236 200.542L272.236 200.543L272.236 200.543L272.236 200.544L272.236 200.544C271.469 202.744 270.696 204.962 270.894 207.258C271.138 210.081 273.644 212.965 276.384 212.387L276.522 212.355C279.815 211.523 283.422 212.005 286.381 213.672C289.833 215.616 292.182 218.913 294.507 222.176C295.047 222.934 295.585 223.689 296.136 224.426C298.716 227.876 301.77 231.085 305.586 233.084C309.403 235.083 314.084 235.743 318.06 234.084C318.791 233.778 319.494 233.399 320.195 233.02C321.387 232.377 322.575 231.736 323.892 231.463C325.986 231.029 328.651 232.053 328.9 234.177C327.817 232.368 325.251 232.047 323.233 232.657C322.094 233.001 321.043 233.564 319.991 234.127L319.991 234.127C319.178 234.562 318.366 234.998 317.51 235.333C313.229 237.015 308.242 235.996 304.3 233.625C300.481 231.328 297.49 227.899 294.791 224.345L294.531 224.001C294.255 223.635 293.982 223.267 293.707 222.899C291.81 220.349 289.898 217.78 287.394 215.84C284.584 213.664 280.811 212.379 277.429 213.423L277.223 213.49C273.987 214.586 270.561 211.49 269.978 208.124C269.396 204.758 270.768 201.395 272.111 198.254C273.496 195.014 270.953 191.234 267.746 189.774C264.77 188.419 261.197 188.449 258.245 189.855C257.289 190.31 257.116 191.566 257.147 192.638L257.152 192.757C257.318 196.544 258.329 200.526 261.094 203.12C261.916 203.891 262.866 204.514 263.814 205.135L263.814 205.136C265.001 205.914 266.184 206.69 267.112 207.753C268.78 209.665 269.036 213.248 266.719 214.282C270.695 215 274.63 215.951 278.495 217.128C257.698 215 238.576 205.191 224.847 193.342C224.566 193.891 224.368 194.471 224.247 195.066C224.28 195.66 224.312 196.226 224.343 196.764C224.387 197.524 224.427 198.23 224.459 198.884C225.12 201.059 226.665 202.976 228.786 203.819C228.618 202.291 229.133 200.701 230.165 199.562C229.496 201.059 228.433 203.929 232.577 206.834ZM264.522 177.556C262.671 177.212 260.79 177.028 258.908 177.009C258.78 177.246 258.731 177.525 258.772 177.791C260.871 177.965 262.938 178.518 264.843 179.415C264.047 180.211 262.731 179.735 261.662 179.347L261.599 179.324C259.773 178.663 257.767 178.503 255.859 178.866C254.886 179.052 253.912 179.385 253.163 180.033C252.413 180.681 251.923 181.689 252.09 182.665C252.304 183.913 253.477 184.765 254.648 185.245C257.55 186.434 261.03 186.099 263.652 184.377C263.865 184.238 264.165 184.471 264.177 184.725C264.19 184.979 264.018 185.203 263.838 185.382C262.793 186.423 261.238 186.754 259.766 186.84C259.336 186.865 258.903 186.873 258.471 186.882C257.423 186.902 256.376 186.922 255.364 187.179C255.5 188.014 256.543 188.301 257.387 188.362C260.611 188.596 263.882 188.162 266.933 187.096C267.697 186.829 268.4 187.594 268.85 188.267L272.138 193.172C273.217 192.156 273.153 190.399 272.644 189.007C272.445 188.462 272.191 187.937 271.938 187.413C271.544 186.596 271.15 185.78 270.965 184.896C270.863 184.409 270.826 183.909 270.79 183.41C270.738 182.708 270.687 182.009 270.455 181.35C269.637 179.026 266.943 178.007 264.522 177.556ZM224.812 222.335L221.829 220.621C221.498 220.431 220.888 220.399 220.921 220.779C220.819 222.319 220.945 224.206 221.935 225.49C222.559 226.299 223.009 226.713 225.213 227.26L225.051 222.946C225.042 222.718 225.011 222.449 224.812 222.335ZM270.248 198.87C270.611 198.66 270.842 198.285 271.058 197.926C271.444 197.283 271.842 196.602 271.859 195.852C271.877 195.102 271.358 194.284 270.609 194.254C270.236 194.24 269.881 194.417 269.577 194.633C268.901 195.111 268.379 195.804 268.106 196.586C268.451 197.083 269.232 196.639 269.579 196.143C269.927 195.648 270.441 195.021 270.993 195.269C270.629 196.533 269.984 197.716 269.118 198.708C269.35 199.058 269.885 199.081 270.248 198.87ZM276.217 235.304C275.388 233.986 274.492 232.563 273.013 232.135C276.293 238.308 281.377 243.51 287.474 246.93C289.602 248.125 291.848 249.106 294.09 250.086C297.219 251.452 300.343 252.817 303.141 254.757C306.646 257.186 309.546 260.484 311.507 264.272C310.736 258.871 306.22 254.737 301.4 252.183C299.217 251.027 296.924 250.095 294.632 249.164C291.861 248.038 289.092 246.913 286.522 245.393C282.425 242.971 278.915 239.565 276.369 235.544C276.318 235.464 276.268 235.384 276.217 235.304ZM286.521 237.13L286.612 237.334C287.016 238.268 287.295 239.441 286.538 240.074C285.934 240.578 285.018 240.386 284.306 240.051C282.765 239.328 281.492 238.051 280.774 236.509C281.673 236.331 282.516 235.878 283.161 235.228C283.698 234.687 284.646 234.797 285.251 235.26C285.855 235.723 286.199 236.44 286.521 237.13ZM286.031 239.341C286.807 237.947 285.224 235.893 284.451 235.759C284.115 235.701 283.768 236.034 283.395 236.392C283.012 236.759 282.602 237.153 282.15 237.175C282.15 237.175 285.255 240.734 286.031 239.341ZM325.167 243.346C344.008 242.727 362.403 233.548 374.227 218.865C374.839 218.105 376.051 218.092 376.902 218.57C377.752 219.047 378.327 219.887 378.871 220.697C379.464 220.61 379.482 219.69 379.073 219.251C378.872 219.035 378.619 218.878 378.366 218.721C378.106 218.56 377.846 218.398 377.642 218.173C376.819 217.262 377.259 215.827 377.741 214.698L379.891 209.664C380.179 208.99 380.629 208.203 381.362 208.214C381.899 208.221 382.312 208.669 382.652 209.084C386.362 213.603 389.803 218.343 392.952 223.27C391.011 223.57 389.144 222.614 387.303 221.671C385.247 220.617 383.222 219.58 381.16 220.327C379.363 220.978 378.304 222.788 377.353 224.446C374.241 229.868 370.676 235.09 366.16 239.414C355.672 249.455 341.037 253.801 326.78 256.548C335.599 259.886 345.314 260.823 354.608 259.231C359.927 258.319 365.23 256.525 369.375 253.07C371.054 251.671 372.51 250.028 373.959 248.393L384.635 236.341C385.26 235.636 386.414 236.313 386.996 237.054C387.579 237.795 388.369 238.719 389.257 238.403C388.621 236.98 387.518 235.77 386.158 235.006C386.078 233.306 386.027 231.485 386.931 230.043C387.835 228.601 390.088 227.899 391.26 229.132C395.105 233.177 398.789 237.374 402.3 241.71C400.24 242.034 398.282 241.147 396.339 240.267C395.738 239.995 395.139 239.724 394.538 239.489C391.995 238.494 388.43 238.515 387.271 240.988C384.099 247.748 380.804 254.683 375.359 259.795C366.267 268.332 352.982 270.259 340.589 271.665C335.093 272.288 329.447 272.879 324.095 271.48C320.2 270.461 316.656 268.435 313.164 266.43L310.394 264.839C309.578 265.043 310.233 266.279 310.957 266.706C315.596 269.442 320.378 272.23 325.697 273.068C327.053 273.282 328.425 273.365 329.797 273.416C342.421 273.891 355.14 271.676 366.861 266.963C371.748 264.997 376.723 262.369 379.407 257.836L388.866 241.861C389.229 241.25 389.627 240.604 390.27 240.3C391.053 239.93 391.974 240.166 392.806 240.407L401.673 242.982C402.579 243.246 403.42 242.183 403.326 241.244C403.232 240.306 402.554 239.545 401.91 238.855L393.733 230.103C392.654 228.949 391.495 227.744 389.971 227.324C388.448 226.903 386.49 227.643 386.192 229.195C385.312 233.776 382.183 237.551 379.163 241.106C374.488 246.608 369.621 252.263 363.133 255.429C353.828 259.969 342.834 258.65 332.646 256.806L339.252 254.882C342.521 253.929 345.796 252.975 348.966 251.73C361.262 246.898 371.736 237.575 377.96 225.922C379.041 223.899 380.311 221.561 382.568 221.155C384.423 220.821 386.004 221.917 387.621 223.036C388.582 223.702 389.556 224.376 390.606 224.764C392.156 225.336 394.562 224.522 394.197 222.91C394.115 222.546 393.894 222.231 393.678 221.927L385.267 210.068C384.099 208.423 382.351 206.564 380.431 207.182C378.888 207.678 378.309 209.459 377.799 211.03L377.757 211.157L377.707 211.31C375.313 218.606 368.875 223.702 362.765 228.352C360.092 230.387 357.411 232.426 354.527 234.147C346.099 239.175 336.216 241.304 326.424 241.94C323.657 242.119 321.918 244.715 320.327 247.09L320.326 247.091L320.324 247.094L320.201 247.278L320.064 247.482C320.015 247.554 319.966 247.627 319.917 247.698C319.879 247.755 319.84 247.812 319.802 247.868L319.764 247.924C317.038 251.895 313.157 255.064 308.72 256.939C309.462 257.759 310.814 257.267 311.752 256.681C316.204 253.899 319.981 250.044 322.671 245.536C323.264 244.541 324.009 243.384 325.167 243.346ZM266.049 200.782C265.616 201.73 264.65 202.414 263.612 202.506C262.573 202.598 261.502 202.096 260.908 201.239C260.69 200.924 260.691 200.309 261.073 200.342C261.868 201.397 263.525 201.67 264.615 200.925C265.088 200.602 265.907 200.228 266.049 200.782ZM257.698 193.886C257.792 193.092 258.462 192.401 259.254 192.283C260.045 192.165 260.888 192.63 261.21 193.363C260.631 193.363 260.243 193.258 259.92 193.171C259.263 192.993 258.875 192.889 257.698 193.886ZM263.833 198.314L262.932 198.7L262.88 198.67C262.646 199.115 261.959 198.611 261.906 198.112C261.895 198.008 261.89 197.899 261.884 197.789C261.864 197.365 261.843 196.925 261.493 196.735C261.056 197.365 260.856 198.194 261.111 198.917C261.365 199.641 262.139 200.189 262.893 200.053C263.648 199.917 264.19 198.992 263.833 198.314ZM264.914 192.173C266.053 192.265 266.357 192.326 266.671 193.076C266.733 193.223 266.246 193.084 265.782 192.952C265.44 192.854 265.111 192.761 265.022 192.787C261.21 193.917 263.775 192.081 264.914 192.173ZM264.592 194.142C265.222 194.641 265.039 196.629 264.11 196.255C263.721 196.099 263.256 193.083 264.592 194.142ZM294.73 247.374C294.429 246.999 294.77 246.331 295.249 246.355C295.461 246.492 295.605 246.729 295.63 246.98C295.448 247.275 295.072 247.437 294.733 247.366L294.73 247.374ZM286.168 243.499L286.822 243.399L286.875 243.38C287.103 242.955 286.359 242.47 286.062 242.85C285.997 243.068 286.037 243.314 286.168 243.499ZM290.829 246.081C290.45 246.184 290.398 245.532 290.612 245.202L291.518 245.615C291.378 245.859 291.119 246.032 290.839 246.067L290.829 246.081ZM279.512 236.582C279.412 236.333 279.051 236.238 278.841 236.405L278.899 236.463C278.717 236.7 278.861 237.106 279.152 237.175C279.419 237.15 279.613 236.831 279.512 236.582ZM259.603 196.302C259.238 196.302 258.857 195.945 258.875 195.325C258.894 194.705 259.063 194.132 259.603 194.437C260.144 194.741 259.979 196.302 259.603 196.302ZM89.6868 120.985C89.9064 121.274 90.4086 121.147 90.6019 120.84C90.7952 120.533 90.7709 120.141 90.7359 119.78C90.2302 114.557 88.8746 109.417 86.7385 104.623C86.1301 103.258 85.4903 101.555 86.4218 100.387C88.5753 105.769 90.7469 111.218 91.5313 116.962C91.7453 118.529 91.8221 120.246 90.9481 121.565C90.0741 122.884 87.8963 123.39 86.9252 122.141C88.4188 121.829 89.5616 120.316 89.4538 118.794C90.1437 119.264 90.2624 120.38 89.6868 120.985ZM107.094 224.701C114.908 224.272 123.96 223.144 128.059 216.477C129.122 214.748 128.895 212.031 128.708 209.791C128.558 207.992 128.434 206.501 129.025 206.08C130.351 205.135 131.412 207.573 131.412 207.573C131.451 207.411 131.495 207.212 131.545 206.987L131.545 206.986L131.546 206.986C131.916 205.325 132.598 202.265 133.669 202.84C134.11 203.077 133.959 204.564 133.854 205.586C133.83 205.826 133.808 206.04 133.797 206.207C133.772 206.365 133.769 206.497 133.787 206.59C133.802 206.584 133.818 206.575 133.834 206.564C133.84 206.563 133.846 206.56 133.853 206.555C133.86 206.549 133.867 206.542 133.875 206.533C134.048 206.387 134.286 206.025 134.55 205.623L134.55 205.623C135.097 204.79 135.759 203.782 136.202 204.153C136.899 204.734 134.423 208.446 134.423 208.446C134.423 208.446 137.363 205.215 137.611 206.59C137.859 207.965 131.163 220.386 125.118 225.258C119.073 230.129 110.555 232.856 102.853 231.88C103.025 228.825 104.039 224.868 107.094 224.701ZM133.875 206.533C133.861 206.545 133.847 206.555 133.834 206.564C133.787 206.572 133.782 206.434 133.797 206.207C133.854 205.847 134.022 205.355 134.29 204.884C134.24 205.046 134.189 205.202 134.141 205.349L134.141 205.349L134.141 205.349C133.926 206.008 133.771 206.484 133.932 206.447C133.918 206.472 133.905 206.493 133.893 206.509C133.887 206.518 133.881 206.526 133.875 206.533ZM135.331 203.73C134.897 204.004 134.548 204.434 134.29 204.884C134.692 203.614 135.098 202.011 134.11 201.883C132.435 201.666 130.798 204.392 131.089 205.84C130.624 204.686 128.69 205.185 128.222 206.337C127.862 207.222 128.015 208.19 128.167 209.151C128.213 209.443 128.259 209.733 128.29 210.021C128.794 214.616 125.349 218.91 121.173 220.892C117.236 222.76 112.768 223.023 108.397 223.158L107.378 223.188C104.883 223.253 102.181 223.196 100.277 221.603C98.3147 219.962 98.3169 216.068 100.78 215.38C107.034 213.634 111.805 207.54 111.999 201.05C112.056 199.132 113.3 197.536 114.503 195.993L114.503 195.993C114.565 195.912 114.628 195.832 114.69 195.753C114.735 195.694 114.78 195.636 114.825 195.578L115.089 195.233C116.435 193.447 117.541 190.988 116.411 189.059C114.66 191.305 111.38 192.211 108.725 191.182C107.617 190.752 106.635 190.034 105.66 189.321C104.354 188.366 103.058 187.419 101.485 187.182C98.4085 186.719 95.3569 189.834 95.8835 192.901C95.0506 192.202 93.758 193.26 93.6679 194.343C93.6149 194.98 93.7824 195.6 93.9506 196.222L93.9506 196.222C94.0686 196.659 94.1869 197.097 94.2298 197.543C94.2797 198.062 94.2265 198.582 94.1732 199.103C94.1372 199.454 94.1012 199.806 94.0969 200.159C94.0746 201.984 94.8879 203.674 95.6887 205.337L95.698 205.356C95.7431 205.45 95.7881 205.544 95.833 205.637C95.8655 205.705 95.8978 205.773 95.93 205.84L96.1443 206.297C97.0562 208.274 97.7325 210.627 96.7607 212.575C95.7889 214.523 92.481 215.134 91.5439 213.169C86.9508 203.537 76.5403 196.979 65.8694 196.995C53.5144 197.013 42.398 205.155 35.1169 215.137C34.2088 216.382 33.32 217.723 33.1221 219.251C32.9242 220.779 33.6333 222.533 35.087 223.044C36.5407 223.556 38.4257 222.126 37.952 220.66C38.6895 221.52 40.1979 220.706 40.5453 219.627C40.7405 219.021 40.7381 218.381 40.7357 217.74C40.7339 217.239 40.732 216.738 40.8239 216.25C41.2742 213.856 43.7364 212.473 45.9525 211.463L46.3994 211.259C51.6194 208.897 57.0579 206.788 62.7676 206.387C68.6404 205.975 74.9073 207.607 78.9432 211.893C73.4362 213.2 70.2381 218.725 67.6889 223.829L67.3353 224.541C64.7615 229.709 61.3903 235.348 55.7461 236.444C55.9606 237.558 56.9438 238.479 58.069 238.62L37.3771 250.922L38.9645 252.891C33.9265 260.613 28.2285 267.903 21.9531 274.657C18.5411 278.33 14.1107 282.135 9.17143 281.28C8.27827 281.126 7.41231 280.819 6.54935 280.514C5.28571 280.066 4.02849 279.621 2.70172 279.659C0.468894 279.723 -1.77187 282.439 -0.256243 284.08C3.10035 287.714 6.93135 290.909 11.1088 293.559L11.217 293.627C11.7255 293.943 12.2849 294.239 12.8745 294.172C13.4706 294.103 13.956 293.679 14.3993 293.275L42.4229 267.723C44.7181 265.647 47.2438 263.571 50.3012 263.265L50.5592 263.234C52.8205 262.92 54.6833 261.49 56.5515 260.056L56.5516 260.056C57.365 259.432 58.1794 258.807 59.0282 258.273C61.9001 256.466 66.6638 256.28 67.7808 259.484C68.3744 261.187 67.5974 262.919 66.8317 264.626C66.6035 265.135 66.3763 265.641 66.1867 266.144C65.3607 268.334 66.0375 271.703 68.3777 271.661L81.4745 271.43C81.9452 271.425 82.4409 271.451 82.8068 271.739C83.1899 272.04 83.3241 272.542 83.3978 273.033L83.4282 273.259C83.9214 277.27 83.8534 281.35 83.2267 285.343C82.5476 289.67 80.7405 294.429 76.658 296.015C74.083 297.016 71.2148 296.496 68.5027 295.875L52.0231 292.026C51.9956 290.03 53.801 288.405 55.7256 287.876C57.3575 287.428 59.0715 287.565 60.769 287.7L61.0816 287.725L61.6803 287.77C65.8509 288.056 70.0672 287.669 74.1158 286.627L68.274 272.008C68.8696 276.861 70.1823 281.626 72.1564 286.099L52.9522 286.723C51.28 286.769 49.4234 286.695 48.2993 285.475C48.0107 285.161 47.7702 284.776 47.5319 284.394C47.0424 283.61 46.5621 282.84 45.6931 282.739C44.9422 282.652 44.262 283.154 43.6869 283.644C39.9323 286.847 36.8149 290.793 34.5688 295.187C35.3786 297.192 38.0616 297.753 40.1459 297.178C41.3652 296.841 42.478 296.235 43.5931 295.627C44.3841 295.196 45.1763 294.765 46.0082 294.428C50.6505 292.552 55.7539 293.824 60.6563 295.3L63.5684 296.187C69.323 297.915 76.3395 298.802 80.6519 294.617C83.1966 292.149 84.1237 288.474 84.6275 284.965C86.0814 274.837 84.9028 264.343 81.2384 254.79C85.3241 253.214 87.2521 248.644 88.751 244.529L91.6863 236.471C92.667 233.779 94.895 230.475 97.5472 231.56C105.129 234.66 114.084 233.349 121.142 229.193C128.2 225.037 133.484 218.305 137.043 210.928L137.139 210.729C137.835 209.263 138.723 205.842 137.93 205.463C137.634 205.231 137.108 205.616 136.749 205.879C136.555 206.021 136.41 206.127 136.377 206.08C136.357 206.051 136.422 205.862 136.514 205.593C136.876 204.537 137.659 202.257 135.331 203.73ZM85.1598 248.964C84.2426 251.026 82.7249 253.453 80.4847 253.179C79.2852 253.033 78.3791 252.127 77.564 251.197L77.1272 250.691C72.3927 245.195 65.9609 241.542 59.4964 238.179L57.3427 237.067C62.6084 236.031 65.8568 230.824 68.1763 225.984L68.9155 224.442C71.0366 220.045 73.4499 215.52 77.8247 213.541C78.4294 213.267 79.1229 213.049 79.7465 213.277C79.841 213.311 79.943 213.35 80.0492 213.391C80.8191 213.687 81.8107 214.068 81.795 213.339C80.3912 212.773 80.1604 210.726 80.97 209.447C81.7093 208.279 82.9898 207.606 84.2577 207.025L84.6191 206.862C83.8103 205.746 82.0575 206.684 81.1417 207.713L81.0662 207.797C80.1472 208.805 78.7364 209.909 77.6757 209.09C73.2924 205.703 67.4506 204.616 61.9368 205.147C56.4231 205.679 51.1625 207.695 46.1254 210C44.2793 210.845 42.4041 211.766 41.034 213.264C39.9742 214.423 39.8643 215.966 39.7539 217.516C39.7216 217.97 39.6893 218.425 39.633 218.871C39.497 219.949 38.9039 219.99 38.3816 220.026C38.1016 220.046 37.842 220.064 37.6838 220.239C37.6711 220.253 37.6301 220.316 37.5685 220.411C37.2549 220.892 36.4062 222.196 36.0229 222.066C35.4599 221.875 35.747 220.66 35.747 220.66C35.747 220.66 34.0763 221.137 33.9519 220.66C33.5169 218.989 36.0229 215.57 36.0229 215.57C40.2364 209.372 46.4847 204.228 53.3542 201.239C60.351 198.194 68.5157 197.606 75.6683 200.264C83.7321 203.261 90.1175 210.421 92.176 218.774C92.6893 220.856 95.1116 221.775 97.2282 222.121C97.4273 222.154 97.6289 222.186 97.8318 222.217C99.7852 222.522 101.862 222.847 103.107 224.339C103.474 224.778 103.373 225.429 103.247 225.987L103.21 226.148C102.746 228.14 101.936 230.37 100 230.974C98.241 231.524 96.1567 230.105 96.0221 228.267C96.0103 228.105 96.0068 227.934 96.0032 227.761C95.9884 227.046 95.9728 226.294 95.373 225.999L85.1598 248.964ZM68.5248 259.857C67.867 256.477 65.8677 253.437 63.2446 251.206C63.3469 252.534 63.909 253.823 64.813 254.802C60.3678 256.215 56.1759 258.421 52.4939 261.285C51.5084 262.051 49.8343 262.75 49.2571 261.643C46.9863 257.288 43.3714 253.646 39.0336 251.342L56.8671 241.094C57.6731 240.631 58.5256 240.154 59.4552 240.145C60.1758 240.138 60.8604 240.414 61.5119 240.735L61.835 240.899C68.5086 244.336 74.4824 249.125 79.2892 254.891C80.4794 256.318 81.0333 258.146 81.5047 259.955L83.626 268.242C83.7664 268.791 83.8695 269.47 83.4394 269.839C83.1974 270.047 82.8567 270.083 82.5388 270.107L82.1669 270.136C76.8862 270.542 72.6258 270.87 67.3354 270.107C66.5459 268.594 67.1425 266.718 67.7584 264.781C68.2862 263.122 68.8283 261.417 68.5248 259.857ZM41.9945 254.761C43.9732 256.504 45.7571 258.468 47.3022 260.604C47.4675 260.833 47.6376 261.088 47.62 261.369C47.5994 261.698 47.3333 261.951 47.0856 262.167L24.0363 282.341C23.0752 283.182 21.542 283.035 20.4655 282.347C19.5235 281.746 18.85 280.824 18.2321 279.884L17.97 279.481C23.977 276.324 27.8304 270.669 31.718 264.964L31.7181 264.963L31.7182 264.963C34.1567 261.384 36.6086 257.786 39.6139 254.772C39.906 254.479 40.2356 254.176 40.6467 254.129C41.1552 254.072 41.6105 254.423 41.9945 254.761ZM109.117 198.491L109.705 198.671C110.852 199.026 111.042 200.561 110.896 201.752C110.292 206.682 107.228 211.562 102.503 213.094L102.334 213.151C99.255 214.238 97.0539 217.459 97.1854 220.726C95.1187 221.113 92.9029 219.46 92.6857 217.368C92.6424 216.951 92.7658 216.41 93.1802 216.346C95.0578 216.058 96.7849 214.905 97.772 213.282C98.7592 211.659 98.9881 209.596 98.3806 207.796C98.2565 207.428 98.0987 207.06 97.9408 206.691C97.4918 205.643 97.041 204.591 97.3565 203.535C98.0761 203.601 98.2126 204.588 98.1367 205.306L98.1285 205.394C98.0702 206.102 98.1953 207.011 98.8825 207.106C99.3357 206.066 99.4299 204.901 99.5234 203.745C99.6414 202.286 99.7583 200.84 100.595 199.677C101.552 198.348 103.269 197.737 104.906 197.718C106.34 197.701 107.741 198.073 109.117 198.491ZM5.5535 281.613L5.70131 281.442C6.52622 281.262 7.31395 282.318 6.90543 283.057C6.64331 283.532 7.44938 284.001 7.89944 283.699C8.3495 283.397 8.44029 282.785 8.48979 282.245C8.9426 282.103 9.3343 282.622 9.41977 283.089C9.44237 283.212 9.45638 283.34 9.47041 283.467C9.50945 283.823 9.54858 284.179 9.77288 284.447C10.0778 284.81 10.8855 284.622 10.753 284.167C10.5554 283.487 11.3583 282.932 12.0591 282.832C12.2271 282.808 12.4007 282.793 12.5747 282.779L12.5759 282.779C13.1269 282.734 13.6825 282.688 14.0836 282.33L14.1441 282.282C14.6532 281.921 15.2835 282.589 15.6677 283.182L15.8464 283.47C16.6913 284.783 18.1273 285.703 19.6756 285.913C19.9789 285.954 19.8246 286.427 19.6017 286.637L14.3765 291.558C14.1232 291.796 13.7128 291.627 13.4161 291.445C10.3145 289.546 7.45121 287.258 4.91459 284.652C4.11546 283.831 4.79319 282.521 5.5535 281.613ZM51.2484 290.772C51.0977 291.392 50.6693 292.087 50.0325 292.04C48.4977 291.926 46.9414 292.111 45.4759 292.581C45.6103 291.956 45.337 291.263 44.8122 290.898C44.4293 291.446 44.5859 292.295 45.139 292.67L43.678 294.113L42.9786 292.506C42.6338 292.598 42.6237 293.021 42.6475 293.409L42.6645 293.65C42.7345 294.667 41.8715 295.656 40.854 295.725C39.8365 295.794 38.8485 294.929 38.7812 293.912C38.7079 292.803 39.5569 291.873 40.3462 291.092L45.951 285.542C46.0702 285.429 46.2067 285.323 46.3677 285.326C46.5454 285.329 46.6896 285.464 46.8148 285.59L49.0018 287.797C49.426 288.225 49.158 288.88 48.8967 289.518C48.6278 290.175 48.3662 290.814 48.874 291.171C49.3684 291.199 49.78 290.77 49.9701 290.313C50.067 290.08 50.126 289.834 50.1849 289.587C50.2415 289.351 50.2981 289.114 50.3884 288.889C50.5727 288.429 50.9705 287.992 51.4656 288.002C51.9608 288.013 52.3428 288.72 51.9599 289.034C51.5517 289.369 51.4351 289.914 51.3218 290.443C51.2981 290.554 51.2745 290.664 51.2484 290.772ZM12.9272 293.226C7.88942 290.531 3.43632 286.75 -0.039505 282.215C0.416262 281.783 1.1017 282.242 1.54253 282.732L1.65167 282.86C4.95424 286.946 9.10186 290.347 13.7566 292.785C13.7188 293.152 13.253 293.4 12.9272 293.226ZM37.0877 292.194C39.2699 289.34 41.6879 286.666 44.3087 284.208C44.715 283.828 45.5589 283.571 45.6616 284.118C42.6104 287.031 39.6922 290.082 36.9189 293.261C36.6175 292.999 36.8453 292.511 37.0877 292.194ZM20.328 285.058C18.8052 284.516 17.4476 283.519 16.475 282.228C16.109 281.743 15.8781 280.899 16.4327 280.649C16.8709 280.452 17.292 280.866 17.5977 281.268L17.8268 281.58C18.8119 282.879 20.2168 283.857 21.7794 284.324C21.7822 284.741 21.4371 285.132 21.023 285.181C20.7872 285.208 20.5517 285.137 20.328 285.058ZM95.0557 200.6C95.7716 200.617 96.3777 201.363 96.2477 202.067L96.2645 202.077C96.3635 202.588 96.2984 203.129 96.081 203.601C95.2981 202.833 94.9061 201.686 95.0557 200.6ZM108.694 200.617C108.784 200.609 108.879 200.601 108.976 200.6C109.097 200.598 109.236 200.62 109.367 200.64L109.367 200.64C109.722 200.695 110.018 200.741 109.738 200.302C109.354 199.701 108.231 199.634 108.046 200.323C108.098 200.67 108.366 200.646 108.694 200.617ZM109.598 203.59L109.615 203.528C109.888 202.493 109.73 201.676 108.976 201.676C108.685 201.698 108.241 203.18 108.283 203.629C108.326 204.078 108.832 204.494 109.224 204.271C109.456 204.138 109.531 203.851 109.598 203.59ZM104.625 203.276C104.1 202.546 104.045 201.506 104.49 200.725C104.556 200.608 104.637 200.493 104.753 200.427C105.048 200.258 105.443 200.487 105.573 200.801C105.703 201.115 105.646 201.471 105.587 201.806C105.587 201.806 105.151 204.006 104.625 203.276ZM215.966 203.297C206.364 200.942 196.334 200.346 186.521 201.55C188.224 197.582 188.972 193.208 188.683 188.9C186.126 190.692 181.928 188.59 181.831 185.469C181.734 182.348 185.794 179.989 188.457 181.619C189.163 182.051 189.939 181.155 190.221 180.377C191.183 177.727 191.192 174.742 190.247 172.085C189.879 171.051 191.441 170.49 192.539 170.511L201.857 170.696C202.482 170.708 203.147 170.711 203.681 170.385C204.216 170.059 204.519 169.275 204.126 168.788C202.514 166.787 204.367 163.207 206.932 163.368C209.496 163.529 210.887 167.313 209.037 169.097C208.692 169.429 209.362 169.857 209.842 169.868L222.025 170.149C224.448 170.205 226.161 172.786 226.26 175.208C226.343 177.257 225.616 179.22 224.897 181.159C224.834 181.328 224.771 181.497 224.709 181.665L224.511 182.214C222.353 188.269 221.658 194.84 222.502 201.212C222.667 202.456 221.523 203.562 220.298 203.831C219.217 204.068 218.104 203.833 217.022 203.562L215.966 203.297Z" fill="#00160A"/>
<path fill-rule="evenodd" clip-rule="evenodd" d="M86.1 91.7801C86.1887 91.2058 86.954 90.8741 87.5071 91.0712C88.0603 91.2684 88.5541 92.0616 88.1488 92.5103C87.5071 93.2206 85.9278 92.8946 86.1 91.7801Z" fill="#FFB61D"/>
<path fill-rule="evenodd" clip-rule="evenodd" d="M326.873 240.491C326.511 240.794 325.786 240.904 325.719 240.437C327.13 239.001 328.101 237.138 328.469 235.158C328.93 235.035 329.063 235.769 328.947 236.231C328.558 237.791 328.104 239.457 326.873 240.491Z" fill="#00160A"/>
<path d="M15.3274 69.4281C15.3131 69.8909 14.611 69.8639 14.1864 69.6791C14.3392 69.2661 14.9588 69.1279 15.2727 69.4368L15.3274 69.4281Z" fill="black"/>
<path fill-rule="evenodd" clip-rule="evenodd" d="M215.68 196.584C215.191 197.019 214.367 196.354 214.44 195.703C214.513 195.052 215.089 194.587 215.642 194.236C217.625 192.98 219.92 192.224 222.261 192.055C222.324 192.947 221.167 193.316 220.289 193.487C218.425 193.85 216.65 194.658 215.152 195.823C215.423 195.989 215.619 196.272 215.68 196.584V196.584Z" fill="#00160A"/>
<path fill-rule="evenodd" clip-rule="evenodd" d="M222.327 197.723C221.229 198.252 220.111 198.742 218.977 199.19C219.106 199.669 219.793 199.653 220.26 199.485C220.726 199.316 221.339 199.14 221.641 199.532C220.874 200.703 218.974 200.885 217.999 199.882C217.575 199.446 216.807 199.733 216.259 199.469C215.475 199.09 215.621 197.906 216.083 197.168C217.046 195.627 218.884 194.677 220.698 194.781C221.389 194.821 222.214 195.162 222.26 195.852C220.093 195.716 217.884 196.61 216.421 198.214C217.252 198.857 218.444 198.377 219.382 197.902C220.319 197.427 221.557 197.008 222.327 197.723Z" fill="#00160A"/>
<path fill-rule="evenodd" clip-rule="evenodd" d="M106.965 203.87C107.587 204.492 107.845 204.777 107.845 205.692C107.845 206.608 107.348 207.195 106.51 207.464C106.124 207.588 105.589 207.493 105.489 207.1C108.281 206.529 107.255 205.312 106.965 203.87Z" fill="#00160A"/>
<path fill-rule="evenodd" clip-rule="evenodd" d="M103.239 199.976C103.537 198.988 104.833 198.454 105.74 198.946C106.099 199.14 106.397 199.494 106.416 199.902C105.357 199.926 104.485 199.242 103.239 199.976Z" fill="#00160A"/>
<path fill-rule="evenodd" clip-rule="evenodd" d="M105.774 208.799C99.8673 205.52 104.492 209.722 105.774 208.799V208.799Z" fill="#00160A"/>
</svg>
